<?xml version="1.0" encoding="utf-8"?>
<!-- Generator: Adobe Illustrator 19.2.1, SVG Export Plug-In . SVG Version: 6.00 Build 0)  -->
<svg version="1.1" id="Calque_1" xmlns="http://www.w3.org/2000/svg" xmlns:xlink="http://www.w3.org/1999/xlink" x="0px" y="0px"
	 viewBox="0 0 394 149" style="enable-background:new 0 0 394 149;" xml:space="preserve">
<style type="text/css">
	.st0{clip-path:url(#SVGID_2_);}
	.st1{clip-path:url(#SVGID_4_);}
	.st2{clip-path:url(#SVGID_6_);}
</style>
<g>
	<g>
		<defs>
			<rect id="SVGID_1_" x="3" y="3.6" width="387" height="143"/>
		</defs>
		<clipPath id="SVGID_2_">
			<use xlink:href="#SVGID_1_"  style="overflow:visible;"/>
		</clipPath>
		<path class="st0" d="M368,118.3c0.2,0.6,0.5,1.1,0.9,1.5s0.9,0.8,1.4,1s1.1,0.4,1.8,0.4c0.4,0,0.9-0.1,1.3-0.2
			c0.4-0.1,0.8-0.3,1.2-0.6s0.6-0.6,0.8-0.9c0.2-0.4,0.3-0.8,0.3-1.3s-0.2-1-0.5-1.4s-0.8-0.6-1.4-0.6c-0.5,0-0.9,0.1-1.2,0.4
			c-0.4,0.2-0.5,0.6-0.5,1.1v0.4c-0.8-0.4-1.1-1-1.1-1.9c0-1,0.3-1.8,0.9-2.5c0.6-0.7,1.3-1.3,2.1-1.7c0.7-0.4,1.5-0.7,2.4-0.9
			c0.9-0.2,1.7-0.3,2.5-0.3s1.7,0.1,2.6,0.3s1.7,0.5,2.3,0.9c0.7,0.4,1.3,1,1.7,1.7c0.5,0.7,0.7,1.5,0.7,2.5c0,0.8-0.1,1.5-0.4,2.1
			c-0.3,0.6-0.7,1.1-1.2,1.5s-1,0.8-1.6,1.1s-1.2,0.7-1.9,1c-0.8,0.4-1.6,0.9-2.3,1.3c-0.7,0.5-1.4,1-1.9,1.6c-0.6,0.6-1,1.2-1.3,2
			s-0.5,1.6-0.5,2.6c0,0.7,0.1,1.2,0.4,1.6c0.3,0.4,0.8,0.6,1.5,0.6c0.8,0,1.2-0.2,1.4-0.7s0.2-1,0.2-1.6c0-0.7,0.1-1.3,0.4-1.8
			c0.2-0.5,0.6-0.9,1-1.3c0.4-0.3,0.9-0.7,1.5-0.9c0.5-0.3,1.1-0.5,1.7-0.8c0.9-0.4,1.8-0.8,2.6-1.3s1.5-1,2.1-1.7
			c0.6-0.6,1.1-1.4,1.5-2.2c0.4-0.8,0.5-1.8,0.5-2.9c0-1.4-0.3-2.6-1-3.8s-1.6-2.1-2.7-2.8c-1-0.6-2.2-1.1-3.5-1.4s-2.6-0.4-3.8-0.4
			c-1.3,0-2.6,0.2-4,0.5s-2.6,0.8-3.7,1.6c-1.1,0.8-2,1.7-2.6,2.8c-0.7,1.1-1,2.3-1,3.7C367.7,117.1,367.8,117.7,368,118.3
			 M375.4,134.1c-0.6,0.6-0.8,1.2-0.8,2s0.3,1.4,0.8,2c0.6,0.6,1.2,0.8,2,0.8s1.4-0.3,2-0.8c0.6-0.6,0.8-1.2,0.8-2s-0.3-1.4-0.8-2
			c-0.6-0.5-1.2-0.8-2-0.8C376.7,133.3,376,133.6,375.4,134.1 M344.1,132.5c0,0.8,0,1.4-0.1,1.8c0,0.5-0.1,0.8-0.2,1.1
			c-0.1,0.3-0.2,0.4-0.4,0.5s-0.4,0.2-0.6,0.2c-0.4,0-0.7,0-1-0.1s-0.6-0.1-1-0.1s-0.8,0.1-1.1,0.4s-0.4,0.6-0.4,1
			c0,0.5,0.2,0.9,0.6,1.2c0.4,0.3,0.9,0.4,1.3,0.4c0.4,0,0.8,0,1.2-0.1c0.4,0,0.7-0.1,1.1-0.2c0.3-0.1,0.7-0.1,1.1-0.2
			c0.4,0,0.8-0.1,1.2-0.1c0.9,0,1.7,0.1,2.3,0.2c0.7,0.2,1.4,0.2,2.1,0.2c0.5,0,0.9-0.1,1.3-0.4c0.4-0.3,0.6-0.7,0.6-1.2
			c0-0.4-0.1-0.7-0.4-1c-0.3-0.3-0.6-0.4-1.1-0.4c-0.3,0-0.6,0-1,0.1c-0.3,0.1-0.7,0.1-1,0.1c-0.2,0-0.4,0-0.5-0.1
			c-0.2-0.1-0.3-0.3-0.4-0.5c-0.1-0.3-0.2-0.6-0.3-1.1s-0.1-1.1-0.1-1.9v-5.8c0-1.6,0.1-2.9,0.4-3.9c0.3-1.1,0.6-1.9,1.1-2.5
			s1.1-1.1,1.7-1.3c0.7-0.3,1.4-0.4,2.3-0.4c0.4,0,0.9,0.1,1.4,0.2s0.9,0.3,1.2,0.6c0.4,0.3,0.7,0.6,0.9,1s0.4,0.8,0.4,1.3
			c0,0.3-0.1,0.7-0.3,1c-0.1,0-0.2-0.1-0.3-0.1s-0.2,0-0.3,0c-0.5,0-0.9,0.2-1.3,0.6c-0.3,0.4-0.5,0.8-0.5,1.3
			c0,0.6,0.2,1.1,0.7,1.5s1,0.6,1.6,0.6c0.7,0,1.2-0.1,1.7-0.4s0.8-0.6,1.1-1s0.5-0.9,0.6-1.4s0.2-1.1,0.2-1.6c0-1-0.2-1.9-0.6-2.6
			c-0.4-0.8-0.9-1.4-1.5-1.9s-1.4-0.9-2.2-1.2c-0.9-0.3-1.7-0.4-2.6-0.4c-1.3,0-2.5,0.3-3.5,0.8c-1.1,0.5-1.9,1.4-2.6,2.5h0.1
			c0-0.9,0-1.5-0.2-2c-0.1-0.4-0.5-0.7-1.1-0.7c-0.4,0-0.8,0.1-1.1,0.2c-0.3,0.2-0.8,0.2-1.3,0.2s-1-0.1-1.3-0.2
			c-0.4-0.2-0.8-0.2-1.2-0.2c-0.5,0-0.9,0.1-1.3,0.4c-0.4,0.3-0.6,0.7-0.6,1.2c0,0.4,0.1,0.7,0.4,1c0.3,0.3,0.6,0.4,1.1,0.4
			c0.6,0,1,0,1.4-0.1s0.7-0.1,1.1-0.1c0.5,0,0.8,0.2,1,0.7s0.3,1.5,0.3,2.9v9.6H344.1z M334.5,128.1c0.5,0,0.9,0,1.2-0.1
			c0.3,0,0.5-0.1,0.6-0.3c0.1-0.2,0.2-0.4,0.2-0.7c0-0.3,0-0.7,0-1.3c0-1.4-0.2-2.8-0.7-4s-1.2-2.3-2-3.2c-0.9-0.9-1.9-1.6-3.1-2.1
			c-1.2-0.5-2.5-0.8-4-0.8c-1.6,0-3,0.3-4.4,1s-2.6,1.6-3.6,2.8c-0.9,1.2-1.6,2.5-2,4s-0.6,3-0.6,4.5c0,1.6,0.2,3.1,0.7,4.5
			c0.4,1.4,1.1,2.6,2,3.7c0.9,1,2,1.9,3.2,2.5c1.3,0.6,2.8,0.9,4.5,0.9c1.2,0,2.5-0.2,3.8-0.6s2.4-1,3.3-1.9
			c0.6-0.6,1.2-1.3,1.8-2.3c0.5-0.9,0.8-1.8,0.8-2.7c0-0.5-0.2-0.9-0.5-1.2c-0.3-0.3-0.7-0.5-1.2-0.5c-0.6,0-1,0.2-1.2,0.6
			s-0.4,0.8-0.5,1.3c-0.4,1.4-1.1,2.5-2.2,3.2c-1.1,0.7-2.3,1.1-3.8,1.1c-1.2,0-2.2-0.2-3.1-0.7c-0.9-0.5-1.6-1.1-2.2-1.9
			c-0.6-0.8-1-1.7-1.3-2.7s-0.4-2.1-0.3-3.2h14.6V128.1z M320.1,124.9c0.1-0.9,0.3-1.7,0.7-2.5c0.3-0.8,0.8-1.4,1.4-2
			c0.6-0.5,1.3-1,2.1-1.3s1.6-0.5,2.6-0.5s1.8,0.2,2.5,0.5s1.4,0.8,1.9,1.3c0.5,0.6,0.9,1.2,1.2,2s0.4,1.6,0.5,2.5H320.1z
			 M301.5,135.7c-0.9-0.5-1.5-1.2-2.1-2.1c-0.5-0.9-0.9-1.8-1.1-2.9c-0.2-1.1-0.3-2.1-0.3-3.2s0.1-2.1,0.4-3.2
			c0.3-1.1,0.7-2,1.2-2.9c0.6-0.9,1.3-1.6,2.2-2.1s1.9-0.8,3.2-0.8c0.5,0,1,0.1,1.6,0.2c0.5,0.1,1.1,0.4,1.5,0.6
			c0.5,0.3,0.9,0.6,1.2,1.1c0.3,0.4,0.5,0.9,0.5,1.5c-0.6,0-1.1,0.2-1.6,0.5s-0.7,0.8-0.7,1.5s0.3,1.3,0.8,1.7s1.1,0.7,1.8,0.7
			c0.6,0,1-0.1,1.5-0.3c0.4-0.2,0.8-0.5,1-0.9c0.3-0.4,0.5-0.8,0.6-1.3s0.2-1,0.2-1.5c0-1-0.3-2-0.8-2.9c-0.6-0.9-1.2-1.7-2.1-2.3
			c-0.8-0.5-1.6-0.9-2.5-1.2c-0.9-0.3-1.8-0.4-2.7-0.4c-1.8,0-3.4,0.3-4.7,1s-2.4,1.5-3.3,2.7c-0.9,1.1-1.5,2.4-2,3.9
			c-0.4,1.5-0.7,3.1-0.7,4.8c0,1.5,0.2,3,0.7,4.4c0.4,1.4,1.1,2.6,1.9,3.7c0.8,1.1,1.9,1.9,3.2,2.5s2.7,0.9,4.4,0.9
			c1.3,0,2.6-0.2,3.8-0.7s2.3-1.2,3.2-2.2c0.3-0.3,0.6-0.7,0.8-1.1c0.3-0.4,0.5-0.9,0.8-1.4c0.2-0.5,0.4-1,0.6-1.5
			c0.1-0.5,0.2-1,0.2-1.4c0-0.5-0.2-0.9-0.5-1.2c-0.3-0.3-0.7-0.5-1.2-0.5c-0.4,0-0.7,0.1-0.9,0.3c-0.2,0.2-0.4,0.4-0.5,0.7
			c-0.1,0.3-0.2,0.6-0.3,0.9s-0.2,0.6-0.2,0.9c-0.3,1.3-1,2.3-2,3.1s-2.1,1.1-3.5,1.1C303.4,136.5,302.3,136.3,301.5,135.7
			 M286.4,124c0-1.3-0.1-2.5-0.4-3.7c-0.3-1.1-1-2.1-2-3c-0.8-0.6-1.8-1.1-2.9-1.3c-1.1-0.3-2.1-0.4-3.1-0.4s-2,0.1-3,0.4
			s-2,0.7-2.7,1.2c-0.8,0.5-1.4,1.2-1.9,1.9c-0.5,0.8-0.8,1.6-0.8,2.5c0,0.8,0.3,1.4,0.8,2c0.5,0.5,1.2,0.8,1.9,0.8
			c0.6,0,1.2-0.2,1.6-0.5c0.5-0.3,0.7-0.9,0.7-1.5c0-0.4-0.1-0.7-0.2-0.9c-0.1-0.2-0.2-0.4-0.4-0.5c-0.1-0.1-0.2-0.2-0.3-0.2
			s-0.2-0.1-0.2-0.2c0-0.2,0.1-0.4,0.4-0.7c0.2-0.2,0.5-0.4,0.6-0.5c0.5-0.3,1-0.5,1.6-0.7s1.2-0.3,1.7-0.3c0.6,0,1.3,0.1,1.8,0.2
			c0.6,0.1,1.1,0.3,1.6,0.7c0.4,0.3,0.8,0.7,1.1,1.2s0.4,1.1,0.4,1.8c0,0.8-0.2,1.4-0.6,1.9c-0.4,0.4-0.9,0.8-1.5,1s-1.2,0.3-2,0.4
			c-0.7,0.1-1.4,0.1-2,0.2c-1.1,0.1-2.1,0.3-3,0.5s-1.9,0.5-2.8,1.1c-1,0.6-1.8,1.3-2.2,2.3c-0.5,0.9-0.7,2-0.7,3.2
			c0,1.1,0.3,2.1,0.8,3s1.2,1.6,2.1,2.2c0.8,0.5,1.6,0.8,2.5,1s1.8,0.3,2.7,0.3c1.4,0,2.7-0.2,4-0.7s2.3-1.3,3-2.6
			c0.2,1.1,0.8,1.9,1.6,2.4s1.8,0.7,2.8,0.7c0.7,0,1.4-0.1,2.1-0.3c0.7-0.2,1.3-0.6,1.7-1.2c0.5-0.6,0.7-1.3,0.8-2.2
			c0.1-0.9,0.1-2.1,0.1-3.8c0-0.5-0.1-0.9-0.3-1.3c-0.2-0.3-0.6-0.5-1.2-0.5c-0.4,0-0.7,0.1-0.9,0.2c-0.2,0.2-0.3,0.4-0.4,0.6
			c-0.1,0.2-0.1,0.5-0.1,0.8v0.9c0,0.3,0,0.7,0,1.2s0,0.9-0.1,1.3s-0.2,0.8-0.5,1.1c-0.2,0.3-0.6,0.5-1,0.5c-0.5,0-0.9-0.2-1.2-0.5
			c-0.2-0.4-0.4-0.8-0.5-1.3s-0.1-1-0.1-1.6c0-0.5,0-1,0-1.3L286.4,124z M272.2,131.1c0.3-0.5,0.7-0.8,1.2-1.1s1-0.5,1.6-0.6
			s1.2-0.2,1.8-0.3c0.5-0.1,1.1-0.1,1.6-0.2s1.1-0.1,1.6-0.3c0.5-0.1,1-0.3,1.5-0.5s0.9-0.5,1.3-0.9c0,0.5-0.1,0.9-0.1,1.4
			s0,0.9,0,1.4c0,0.8-0.1,1.5-0.2,2.2c-0.1,0.7-0.4,1.4-0.9,2c-0.7,0.8-1.5,1.4-2.5,1.8s-2,0.5-3,0.5c-0.6,0-1.1-0.1-1.7-0.2
			c-0.5-0.1-1-0.3-1.4-0.7c-0.4-0.3-0.8-0.7-1-1.1c-0.3-0.5-0.4-1-0.4-1.7C271.7,132.1,271.9,131.5,272.2,131.1 M258.7,132.5
			c0,1.2-0.1,2.2-0.2,2.8c-0.2,0.6-0.5,0.9-1,0.9c-0.4,0-0.7,0-1-0.1s-0.6-0.1-1-0.1s-0.8,0.1-1.1,0.4s-0.4,0.6-0.4,1
			c0,0.5,0.2,0.9,0.6,1.2c0.4,0.3,0.8,0.4,1.3,0.4c0.4,0,0.7,0,1.1-0.1c0.3,0,0.7-0.1,1-0.2s0.7-0.1,1.1-0.2c0.4,0,0.9-0.1,1.3-0.1
			c0.5,0,1,0,1.4,0.1c0.4,0,0.8,0.1,1.1,0.2s0.7,0.1,1,0.2c0.3,0,0.6,0.1,1,0.1c0.5,0,0.9-0.1,1.3-0.4c0.4-0.3,0.6-0.7,0.6-1.2
			c0-0.4-0.1-0.7-0.4-1c-0.3-0.3-0.6-0.4-1.1-0.4c-0.3,0-0.6,0-1,0.1c-0.3,0.1-0.7,0.1-1,0.1c-0.2,0-0.3,0-0.5-0.1s-0.3-0.3-0.4-0.5
			c-0.1-0.3-0.2-0.6-0.3-1.1s-0.1-1.1-0.1-1.9v-21.9c0-0.8-0.1-1.4-0.2-1.7c-0.1-0.4-0.5-0.5-1-0.5c-0.4,0-0.8,0.1-1.1,0.2
			c-0.3,0.2-0.7,0.2-1.3,0.2c-0.4,0-0.9-0.1-1.3-0.2c-0.4-0.2-1-0.2-1.6-0.2c-0.5,0-1,0.1-1.4,0.4s-0.6,0.7-0.6,1.2
			c0,0.4,0.1,0.7,0.4,1c0.3,0.3,0.6,0.4,1.1,0.4s0.9,0,1.3-0.1c0.4-0.1,0.7-0.1,1.1-0.1c0.1,0,0.3,0,0.5,0.1c0.2,0,0.3,0.2,0.4,0.4
			c0.1,0.2,0.2,0.6,0.3,1.1s0.1,1.2,0.1,2.1L258.7,132.5L258.7,132.5z M231.3,140.2c0,1.4-0.1,2.3-0.3,2.9c-0.2,0.5-0.5,0.8-1,0.8
			c-0.4,0-0.7,0-1-0.1s-0.6-0.1-1-0.1s-0.8,0.1-1.1,0.4s-0.4,0.6-0.4,1c0,0.5,0.2,0.9,0.6,1.2c0.4,0.3,0.8,0.4,1.3,0.4
			c0.7,0,1.4-0.1,2.1-0.2c0.7-0.2,1.5-0.2,2.3-0.2s1.5,0.1,2.3,0.2c0.8,0.2,1.5,0.2,2.3,0.2c0.5,0,0.9-0.1,1.3-0.4
			c0.4-0.3,0.6-0.7,0.6-1.2c0-0.4-0.1-0.7-0.4-1c-0.3-0.3-0.6-0.4-1.1-0.4c-0.3,0-0.6,0-1,0.1c-0.3,0.1-0.7,0.1-1,0.1
			c-0.4,0-0.7-0.2-0.9-0.7s-0.3-1.4-0.3-2.9v-3.4h0.1c0.6,0.9,1.5,1.6,2.6,2s2.2,0.7,3.4,0.7c1.6,0,3.2-0.3,4.6-1
			c1.5-0.7,2.6-1.7,3.6-3.1c0.8-1.1,1.3-2.4,1.7-4c0.3-1.5,0.5-2.9,0.5-4.3c0-1.6-0.2-3.1-0.6-4.5c-0.4-1.4-1-2.6-1.8-3.6
			s-1.9-1.8-3.1-2.4s-2.7-0.9-4.4-0.9c-1.3,0-2.6,0.3-3.8,0.8c-1.2,0.6-2.2,1.4-2.9,2.6h-0.1v-1.4c0-0.5-0.1-0.8-0.3-1
			s-0.5-0.3-0.8-0.3c-0.4,0-0.8,0.1-1.2,0.2c-0.4,0.2-0.8,0.2-1.2,0.2s-0.9-0.1-1.3-0.2c-0.4-0.2-0.8-0.2-1.1-0.2
			c-0.5,0-0.9,0.1-1.3,0.4c-0.4,0.3-0.6,0.7-0.6,1.2c0,0.4,0.1,0.7,0.4,1c0.3,0.3,0.6,0.4,1.1,0.4c0.3,0,0.6,0,1-0.1
			c0.3-0.1,0.7-0.1,1-0.1c0.5,0,0.9,0.3,1,0.8c0.2,0.6,0.2,1.5,0.2,2.8L231.3,140.2L231.3,140.2z M244.4,119.4c0.8,0.5,1.5,1.2,2,2
			s0.8,1.8,1,2.9s0.3,2.1,0.3,3.2c0,1.2-0.1,2.3-0.3,3.4s-0.6,2.1-1.1,2.9c-0.5,0.9-1.3,1.5-2.2,2s-2,0.8-3.4,0.8
			c-1,0-1.9-0.2-2.7-0.5c-0.8-0.4-1.5-1-2.1-1.8s-0.9-1.7-1-2.6s-0.2-1.9-0.2-2.9c0-1.6,0.1-2.9,0.2-3.8c0.1-0.9,0.3-1.8,0.6-2.6
			c0.2-0.6,0.5-1.1,0.9-1.6c0.4-0.4,0.8-0.8,1.4-1.1c0.5-0.3,1.1-0.5,1.7-0.7c0.6-0.1,1.2-0.2,1.8-0.2
			C242.5,118.6,243.5,118.9,244.4,119.4 M222.2,128.1c0.5,0,0.9,0,1.2-0.1c0.3,0,0.5-0.1,0.6-0.3c0.1-0.2,0.2-0.4,0.2-0.7
			c0-0.3,0-0.7,0-1.3c0-1.4-0.2-2.8-0.7-4s-1.2-2.3-2-3.2c-0.9-0.9-1.9-1.6-3.1-2.1c-1.2-0.5-2.5-0.8-4-0.8c-1.6,0-3,0.3-4.4,1
			s-2.6,1.6-3.6,2.8c-0.9,1.2-1.6,2.5-2,4s-0.6,3-0.6,4.5c0,1.6,0.2,3.1,0.7,4.5c0.4,1.4,1.1,2.6,2,3.7c0.9,1,2,1.9,3.2,2.5
			c1.3,0.6,2.8,0.9,4.5,0.9c1.2,0,2.5-0.2,3.8-0.6s2.4-1,3.3-1.9c0.6-0.6,1.2-1.3,1.8-2.3c0.5-0.9,0.8-1.8,0.8-2.7
			c0-0.5-0.2-0.9-0.5-1.2c-0.3-0.3-0.7-0.5-1.2-0.5c-0.6,0-1,0.2-1.2,0.6s-0.4,0.8-0.5,1.3c-0.4,1.4-1.1,2.5-2.2,3.2
			c-1.1,0.7-2.3,1.1-3.8,1.1c-1.2,0-2.2-0.2-3.1-0.7c-0.9-0.5-1.6-1.1-2.2-1.9c-0.6-0.8-1-1.7-1.3-2.7s-0.4-2.1-0.3-3.2h14.6V128.1z
			 M207.9,124.9c0.1-0.9,0.3-1.7,0.7-2.5c0.3-0.8,0.8-1.4,1.4-2c0.6-0.5,1.3-1,2.1-1.3s1.6-0.5,2.6-0.5s1.8,0.2,2.5,0.5
			s1.4,0.8,1.9,1.3c0.5,0.6,0.9,1.2,1.2,2s0.4,1.6,0.5,2.5H207.9z M218,111.3c0.4-0.2,0.8-0.4,1.2-0.7c0.3-0.3,0.5-0.7,0.5-1.2
			s-0.2-1-0.6-1.5c-0.4-0.4-0.8-0.6-1.4-0.6c-0.4,0-0.7,0.1-1,0.3c-0.3,0.2-0.6,0.4-0.8,0.7l-4.6,4c-0.2,0.1-0.3,0.3-0.5,0.5
			s-0.3,0.4-0.3,0.7c0,0.1,0.1,0.3,0.2,0.3s0.2,0.1,0.4,0.1s0.3,0,0.5-0.1s0.3-0.1,0.5-0.2L218,111.3z M197.8,110.1
			c0-0.8-0.1-1.3-0.2-1.5c-0.1-0.2-0.3-0.4-0.5-0.4c-0.4,0-0.8,0.1-1.2,0.2c-0.4,0.2-0.8,0.2-1.4,0.2c-0.6,0-1.1-0.1-1.5-0.2
			c-0.4-0.2-0.9-0.2-1.5-0.2c-0.4,0-0.8,0.1-1.1,0.4s-0.5,0.7-0.5,1.2c0,0.4,0.1,0.7,0.4,1s0.6,0.4,1.1,0.4c0.3,0,0.6,0,1-0.1
			c0.3-0.1,0.7-0.1,1-0.1c0.2,0,0.4,0,0.5,0.1c0.2,0.1,0.3,0.2,0.4,0.5c0.1,0.3,0.2,0.6,0.2,1.1c0.1,0.5,0.1,1.1,0.1,1.9v4.2h-0.1
			c-0.8-1.2-1.7-2.1-2.9-2.5c-1.2-0.5-2.5-0.7-3.8-0.7c-1.7,0-3.1,0.3-4.4,1c-1.2,0.7-2.3,1.5-3.1,2.6s-1.4,2.3-1.8,3.8
			c-0.4,1.4-0.6,2.9-0.6,4.4c0,1.6,0.2,3.1,0.6,4.5c0.4,1.5,1,2.7,1.9,3.9c0.8,1.1,1.9,2,3.2,2.7s2.8,1,4.5,1c1.3,0,2.5-0.2,3.8-0.7
			s2.2-1.3,2.9-2.4h0.1v0.4c0,0.8,0.1,1.4,0.3,1.7c0.2,0.3,0.6,0.4,1.2,0.4c0.3,0,0.5,0,0.7-0.1c0.2,0,0.4-0.1,0.5-0.2
			c0.2-0.1,0.3-0.1,0.5-0.2c0.2,0,0.4-0.1,0.6-0.1c0.5,0,0.9,0.1,1.3,0.2c0.4,0.2,0.8,0.2,1.2,0.2s0.7-0.1,1-0.4s0.4-0.7,0.4-1.2
			c0-0.4-0.1-0.7-0.4-1c-0.3-0.3-0.6-0.4-1.1-0.4c-0.3,0-0.6,0-1,0.1c-0.3,0.1-0.7,0.1-1,0.1c-0.5,0-0.8-0.2-1-0.7s-0.3-1.4-0.3-3
			L197.8,110.1L197.8,110.1z M190.8,119.2c0.9,0.4,1.6,1,2.3,1.9c0.6,0.9,1,1.9,1.2,3c0.1,1.1,0.2,2.2,0.2,3.3c0,1-0.1,2.1-0.2,3.2
			c-0.1,1.1-0.4,2.1-0.8,3c-0.5,1-1.2,1.8-2.2,2.3s-2,0.7-3.1,0.7c-1.2,0-2.2-0.3-3.1-0.8s-1.5-1.2-2.1-2s-1-1.8-1.2-2.8
			c-0.2-1.1-0.4-2.1-0.4-3.2c0-1,0.1-2.1,0.3-3.2s0.6-2,1.1-2.9s1.2-1.6,2-2.1s1.9-0.8,3.1-0.8C188.9,118.6,189.9,118.8,190.8,119.2
			 M156.1,128.1c0.5,0,0.9,0,1.2-0.1c0.3,0,0.5-0.1,0.6-0.3c0.1-0.2,0.2-0.4,0.2-0.7c0-0.3,0-0.7,0-1.3c0-1.4-0.2-2.8-0.7-4
			s-1.2-2.3-2-3.2c-0.9-0.9-1.9-1.6-3.1-2.1c-1.2-0.5-2.5-0.8-4-0.8c-1.6,0-3,0.3-4.4,1s-2.6,1.6-3.6,2.8c-0.9,1.2-1.6,2.5-2,4
			s-0.6,3-0.6,4.5c0,1.6,0.2,3.1,0.7,4.5c0.4,1.4,1.1,2.6,2,3.7c0.9,1,2,1.9,3.2,2.5c1.3,0.6,2.8,0.9,4.5,0.9c1.2,0,2.5-0.2,3.8-0.6
			s2.4-1,3.3-1.9c0.6-0.6,1.2-1.3,1.8-2.3c0.5-0.9,0.8-1.8,0.8-2.7c0-0.5-0.2-0.9-0.5-1.2c-0.3-0.3-0.7-0.5-1.2-0.5
			c-0.6,0-1,0.2-1.2,0.6s-0.4,0.8-0.5,1.3c-0.4,1.4-1.1,2.5-2.2,3.2c-1.1,0.7-2.3,1.1-3.8,1.1c-1.2,0-2.2-0.2-3.1-0.7
			c-0.9-0.5-1.6-1.1-2.2-1.9c-0.6-0.8-1-1.7-1.3-2.7s-0.4-2.1-0.3-3.2h14.6V128.1z M141.8,124.9c0.1-0.9,0.3-1.7,0.7-2.5
			c0.3-0.8,0.8-1.4,1.4-2c0.6-0.5,1.3-1,2.1-1.3s1.6-0.5,2.6-0.5s1.8,0.2,2.5,0.5s1.4,0.8,1.9,1.3c0.5,0.6,0.9,1.2,1.2,2
			s0.4,1.6,0.5,2.5H141.8z M127.6,132.4c0,1.4-0.1,2.4-0.2,2.9c-0.1,0.5-0.5,0.8-1,0.8c-0.4,0-0.7,0-1-0.1s-0.6-0.1-1-0.1
			s-0.8,0.1-1.1,0.4s-0.4,0.6-0.4,1c0,1.1,0.6,1.6,1.9,1.6c0.8,0,1.5-0.1,2.1-0.2c0.6-0.2,1.5-0.2,2.5-0.2s1.8,0.1,2.4,0.2
			c0.6,0.2,1.3,0.2,2,0.2c1.2,0,1.9-0.5,1.9-1.6c0-0.4-0.1-0.7-0.4-1c-0.3-0.3-0.6-0.4-1.1-0.4c-0.3,0-0.6,0-1,0.1
			c-0.3,0.1-0.7,0.1-1,0.1c-0.5,0-0.8-0.3-1-0.8c-0.2-0.6-0.3-1.5-0.3-2.8v-7.2c0-1.3-0.1-2.6-0.2-3.7c-0.1-1.1-0.7-2.3-1.5-3.4
			c-0.8-1-1.7-1.6-2.9-1.9s-2.4-0.5-3.6-0.5c-1.4,0-2.7,0.2-3.9,0.7s-2.2,1.3-3,2.5c-0.7-1.1-1.6-1.9-2.7-2.5
			c-1.1-0.5-2.4-0.8-3.7-0.8c-1.4,0-2.6,0.3-3.6,0.8s-2,1.3-2.8,2.4h-0.1c0-0.8,0-1.5-0.1-1.9s-0.4-0.7-0.8-0.7
			c-0.3,0-0.5,0-0.7,0.1c-0.2,0-0.4,0.1-0.6,0.2c-0.2,0.1-0.4,0.1-0.6,0.2c-0.2,0-0.5,0.1-0.8,0.1s-0.5,0-0.7-0.1
			c-0.2,0-0.4-0.1-0.5-0.2c-0.2-0.1-0.3-0.1-0.5-0.2c-0.2,0-0.4-0.1-0.6-0.1c-0.4,0-0.7,0.2-1.1,0.5c-0.3,0.3-0.5,0.7-0.5,1.1
			s0.1,0.7,0.4,1c0.3,0.3,0.6,0.4,1.1,0.4c0.3,0,0.6,0,1-0.1c0.3-0.1,0.7-0.1,1-0.1c0.5,0,0.8,0.2,1,0.7s0.3,1.5,0.3,3v9.7
			c0,1.4-0.1,2.4-0.2,2.9c-0.1,0.5-0.5,0.8-1,0.8c-0.4,0-0.7,0-1-0.1s-0.6-0.1-1-0.1s-0.8,0.1-1.1,0.4s-0.4,0.6-0.4,1
			c0,1.1,0.6,1.6,1.9,1.6c0.8,0,1.5-0.1,2.1-0.2c0.6-0.2,1.5-0.2,2.5-0.2s1.8,0.1,2.4,0.2c0.6,0.2,1.3,0.2,2,0.2
			c1.2,0,1.9-0.5,1.9-1.6c0-0.4-0.1-0.7-0.4-1c-0.3-0.3-0.6-0.4-1.1-0.4c-0.3,0-0.6,0-1,0.1c-0.3,0.1-0.7,0.1-1,0.1
			c-0.5,0-0.8-0.3-1-0.8c-0.2-0.6-0.3-1.5-0.3-2.8v-5.1c0-0.9,0-1.7,0-2.3c0-0.6,0.1-1.1,0.2-1.6s0.2-0.8,0.3-1.2
			c0.1-0.3,0.3-0.7,0.5-1.1c0.5-0.9,1.2-1.5,2-1.9c0.9-0.4,1.8-0.6,2.8-0.6c0.5,0,1,0.1,1.5,0.2c0.5,0.2,0.9,0.4,1.3,0.6
			c0.4,0.3,0.7,0.6,1,0.9s0.4,0.7,0.6,1c0.1,0.5,0.2,1.1,0.3,1.8c0,0.7,0,1.6,0,2.6v6.6c0,1.4-0.1,2.4-0.2,2.9
			c-0.1,0.5-0.5,0.8-1,0.8c-0.4,0-0.7,0-1-0.1s-0.6-0.1-1-0.1s-0.8,0.1-1.1,0.4s-0.4,0.6-0.4,1c0,1.1,0.6,1.6,1.9,1.6
			c0.8,0,1.5-0.1,2.1-0.2c0.6-0.2,1.5-0.2,2.5-0.2s1.8,0.1,2.4,0.2c0.6,0.2,1.3,0.2,2,0.2c1.2,0,1.9-0.5,1.9-1.6
			c0-0.4-0.1-0.7-0.4-1c-0.3-0.3-0.6-0.4-1.1-0.4c-0.3,0-0.6,0-1,0.1c-0.3,0.1-0.7,0.1-1,0.1c-0.5,0-0.8-0.3-1-0.8
			c-0.2-0.6-0.3-1.5-0.3-2.8v-5c0-0.9,0-1.7,0.1-2.4c0-0.7,0.1-1.2,0.2-1.7c0.1-0.4,0.1-0.8,0.2-1.2s0.2-0.6,0.3-0.9
			c0.4-0.9,1-1.5,1.9-2c0.8-0.5,1.7-0.7,2.7-0.7s1.9,0.2,2.8,0.7c0.8,0.5,1.5,1.2,1.9,2.1c0.2,0.5,0.3,1.2,0.4,2
			c0.1,0.9,0.1,2.1,0.1,3.6v5.3H127.6z M69.2,129.4c0.6,0.1,1.1,0.3,1.5,0.6c0.4,0.3,0.8,0.6,1.1,1s0.4,1,0.4,1.7
			c0,0.6-0.1,1.1-0.4,1.6s-0.6,0.9-1.1,1.2c-0.5,0.4-1.1,0.7-1.7,0.8c-0.6,0.1-1.3,0.2-1.9,0.2c-0.4,0-0.9,0-1.5-0.1
			c-0.5-0.1-1.1-0.2-1.6-0.3c-0.5-0.2-1-0.3-1.5-0.6c-0.5-0.2-0.9-0.5-1.2-0.8c-0.2-0.2-0.4-0.4-0.5-0.6s-0.2-0.4-0.3-0.7
			c-0.1-0.3-0.1-0.6-0.2-1c0-0.4-0.1-0.9-0.2-1.6c0-0.6-0.2-0.9-0.4-1.1c-0.2-0.2-0.6-0.3-1-0.3c-0.5,0-0.9,0.1-1.1,0.4
			c-0.3,0.3-0.4,0.7-0.4,1.2c0,0.6,0.1,1.2,0.2,1.7c0.1,0.6,0.2,1.2,0.2,1.7c0,0.6-0.1,1.2-0.2,1.8c-0.1,0.6-0.2,1.2-0.2,1.8
			c0,0.5,0.1,0.9,0.4,1.3s0.7,0.5,1.3,0.5c0.5,0,0.9-0.2,1.2-0.6c0.3-0.4,0.4-1,0.3-1.8c0.9,0.8,1.9,1.3,3,1.6
			c1.1,0.3,2.2,0.5,3.4,0.5c1.1,0,2.2-0.1,3.3-0.4c1.1-0.3,2-0.7,2.9-1.3c0.9-0.6,1.5-1.3,2.1-2.2c0.5-0.9,0.8-2,0.8-3.2
			c0-1.1-0.2-2.1-0.6-2.8c-0.4-0.8-1-1.4-1.7-1.9c-0.8-0.5-1.7-0.9-2.8-1.2c-1.1-0.3-2.4-0.5-3.9-0.7c-1.9-0.2-3.2-0.6-4-1
			c-0.8-0.5-1.2-1.2-1.2-2.3c0-0.6,0.1-1.2,0.4-1.7s0.7-0.9,1.2-1.2c0.5-0.3,1-0.5,1.6-0.7s1.1-0.2,1.7-0.2c0.7,0,1.4,0.2,2.1,0.5
			s1.4,0.7,2,1.1c0.2,0.1,0.4,0.3,0.5,0.4s0.2,0.3,0.3,0.5c0.1,0.2,0.1,0.4,0.2,0.7c0,0.3,0,0.6,0,1c0,1.4,0.5,2.1,1.4,2.1
			c0.5,0,0.9-0.2,1.2-0.5s0.4-0.7,0.4-1.2s0-1.1-0.1-1.6s-0.1-1.1-0.1-1.6s0-1.1,0.1-1.6s0.1-1.1,0.1-1.6c0-1-0.5-1.4-1.5-1.4
			c-0.6,0-1,0.2-1.2,0.5c-0.2,0.4-0.3,0.8-0.2,1.3c-0.7-0.6-1.5-1-2.4-1.2s-1.8-0.3-2.7-0.3c-1.1,0-2.1,0.2-3.1,0.5
			s-1.9,0.7-2.7,1.3c-0.8,0.6-1.4,1.3-1.9,2.2c-0.5,0.9-0.7,1.9-0.7,3.1c0,1.3,0.3,2.4,0.9,3.2c0.6,0.8,1.4,1.4,2.3,1.8
			s2,0.7,3.1,0.9c1.1,0.2,2.2,0.3,3.2,0.5C68.1,129.2,68.6,129.3,69.2,129.4 M48.9,124c0-1.3-0.1-2.5-0.4-3.7s-1-2.1-2-3
			c-0.8-0.6-1.8-1.1-2.9-1.3c-1.1-0.3-2.1-0.4-3.1-0.4s-2,0.1-3,0.4s-2,0.7-2.7,1.2c-0.8,0.5-1.4,1.2-1.9,1.9
			c-0.5,0.8-0.8,1.6-0.8,2.5c0,0.8,0.3,1.4,0.8,2c0.5,0.5,1.2,0.8,1.9,0.8c0.6,0,1.2-0.2,1.6-0.5c0.5-0.3,0.7-0.9,0.7-1.5
			c0-0.4-0.1-0.7-0.2-0.9c-0.1-0.2-0.2-0.4-0.4-0.5c-0.1-0.1-0.2-0.2-0.3-0.2c-0.1,0-0.2-0.1-0.2-0.2c0-0.2,0.1-0.4,0.4-0.7
			c0.2-0.2,0.5-0.4,0.6-0.5c0.5-0.3,1-0.5,1.6-0.7s1.2-0.3,1.7-0.3c0.6,0,1.3,0.1,1.8,0.2c0.6,0.1,1.1,0.3,1.6,0.7
			c0.4,0.3,0.8,0.7,1.1,1.2c0.3,0.5,0.4,1.1,0.4,1.8c0,0.8-0.2,1.4-0.6,1.9c-0.4,0.4-0.9,0.8-1.5,1s-1.2,0.3-2,0.4
			c-0.7,0.1-1.4,0.1-2,0.2c-1.1,0.1-2.1,0.3-3,0.5s-1.9,0.5-2.8,1.1c-1,0.6-1.8,1.3-2.2,2.3c-0.5,0.9-0.7,2-0.7,3.2
			c0,1.1,0.3,2.1,0.8,3s1.2,1.6,2.1,2.2c0.8,0.5,1.6,0.8,2.5,1s1.8,0.3,2.7,0.3c1.4,0,2.7-0.2,4-0.7s2.3-1.3,3-2.6
			c0.2,1.1,0.8,1.9,1.6,2.4c0.8,0.5,1.8,0.7,2.8,0.7c0.7,0,1.4-0.1,2.1-0.3c0.7-0.2,1.3-0.6,1.7-1.2c0.5-0.6,0.7-1.3,0.8-2.2
			c0.1-0.9,0.1-2.1,0.1-3.8c0-0.5-0.1-0.9-0.3-1.3c-0.2-0.3-0.6-0.5-1.2-0.5c-0.4,0-0.7,0.1-0.9,0.2s-0.3,0.4-0.4,0.6
			s-0.1,0.5-0.1,0.8v0.9c0,0.3,0,0.7,0,1.2s0,0.9-0.1,1.3s-0.2,0.8-0.5,1.1c-0.2,0.3-0.6,0.5-1,0.5c-0.5,0-0.9-0.2-1.2-0.5
			c-0.2-0.4-0.4-0.8-0.5-1.3s-0.1-1-0.1-1.6c0-0.5,0-1,0-1.3L48.9,124z M34.7,131.1c0.3-0.5,0.7-0.8,1.2-1.1c0.5-0.3,1-0.5,1.6-0.6
			s1.2-0.2,1.8-0.3c0.5-0.1,1.1-0.1,1.6-0.2c0.6-0.1,1.1-0.1,1.6-0.3c0.5-0.1,1-0.3,1.5-0.5s0.9-0.5,1.3-0.9c0,0.5-0.1,0.9-0.1,1.4
			s0,0.9,0,1.4c0,0.8-0.1,1.5-0.2,2.2s-0.4,1.4-0.9,2c-0.7,0.8-1.5,1.4-2.5,1.8c-1,0.3-2,0.5-3,0.5c-0.6,0-1.1-0.1-1.7-0.2
			c-0.5-0.1-1-0.3-1.4-0.7c-0.4-0.3-0.8-0.7-1-1.1c-0.3-0.5-0.4-1-0.4-1.7C34.2,132.1,34.3,131.5,34.7,131.1 M7.7,140.2
			c0,1.4-0.1,2.3-0.3,2.9c-0.2,0.5-0.5,0.8-1,0.8c-0.4,0-0.7,0-1-0.1s-0.6-0.1-1-0.1s-0.8,0.1-1.1,0.4c-0.3,0.3-0.4,0.6-0.4,1
			c0,0.5,0.2,0.9,0.6,1.2c0.4,0.3,0.8,0.4,1.3,0.4c0.7,0,1.4-0.1,2.1-0.2c0.7-0.2,1.5-0.2,2.3-0.2s1.5,0.1,2.3,0.2
			c0.8,0.2,1.5,0.2,2.3,0.2c0.5,0,0.9-0.1,1.3-0.4s0.6-0.7,0.6-1.2c0-0.4-0.1-0.7-0.4-1s-0.6-0.4-1.1-0.4c-0.3,0-0.6,0-1,0.1
			c-0.3,0.1-0.7,0.1-1,0.1c-0.4,0-0.7-0.2-0.9-0.7c-0.2-0.5-0.3-1.4-0.3-2.9v-3.4h0.1c0.6,0.9,1.5,1.6,2.6,2s2.2,0.7,3.4,0.7
			c1.6,0,3.2-0.3,4.6-1s2.6-1.7,3.6-3.1c0.8-1.1,1.3-2.4,1.7-4c0.3-1.5,0.5-2.9,0.5-4.3c0-1.6-0.2-3.1-0.6-4.5s-1-2.6-1.8-3.6
			s-1.9-1.8-3.1-2.4s-2.7-0.9-4.4-0.9c-1.3,0-2.6,0.3-3.8,0.8c-1.2,0.6-2.2,1.4-2.9,2.6h-0.1v-1.4c0-0.5-0.1-0.8-0.3-1
			c-0.2-0.2-0.5-0.3-0.8-0.3c-0.4,0-0.8,0.1-1.2,0.2c-0.4,0.2-0.8,0.2-1.2,0.2c-0.4,0-0.9-0.1-1.3-0.2c-0.4-0.2-0.8-0.2-1.1-0.2
			c-0.5,0-0.9,0.1-1.3,0.4S3,117.6,3,118.1c0,0.4,0.1,0.7,0.4,1s0.6,0.4,1.1,0.4c0.3,0,0.6,0,1-0.1c0.3-0.1,0.7-0.1,1-0.1
			c0.5,0,0.9,0.3,1,0.8c0.2,0.6,0.2,1.5,0.2,2.8L7.7,140.2L7.7,140.2z M20.8,119.4c0.8,0.5,1.5,1.2,2,2s0.8,1.8,1,2.9
			s0.3,2.1,0.3,3.2c0,1.2-0.1,2.3-0.3,3.4c-0.2,1.1-0.6,2.1-1.1,2.9c-0.5,0.9-1.3,1.5-2.2,2c-0.9,0.5-2,0.8-3.3,0.8
			c-1,0-1.9-0.2-2.7-0.5c-0.8-0.4-1.5-1-2.1-1.8s-0.9-1.7-1-2.6s-0.2-1.9-0.2-2.9c0-1.6,0.1-2.9,0.2-3.8s0.3-1.8,0.6-2.6
			c0.2-0.6,0.5-1.1,0.9-1.6c0.4-0.4,0.8-0.8,1.4-1.1c0.5-0.3,1.1-0.5,1.7-0.7c0.6-0.1,1.2-0.2,1.8-0.2
			C18.9,118.6,19.9,118.9,20.8,119.4"/>
	</g>
	<g>
		<defs>
			<rect id="SVGID_3_" x="3" y="3.6" width="387" height="143"/>
		</defs>
		<clipPath id="SVGID_4_">
			<use xlink:href="#SVGID_3_"  style="overflow:visible;"/>
		</clipPath>
		<path class="st1" d="M351,67.6c-0.2-0.2-0.3-0.4-0.4-0.5c-0.1-0.1-0.1-0.2-0.1-0.2c0-0.1,0.2-0.2,0.5-0.2c0.1,0,0.2,0,0.2,0
			c0.1,0,0.2,0.1,0.2,0.1c0.2,0.1,0.4,0.2,0.6,0.2c0.5,0,0.8-0.2,1.2-0.5c0.3-0.3,0.5-0.7,0.5-1.1s-0.1-0.7-0.4-1
			c-0.3-0.3-0.6-0.4-1.1-0.4c-0.8,0-1.5,0.1-2.2,0.2c-0.7,0.2-1.5,0.2-2.3,0.2c-0.9,0-1.7-0.1-2.4-0.2c-0.7-0.2-1.5-0.2-2.3-0.2
			c-0.4,0-0.8,0.1-1.1,0.4s-0.4,0.6-0.4,1c0,0.5,0.2,0.9,0.5,1.2c0.3,0.3,0.7,0.4,1,0.4c0.4,0,0.8-0.1,1.1-0.2
			c0.1-0.1,0.3-0.1,0.5-0.1s0.3,0,0.5,0c0.3,0,0.6,0.1,0.9,0.3c0.2,0.2,0.5,0.5,0.9,0.9l5.2,6.1c0.2,0.2,0.3,0.4,0.4,0.5
			c0.1,0.1,0.2,0.2,0.2,0.3c0,0.1-0.1,0.2-0.3,0.5c-0.2,0.2-0.3,0.4-0.4,0.4l-5,5.8c-0.7,0.8-1.2,1.4-1.6,1.7
			c-0.4,0.3-0.7,0.5-1,0.5s-0.6,0-0.9-0.1c-0.3-0.1-0.6-0.1-0.9-0.1c-0.4,0-0.8,0.1-1.1,0.4s-0.4,0.6-0.4,1c0,1.1,0.6,1.6,1.7,1.6
			c0.6,0,1.2-0.1,2-0.2c0.7-0.2,1.5-0.2,2.3-0.2s1.5,0.1,2.2,0.2c0.7,0.2,1.5,0.2,2.2,0.2c0.5,0,0.9-0.1,1.3-0.4
			c0.4-0.3,0.6-0.7,0.6-1.2c0-0.4-0.1-0.8-0.4-1c-0.3-0.3-0.6-0.4-1.1-0.4c-0.3,0-0.7,0-1,0.1s-0.7,0.1-1,0.1s-0.4-0.1-0.4-0.2
			s0.1-0.3,0.3-0.5s0.3-0.4,0.4-0.4l3.9-4.5c0.1-0.1,0.2-0.2,0.4-0.4c0.2-0.2,0.3-0.3,0.5-0.3c0.1,0,0.3,0.1,0.5,0.3
			c0.2,0.2,0.3,0.3,0.3,0.4l4.3,5c0.1,0.1,0.1,0.1,0.2,0.2c0,0.1,0.1,0.1,0.1,0.2c0,0.2-0.2,0.3-0.5,0.3c-0.2,0-0.5,0-0.8-0.1
			s-0.7-0.1-1-0.1c-0.4,0-0.8,0.1-1.1,0.4s-0.4,0.6-0.4,1c0,0.5,0.2,0.9,0.5,1.2c0.3,0.3,0.8,0.4,1.3,0.4c0.6,0,1.3-0.1,2.1-0.2
			c0.7-0.2,1.5-0.2,2.3-0.2s1.5,0.1,2.2,0.2c0.7,0.2,1.5,0.2,2.2,0.2c0.5,0,0.9-0.1,1.3-0.4c0.4-0.3,0.6-0.7,0.6-1.2
			c0-0.4-0.1-0.8-0.4-1c-0.3-0.3-0.6-0.4-1.1-0.4c-0.3,0-0.6,0-0.9,0.1c-0.3,0.1-0.6,0.1-0.9,0.1c-0.3,0-0.6-0.1-0.9-0.3
			c-0.3-0.2-0.6-0.5-0.9-0.9l-5.8-6.8c-0.1-0.1-0.2-0.3-0.4-0.5s-0.3-0.4-0.3-0.5s0.1-0.3,0.2-0.4c0.1-0.1,0.3-0.3,0.5-0.5l4-4.6
			c0.5-0.6,0.9-1,1.2-1.3s0.6-0.6,0.8-0.8c0.2-0.2,0.4-0.3,0.6-0.3c0.2-0.1,0.4-0.1,0.6-0.1c0.1,0,0.3,0,0.5,0s0.3,0.1,0.5,0.1
			c0.3,0.1,0.7,0.2,1,0.2s0.7-0.1,1-0.4c0.4-0.3,0.6-0.7,0.6-1.2c0-0.4-0.1-0.7-0.4-1c-0.3-0.3-0.6-0.4-1.1-0.4
			c-0.8,0-1.5,0.1-2.2,0.2c-0.7,0.2-1.5,0.2-2.2,0.2c-0.8,0-1.6-0.1-2.3-0.2c-0.8-0.2-1.5-0.2-2.3-0.2c-0.5,0-0.8,0.1-1.1,0.4
			s-0.4,0.6-0.4,1s0.2,0.8,0.5,1.1c0.3,0.3,0.7,0.5,1.2,0.5c0.1,0,0.3-0.1,0.5-0.2s0.4-0.2,0.4-0.2c0.2,0,0.3,0.1,0.3,0.2
			c0,0.2-0.2,0.6-0.6,1l-3,3.4c-0.2,0.2-0.4,0.4-0.5,0.6s-0.3,0.2-0.4,0.2c-0.1,0-0.3-0.1-0.5-0.3c-0.2-0.2-0.3-0.4-0.5-0.6
			L351,67.6z M317.4,79.8c0,1.1,0.2,2.2,0.5,3.2s0.9,1.8,1.9,2.5c0.8,0.6,1.7,1.1,2.7,1.3c1,0.3,2,0.4,3,0.4c1.4,0,2.8-0.2,4-0.7
			s2.2-1.3,3-2.6h0.1c0,0.9,0,1.5,0.2,2c0.1,0.4,0.4,0.7,0.9,0.7c0.4,0,0.8-0.1,1.2-0.2c0.4-0.2,0.8-0.2,1.3-0.2
			c0.4,0,0.8,0.1,1.2,0.2c0.4,0.2,0.8,0.2,1.2,0.2c0.5,0,0.9-0.1,1.3-0.4c0.4-0.3,0.6-0.7,0.6-1.2c0-0.4-0.1-0.7-0.4-1
			c-0.3-0.3-0.6-0.4-1.1-0.4c-0.3,0-0.6,0-1,0.1c-0.3,0.1-0.7,0.1-1,0.1c-0.2,0-0.4,0-0.5-0.2c-0.2-0.1-0.3-0.3-0.4-0.5
			c-0.1-0.3-0.2-0.6-0.2-1.1c-0.1-0.5-0.1-1.1-0.1-1.8V72c0-1.2,0-2.3,0.1-3.3c0-1,0.1-2.1,0.1-3.2c0-0.4-0.1-0.8-0.3-1.1
			c-0.2-0.3-0.5-0.4-1-0.4c-0.4,0-0.8,0.1-1.2,0.2c-0.4,0.2-0.8,0.2-1.2,0.2s-0.9-0.1-1.3-0.2c-0.4-0.2-0.9-0.2-1.4-0.2
			c-0.6,0-1,0.1-1.4,0.4s-0.6,0.7-0.6,1.2c0,0.4,0.1,0.7,0.4,1c0.3,0.3,0.6,0.4,1.1,0.4c0.3,0,0.6,0,1-0.1c0.3-0.1,0.7-0.1,1-0.1
			c0.4,0,0.8,0.3,1.1,0.8c0.3,0.6,0.5,1.5,0.5,2.8v3c0,0.5,0,1.1,0,1.7s0,1.3-0.1,1.9c0,0.7-0.1,1.3-0.2,1.9
			c-0.1,0.6-0.2,1.1-0.4,1.6c-0.4,1.3-1.1,2.3-2.2,2.8c-1,0.6-2.2,0.9-3.5,0.9c-0.5,0-1-0.1-1.6-0.2c-0.5-0.1-1-0.3-1.4-0.6
			c-0.4-0.3-0.8-0.6-1.2-1c-0.3-0.4-0.6-0.9-0.8-1.4c-0.1-0.4-0.2-0.8-0.3-1.3s-0.1-1-0.1-1.5s-0.1-1.1-0.1-1.6s0-1,0-1.4v-2
			c0-0.7,0-1.4,0-1.9s0.1-1.1,0.1-1.6c0-0.6,0.1-1.1,0.1-1.8c0-0.6,0-1.4,0-2.3c0-0.5-0.1-1-0.3-1.3s-0.6-0.5-1.2-0.5
			c-0.4,0-0.8,0.1-1.2,0.2c-0.4,0.2-0.8,0.2-1.2,0.2s-0.9-0.1-1.3-0.2c-0.4-0.2-0.8-0.2-1.2-0.2c-0.6,0-1.1,0.1-1.5,0.4
			s-0.6,0.7-0.6,1.2c0,0.4,0.1,0.7,0.4,1c0.3,0.3,0.6,0.4,1.1,0.4c0.3,0,0.6,0,1-0.1c0.3-0.1,0.7-0.1,1-0.1c0.5,0,0.8,0.3,1.1,0.8
			s0.4,1.5,0.4,2.9L317.4,79.8L317.4,79.8z M309.3,75.9c0.5,0,0.9,0,1.2-0.1c0.3,0,0.5-0.1,0.6-0.3c0.1-0.2,0.2-0.4,0.2-0.7
			c0-0.3,0-0.7,0-1.3c0-1.5-0.2-2.8-0.7-4s-1.2-2.3-2-3.2c-0.9-0.9-1.9-1.6-3.1-2.1c-1.2-0.5-2.5-0.8-4-0.8c-1.6,0-3,0.3-4.4,1
			s-2.6,1.6-3.6,2.8c-0.9,1.2-1.6,2.5-2,4s-0.6,3-0.6,4.5c0,1.6,0.2,3.1,0.7,4.5c0.4,1.4,1.1,2.6,2,3.7s2,1.9,3.2,2.5
			c1.3,0.6,2.8,0.9,4.5,0.9c1.2,0,2.5-0.2,3.8-0.6s2.4-1,3.3-1.9c0.6-0.6,1.2-1.3,1.8-2.3c0.5-0.9,0.8-1.8,0.8-2.7
			c0-0.5-0.2-0.9-0.5-1.2c-0.3-0.3-0.7-0.5-1.2-0.5c-0.6,0-1,0.2-1.2,0.6s-0.4,0.8-0.5,1.3c-0.4,1.4-1.1,2.5-2.2,3.2
			c-1.1,0.7-2.3,1.1-3.8,1.1c-1.2,0-2.2-0.2-3.1-0.7c-0.9-0.5-1.6-1.1-2.2-1.9c-0.6-0.8-1-1.7-1.3-2.7s-0.4-2.1-0.3-3.2h14.6V75.9z
			 M295,72.7c0.1-0.9,0.3-1.7,0.7-2.5c0.3-0.8,0.8-1.5,1.4-2c0.6-0.6,1.3-1,2.1-1.3s1.6-0.5,2.6-0.5s1.8,0.2,2.5,0.5
			s1.4,0.8,1.9,1.3c0.5,0.6,0.9,1.2,1.2,2s0.4,1.6,0.5,2.5H295z M268,88c0,1.4-0.1,2.3-0.3,2.9c-0.2,0.5-0.5,0.8-1,0.8
			c-0.4,0-0.7,0-1-0.1s-0.6-0.1-1-0.1s-0.8,0.1-1.1,0.4s-0.4,0.6-0.4,1c0,0.5,0.2,0.9,0.6,1.2c0.4,0.3,0.8,0.4,1.3,0.4
			c0.7,0,1.4-0.1,2.1-0.2c0.7-0.2,1.5-0.2,2.3-0.2s1.5,0.1,2.3,0.2c0.8,0.2,1.5,0.2,2.3,0.2c0.5,0,0.9-0.1,1.3-0.4
			c0.4-0.3,0.6-0.7,0.6-1.2c0-0.4-0.1-0.7-0.4-1c-0.3-0.3-0.6-0.4-1.1-0.4c-0.3,0-0.6,0-1,0.1c-0.3,0.1-0.7,0.1-1,0.1
			c-0.4,0-0.7-0.2-0.9-0.7c-0.2-0.4-0.3-1.4-0.3-2.9v-3.4h0.1c0.6,0.9,1.5,1.6,2.6,2s2.2,0.7,3.4,0.7c1.6,0,3.2-0.3,4.6-1
			c1.4-0.7,2.6-1.7,3.6-3.1c0.8-1.1,1.3-2.5,1.7-4c0.3-1.5,0.5-2.9,0.5-4.3c0-1.6-0.2-3.1-0.6-4.5c-0.4-1.4-1-2.6-1.8-3.6
			s-1.9-1.8-3.1-2.4c-1.2-0.6-2.7-0.9-4.4-0.9c-1.3,0-2.6,0.3-3.8,0.8c-1.2,0.6-2.2,1.4-2.9,2.6h-0.1v-1.4c0-0.5-0.1-0.8-0.3-1
			s-0.5-0.3-0.8-0.3c-0.4,0-0.8,0.1-1.2,0.2c-0.4,0.2-0.8,0.2-1.2,0.2s-0.9-0.1-1.3-0.2c-0.4-0.2-0.8-0.2-1.1-0.2
			c-0.5,0-0.9,0.1-1.3,0.4c-0.4,0.3-0.6,0.7-0.6,1.2c0,0.4,0.1,0.7,0.4,1c0.3,0.3,0.6,0.4,1.1,0.4c0.3,0,0.6,0,1-0.1
			c0.3-0.1,0.7-0.1,1-0.1c0.5,0,0.9,0.3,1,0.8c0.2,0.6,0.2,1.5,0.2,2.8L268,88L268,88z M281,67.2c0.8,0.5,1.5,1.2,2,2s0.8,1.8,1,2.8
			c0.2,1.1,0.3,2.1,0.3,3.2c0,1.2-0.1,2.3-0.3,3.4s-0.6,2.1-1.1,2.9c-0.5,0.9-1.3,1.5-2.2,2s-2,0.8-3.3,0.8c-1,0-1.9-0.2-2.7-0.5
			c-0.8-0.4-1.5-1-2.1-1.8s-0.9-1.7-1-2.6s-0.2-1.9-0.2-2.9c0-1.6,0.1-2.9,0.2-3.9c0.1-0.9,0.3-1.8,0.6-2.6c0.2-0.6,0.5-1.1,0.9-1.6
			c0.4-0.4,0.8-0.8,1.4-1.1c0.5-0.3,1.1-0.5,1.7-0.7c0.6-0.1,1.2-0.2,1.8-0.2C279.1,66.4,280.2,66.7,281,67.2 M242.4,75.9
			c0.5,0,0.9,0,1.2-0.1c0.3,0,0.5-0.1,0.6-0.3c0.1-0.2,0.2-0.4,0.2-0.7c0-0.3,0-0.7,0-1.3c0-1.5-0.2-2.8-0.7-4s-1.2-2.3-2-3.2
			c-0.9-0.9-1.9-1.6-3.1-2.1c-1.2-0.5-2.5-0.8-4-0.8c-1.6,0-3,0.3-4.4,1s-2.6,1.6-3.6,2.8c-0.9,1.2-1.6,2.5-2,4s-0.6,3-0.6,4.5
			c0,1.6,0.2,3.1,0.7,4.5c0.4,1.4,1.1,2.6,2,3.7s2,1.9,3.2,2.5c1.3,0.6,2.8,0.9,4.5,0.9c1.2,0,2.5-0.2,3.8-0.6s2.4-1,3.3-1.9
			c0.6-0.6,1.2-1.3,1.8-2.3c0.5-0.9,0.8-1.8,0.8-2.7c0-0.5-0.2-0.9-0.5-1.2c-0.3-0.3-0.7-0.5-1.2-0.5c-0.6,0-1,0.2-1.2,0.6
			s-0.4,0.8-0.5,1.3c-0.4,1.4-1.1,2.5-2.2,3.2c-1.1,0.7-2.3,1.1-3.8,1.1c-1.2,0-2.2-0.2-3.1-0.7c-0.9-0.5-1.6-1.1-2.2-1.9
			c-0.6-0.8-1-1.7-1.3-2.7s-0.4-2.1-0.3-3.2h14.6V75.9z M228,72.7c0.1-0.9,0.3-1.7,0.7-2.5c0.3-0.8,0.8-1.5,1.4-2
			c0.6-0.6,1.3-1,2.1-1.3s1.6-0.5,2.6-0.5s1.8,0.2,2.5,0.5s1.4,0.8,1.9,1.3c0.5,0.6,0.9,1.2,1.2,2s0.4,1.6,0.5,2.5H228z M199.2,80.2
			c0,1.4-0.1,2.4-0.2,2.9c-0.1,0.5-0.5,0.8-1,0.8c-0.4,0-0.7,0-1-0.1s-0.6-0.1-1-0.1s-0.8,0.1-1.1,0.4s-0.4,0.6-0.4,1
			c0,1.1,0.6,1.6,1.9,1.6c0.8,0,1.5-0.1,2.1-0.2c0.6-0.2,1.5-0.2,2.5-0.2s1.8,0.1,2.4,0.2c0.6,0.2,1.3,0.2,2,0.2
			c1.2,0,1.9-0.5,1.9-1.6c0-0.4-0.1-0.7-0.4-1c-0.3-0.3-0.6-0.4-1.1-0.4c-0.3,0-0.6,0-1,0.1c-0.3,0.1-0.7,0.1-1,0.1
			c-0.5,0-0.8-0.3-1-0.8c-0.2-0.6-0.3-1.5-0.3-2.8v-5.1c0-1.1,0-2,0.1-2.7s0.2-1.3,0.3-1.7c0.1-0.4,0.2-0.8,0.3-1
			c0.1-0.3,0.3-0.5,0.4-0.7c0.6-0.8,1.3-1.5,2.3-1.9s2-0.6,3-0.6c0.9,0,1.8,0.2,2.7,0.6s1.6,1,2,1.8c0.2,0.3,0.3,0.7,0.4,1
			c0.1,0.3,0.2,0.6,0.2,1s0.1,0.8,0.1,1.3s0,1.1,0,1.8v6.4c0,1.4-0.1,2.4-0.2,2.9c-0.1,0.5-0.5,0.8-1,0.8c-0.4,0-0.7,0-1-0.1
			s-0.6-0.1-1-0.1s-0.8,0.1-1.1,0.4s-0.4,0.6-0.4,1c0,1,0.6,1.6,1.9,1.6c0.8,0,1.5-0.1,2.1-0.2c0.6-0.2,1.5-0.2,2.5-0.2
			s1.8,0.1,2.4,0.2c0.6,0.2,1.3,0.2,2,0.2c1.2,0,1.9-0.5,1.9-1.6c0-0.4-0.1-0.7-0.4-1c-0.3-0.3-0.6-0.4-1.1-0.4c-0.3,0-0.6,0-1,0.1
			c-0.3,0.1-0.7,0.1-1,0.1c-0.5,0-0.8-0.3-1-0.8c-0.2-0.6-0.3-1.5-0.3-2.8v-8.1c0-1.2-0.1-2.4-0.3-3.4c-0.2-1.1-0.8-2-1.7-2.9
			c-0.9-0.8-1.8-1.4-2.9-1.8c-1.1-0.4-2.2-0.6-3.4-0.6c-1.4,0-2.7,0.3-4,0.8s-2.4,1.3-3.2,2.5H202c0-0.8,0-1.5-0.1-1.9
			s-0.4-0.7-0.8-0.7c-0.3,0-0.5,0-0.7,0.1c-0.2,0-0.4,0.1-0.6,0.2c-0.2,0.1-0.4,0.1-0.6,0.2c-0.2,0-0.5,0.1-0.8,0.1s-0.5,0-0.7-0.1
			c-0.2,0-0.4-0.1-0.5-0.2c-0.2-0.1-0.3-0.1-0.5-0.2c-0.2,0-0.4-0.1-0.6-0.1c-0.4,0-0.7,0.2-1.1,0.5c-0.3,0.3-0.5,0.7-0.5,1.1
			s0.1,0.7,0.4,1c0.3,0.3,0.6,0.4,1.1,0.4c0.3,0,0.6,0,1-0.1c0.3-0.1,0.7-0.1,1-0.1c0.5,0,0.8,0.2,1,0.7s0.3,1.5,0.3,3v9.2H199.2z
			 M173.6,75.9c0.5,0,0.9,0,1.2-0.1c0.3,0,0.5-0.1,0.6-0.3c0.1-0.2,0.2-0.4,0.2-0.7c0-0.3,0-0.7,0-1.3c0-1.5-0.2-2.8-0.7-4
			s-1.2-2.3-2-3.2c-0.9-0.9-1.9-1.6-3.1-2.1c-1.2-0.5-2.5-0.8-4-0.8c-1.6,0-3,0.3-4.4,1s-2.6,1.6-3.6,2.8c-0.9,1.2-1.6,2.5-2,4
			s-0.6,3-0.6,4.5c0,1.6,0.2,3.1,0.7,4.5c0.4,1.4,1.1,2.6,2,3.7s2,1.9,3.2,2.5c1.3,0.6,2.8,0.9,4.5,0.9c1.2,0,2.5-0.2,3.8-0.6
			s2.4-1,3.3-1.9c0.6-0.6,1.2-1.3,1.8-2.3c0.5-0.9,0.8-1.8,0.8-2.7c0-0.5-0.2-0.9-0.5-1.2c-0.3-0.3-0.7-0.5-1.2-0.5
			c-0.6,0-1,0.2-1.2,0.6s-0.4,0.8-0.5,1.3c-0.4,1.4-1.1,2.5-2.2,3.2c-1.1,0.7-2.3,1.1-3.8,1.1c-1.2,0-2.2-0.2-3.1-0.7
			c-0.9-0.5-1.6-1.1-2.2-1.9c-0.6-0.8-1-1.7-1.3-2.7s-0.4-2.1-0.3-3.2h14.6V75.9z M159.3,72.7c0.1-0.9,0.3-1.7,0.7-2.5
			s0.8-1.5,1.4-2c0.6-0.6,1.3-1,2.1-1.3s1.6-0.5,2.6-0.5s1.8,0.2,2.5,0.5s1.4,0.8,1.9,1.3c0.5,0.6,0.9,1.2,1.2,2s0.4,1.6,0.5,2.5
			H159.3z M146.5,85.6c0,0.8,0,1.7-0.1,2.5s-0.3,1.5-0.6,2.2c-0.3,0.6-0.8,1.1-1.4,1.5c-0.6,0.4-1.5,0.6-2.5,0.6
			c-0.5,0-1-0.1-1.3-0.2c-0.4-0.1-0.7-0.4-1.2-0.7c0.2-0.2,0.4-0.4,0.5-0.7c0.1-0.3,0.2-0.6,0.2-0.9c0-0.6-0.2-1-0.7-1.3
			c-0.4-0.3-0.9-0.5-1.4-0.5c-0.7,0-1.2,0.2-1.6,0.7c-0.4,0.5-0.6,1.1-0.6,1.7c0,0.8,0.2,1.5,0.6,2.1c0.4,0.6,0.9,1,1.5,1.4
			s1.3,0.6,2,0.8c0.7,0.2,1.4,0.3,2.1,0.3c1.3,0,2.5-0.3,3.7-0.8s2.1-1.3,2.8-2.4c0.6-1,1-2,1.1-3.1s0.2-2.2,0.2-3.3V71.6
			c0-1,0-2,0.2-3c0.1-1,0.2-2,0.2-2.9c0-0.5-0.1-0.9-0.2-1.1c-0.2-0.2-0.4-0.4-0.8-0.4c-0.5,0-0.9,0.1-1.3,0.2
			c-0.4,0.2-0.8,0.2-1.4,0.2c-0.6,0-1.1-0.1-1.4-0.2c-0.4-0.2-0.8-0.2-1.4-0.2c-0.5,0-0.9,0.1-1.3,0.4c-0.4,0.3-0.6,0.7-0.6,1.2
			c0,0.4,0.1,0.7,0.4,1c0.3,0.3,0.6,0.4,1.1,0.4c0.3,0,0.6,0,1-0.1c0.3-0.1,0.7-0.1,1-0.1c0.2,0,0.4,0,0.5,0.1s0.3,0.3,0.4,0.5
			c0.1,0.3,0.2,0.6,0.3,1.1s0.1,1.1,0.1,1.9L146.5,85.6L146.5,85.6z M145.9,57.5c-0.5,0.5-0.7,1.1-0.7,1.8c0,0.7,0.2,1.2,0.7,1.7
			s1.1,0.7,1.8,0.7s1.3-0.2,1.8-0.7s0.7-1.1,0.7-1.7c0-0.7-0.2-1.3-0.7-1.8s-1.1-0.7-1.8-0.7C147,56.8,146.4,57.1,145.9,57.5
			 M116.7,80.3c0,1.4-0.1,2.3-0.3,2.8s-0.5,0.8-1,0.8c-0.4,0-0.7,0-1-0.1s-0.6-0.1-1-0.1s-0.8,0.1-1.1,0.4s-0.4,0.6-0.4,1
			s0.2,0.8,0.5,1.1c0.3,0.3,0.6,0.5,1,0.5c0.8,0,1.5-0.1,2.2-0.2c0.7-0.2,1.5-0.2,2.4-0.2s1.7,0.1,2.4,0.2c0.7,0.2,1.4,0.2,2.1,0.2
			c0.5,0,0.9-0.1,1.3-0.4c0.4-0.3,0.6-0.7,0.6-1.2c0-0.4-0.1-0.7-0.4-1c-0.3-0.3-0.6-0.4-1.1-0.4c-0.3,0-0.6,0-0.9,0.1
			c-0.3,0.1-0.6,0.2-0.8,0.2c-0.4,0-0.7-0.2-0.9-0.5s-0.3-0.8-0.3-1.3V66c0-0.4-0.1-0.9-0.2-1.3c-0.2-0.4-0.5-0.6-1-0.6
			c-0.4,0-0.8,0.1-1.1,0.2c-0.3,0.2-0.8,0.2-1.3,0.2s-1-0.1-1.4-0.2c-0.4-0.2-0.9-0.2-1.5-0.2c-0.4,0-0.8,0.1-1.1,0.4
			s-0.5,0.7-0.5,1.2c0,0.4,0.1,0.7,0.4,1c0.3,0.3,0.6,0.4,1.1,0.4c0.3,0,0.6,0,1-0.1c0.3-0.1,0.7-0.1,1-0.1c0.2,0,0.4,0.1,0.6,0.2
			c0.2,0.1,0.3,0.3,0.4,0.5c0.1,0.3,0.2,0.6,0.2,1.1s0.1,1.1,0.1,1.8V80.3z M115.9,57.6c-0.5,0.5-0.7,1.1-0.7,1.8s0.2,1.3,0.7,1.8
			s1.1,0.7,1.7,0.7c0.7,0,1.3-0.2,1.8-0.7s0.7-1.1,0.7-1.8s-0.2-1.3-0.7-1.8s-1.1-0.7-1.8-0.7C117,56.8,116.4,57.1,115.9,57.6
			 M102.3,77.2c0.6,0.1,1.1,0.3,1.5,0.6c0.4,0.3,0.8,0.6,1.1,1s0.4,1,0.4,1.7c0,0.6-0.1,1.1-0.4,1.6c-0.3,0.5-0.6,0.9-1.1,1.2
			c-0.5,0.4-1.1,0.7-1.7,0.8c-0.6,0.1-1.3,0.2-1.9,0.2c-0.4,0-0.9,0-1.5-0.1c-0.5-0.1-1.1-0.2-1.6-0.3c-0.5-0.2-1-0.3-1.5-0.6
			c-0.5-0.2-0.9-0.5-1.2-0.8c-0.2-0.2-0.4-0.4-0.5-0.6s-0.2-0.4-0.3-0.7c-0.1-0.3-0.1-0.6-0.2-1c0-0.4-0.1-0.9-0.2-1.6
			c0-0.5-0.2-0.9-0.4-1.1s-0.6-0.3-1-0.3c-0.5,0-0.9,0.1-1.1,0.4c-0.3,0.3-0.4,0.7-0.4,1.2c0,0.6,0.1,1.2,0.2,1.7
			c0.1,0.6,0.2,1.2,0.2,1.7c0,0.6-0.1,1.2-0.2,1.8c-0.1,0.6-0.2,1.2-0.2,1.8c0,0.5,0.1,0.9,0.4,1.3c0.3,0.4,0.7,0.5,1.3,0.5
			c0.5,0,0.9-0.2,1.2-0.6s0.4-1,0.3-1.8c0.9,0.8,1.9,1.3,3,1.6c1.1,0.3,2.2,0.5,3.4,0.5c1.1,0,2.2-0.1,3.3-0.4s2-0.7,2.9-1.3
			c0.9-0.6,1.5-1.3,2.1-2.2c0.5-0.9,0.8-2,0.8-3.2c0-1.1-0.2-2.1-0.6-2.8s-1-1.4-1.7-1.9c-0.8-0.5-1.7-0.9-2.8-1.2
			c-1.1-0.3-2.4-0.5-3.9-0.7c-1.9-0.2-3.2-0.6-4-1c-0.8-0.5-1.2-1.2-1.2-2.3c0-0.6,0.1-1.2,0.4-1.7c0.3-0.5,0.7-0.9,1.2-1.2
			c0.5-0.3,1-0.5,1.6-0.7s1.1-0.2,1.7-0.2c0.7,0,1.4,0.2,2.1,0.5c0.7,0.3,1.4,0.7,2,1.1c0.2,0.1,0.4,0.3,0.5,0.4s0.2,0.3,0.3,0.5
			s0.1,0.4,0.2,0.7c0,0.3,0,0.6,0,1c0,1.4,0.5,2.1,1.4,2.1c0.5,0,0.9-0.2,1.2-0.5s0.4-0.7,0.4-1.2s0-1.1-0.1-1.6s-0.1-1.1-0.1-1.6
			s0-1.1,0.1-1.6s0.1-1.1,0.1-1.6c0-1-0.5-1.4-1.5-1.4c-0.6,0-1,0.2-1.2,0.5c-0.2,0.4-0.3,0.8-0.2,1.3c-0.7-0.6-1.5-1-2.4-1.2
			s-1.8-0.3-2.7-0.3c-1.1,0-2.1,0.2-3.1,0.5s-1.9,0.7-2.7,1.3c-0.8,0.6-1.4,1.3-1.9,2.2c-0.5,0.9-0.7,1.9-0.7,3.1
			c0,1.3,0.3,2.4,0.9,3.2c0.6,0.8,1.4,1.4,2.3,1.8c0.9,0.4,2,0.7,3.1,0.9c1.1,0.2,2.2,0.3,3.2,0.5C101.2,77,101.8,77.1,102.3,77.2
			 M58.5,78.3c0,0.9,0,1.6,0,2.2s0.1,1.1,0.2,1.5s0.2,0.8,0.3,1.1c0.1,0.3,0.2,0.6,0.4,1c0.5,0.9,1.2,1.6,2.2,2s1.9,0.6,3,0.6
			c1.5,0,2.8-0.3,3.7-0.8c0.9-0.5,1.6-1.2,2.1-2c0.5-0.9,0.8-1.8,1-3c0.1-1.1,0.2-2.3,0.2-3.6c0-0.5-0.1-1-0.3-1.4
			c-0.2-0.4-0.7-0.7-1.3-0.7c-0.6,0-1.1,0.2-1.3,0.6c-0.3,0.4-0.4,1.1-0.4,2.1v1.4c0,0.5,0,1-0.1,1.5s-0.2,1-0.5,1.4
			c-0.2,0.4-0.6,0.8-1,1s-0.9,0.4-1.6,0.4c-0.6,0-1.1-0.1-1.5-0.3c-0.4-0.2-0.7-0.5-1-0.9c-0.2-0.4-0.4-0.9-0.5-1.6
			s-0.2-1.5-0.2-2.5V67.7c0-0.4,0.1-0.7,0.2-0.7c0.1-0.1,0.4-0.1,0.9-0.1h3.8c1,0,1.6-0.2,1.9-0.5s0.4-0.7,0.4-1.1
			c0-0.5-0.1-0.9-0.4-1.2c-0.3-0.3-0.9-0.4-1.8-0.4h-4.3c-0.3,0-0.5,0-0.6-0.1s-0.1-0.3-0.1-0.6v-4.3c0-0.6-0.1-1.1-0.3-1.5
			s-0.6-0.7-1.4-0.7s-1.2,0.2-1.4,0.7s-0.3,1-0.3,1.6v3.6c0,0.6,0,1-0.1,1.2s-0.3,0.2-0.7,0.2h-1.5c-0.5,0-0.9,0.2-1.2,0.5
			c-0.3,0.3-0.5,0.7-0.5,1.1c0,0.7,0.2,1.1,0.6,1.3c0.4,0.2,1,0.3,1.9,0.3c0.7,0,1.1,0.1,1.3,0.3c0.2,0.2,0.3,0.6,0.3,1.3v9.7H58.5z
			 M35.2,74.9c0-1,0-1.6,0.1-1.9s0.2-0.5,0.3-0.7c0.3-0.2,0.6-0.3,1-0.3s1,0,1.7,0c1.4,0,2.3,0.1,2.8,0.4s0.7,0.8,0.7,1.5
			c0,0.5,0,1-0.1,1.4c-0.1,0.5-0.1,0.9-0.1,1.4c0,0.6,0.1,1,0.3,1.4c0.2,0.3,0.7,0.5,1.3,0.5c0.5,0,0.8-0.1,1.2-0.4
			c0.3-0.3,0.5-0.6,0.5-1.1c0-0.4,0-0.8-0.1-1.2c-0.1-0.4-0.1-0.9-0.2-1.4s-0.1-1-0.2-1.6c0-0.6-0.1-1.3,0-2c-0.1-1.5,0-2.8,0.2-3.9
			s0.3-1.9,0.3-2.5c0-0.5-0.1-1-0.4-1.4s-0.7-0.6-1.3-0.6c-0.6,0-1,0.2-1.2,0.5c-0.2,0.4-0.4,0.8-0.4,1.3s0,0.9,0.1,1.4
			s0.1,0.9,0.1,1.4c0,0.8-0.3,1.3-0.8,1.5c-0.6,0.3-1.5,0.4-2.9,0.4c-0.7,0-1.2,0-1.6,0s-0.7-0.1-0.9-0.3c-0.2-0.1-0.4-0.3-0.4-0.6
			c0-0.3,0-0.7,0-1.3v-3.5c0-0.5,0-1,0-1.3c0-0.4,0.1-0.6,0.1-0.9c0.1-0.2,0.1-0.4,0.2-0.5s0.2-0.3,0.4-0.4c0.2-0.1,0.4-0.2,0.6-0.3
			c0.2-0.1,0.5-0.2,0.9-0.2s0.8-0.1,1.3-0.1s1.2,0,2,0c1.3,0,2.4,0,3.2,0c0.8,0,1.5,0.1,2,0.2s0.9,0.2,1.1,0.3
			c0.2,0.1,0.4,0.3,0.6,0.4c0.2,0.3,0.4,0.5,0.5,0.8s0.2,0.6,0.3,1.1c0.1,0.4,0.1,0.9,0.1,1.5s0,1.3,0,2.1c0,1.2,0.1,2.1,0.3,2.5
			c0.2,0.5,0.6,0.7,1.3,0.7c0.5,0,0.9-0.2,1.2-0.5c0.3-0.3,0.5-0.7,0.5-1.2c0-0.7-0.1-1.4-0.2-2.1s-0.2-1.4-0.2-2.2
			c0-0.8,0.1-1.6,0.2-2.4s0.2-1.6,0.2-2.4s-0.2-1.3-0.6-1.6c-0.4-0.3-1-0.5-1.7-0.5c-2.4,0-4.7,0.1-7.1,0.2
			c-2.4,0.2-4.9,0.2-7.6,0.2c-1.7,0-3-0.1-4.2-0.2c-1.1-0.2-2.2-0.2-3.3-0.2c-0.5,0-0.9,0.1-1.3,0.4s-0.6,0.7-0.6,1.2
			c0,0.4,0.1,0.8,0.4,1c0.3,0.3,0.6,0.4,1,0.4c0.3,0,0.7,0,1-0.1s0.7-0.1,1-0.1c1.2,0,1.9,0.5,2.1,1.6c0.1,0.3,0.1,0.7,0.2,1.2
			c0,0.5,0,1,0,1.5v1.5v1.3v10.7V79c0,0.6,0,1.1,0,1.5s0,0.7-0.1,1c0,0.3-0.1,0.5-0.1,0.8c-0.3,1.1-1,1.6-2.1,1.6
			c-0.3,0-0.7,0-1-0.1s-0.7-0.1-1-0.1c-0.4,0-0.7,0.1-1,0.4s-0.4,0.6-0.4,1c0,0.5,0.2,0.9,0.5,1.2c0.3,0.3,0.8,0.4,1.4,0.4
			c1.1,0,2.2-0.1,3.3-0.2c1.1-0.2,2.5-0.2,4.2-0.2c2.7,0,5.2,0.1,7.6,0.2c2.4,0.2,4.8,0.2,7.1,0.2c1.9,0,2.8-0.7,2.8-2
			c0-0.7,0-1.4-0.1-2.2c-0.1-0.7-0.1-1.5-0.1-2.2c0-0.8,0-1.5,0.1-2.2s0.1-1.4,0.1-2.2c0-0.6-0.1-1.1-0.4-1.4
			c-0.2-0.4-0.7-0.6-1.3-0.6c-0.6,0-1,0.2-1.3,0.6c-0.2,0.4-0.4,0.9-0.4,1.4c0,0.7,0,1.3,0.1,2c0.1,0.6,0.1,1.3,0.1,2
			c0,0.8-0.1,1.5-0.3,2s-0.5,0.9-1,1.1c-0.4,0.3-1,0.4-1.7,0.5s-1.5,0.1-2.4,0.1H39c-0.8,0-1.4,0-1.9-0.1s-0.8-0.2-1.1-0.3
			c-0.3-0.2-0.4-0.4-0.5-0.8c-0.1-0.3-0.1-0.8-0.2-1.4l-0.1-3.1L35.2,74.9L35.2,74.9z"/>
	</g>
	<g>
		<defs>
			<rect id="SVGID_5_" x="3" y="3.6" width="387" height="143"/>
		</defs>
		<clipPath id="SVGID_6_">
			<use xlink:href="#SVGID_5_"  style="overflow:visible;"/>
		</clipPath>
		<path class="st2" d="M212.6,15c-0.6,0.6-0.8,1.2-0.8,2s0.3,1.4,0.8,2c0.6,0.5,1.2,0.8,2,0.8s1.4-0.3,2-0.8s0.8-1.2,0.8-2
			s-0.3-1.4-0.8-2c-0.6-0.6-1.2-0.8-2-0.8S213.2,14.5,212.6,15 M212.6,29.7c-0.6,0.6-0.8,1.2-0.8,2s0.3,1.5,0.8,2
			c0.6,0.5,1.2,0.8,2,0.8s1.4-0.3,2-0.8c0.6-0.6,0.8-1.2,0.8-2s-0.3-1.4-0.8-2c-0.6-0.6-1.2-0.8-2-0.8S213.2,29.2,212.6,29.7
			 M193.2,33.6c1.3-0.8,2.4-1.7,3.3-2.8c0.9-1.1,1.6-2.3,2.1-3.5c0.5-1.3,0.9-2.6,1.1-4s0.3-2.8,0.3-4.1c0-1.9-0.2-3.8-0.7-5.7
			c-0.5-1.9-1.2-3.5-2.2-5s-2.3-2.6-3.9-3.5c-1.6-0.9-3.5-1.3-5.8-1.3c-2,0-3.9,0.5-5.7,1.3c-1.8,0.9-3.2,2.2-4.3,4
			c-0.5,0.8-0.9,1.6-1.2,2.5s-0.6,1.8-0.8,2.8s-0.4,1.9-0.5,2.8s-0.2,1.8-0.2,2.7c0,1.9,0.2,3.8,0.7,5.6c0.4,1.9,1.2,3.5,2.2,5
			s2.3,2.6,3.8,3.5c1.6,0.9,3.5,1.3,5.7,1.3c0.2,0,0.4,0,0.7,0c0.2,0,0.4,0,0.7-0.1c0.2,0,0.4-0.1,0.7-0.1c0.2,0,0.4-0.1,0.7-0.1
			v2.9c0,1.7,0.4,3.1,1.3,4c0.9,1,2.3,1.4,4.1,1.4c0.9,0,1.8-0.2,2.6-0.5s1.5-0.8,2.1-1.6c0.3-0.5,0.6-1,0.8-1.6s0.3-1.2,0.3-1.8
			c0-0.7-0.1-1.2-0.3-1.6s-0.7-0.6-1.5-0.6c-0.3,0-0.6,0.1-0.8,0.2s-0.3,0.3-0.4,0.5c-0.1,0.2-0.2,0.4-0.2,0.7
			c0,0.3-0.1,0.5-0.1,0.8c-0.1,0.8-0.2,1.4-0.5,1.9c-0.2,0.5-0.8,0.8-1.8,0.8c-0.6,0-1-0.1-1.4-0.3c-0.3-0.2-0.6-0.5-0.7-0.8
			c-0.2-0.3-0.3-0.7-0.3-1.2c0-0.4-0.1-0.9,0-1.3v-3.2H193.2z M192.9,29.2c0-0.8-0.1-1.5-0.1-2.3s-0.2-1.5-0.6-2.2
			c-0.4-0.8-1.1-1.5-2-1.9s-1.8-0.7-2.7-0.7c-0.7,0-1.4,0.1-2.1,0.3c-0.7,0.2-1.3,0.6-1.9,1c-0.6,0.4-1,1-1.3,1.6s-0.5,1.3-0.5,2.1
			c0,0.7,0.1,1.4,0.3,2c0.2,0.7,0.5,1.3,0.8,1.8l-0.1,0.1c-0.3-0.1-0.5-0.4-0.8-0.7c-0.3-0.3-0.5-0.6-0.7-1s-0.4-0.7-0.6-1.1
			c-0.2-0.4-0.3-0.7-0.5-0.9c-0.6-1.2-0.9-2.5-1-3.9s-0.2-2.7-0.2-3.9c0-1.4,0.1-2.9,0.4-4.4c0.2-1.5,0.7-2.9,1.3-4.2
			c0.7-1.3,1.6-2.3,2.7-3.1c1.1-0.8,2.6-1.2,4.4-1.2c1.7,0,3.1,0.4,4.1,1.2c1.1,0.8,1.9,1.8,2.5,3s1,2.6,1.3,4s0.3,2.8,0.3,4.2
			c0,0.9,0,1.9-0.1,2.9s-0.2,2-0.4,3s-0.5,1.9-1,2.8c-0.4,0.9-1,1.8-1.6,2.5L192.9,29.2L192.9,29.2z M189.9,31.6
			c-0.4,0.1-0.8,0.3-1.2,0.3c-0.4,0.1-0.8,0.1-1.2,0.1c-1.1,0-2-0.4-2.6-1.2S184,29.1,184,28c0-1,0.3-1.8,0.9-2.4s1.4-1,2.4-1
			c0.6,0,1.1,0.1,1.4,0.4c0.4,0.2,0.6,0.6,0.8,0.9c0.2,0.4,0.3,0.8,0.4,1.3c0.1,0.5,0.1,0.9,0.1,1.4v3H189.9z"/>
	</g>
</g>
</svg>
