<?xml version="1.0" encoding="utf-8"?>
<!-- Generator: Adobe Illustrator 19.0.0, SVG Export Plug-In . SVG Version: 6.00 Build 0)  -->
<svg version="1.1" id="Calque_1" xmlns="http://www.w3.org/2000/svg" xmlns:xlink="http://www.w3.org/1999/xlink" x="0px" y="0px"
	 viewBox="0 0 1190.6 841.9" style="enable-background:new 0 0 1190.6 841.9;" xml:space="preserve">
<metadata><?xpacket begin="﻿" id="W5M0MpCehiHzreSzNTczkc9d"?>
<x:xmpmeta xmlns:x="adobe:ns:meta/" x:xmptk="Adobe XMP Core 5.6-c067 79.157747, 2015/03/30-23:40:42        ">
   <rdf:RDF xmlns:rdf="http://www.w3.org/1999/02/22-rdf-syntax-ns#">
      <rdf:Description rdf:about=""/>
   </rdf:RDF>
</x:xmpmeta>
                                                                                                    
                                                                                                    
                                                                                                    
                                                                                                    
                                                                                                    
                                                                                                    
                                                                                                    
                                                                                                    
                                                                                                    
                                                                                                    
                                                                                                    
                                                                                                    
                                                                                                    
                                                                                                    
                                                                                                    
                                                                                                    
                                                                                                    
                                                                                                    
                                                                                                    
                                                                                                    
                           
<?xpacket end="w"?></metadata>
<style type="text/css">
	.st0{clip-path:url(#XMLID_48_);}
</style>
<g id="XMLID_2_">
	<defs>
		<rect id="XMLID_3_" x="236.3" y="382.3" width="754.1" height="38.6"/>
	</defs>
	<clipPath id="XMLID_48_">
		<use xlink:href="#XMLID_3_"  style="overflow:visible;"/>
	</clipPath>
	<path id="XMLID_4_" class="st0" d="M985.6,407.9c-0.6,0.6-0.8,1.2-0.8,2c0,0.8,0.3,1.5,0.8,2c0.6,0.6,1.2,0.8,2,0.8
		c0.8,0,1.4-0.3,2-0.8c0.5-0.5,0.8-1.2,0.8-2c0-0.8-0.3-1.4-0.8-2c-0.6-0.6-1.2-0.8-2-0.8C986.8,407.1,986.2,407.3,985.6,407.9
		 M972.7,403.2c0.6,0.1,1.1,0.3,1.5,0.6c0.4,0.3,0.8,0.6,1.1,1c0.3,0.4,0.4,1,0.4,1.7c0,0.6-0.1,1.1-0.4,1.6
		c-0.3,0.5-0.6,0.9-1.1,1.2c-0.5,0.4-1.1,0.7-1.7,0.8c-0.6,0.1-1.3,0.2-1.9,0.2c-0.4,0-0.9,0-1.5-0.1c-0.5-0.1-1.1-0.2-1.6-0.3
		c-0.5-0.2-1-0.3-1.5-0.6c-0.5-0.2-0.9-0.5-1.2-0.8c-0.2-0.2-0.4-0.4-0.5-0.6c-0.1-0.2-0.2-0.4-0.3-0.7c-0.1-0.3-0.1-0.6-0.2-1
		c0-0.4-0.1-0.9-0.2-1.6c0-0.5-0.2-0.9-0.4-1.1c-0.2-0.2-0.6-0.3-1-0.3c-0.5,0-0.9,0.1-1.1,0.4c-0.3,0.3-0.4,0.7-0.4,1.2
		c0,0.6,0.1,1.2,0.2,1.7c0.1,0.6,0.2,1.2,0.2,1.7c0,0.6-0.1,1.2-0.2,1.8c-0.1,0.6-0.2,1.2-0.2,1.8c0,0.5,0.1,0.9,0.4,1.3
		c0.3,0.4,0.7,0.5,1.3,0.5c0.5,0,0.9-0.2,1.2-0.6c0.3-0.4,0.4-1,0.3-1.8c0.9,0.8,1.9,1.3,3,1.6c1.1,0.3,2.2,0.5,3.4,0.5
		c1.1,0,2.2-0.1,3.3-0.4c1.1-0.3,2-0.7,2.9-1.3c0.9-0.6,1.5-1.3,2.1-2.2c0.5-0.9,0.8-2,0.8-3.2c0-1.1-0.2-2.1-0.6-2.8
		c-0.4-0.8-1-1.4-1.7-1.9c-0.8-0.5-1.7-0.9-2.8-1.2c-1.1-0.3-2.4-0.5-3.9-0.7c-1.9-0.2-3.2-0.6-4-1c-0.8-0.5-1.2-1.2-1.2-2.3
		c0-0.6,0.1-1.2,0.4-1.7c0.3-0.5,0.7-0.9,1.2-1.2c0.5-0.3,1-0.5,1.6-0.7c0.6-0.2,1.1-0.2,1.7-0.2c0.7,0,1.4,0.2,2.1,0.5
		c0.7,0.3,1.4,0.7,2,1.1c0.2,0.1,0.4,0.3,0.5,0.4c0.1,0.1,0.2,0.3,0.3,0.5c0.1,0.2,0.1,0.4,0.2,0.7c0,0.3,0,0.6,0,1
		c0,1.4,0.5,2.1,1.4,2.1c0.5,0,0.9-0.2,1.2-0.5c0.3-0.3,0.4-0.7,0.4-1.2c0-0.5,0-1-0.1-1.6c-0.1-0.5-0.1-1.1-0.1-1.6
		c0-0.5,0-1.1,0.1-1.6c0.1-0.5,0.1-1.1,0.1-1.6c0-1-0.5-1.4-1.5-1.4c-0.6,0-1,0.2-1.2,0.5s-0.3,0.8-0.2,1.3c-0.7-0.6-1.5-1-2.4-1.2
		c-0.9-0.2-1.8-0.3-2.7-0.3c-1.1,0-2.1,0.2-3.1,0.5c-1,0.3-1.9,0.7-2.7,1.3c-0.8,0.6-1.4,1.3-1.9,2.2c-0.5,0.9-0.7,1.9-0.7,3.1
		c0,1.3,0.3,2.4,0.9,3.2c0.6,0.8,1.4,1.4,2.3,1.8c0.9,0.4,2,0.7,3.1,0.9c1.1,0.2,2.2,0.3,3.2,0.5C971.6,403,972.1,403,972.7,403.2
		 M942.7,406.2c0,0.8,0,1.4-0.1,1.8c0,0.5-0.1,0.8-0.2,1.1c-0.1,0.3-0.2,0.4-0.4,0.5c-0.2,0.1-0.4,0.2-0.6,0.2c-0.4,0-0.7,0-1-0.1
		c-0.3-0.1-0.6-0.1-1-0.1c-0.4,0-0.8,0.1-1.1,0.4s-0.4,0.6-0.4,1c0,0.5,0.2,0.9,0.6,1.2c0.4,0.3,0.9,0.4,1.3,0.4
		c0.4,0,0.8,0,1.2-0.1c0.4,0,0.7-0.1,1.1-0.2c0.3-0.1,0.7-0.1,1.1-0.2c0.4,0,0.8-0.1,1.2-0.1c0.9,0,1.7,0.1,2.3,0.2
		c0.7,0.2,1.4,0.2,2.1,0.2c0.5,0,0.9-0.1,1.3-0.4c0.4-0.3,0.6-0.7,0.6-1.2c0-0.4-0.1-0.7-0.4-1c-0.3-0.3-0.6-0.4-1.1-0.4
		c-0.3,0-0.6,0-1,0.1c-0.3,0.1-0.7,0.1-1,0.1c-0.2,0-0.4,0-0.5-0.1c-0.2-0.1-0.3-0.3-0.4-0.5c-0.1-0.3-0.2-0.6-0.3-1.1
		c-0.1-0.5-0.1-1.1-0.1-1.9v-5.8c0-1.6,0.1-2.9,0.4-3.9c0.3-1.1,0.6-1.9,1.1-2.5c0.5-0.6,1.1-1.1,1.7-1.3c0.7-0.3,1.4-0.4,2.3-0.4
		c0.4,0,0.9,0.1,1.4,0.2c0.5,0.1,0.9,0.3,1.2,0.6c0.4,0.3,0.7,0.6,0.9,1c0.2,0.4,0.4,0.8,0.4,1.3c0,0.3-0.1,0.7-0.3,1
		c-0.1,0-0.2-0.1-0.3-0.1c-0.1,0-0.2,0-0.3,0c-0.5,0-0.9,0.2-1.3,0.6c-0.3,0.4-0.5,0.8-0.5,1.3c0,0.6,0.2,1.1,0.7,1.5
		c0.5,0.4,1,0.6,1.6,0.6c0.7,0,1.2-0.1,1.7-0.4c0.5-0.3,0.8-0.6,1.1-1c0.3-0.4,0.5-0.9,0.6-1.4c0.1-0.5,0.2-1.1,0.2-1.6
		c0-1-0.2-1.9-0.6-2.6c-0.4-0.8-0.9-1.4-1.5-1.9c-0.6-0.5-1.4-0.9-2.2-1.2c-0.9-0.3-1.7-0.4-2.6-0.4c-1.3,0-2.5,0.3-3.5,0.8
		c-1.1,0.5-1.9,1.4-2.6,2.5h-0.1c0-0.9,0-1.5-0.2-2c-0.1-0.5-0.5-0.7-1.1-0.7c-0.4,0-0.8,0.1-1.1,0.2c-0.3,0.2-0.8,0.2-1.3,0.2
		c-0.5,0-1-0.1-1.3-0.2c-0.4-0.2-0.8-0.2-1.2-0.2c-0.5,0-0.9,0.1-1.3,0.4c-0.4,0.3-0.6,0.7-0.6,1.2c0,0.4,0.1,0.7,0.4,1
		c0.3,0.3,0.6,0.4,1.1,0.4c0.6,0,1.1,0,1.4-0.1c0.4-0.1,0.7-0.1,1.1-0.1c0.5,0,0.8,0.2,1,0.7c0.2,0.5,0.3,1.5,0.3,2.9V406.2z
		 M913.3,405.8c0,1.1,0.2,2.2,0.5,3.2c0.3,1,0.9,1.8,1.9,2.5c0.8,0.6,1.7,1.1,2.7,1.3c1,0.3,2,0.4,3,0.4c1.4,0,2.8-0.2,4-0.7
		c1.2-0.5,2.2-1.3,3-2.6h0.1c0,0.9,0,1.5,0.2,2c0.1,0.4,0.4,0.7,0.9,0.7c0.4,0,0.8-0.1,1.2-0.2c0.4-0.2,0.8-0.2,1.3-0.2
		c0.4,0,0.8,0.1,1.2,0.2c0.4,0.2,0.8,0.2,1.2,0.2c0.5,0,0.9-0.1,1.3-0.4c0.4-0.3,0.6-0.7,0.6-1.2c0-0.4-0.1-0.7-0.4-1
		c-0.3-0.3-0.6-0.4-1.1-0.4c-0.3,0-0.6,0-1,0.1c-0.3,0.1-0.7,0.1-1,0.1c-0.2,0-0.4,0-0.5-0.2c-0.2-0.1-0.3-0.3-0.4-0.5
		c-0.1-0.3-0.2-0.6-0.2-1.1c-0.1-0.5-0.1-1.1-0.1-1.8V398c0-1.2,0-2.3,0.1-3.3c0-1,0.1-2.1,0.1-3.2c0-0.4-0.1-0.8-0.3-1.1
		c-0.2-0.3-0.5-0.4-1-0.4c-0.4,0-0.8,0.1-1.2,0.2c-0.4,0.2-0.8,0.2-1.2,0.2c-0.4,0-0.9-0.1-1.3-0.2c-0.4-0.2-0.9-0.2-1.4-0.2
		c-0.6,0-1,0.1-1.4,0.4c-0.4,0.3-0.6,0.7-0.6,1.2c0,0.4,0.1,0.7,0.4,1c0.3,0.3,0.6,0.4,1.1,0.4c0.3,0,0.6,0,1-0.1
		c0.3-0.1,0.7-0.1,1-0.1c0.4,0,0.8,0.3,1.1,0.8c0.3,0.6,0.5,1.5,0.5,2.8v3c0,0.5,0,1.1,0,1.7c0,0.6,0,1.3-0.1,1.9
		c0,0.7-0.1,1.3-0.2,1.9c-0.1,0.6-0.2,1.1-0.4,1.6c-0.4,1.3-1.1,2.3-2.2,2.9s-2.2,0.9-3.5,0.9c-0.5,0-1-0.1-1.6-0.2
		c-0.5-0.1-1-0.3-1.4-0.6c-0.4-0.3-0.8-0.6-1.2-1c-0.3-0.4-0.6-0.9-0.8-1.4c-0.1-0.4-0.2-0.8-0.3-1.3c-0.1-0.5-0.1-1-0.1-1.5
		c0-0.5-0.1-1.1-0.1-1.6s0-1,0-1.4v-2c0-0.7,0-1.4,0-1.9c0-0.5,0.1-1.1,0.1-1.6c0-0.6,0.1-1.1,0.1-1.8c0-0.6,0-1.4,0-2.3
		c0-0.5-0.1-0.9-0.3-1.3s-0.6-0.5-1.2-0.5c-0.4,0-0.8,0.1-1.2,0.2c-0.4,0.2-0.8,0.2-1.2,0.2c-0.4,0-0.9-0.1-1.3-0.2
		c-0.4-0.2-0.8-0.2-1.2-0.2c-0.6,0-1.1,0.1-1.5,0.4c-0.4,0.3-0.6,0.7-0.6,1.2c0,0.4,0.1,0.7,0.4,1c0.3,0.3,0.6,0.4,1.1,0.4
		c0.3,0,0.6,0,1-0.1c0.3-0.1,0.7-0.1,1-0.1c0.5,0,0.8,0.3,1.1,0.8s0.4,1.5,0.4,2.9V405.8z M905.2,401.8c0.5,0,0.9,0,1.2-0.1
		c0.3,0,0.5-0.1,0.6-0.3c0.1-0.2,0.2-0.4,0.2-0.7c0-0.3,0-0.7,0-1.3c0-1.4-0.2-2.8-0.7-4c-0.5-1.2-1.2-2.3-2-3.2
		c-0.9-0.9-1.9-1.6-3.1-2.1c-1.2-0.5-2.5-0.8-4-0.8c-1.6,0-3,0.3-4.4,1c-1.4,0.7-2.6,1.6-3.6,2.8c-0.9,1.2-1.6,2.5-2,4
		c-0.4,1.5-0.6,3-0.6,4.5c0,1.6,0.2,3.1,0.7,4.5s1.1,2.6,2,3.7s2,1.9,3.2,2.5s2.8,0.9,4.5,0.9c1.2,0,2.5-0.2,3.8-0.6
		c1.3-0.4,2.4-1,3.3-1.9c0.6-0.6,1.2-1.3,1.8-2.3c0.5-0.9,0.8-1.8,0.8-2.7c0-0.5-0.2-0.9-0.5-1.2c-0.3-0.3-0.7-0.5-1.2-0.5
		c-0.6,0-1,0.2-1.2,0.6c-0.2,0.4-0.4,0.8-0.5,1.3c-0.4,1.4-1.1,2.5-2.2,3.2c-1.1,0.7-2.3,1.1-3.8,1.1c-1.2,0-2.2-0.2-3.1-0.7
		c-0.9-0.5-1.6-1.1-2.2-1.9c-0.6-0.8-1-1.7-1.3-2.7c-0.3-1-0.4-2.1-0.3-3.2H905.2z M890.8,398.7c0.1-0.9,0.3-1.7,0.7-2.5
		c0.3-0.8,0.8-1.5,1.4-2c0.6-0.6,1.3-1,2.1-1.3s1.6-0.5,2.6-0.5c1,0,1.8,0.2,2.5,0.5c0.7,0.3,1.4,0.8,1.9,1.3c0.5,0.6,0.9,1.2,1.2,2
		c0.3,0.8,0.4,1.6,0.5,2.5H890.8z M871.8,404.3c0,0.9,0,1.7,0,2.2c0,0.6,0.1,1.1,0.2,1.5c0.1,0.4,0.2,0.8,0.3,1.1
		c0.1,0.3,0.2,0.6,0.4,1c0.5,0.9,1.2,1.6,2.2,2c1,0.4,1.9,0.6,3,0.6c1.5,0,2.8-0.3,3.7-0.8c0.9-0.5,1.6-1.2,2.1-2
		c0.5-0.9,0.8-1.8,1-3c0.1-1.1,0.2-2.3,0.2-3.6c0-0.5-0.1-1-0.3-1.4s-0.7-0.7-1.3-0.7c-0.6,0-1.1,0.2-1.3,0.6
		c-0.3,0.4-0.4,1.1-0.4,2.1v1.4c0,0.5,0,1-0.1,1.5c-0.1,0.5-0.2,1-0.5,1.4c-0.2,0.4-0.6,0.8-1,1c-0.4,0.2-0.9,0.4-1.6,0.4
		c-0.6,0-1.1-0.1-1.5-0.3c-0.4-0.2-0.7-0.5-1-0.9c-0.2-0.4-0.4-0.9-0.5-1.6c-0.1-0.7-0.2-1.5-0.2-2.5V394c0-0.4,0.1-0.7,0.2-0.7
		c0.1-0.1,0.4-0.1,0.9-0.1h3.8c1,0,1.6-0.2,1.9-0.5c0.3-0.3,0.4-0.7,0.4-1.1c0-0.5-0.1-0.9-0.4-1.2c-0.3-0.3-0.9-0.4-1.8-0.4h-4.3
		c-0.3,0-0.5,0-0.6-0.1c-0.1-0.1-0.1-0.3-0.1-0.6V385c0-0.6-0.1-1.1-0.3-1.5c-0.2-0.4-0.6-0.7-1.4-0.7c-0.8,0-1.2,0.2-1.4,0.7
		c-0.2,0.4-0.3,1-0.3,1.6v3.6c0,0.6,0,1-0.1,1.2c-0.1,0.2-0.3,0.2-0.7,0.2h-1.5c-0.5,0-0.9,0.2-1.2,0.5c-0.3,0.3-0.5,0.7-0.5,1.1
		c0,0.7,0.2,1.1,0.6,1.3c0.4,0.2,1,0.3,1.9,0.3c0.7,0,1.1,0.1,1.3,0.3c0.2,0.2,0.3,0.6,0.3,1.3V404.3z M861.9,397.8
		c0-1.3-0.1-2.5-0.4-3.7c-0.3-1.1-1-2.1-2-3c-0.8-0.6-1.8-1.1-2.8-1.3c-1.1-0.3-2.1-0.4-3.1-0.4c-1,0-2,0.1-3,0.4
		c-1,0.3-2,0.7-2.7,1.2c-0.8,0.5-1.4,1.2-1.9,1.9c-0.5,0.8-0.8,1.6-0.8,2.5c0,0.8,0.3,1.4,0.8,2c0.5,0.5,1.2,0.8,1.9,0.8
		c0.6,0,1.2-0.2,1.6-0.5c0.5-0.3,0.7-0.9,0.7-1.5c0-0.4-0.1-0.7-0.2-0.9c-0.1-0.2-0.2-0.4-0.4-0.5c-0.1-0.1-0.2-0.2-0.3-0.2
		c-0.1,0-0.2-0.1-0.2-0.2c0-0.2,0.1-0.4,0.4-0.7c0.2-0.2,0.5-0.4,0.6-0.5c0.5-0.3,1-0.5,1.6-0.7c0.6-0.2,1.2-0.3,1.7-0.3
		c0.6,0,1.3,0.1,1.8,0.2c0.6,0.1,1.1,0.3,1.6,0.7c0.4,0.3,0.8,0.7,1.1,1.2c0.3,0.5,0.4,1.1,0.4,1.8c0,0.8-0.2,1.4-0.6,1.9
		c-0.4,0.4-0.9,0.8-1.5,1s-1.2,0.3-2,0.4c-0.7,0.1-1.4,0.1-2,0.2c-1.1,0.1-2.1,0.3-3,0.5c-0.9,0.2-1.9,0.5-2.8,1.1
		c-1,0.6-1.8,1.3-2.2,2.3c-0.5,0.9-0.7,2-0.7,3.2c0,1.1,0.3,2.1,0.8,3c0.5,0.9,1.2,1.6,2.1,2.2c0.8,0.5,1.6,0.8,2.5,1
		c0.9,0.2,1.8,0.3,2.7,0.3c1.4,0,2.7-0.2,4-0.7c1.3-0.5,2.3-1.3,3-2.6c0.2,1.1,0.8,1.9,1.6,2.4c0.8,0.5,1.8,0.7,2.8,0.7
		c0.7,0,1.4-0.1,2.1-0.3c0.7-0.2,1.3-0.6,1.7-1.2c0.5-0.6,0.7-1.3,0.8-2.2c0.1-0.9,0.1-2.1,0.1-3.8c0-0.5-0.1-0.9-0.3-1.3
		c-0.2-0.3-0.6-0.5-1.2-0.5c-0.4,0-0.7,0.1-0.9,0.2c-0.2,0.2-0.3,0.4-0.4,0.6c-0.1,0.2-0.1,0.5-0.1,0.8v0.9c0,0.3,0,0.7,0,1.2
		c0,0.5,0,0.9-0.1,1.3c-0.1,0.4-0.2,0.8-0.5,1.1c-0.2,0.3-0.6,0.5-1,0.5c-0.5,0-0.9-0.2-1.2-0.5c-0.2-0.4-0.4-0.8-0.5-1.3
		c-0.1-0.5-0.1-1-0.1-1.6c0-0.5,0-1,0-1.3L861.9,397.8z M847.7,404.8c0.3-0.5,0.7-0.8,1.2-1.1c0.5-0.3,1-0.5,1.6-0.6
		c0.6-0.1,1.2-0.2,1.8-0.3c0.5-0.1,1.1-0.1,1.6-0.2c0.6-0.1,1.1-0.1,1.6-0.3c0.5-0.1,1-0.3,1.5-0.5c0.5-0.2,0.9-0.5,1.3-0.9
		c0,0.5-0.1,0.9-0.1,1.4c0,0.5,0,0.9,0,1.4c0,0.8-0.1,1.5-0.2,2.2c-0.1,0.7-0.4,1.4-0.9,2c-0.7,0.8-1.5,1.4-2.5,1.8
		c-1,0.3-2,0.5-3,0.5c-0.6,0-1.1-0.1-1.7-0.2c-0.5-0.1-1-0.3-1.4-0.7c-0.4-0.3-0.8-0.7-1-1.1c-0.3-0.4-0.4-1-0.4-1.7
		C847.2,405.9,847.4,405.3,847.7,404.8 M826.1,406.2c0,0.8,0,1.4-0.1,1.8c0,0.5-0.1,0.8-0.2,1.1c-0.1,0.3-0.2,0.4-0.4,0.5
		c-0.2,0.1-0.4,0.2-0.6,0.2c-0.4,0-0.7,0-1-0.1c-0.3-0.1-0.6-0.1-1-0.1c-0.4,0-0.8,0.1-1.1,0.4s-0.4,0.6-0.4,1
		c0,0.5,0.2,0.9,0.6,1.2c0.4,0.3,0.9,0.4,1.3,0.4c0.4,0,0.8,0,1.2-0.1c0.4,0,0.7-0.1,1.1-0.2c0.3-0.1,0.7-0.1,1.1-0.2
		c0.4,0,0.8-0.1,1.2-0.1c0.9,0,1.7,0.1,2.3,0.2c0.7,0.2,1.4,0.2,2.1,0.2c0.5,0,0.9-0.1,1.3-0.4c0.4-0.3,0.6-0.7,0.6-1.2
		c0-0.4-0.1-0.7-0.4-1s-0.6-0.4-1.1-0.4c-0.3,0-0.6,0-1,0.1c-0.3,0.1-0.7,0.1-1,0.1c-0.2,0-0.4,0-0.5-0.1c-0.2-0.1-0.3-0.3-0.4-0.5
		c-0.1-0.3-0.2-0.6-0.3-1.1c-0.1-0.5-0.1-1.1-0.1-1.9v-5.8c0-1.6,0.1-2.9,0.4-3.9c0.3-1.1,0.6-1.9,1.1-2.5s1.1-1.1,1.7-1.3
		c0.7-0.3,1.4-0.4,2.3-0.4c0.4,0,0.9,0.1,1.4,0.2c0.5,0.1,0.9,0.3,1.2,0.6c0.4,0.3,0.7,0.6,0.9,1c0.2,0.4,0.4,0.8,0.4,1.3
		c0,0.3-0.1,0.7-0.3,1c-0.1,0-0.2-0.1-0.3-0.1c-0.1,0-0.2,0-0.3,0c-0.5,0-0.9,0.2-1.3,0.6c-0.3,0.4-0.5,0.8-0.5,1.3
		c0,0.6,0.2,1.1,0.7,1.5c0.5,0.4,1,0.6,1.6,0.6c0.7,0,1.2-0.1,1.7-0.4c0.5-0.3,0.8-0.6,1.1-1c0.3-0.4,0.5-0.9,0.6-1.4
		c0.1-0.5,0.2-1.1,0.2-1.6c0-1-0.2-1.9-0.6-2.6c-0.4-0.8-0.9-1.4-1.5-1.9c-0.6-0.5-1.4-0.9-2.2-1.2c-0.9-0.3-1.7-0.4-2.6-0.4
		c-1.3,0-2.5,0.3-3.5,0.8c-1.1,0.5-1.9,1.4-2.6,2.5H829c0-0.9,0-1.5-0.2-2c-0.1-0.5-0.5-0.7-1.1-0.7c-0.4,0-0.8,0.1-1.1,0.2
		c-0.3,0.2-0.8,0.2-1.3,0.2c-0.5,0-1-0.1-1.3-0.2c-0.4-0.2-0.8-0.2-1.2-0.2c-0.5,0-0.9,0.1-1.3,0.4c-0.4,0.3-0.6,0.7-0.6,1.2
		c0,0.4,0.1,0.7,0.4,1c0.3,0.3,0.6,0.4,1.1,0.4c0.6,0,1.1,0,1.4-0.1c0.4-0.1,0.7-0.1,1.1-0.1c0.5,0,0.8,0.2,1,0.7
		c0.2,0.5,0.3,1.5,0.3,2.9V406.2z M796.7,405.8c0,1.1,0.2,2.2,0.5,3.2c0.3,1,0.9,1.8,1.9,2.5c0.8,0.6,1.7,1.1,2.7,1.3s2,0.4,3,0.4
		c1.5,0,2.8-0.2,4-0.7c1.2-0.5,2.2-1.3,3-2.6h0.1c0,0.9,0,1.5,0.2,2c0.1,0.4,0.4,0.7,0.9,0.7c0.4,0,0.8-0.1,1.2-0.2
		c0.4-0.2,0.8-0.2,1.3-0.2c0.4,0,0.8,0.1,1.2,0.2c0.4,0.2,0.8,0.2,1.2,0.2c0.5,0,0.9-0.1,1.3-0.4c0.4-0.3,0.6-0.7,0.6-1.2
		c0-0.4-0.1-0.7-0.4-1c-0.3-0.3-0.6-0.4-1.1-0.4c-0.3,0-0.6,0-1,0.1c-0.3,0.1-0.7,0.1-1,0.1c-0.2,0-0.4,0-0.5-0.2
		c-0.2-0.1-0.3-0.3-0.4-0.5c-0.1-0.3-0.2-0.6-0.2-1.1c-0.1-0.5-0.1-1.1-0.1-1.8V398c0-1.2,0-2.3,0.1-3.3c0-1,0.1-2.1,0.1-3.2
		c0-0.4-0.1-0.8-0.3-1.1c-0.2-0.3-0.5-0.4-1-0.4c-0.4,0-0.8,0.1-1.2,0.2c-0.4,0.2-0.8,0.2-1.2,0.2c-0.4,0-0.9-0.1-1.3-0.2
		c-0.4-0.2-0.9-0.2-1.4-0.2c-0.6,0-1,0.1-1.4,0.4c-0.4,0.3-0.6,0.7-0.6,1.2c0,0.4,0.1,0.7,0.4,1c0.3,0.3,0.6,0.4,1.1,0.4
		c0.3,0,0.6,0,1-0.1c0.3-0.1,0.7-0.1,1-0.1c0.4,0,0.8,0.3,1.1,0.8c0.3,0.6,0.5,1.5,0.5,2.8v3c0,0.5,0,1.1,0,1.7c0,0.6,0,1.3-0.1,1.9
		c0,0.7-0.1,1.3-0.2,1.9c-0.1,0.6-0.2,1.1-0.4,1.6c-0.4,1.3-1.1,2.3-2.2,2.9c-1,0.6-2.2,0.9-3.5,0.9c-0.5,0-1-0.1-1.6-0.2
		c-0.5-0.1-1-0.3-1.4-0.6c-0.4-0.3-0.8-0.6-1.2-1c-0.3-0.4-0.6-0.9-0.8-1.4c-0.1-0.4-0.2-0.8-0.3-1.3c-0.1-0.5-0.1-1-0.1-1.5
		c0-0.5-0.1-1.1-0.1-1.6c0-0.5,0-1,0-1.4v-2c0-0.7,0-1.4,0-1.9c0-0.5,0.1-1.1,0.1-1.6c0-0.6,0.1-1.1,0.1-1.8c0-0.6,0-1.4,0-2.3
		c0-0.5-0.1-0.9-0.3-1.3c-0.2-0.3-0.6-0.5-1.2-0.5c-0.4,0-0.8,0.1-1.2,0.2c-0.4,0.2-0.8,0.2-1.2,0.2c-0.4,0-0.9-0.1-1.3-0.2
		c-0.4-0.2-0.8-0.2-1.2-0.2c-0.6,0-1.1,0.1-1.5,0.4c-0.4,0.3-0.6,0.7-0.6,1.2c0,0.4,0.1,0.7,0.4,1c0.3,0.3,0.6,0.4,1.1,0.4
		c0.3,0,0.6,0,1-0.1c0.3-0.1,0.7-0.1,1-0.1c0.5,0,0.8,0.3,1.1,0.8s0.4,1.5,0.4,2.9V405.8z M779.1,409.5c-0.9-0.5-1.5-1.2-2.1-2.1
		c-0.5-0.9-0.9-1.8-1.1-2.9c-0.2-1.1-0.3-2.1-0.3-3.2c0-1.1,0.1-2.1,0.4-3.2c0.3-1.1,0.7-2,1.2-2.9c0.6-0.9,1.3-1.6,2.2-2.1
		c0.9-0.5,1.9-0.8,3.2-0.8c0.5,0,1,0.1,1.6,0.2c0.6,0.1,1.1,0.4,1.5,0.6c0.5,0.3,0.9,0.6,1.2,1.1c0.3,0.4,0.5,0.9,0.5,1.5
		c-0.6,0-1.1,0.2-1.6,0.5c-0.5,0.3-0.7,0.8-0.7,1.5c0,0.7,0.3,1.3,0.8,1.7s1.1,0.7,1.8,0.7c0.5,0,1-0.1,1.5-0.3
		c0.4-0.2,0.8-0.5,1-0.9c0.3-0.4,0.5-0.8,0.6-1.3c0.1-0.5,0.2-1,0.2-1.5c0-1-0.3-2-0.8-2.9c-0.6-0.9-1.2-1.7-2.1-2.3
		c-0.8-0.5-1.6-0.9-2.5-1.2c-0.9-0.3-1.8-0.4-2.7-0.4c-1.8,0-3.4,0.3-4.7,1c-1.3,0.7-2.4,1.5-3.3,2.7c-0.9,1.1-1.5,2.4-2,3.9
		c-0.4,1.5-0.7,3.1-0.7,4.8c0,1.5,0.2,3,0.7,4.4c0.4,1.4,1.1,2.6,1.9,3.7c0.8,1.1,1.9,1.9,3.2,2.5c1.3,0.6,2.7,0.9,4.4,0.9
		c1.3,0,2.6-0.2,3.8-0.7c1.2-0.4,2.3-1.2,3.2-2.2c0.3-0.3,0.6-0.7,0.8-1.1c0.3-0.4,0.5-0.9,0.8-1.4c0.2-0.5,0.4-1,0.6-1.5
		c0.1-0.5,0.2-1,0.2-1.4c0-0.5-0.2-0.9-0.5-1.2c-0.3-0.3-0.7-0.5-1.2-0.5c-0.4,0-0.7,0.1-0.9,0.3c-0.2,0.2-0.4,0.4-0.5,0.7
		c-0.1,0.3-0.2,0.6-0.3,0.9c-0.1,0.3-0.2,0.6-0.2,0.9c-0.3,1.3-1,2.3-2,3.1c-1,0.8-2.1,1.1-3.5,1.1C781,410.3,780,410,779.1,409.5
		 M740.5,404.3c0,0.9,0,1.7,0,2.2c0,0.6,0.1,1.1,0.2,1.5c0.1,0.4,0.2,0.8,0.3,1.1c0.1,0.3,0.2,0.6,0.4,1c0.5,0.9,1.2,1.6,2.2,2
		c1,0.4,1.9,0.6,3,0.6c1.5,0,2.8-0.3,3.7-0.8c0.9-0.5,1.6-1.2,2.1-2c0.5-0.9,0.8-1.8,1-3c0.1-1.1,0.2-2.3,0.2-3.6
		c0-0.5-0.1-1-0.3-1.4s-0.7-0.7-1.3-0.7c-0.6,0-1.1,0.2-1.3,0.6s-0.4,1.1-0.4,2.1v1.4c0,0.5,0,1-0.1,1.5c-0.1,0.5-0.2,1-0.5,1.4
		c-0.2,0.4-0.6,0.8-1,1c-0.4,0.2-0.9,0.4-1.6,0.4c-0.6,0-1.1-0.1-1.5-0.3c-0.4-0.2-0.7-0.5-1-0.9c-0.2-0.4-0.4-0.9-0.5-1.6
		c-0.1-0.7-0.2-1.5-0.2-2.5V394c0-0.4,0.1-0.7,0.2-0.7c0.1-0.1,0.4-0.1,0.9-0.1h3.8c1,0,1.6-0.2,1.9-0.5c0.3-0.3,0.4-0.7,0.4-1.1
		c0-0.5-0.1-0.9-0.4-1.2c-0.3-0.3-0.9-0.4-1.8-0.4h-4.3c-0.3,0-0.5,0-0.6-0.1c-0.1-0.1-0.1-0.3-0.1-0.6V385c0-0.6-0.1-1.1-0.3-1.5
		c-0.2-0.4-0.6-0.7-1.4-0.7c-0.8,0-1.2,0.2-1.4,0.7c-0.2,0.4-0.3,1-0.3,1.6v3.6c0,0.6,0,1-0.1,1.2c-0.1,0.2-0.3,0.2-0.7,0.2h-1.5
		c-0.5,0-0.9,0.2-1.2,0.5c-0.3,0.3-0.5,0.7-0.5,1.1c0,0.7,0.2,1.1,0.6,1.3c0.4,0.2,1,0.3,1.9,0.3c0.7,0,1.1,0.1,1.3,0.3
		c0.2,0.2,0.3,0.6,0.3,1.3V404.3z M732.9,401.8c0.5,0,0.9,0,1.2-0.1c0.3,0,0.5-0.1,0.6-0.3c0.1-0.2,0.2-0.4,0.2-0.7
		c0-0.3,0-0.7,0-1.3c0-1.4-0.2-2.8-0.7-4c-0.5-1.2-1.2-2.3-2-3.2c-0.9-0.9-1.9-1.6-3.1-2.1c-1.2-0.5-2.5-0.8-4-0.8
		c-1.6,0-3,0.3-4.4,1c-1.4,0.7-2.6,1.6-3.6,2.8c-0.9,1.2-1.6,2.5-2,4c-0.4,1.5-0.6,3-0.6,4.5c0,1.6,0.2,3.1,0.7,4.5
		c0.4,1.4,1.1,2.6,2,3.7s2,1.9,3.2,2.5c1.3,0.6,2.8,0.9,4.5,0.9c1.2,0,2.5-0.2,3.8-0.6c1.3-0.4,2.4-1,3.3-1.9
		c0.6-0.6,1.2-1.3,1.8-2.3c0.5-0.9,0.8-1.8,0.8-2.7c0-0.5-0.2-0.9-0.5-1.2c-0.3-0.3-0.7-0.5-1.2-0.5c-0.6,0-1,0.2-1.2,0.6
		c-0.2,0.4-0.4,0.8-0.5,1.3c-0.4,1.4-1.1,2.5-2.2,3.2c-1.1,0.7-2.3,1.1-3.8,1.1c-1.2,0-2.2-0.2-3.1-0.7c-0.9-0.5-1.6-1.1-2.2-1.9
		c-0.6-0.8-1-1.7-1.3-2.7c-0.3-1-0.4-2.1-0.3-3.2H732.9z M718.6,398.7c0.1-0.9,0.3-1.7,0.7-2.5s0.8-1.5,1.4-2c0.6-0.6,1.3-1,2.1-1.3
		c0.8-0.3,1.6-0.5,2.6-0.5c1,0,1.8,0.2,2.5,0.5c0.7,0.3,1.4,0.8,1.9,1.3c0.5,0.6,0.9,1.2,1.2,2c0.3,0.8,0.4,1.6,0.5,2.5H718.6z
		 M687.7,403.2c0.5,0.1,1,0.3,1.5,0.6s0.8,0.6,1.1,1c0.3,0.4,0.4,1,0.4,1.7c0,0.6-0.1,1.1-0.4,1.6c-0.3,0.5-0.6,0.9-1.1,1.2
		c-0.5,0.4-1.1,0.7-1.7,0.8c-0.6,0.1-1.3,0.2-1.9,0.2c-0.4,0-0.9,0-1.5-0.1c-0.5-0.1-1.1-0.2-1.6-0.3c-0.5-0.2-1-0.3-1.5-0.6
		c-0.5-0.2-0.9-0.5-1.2-0.8c-0.2-0.2-0.4-0.4-0.5-0.6c-0.1-0.2-0.2-0.4-0.3-0.7c-0.1-0.3-0.1-0.6-0.2-1c0-0.4-0.1-0.9-0.2-1.6
		c0-0.5-0.2-0.9-0.4-1.1c-0.2-0.2-0.6-0.3-1-0.3c-0.5,0-0.9,0.1-1.1,0.4c-0.3,0.3-0.4,0.7-0.4,1.2c0,0.6,0.1,1.2,0.2,1.7
		c0.1,0.6,0.2,1.2,0.2,1.7c0,0.6-0.1,1.2-0.2,1.8c-0.1,0.6-0.2,1.2-0.2,1.8c0,0.5,0.1,0.9,0.4,1.3c0.3,0.4,0.7,0.5,1.3,0.5
		c0.5,0,0.9-0.2,1.2-0.6c0.3-0.4,0.4-1,0.3-1.8c0.9,0.8,1.9,1.3,3,1.6c1.1,0.3,2.2,0.5,3.4,0.5c1.1,0,2.2-0.1,3.3-0.4
		c1.1-0.3,2-0.7,2.9-1.3c0.9-0.6,1.5-1.3,2.1-2.2c0.5-0.9,0.8-2,0.8-3.2c0-1.1-0.2-2.1-0.6-2.8c-0.4-0.8-1-1.4-1.7-1.9
		c-0.8-0.5-1.7-0.9-2.8-1.2c-1.1-0.3-2.4-0.5-3.9-0.7c-1.9-0.2-3.2-0.6-4-1c-0.8-0.5-1.2-1.2-1.2-2.3c0-0.6,0.1-1.2,0.4-1.7
		c0.3-0.5,0.7-0.9,1.2-1.2c0.5-0.3,1-0.5,1.6-0.7c0.6-0.2,1.1-0.2,1.7-0.2c0.7,0,1.4,0.2,2.1,0.5c0.7,0.3,1.4,0.7,2,1.1
		c0.2,0.1,0.4,0.3,0.5,0.4c0.1,0.1,0.2,0.3,0.3,0.5s0.1,0.4,0.2,0.7c0,0.3,0,0.6,0,1c0,1.4,0.5,2.1,1.4,2.1c0.5,0,0.9-0.2,1.2-0.5
		c0.3-0.3,0.4-0.7,0.4-1.2c0-0.5,0-1-0.1-1.6c-0.1-0.5-0.1-1.1-0.1-1.6c0-0.5,0-1.1,0.1-1.6c0.1-0.5,0.1-1.1,0.1-1.6
		c0-1-0.5-1.4-1.5-1.4c-0.6,0-1,0.2-1.2,0.5c-0.2,0.4-0.3,0.8-0.2,1.3c-0.7-0.6-1.5-1-2.4-1.2c-0.9-0.2-1.8-0.3-2.7-0.3
		c-1.1,0-2.1,0.2-3.1,0.5c-1,0.3-1.9,0.7-2.7,1.3c-0.8,0.6-1.4,1.3-1.9,2.2c-0.5,0.9-0.7,1.9-0.7,3.1c0,1.3,0.3,2.4,0.9,3.2
		c0.6,0.8,1.4,1.4,2.3,1.8s1.9,0.7,3.1,0.9c1.1,0.2,2.2,0.3,3.2,0.5C686.6,403,687.2,403,687.7,403.2 M670.3,401.8
		c0.5,0,0.9,0,1.2-0.1c0.3,0,0.5-0.1,0.6-0.3c0.1-0.2,0.2-0.4,0.2-0.7c0-0.3,0-0.7,0-1.3c0-1.4-0.2-2.8-0.7-4
		c-0.5-1.2-1.2-2.3-2-3.2c-0.9-0.9-1.9-1.6-3.1-2.1c-1.2-0.5-2.5-0.8-4-0.8c-1.6,0-3,0.3-4.4,1c-1.4,0.7-2.6,1.6-3.6,2.8
		c-0.9,1.2-1.6,2.5-2,4c-0.4,1.5-0.6,3-0.6,4.5c0,1.6,0.2,3.1,0.7,4.5s1.1,2.6,2,3.7s1.9,1.9,3.2,2.5c1.3,0.6,2.8,0.9,4.5,0.9
		c1.2,0,2.5-0.2,3.8-0.6c1.3-0.4,2.4-1,3.3-1.9c0.6-0.6,1.2-1.3,1.8-2.3c0.5-0.9,0.8-1.8,0.8-2.7c0-0.5-0.2-0.9-0.5-1.2
		c-0.3-0.3-0.7-0.5-1.2-0.5c-0.6,0-1,0.2-1.2,0.6c-0.2,0.4-0.4,0.8-0.5,1.3c-0.4,1.4-1.1,2.5-2.2,3.2c-1.1,0.7-2.3,1.1-3.8,1.1
		c-1.2,0-2.2-0.2-3.1-0.7c-0.9-0.5-1.6-1.1-2.2-1.9c-0.6-0.8-1-1.7-1.3-2.7c-0.3-1-0.4-2.1-0.3-3.2H670.3z M655.9,398.7
		c0.1-0.9,0.3-1.7,0.7-2.5c0.3-0.8,0.8-1.5,1.4-2c0.6-0.6,1.3-1,2.1-1.3s1.6-0.5,2.6-0.5c1,0,1.8,0.2,2.5,0.5
		c0.7,0.3,1.4,0.8,1.9,1.3c0.5,0.6,0.9,1.2,1.2,2c0.3,0.8,0.4,1.6,0.5,2.5H655.9z M636.9,404.3c0,0.9,0,1.7,0,2.2
		c0,0.6,0.1,1.1,0.2,1.5c0.1,0.4,0.2,0.8,0.3,1.1c0.1,0.3,0.2,0.6,0.4,1c0.5,0.9,1.2,1.6,2.2,2c1,0.4,1.9,0.6,3,0.6
		c1.5,0,2.8-0.3,3.7-0.8c0.9-0.5,1.6-1.2,2.1-2c0.5-0.9,0.8-1.8,1-3c0.1-1.1,0.2-2.3,0.2-3.6c0-0.5-0.1-1-0.3-1.4s-0.7-0.7-1.3-0.7
		c-0.6,0-1.1,0.2-1.3,0.6c-0.3,0.4-0.4,1.1-0.4,2.1v1.4c0,0.5,0,1-0.1,1.5c-0.1,0.5-0.2,1-0.5,1.4c-0.2,0.4-0.6,0.8-1,1
		c-0.4,0.2-0.9,0.4-1.6,0.4c-0.6,0-1.1-0.1-1.5-0.3c-0.4-0.2-0.7-0.5-1-0.9c-0.2-0.4-0.4-0.9-0.5-1.6c-0.1-0.7-0.2-1.5-0.2-2.5V394
		c0-0.4,0.1-0.7,0.2-0.7c0.1-0.1,0.4-0.1,0.9-0.1h3.8c1,0,1.6-0.2,1.9-0.5c0.3-0.3,0.4-0.7,0.4-1.1c0-0.5-0.1-0.9-0.4-1.2
		c-0.3-0.3-0.9-0.4-1.8-0.4H641c-0.3,0-0.5,0-0.6-0.1c-0.1-0.1-0.1-0.3-0.1-0.6V385c0-0.6-0.1-1.1-0.3-1.5c-0.2-0.4-0.6-0.7-1.4-0.7
		c-0.8,0-1.2,0.2-1.4,0.7c-0.2,0.4-0.3,1-0.3,1.6v3.6c0,0.6,0,1-0.1,1.2c-0.1,0.2-0.3,0.2-0.7,0.2h-1.5c-0.5,0-0.9,0.2-1.2,0.5
		c-0.3,0.3-0.5,0.7-0.5,1.1c0,0.7,0.2,1.1,0.6,1.3c0.4,0.2,1,0.3,1.9,0.3c0.7,0,1.1,0.1,1.3,0.3c0.2,0.2,0.3,0.6,0.3,1.3V404.3z
		 M624.2,403.2c0.5,0.1,1,0.3,1.5,0.6c0.4,0.3,0.8,0.6,1.1,1c0.3,0.4,0.4,1,0.4,1.7c0,0.6-0.1,1.1-0.4,1.6c-0.3,0.5-0.6,0.9-1.1,1.2
		c-0.5,0.4-1.1,0.7-1.7,0.8c-0.6,0.1-1.3,0.2-1.9,0.2c-0.4,0-0.9,0-1.5-0.1c-0.5-0.1-1.1-0.2-1.6-0.3s-1-0.3-1.5-0.6
		c-0.5-0.2-0.9-0.5-1.2-0.8c-0.2-0.2-0.4-0.4-0.5-0.6c-0.1-0.2-0.2-0.4-0.3-0.7c-0.1-0.3-0.1-0.6-0.2-1c0-0.4-0.1-0.9-0.2-1.6
		c0-0.5-0.2-0.9-0.4-1.1c-0.2-0.2-0.6-0.3-1-0.3c-0.5,0-0.9,0.1-1.1,0.4c-0.3,0.3-0.4,0.7-0.4,1.2c0,0.6,0.1,1.2,0.2,1.7
		c0.1,0.6,0.2,1.2,0.2,1.7c0,0.6-0.1,1.2-0.2,1.8c-0.1,0.6-0.2,1.2-0.2,1.8c0,0.5,0.1,0.9,0.4,1.3c0.3,0.4,0.7,0.5,1.3,0.5
		c0.5,0,0.9-0.2,1.2-0.6c0.3-0.4,0.4-1,0.3-1.8c0.9,0.8,1.9,1.3,3,1.6c1.1,0.3,2.2,0.5,3.4,0.5c1.1,0,2.2-0.1,3.3-0.4
		c1.1-0.3,2-0.7,2.9-1.3c0.9-0.6,1.5-1.3,2.1-2.2c0.5-0.9,0.8-2,0.8-3.2c0-1.1-0.2-2.1-0.6-2.8c-0.4-0.8-1-1.4-1.7-1.9
		c-0.8-0.5-1.7-0.9-2.8-1.2c-1.1-0.3-2.4-0.5-3.9-0.7c-1.9-0.2-3.2-0.6-4-1c-0.8-0.5-1.2-1.2-1.2-2.3c0-0.6,0.1-1.2,0.4-1.7
		c0.3-0.5,0.7-0.9,1.2-1.2c0.5-0.3,1-0.5,1.6-0.7c0.6-0.2,1.1-0.2,1.7-0.2c0.7,0,1.4,0.2,2.1,0.5c0.7,0.3,1.4,0.7,2,1.1
		c0.2,0.1,0.4,0.3,0.5,0.4c0.1,0.1,0.2,0.3,0.3,0.5c0.1,0.2,0.1,0.4,0.2,0.7c0,0.3,0,0.6,0,1c0,1.4,0.5,2.1,1.4,2.1
		c0.5,0,0.9-0.2,1.2-0.5c0.3-0.3,0.4-0.7,0.4-1.2c0-0.5,0-1-0.1-1.6c-0.1-0.5-0.1-1.1-0.1-1.6c0-0.5,0-1.1,0.1-1.6
		c0.1-0.5,0.1-1.1,0.1-1.6c0-1-0.5-1.4-1.5-1.4c-0.6,0-1,0.2-1.2,0.5c-0.2,0.4-0.3,0.8-0.2,1.3c-0.7-0.6-1.5-1-2.4-1.2
		s-1.8-0.3-2.7-0.3c-1.1,0-2.1,0.2-3.1,0.5c-1,0.3-1.9,0.7-2.7,1.3c-0.8,0.6-1.4,1.3-1.9,2.2c-0.5,0.9-0.7,1.9-0.7,3.1
		c0,1.3,0.3,2.4,0.9,3.2c0.6,0.8,1.4,1.4,2.3,1.8c0.9,0.4,2,0.7,3.1,0.9c1.1,0.2,2.2,0.3,3.2,0.5C623.1,403,623.7,403,624.2,403.2
		 M602.1,406.2c0,1.4-0.1,2.3-0.3,2.9c-0.2,0.5-0.5,0.8-1,0.8c-0.4,0-0.7,0-1-0.1c-0.3-0.1-0.6-0.1-1-0.1c-0.4,0-0.8,0.1-1.1,0.4
		s-0.4,0.6-0.4,1c0,0.4,0.2,0.8,0.5,1.1c0.3,0.3,0.6,0.5,1,0.5c0.8,0,1.5-0.1,2.2-0.2c0.7-0.2,1.5-0.2,2.4-0.2s1.7,0.1,2.4,0.2
		c0.7,0.2,1.4,0.2,2.1,0.2c0.5,0,0.9-0.1,1.3-0.4c0.4-0.3,0.6-0.7,0.6-1.2c0-0.4-0.1-0.7-0.4-1c-0.3-0.3-0.6-0.4-1.1-0.4
		c-0.3,0-0.6,0-0.9,0.1c-0.3,0.1-0.6,0.2-0.8,0.2c-0.4,0-0.7-0.2-0.9-0.5c-0.2-0.3-0.3-0.8-0.3-1.3v-16.2c0-0.4-0.1-0.9-0.2-1.3
		c-0.2-0.4-0.5-0.6-1-0.6c-0.4,0-0.8,0.1-1.1,0.2c-0.3,0.2-0.8,0.2-1.3,0.2c-0.5,0-1-0.1-1.4-0.2c-0.4-0.2-0.9-0.2-1.5-0.2
		c-0.4,0-0.8,0.1-1.1,0.4c-0.3,0.3-0.5,0.7-0.5,1.2c0,0.4,0.1,0.7,0.4,1c0.3,0.3,0.6,0.4,1.1,0.4c0.3,0,0.6,0,1-0.1s0.7-0.1,1-0.1
		c0.2,0,0.4,0.1,0.6,0.2c0.2,0.1,0.3,0.3,0.4,0.5c0.1,0.3,0.2,0.6,0.2,1.1c0,0.5,0.1,1.1,0.1,1.8V406.2z M601.3,383.5
		c-0.5,0.5-0.7,1.1-0.7,1.8c0,0.7,0.2,1.3,0.7,1.8c0.5,0.5,1.1,0.7,1.7,0.7c0.7,0,1.3-0.2,1.8-0.7c0.5-0.5,0.7-1.1,0.7-1.8
		c0-0.7-0.2-1.3-0.7-1.8c-0.5-0.5-1.1-0.7-1.8-0.7C602.3,382.8,601.7,383,601.3,383.5 M583,404.3c0,0.9,0,1.7,0,2.2
		c0,0.6,0.1,1.1,0.2,1.5c0.1,0.4,0.2,0.8,0.3,1.1c0.1,0.3,0.2,0.6,0.4,1c0.5,0.9,1.2,1.6,2.2,2c1,0.4,1.9,0.6,3,0.6
		c1.5,0,2.8-0.3,3.7-0.8c0.9-0.5,1.6-1.2,2.1-2c0.5-0.9,0.8-1.8,1-3c0.1-1.1,0.2-2.3,0.2-3.6c0-0.5-0.1-1-0.3-1.4
		c-0.2-0.4-0.7-0.7-1.3-0.7c-0.6,0-1.1,0.2-1.3,0.6s-0.4,1.1-0.4,2.1v1.4c0,0.5,0,1-0.1,1.5c-0.1,0.5-0.2,1-0.5,1.4
		c-0.2,0.4-0.6,0.8-1,1c-0.4,0.2-0.9,0.4-1.6,0.4c-0.6,0-1.1-0.1-1.5-0.3c-0.4-0.2-0.7-0.5-1-0.9c-0.2-0.4-0.4-0.9-0.5-1.6
		c-0.1-0.7-0.2-1.5-0.2-2.5V394c0-0.4,0.1-0.7,0.2-0.7c0.1-0.1,0.4-0.1,0.9-0.1h3.8c1,0,1.6-0.2,1.9-0.5c0.3-0.3,0.4-0.7,0.4-1.1
		c0-0.5-0.1-0.9-0.4-1.2c-0.3-0.3-0.9-0.4-1.8-0.4h-4.3c-0.3,0-0.5,0-0.6-0.1c-0.1-0.1-0.1-0.3-0.1-0.6V385c0-0.6-0.1-1.1-0.3-1.5
		c-0.2-0.4-0.6-0.7-1.4-0.7c-0.8,0-1.2,0.2-1.4,0.7c-0.2,0.4-0.3,1-0.3,1.6v3.6c0,0.6,0,1-0.1,1.2c-0.1,0.2-0.3,0.2-0.7,0.2h-1.5
		c-0.5,0-0.9,0.2-1.2,0.5c-0.3,0.3-0.5,0.7-0.5,1.1c0,0.7,0.2,1.1,0.6,1.3c0.4,0.2,1,0.3,1.9,0.3c0.7,0,1.1,0.1,1.3,0.3
		c0.2,0.2,0.3,0.6,0.3,1.3V404.3z M562.5,406.2c0,0.8,0,1.4-0.1,1.8c0,0.5-0.1,0.8-0.2,1.1c-0.1,0.3-0.2,0.4-0.4,0.5
		c-0.2,0.1-0.4,0.2-0.6,0.2c-0.4,0-0.7,0-1-0.1c-0.3-0.1-0.6-0.1-1-0.1c-0.4,0-0.8,0.1-1.1,0.4c-0.3,0.3-0.4,0.6-0.4,1
		c0,0.5,0.2,0.9,0.6,1.2c0.4,0.3,0.9,0.4,1.3,0.4c0.4,0,0.8,0,1.2-0.1c0.4,0,0.7-0.1,1.1-0.2c0.3-0.1,0.7-0.1,1.1-0.2
		c0.4,0,0.8-0.1,1.2-0.1c0.9,0,1.7,0.1,2.3,0.2c0.7,0.2,1.4,0.2,2.1,0.2c0.5,0,0.9-0.1,1.3-0.4c0.4-0.3,0.6-0.7,0.6-1.2
		c0-0.4-0.1-0.7-0.4-1c-0.3-0.3-0.6-0.4-1.1-0.4c-0.3,0-0.6,0-1,0.1c-0.3,0.1-0.7,0.1-1,0.1c-0.2,0-0.4,0-0.5-0.1
		c-0.2-0.1-0.3-0.3-0.4-0.5c-0.1-0.3-0.2-0.6-0.3-1.1c-0.1-0.5-0.1-1.1-0.1-1.9v-5.8c0-1.6,0.1-2.9,0.4-3.9c0.3-1.1,0.6-1.9,1.1-2.5
		c0.5-0.6,1.1-1.1,1.7-1.3c0.7-0.3,1.4-0.4,2.3-0.4c0.4,0,0.9,0.1,1.4,0.2c0.5,0.1,0.9,0.3,1.2,0.6c0.4,0.3,0.7,0.6,0.9,1
		c0.2,0.4,0.4,0.8,0.4,1.3c0,0.3-0.1,0.7-0.3,1c-0.1,0-0.2-0.1-0.3-0.1c-0.1,0-0.2,0-0.3,0c-0.5,0-0.9,0.2-1.3,0.6
		c-0.3,0.4-0.5,0.8-0.5,1.3c0,0.6,0.2,1.1,0.7,1.5c0.5,0.4,1,0.6,1.6,0.6c0.7,0,1.2-0.1,1.7-0.4c0.5-0.3,0.8-0.6,1.1-1
		c0.3-0.4,0.5-0.9,0.6-1.4c0.1-0.5,0.2-1.1,0.2-1.6c0-1-0.2-1.9-0.6-2.6c-0.4-0.8-0.9-1.4-1.5-1.9c-0.6-0.5-1.4-0.9-2.2-1.2
		c-0.9-0.3-1.7-0.4-2.6-0.4c-1.3,0-2.5,0.3-3.5,0.8c-1.1,0.5-1.9,1.4-2.6,2.5h-0.1c0-0.9,0-1.5-0.2-2c-0.1-0.5-0.5-0.7-1.1-0.7
		c-0.4,0-0.8,0.1-1.1,0.2c-0.3,0.2-0.8,0.2-1.3,0.2c-0.5,0-1-0.1-1.3-0.2c-0.4-0.2-0.8-0.2-1.2-0.2c-0.5,0-0.9,0.1-1.3,0.4
		c-0.4,0.3-0.6,0.7-0.6,1.2c0,0.4,0.1,0.7,0.4,1c0.3,0.3,0.6,0.4,1.1,0.4c0.6,0,1.1,0,1.4-0.1c0.4-0.1,0.7-0.1,1.1-0.1
		c0.5,0,0.8,0.2,1,0.7c0.2,0.5,0.3,1.5,0.3,2.9V406.2z M550.1,397.8c0-1.3-0.1-2.5-0.4-3.7c-0.3-1.1-1-2.1-2-3
		c-0.8-0.6-1.8-1.1-2.8-1.3c-1.1-0.3-2.1-0.4-3.1-0.4c-1,0-2,0.1-3,0.4c-1,0.3-2,0.7-2.7,1.2c-0.8,0.5-1.4,1.2-1.9,1.9
		c-0.5,0.8-0.8,1.6-0.8,2.5c0,0.8,0.3,1.4,0.8,2c0.5,0.5,1.2,0.8,1.9,0.8c0.6,0,1.2-0.2,1.6-0.5c0.5-0.3,0.7-0.9,0.7-1.5
		c0-0.4-0.1-0.7-0.2-0.9c-0.1-0.2-0.2-0.4-0.4-0.5c-0.1-0.1-0.2-0.2-0.3-0.2c-0.1,0-0.2-0.1-0.2-0.2c0-0.2,0.1-0.4,0.4-0.7
		c0.2-0.2,0.5-0.4,0.6-0.5c0.5-0.3,1-0.5,1.6-0.7c0.6-0.2,1.2-0.3,1.7-0.3c0.6,0,1.3,0.1,1.8,0.2c0.6,0.1,1.1,0.3,1.6,0.7
		c0.5,0.3,0.8,0.7,1.1,1.2c0.3,0.5,0.4,1.1,0.4,1.8c0,0.8-0.2,1.4-0.6,1.9c-0.4,0.4-0.9,0.8-1.5,1c-0.6,0.2-1.2,0.3-2,0.4
		c-0.7,0.1-1.4,0.1-2,0.2c-1.1,0.1-2.1,0.3-3,0.5c-0.9,0.2-1.9,0.5-2.8,1.1c-1,0.6-1.8,1.3-2.2,2.3c-0.5,0.9-0.7,2-0.7,3.2
		c0,1.1,0.3,2.1,0.8,3c0.5,0.9,1.2,1.6,2.1,2.2c0.8,0.5,1.6,0.8,2.5,1c0.9,0.2,1.8,0.3,2.7,0.3c1.4,0,2.7-0.2,4-0.7
		c1.3-0.5,2.3-1.3,3-2.6c0.2,1.1,0.8,1.9,1.6,2.4c0.8,0.5,1.8,0.7,2.9,0.7c0.7,0,1.4-0.1,2.1-0.3c0.7-0.2,1.3-0.6,1.7-1.2
		c0.5-0.6,0.7-1.3,0.8-2.2s0.1-2.1,0.1-3.8c0-0.5-0.1-0.9-0.3-1.3c-0.2-0.3-0.6-0.5-1.2-0.5c-0.4,0-0.7,0.1-0.9,0.2
		c-0.2,0.2-0.3,0.4-0.4,0.6c-0.1,0.2-0.1,0.5-0.1,0.8v0.9c0,0.3,0,0.7,0,1.2c0,0.5,0,0.9-0.1,1.3c-0.1,0.4-0.2,0.8-0.5,1.1
		c-0.2,0.3-0.6,0.5-1,0.5c-0.5,0-0.9-0.2-1.2-0.5c-0.2-0.4-0.4-0.8-0.5-1.3c-0.1-0.5-0.1-1-0.1-1.6c0-0.5,0-1,0-1.3L550.1,397.8z
		 M535.8,404.8c0.3-0.5,0.7-0.8,1.2-1.1c0.5-0.3,1-0.5,1.6-0.6c0.6-0.1,1.2-0.2,1.8-0.3c0.5-0.1,1.1-0.1,1.6-0.2
		c0.6-0.1,1.1-0.1,1.6-0.3c0.5-0.1,1-0.3,1.5-0.5c0.5-0.2,0.9-0.5,1.3-0.9c0,0.5-0.1,0.9-0.1,1.4c0,0.5,0,0.9,0,1.4
		c0,0.8-0.1,1.5-0.2,2.2c-0.1,0.7-0.4,1.4-0.9,2c-0.7,0.8-1.5,1.4-2.5,1.8c-1,0.3-2,0.5-3,0.5c-0.6,0-1.1-0.1-1.7-0.2
		c-0.5-0.1-1-0.3-1.4-0.7c-0.4-0.3-0.8-0.7-1-1.1c-0.3-0.4-0.4-1-0.4-1.7C535.3,405.9,535.5,405.3,535.8,404.8 M505,403.2
		c0.6,0.1,1.1,0.3,1.5,0.6c0.4,0.3,0.8,0.6,1.1,1s0.4,1,0.4,1.7c0,0.6-0.1,1.1-0.4,1.6c-0.3,0.5-0.6,0.9-1.1,1.2
		c-0.5,0.4-1.1,0.7-1.7,0.8c-0.6,0.1-1.3,0.2-1.9,0.2c-0.4,0-0.9,0-1.5-0.1c-0.5-0.1-1.1-0.2-1.6-0.3c-0.5-0.2-1-0.3-1.5-0.6
		c-0.5-0.2-0.9-0.5-1.2-0.8c-0.2-0.2-0.4-0.4-0.5-0.6c-0.1-0.2-0.2-0.4-0.3-0.7c-0.1-0.3-0.1-0.6-0.2-1c0-0.4-0.1-0.9-0.2-1.6
		c0-0.5-0.2-0.9-0.4-1.1c-0.2-0.2-0.6-0.3-1-0.3c-0.5,0-0.9,0.1-1.1,0.4c-0.3,0.3-0.4,0.7-0.4,1.2c0,0.6,0.1,1.2,0.2,1.7
		c0.1,0.6,0.2,1.2,0.2,1.7c0,0.6-0.1,1.2-0.2,1.8c-0.1,0.6-0.2,1.2-0.2,1.8c0,0.5,0.1,0.9,0.4,1.3c0.3,0.4,0.7,0.5,1.3,0.5
		c0.5,0,0.9-0.2,1.2-0.6c0.3-0.4,0.4-1,0.3-1.8c0.9,0.8,1.9,1.3,3,1.6c1.1,0.3,2.2,0.5,3.4,0.5c1.1,0,2.2-0.1,3.3-0.4
		c1.1-0.3,2-0.7,2.9-1.3c0.9-0.6,1.5-1.3,2.1-2.2c0.5-0.9,0.8-2,0.8-3.2c0-1.1-0.2-2.1-0.6-2.8c-0.4-0.8-1-1.4-1.7-1.9
		c-0.8-0.5-1.7-0.9-2.8-1.2s-2.4-0.5-3.9-0.7c-1.9-0.2-3.2-0.6-4-1c-0.8-0.5-1.2-1.2-1.2-2.3c0-0.6,0.1-1.2,0.4-1.7
		c0.3-0.5,0.7-0.9,1.2-1.2c0.5-0.3,1-0.5,1.6-0.7c0.6-0.2,1.1-0.2,1.7-0.2c0.7,0,1.4,0.2,2.1,0.5c0.7,0.3,1.4,0.7,2,1.1
		c0.2,0.1,0.4,0.3,0.5,0.4c0.1,0.1,0.2,0.3,0.3,0.5c0.1,0.2,0.1,0.4,0.2,0.7c0,0.3,0,0.6,0,1c0,1.4,0.5,2.1,1.4,2.1
		c0.5,0,0.9-0.2,1.2-0.5c0.3-0.3,0.4-0.7,0.4-1.2c0-0.5,0-1-0.1-1.6c-0.1-0.5-0.1-1.1-0.1-1.6c0-0.5,0-1.1,0.1-1.6
		c0.1-0.5,0.1-1.1,0.1-1.6c0-1-0.5-1.4-1.5-1.4c-0.6,0-1,0.2-1.2,0.5s-0.3,0.8-0.2,1.3c-0.7-0.6-1.5-1-2.4-1.2
		c-0.9-0.2-1.8-0.3-2.7-0.3c-1.1,0-2.1,0.2-3.1,0.5c-1,0.3-1.9,0.7-2.7,1.3c-0.8,0.6-1.4,1.3-1.9,2.2c-0.5,0.9-0.7,1.9-0.7,3.1
		c0,1.3,0.3,2.4,0.9,3.2c0.6,0.8,1.4,1.4,2.3,1.8c0.9,0.4,1.9,0.7,3.1,0.9s2.2,0.3,3.2,0.5C503.9,403,504.5,403,505,403.2
		 M487.6,401.8c0.5,0,0.9,0,1.2-0.1c0.3,0,0.5-0.1,0.6-0.3c0.1-0.2,0.2-0.4,0.2-0.7c0-0.3,0-0.7,0-1.3c0-1.4-0.2-2.8-0.7-4
		c-0.5-1.2-1.2-2.3-2-3.2c-0.9-0.9-1.9-1.6-3.1-2.1c-1.2-0.5-2.5-0.8-4-0.8c-1.6,0-3,0.3-4.4,1c-1.4,0.7-2.6,1.6-3.6,2.8
		c-0.9,1.2-1.6,2.5-2,4c-0.4,1.5-0.6,3-0.6,4.5c0,1.6,0.2,3.1,0.7,4.5s1.1,2.6,2,3.7c0.9,1,2,1.9,3.2,2.5c1.3,0.6,2.8,0.9,4.5,0.9
		c1.2,0,2.5-0.2,3.8-0.6c1.3-0.4,2.4-1,3.3-1.9c0.6-0.6,1.2-1.3,1.8-2.3c0.5-0.9,0.8-1.8,0.8-2.7c0-0.5-0.2-0.9-0.5-1.2
		c-0.3-0.3-0.7-0.5-1.2-0.5c-0.6,0-1,0.2-1.2,0.6c-0.2,0.4-0.4,0.8-0.5,1.3c-0.4,1.4-1.1,2.5-2.2,3.2c-1.1,0.7-2.3,1.1-3.8,1.1
		c-1.2,0-2.2-0.2-3.1-0.7c-0.9-0.5-1.6-1.1-2.2-1.9c-0.6-0.8-1-1.7-1.3-2.7c-0.3-1-0.4-2.1-0.3-3.2H487.6z M473.2,398.7
		c0.1-0.9,0.3-1.7,0.7-2.5s0.8-1.5,1.4-2c0.6-0.6,1.3-1,2.1-1.3c0.8-0.3,1.6-0.5,2.6-0.5c1,0,1.8,0.2,2.5,0.5
		c0.7,0.3,1.4,0.8,1.9,1.3c0.5,0.6,0.9,1.2,1.2,2c0.3,0.8,0.4,1.6,0.5,2.5H473.2z M444.5,406.2c0,1.4-0.1,2.4-0.2,2.9
		c-0.1,0.5-0.5,0.8-1,0.8c-0.4,0-0.7,0-1-0.1c-0.3-0.1-0.6-0.1-1-0.1c-0.4,0-0.8,0.1-1.1,0.4c-0.3,0.3-0.4,0.6-0.4,1
		c0,1.1,0.6,1.6,1.9,1.6c0.8,0,1.5-0.1,2.1-0.2c0.6-0.2,1.5-0.2,2.5-0.2c1,0,1.8,0.1,2.4,0.2c0.6,0.2,1.3,0.2,2,0.2
		c1.2,0,1.9-0.5,1.9-1.6c0-0.4-0.1-0.7-0.4-1c-0.3-0.3-0.6-0.4-1.1-0.4c-0.3,0-0.6,0-1,0.1c-0.3,0.1-0.7,0.1-1,0.1
		c-0.5,0-0.8-0.3-1-0.8c-0.2-0.6-0.3-1.5-0.3-2.8V401c0-1.1,0-2,0.1-2.7c0.1-0.7,0.2-1.3,0.3-1.7c0.1-0.4,0.2-0.8,0.3-1
		c0.1-0.3,0.3-0.5,0.4-0.7c0.6-0.8,1.3-1.5,2.3-1.9c1-0.4,2-0.6,3-0.6c0.9,0,1.8,0.2,2.7,0.6c0.9,0.4,1.6,1,2,1.8
		c0.2,0.3,0.3,0.7,0.4,1c0.1,0.3,0.2,0.6,0.2,1c0,0.4,0.1,0.8,0.1,1.3c0,0.5,0,1.1,0,1.8v6.4c0,1.4-0.1,2.4-0.2,2.9
		c-0.1,0.5-0.5,0.8-1,0.8c-0.4,0-0.7,0-1-0.1c-0.3-0.1-0.6-0.1-1-0.1c-0.4,0-0.8,0.1-1.1,0.4c-0.3,0.3-0.4,0.6-0.4,1
		c0,1,0.6,1.6,1.9,1.6c0.8,0,1.5-0.1,2.1-0.2c0.6-0.2,1.5-0.2,2.5-0.2c1,0,1.8,0.1,2.4,0.2c0.6,0.2,1.3,0.2,2,0.2
		c1.2,0,1.9-0.5,1.9-1.6c0-0.4-0.1-0.7-0.4-1c-0.3-0.3-0.6-0.4-1.1-0.4c-0.3,0-0.6,0-1,0.1c-0.3,0.1-0.7,0.1-1,0.1
		c-0.5,0-0.8-0.3-1-0.8c-0.2-0.6-0.3-1.5-0.3-2.9v-8.1c0-1.2-0.1-2.4-0.3-3.4c-0.2-1.1-0.8-2-1.7-2.9c-0.9-0.8-1.8-1.4-2.9-1.8
		c-1.1-0.4-2.2-0.6-3.4-0.6c-1.4,0-2.7,0.3-4,0.8c-1.3,0.5-2.4,1.3-3.2,2.5h-0.1c0-0.8,0-1.5-0.1-1.9c-0.1-0.5-0.4-0.7-0.8-0.7
		c-0.3,0-0.5,0-0.7,0.1c-0.2,0-0.4,0.1-0.6,0.2c-0.2,0.1-0.4,0.1-0.6,0.2c-0.2,0-0.5,0.1-0.8,0.1c-0.3,0-0.5,0-0.7-0.1
		c-0.2,0-0.4-0.1-0.5-0.2c-0.2-0.1-0.3-0.1-0.5-0.2c-0.2,0-0.4-0.1-0.6-0.1c-0.4,0-0.7,0.2-1.1,0.5s-0.5,0.7-0.5,1.1
		c0,0.4,0.1,0.7,0.4,1c0.3,0.3,0.6,0.4,1.1,0.4c0.3,0,0.6,0,1-0.1s0.7-0.1,1-0.1c0.5,0,0.8,0.2,1,0.7c0.2,0.5,0.3,1.5,0.3,3V406.2z
		 M415.6,405.8c0,1.1,0.2,2.2,0.5,3.2c0.3,1,0.9,1.8,1.9,2.5c0.8,0.6,1.7,1.1,2.7,1.3s2,0.4,3,0.4c1.5,0,2.8-0.2,4-0.7
		c1.2-0.5,2.2-1.3,3-2.6h0.1c0,0.9,0,1.5,0.2,2c0.1,0.4,0.4,0.7,0.9,0.7c0.4,0,0.8-0.1,1.2-0.2c0.4-0.2,0.8-0.2,1.3-0.2
		c0.4,0,0.8,0.1,1.2,0.2c0.4,0.2,0.8,0.2,1.2,0.2c0.5,0,0.9-0.1,1.3-0.4c0.4-0.3,0.6-0.7,0.6-1.2c0-0.4-0.1-0.7-0.4-1
		s-0.6-0.4-1.1-0.4c-0.3,0-0.6,0-1,0.1c-0.3,0.1-0.7,0.1-1,0.1c-0.2,0-0.4,0-0.5-0.2c-0.2-0.1-0.3-0.3-0.4-0.5
		c-0.1-0.3-0.2-0.6-0.2-1.1c-0.1-0.5-0.1-1.1-0.1-1.8V398c0-1.2,0-2.3,0.1-3.3c0-1,0.1-2.1,0.1-3.2c0-0.4-0.1-0.8-0.3-1.1
		c-0.2-0.3-0.5-0.4-1-0.4c-0.4,0-0.8,0.1-1.2,0.2c-0.4,0.2-0.8,0.2-1.2,0.2c-0.4,0-0.9-0.1-1.3-0.2c-0.4-0.2-0.9-0.2-1.4-0.2
		c-0.6,0-1,0.1-1.4,0.4c-0.4,0.3-0.6,0.7-0.6,1.2c0,0.4,0.1,0.7,0.4,1c0.3,0.3,0.6,0.4,1.1,0.4c0.3,0,0.6,0,1-0.1
		c0.3-0.1,0.7-0.1,1-0.1c0.4,0,0.8,0.3,1.1,0.8c0.3,0.6,0.5,1.5,0.5,2.8v3c0,0.5,0,1.1,0,1.7c0,0.6,0,1.3-0.1,1.9
		c0,0.7-0.1,1.3-0.2,1.9c-0.1,0.6-0.2,1.1-0.4,1.6c-0.4,1.3-1.1,2.3-2.2,2.9c-1,0.6-2.2,0.9-3.5,0.9c-0.5,0-1-0.1-1.6-0.2
		c-0.5-0.1-1-0.3-1.4-0.6c-0.4-0.3-0.8-0.6-1.2-1c-0.3-0.4-0.6-0.9-0.8-1.4c-0.1-0.4-0.2-0.8-0.3-1.3c-0.1-0.5-0.1-1-0.1-1.5
		c0-0.5-0.1-1.1-0.1-1.6c0-0.5,0-1,0-1.4v-2c0-0.7,0-1.4,0-1.9c0-0.5,0.1-1.1,0.1-1.6c0-0.6,0.1-1.1,0.1-1.8c0-0.6,0-1.4,0-2.3
		c0-0.5-0.1-0.9-0.3-1.3c-0.2-0.3-0.6-0.5-1.2-0.5c-0.4,0-0.8,0.1-1.2,0.2c-0.4,0.2-0.8,0.2-1.2,0.2c-0.4,0-0.9-0.1-1.3-0.2
		c-0.4-0.2-0.8-0.2-1.2-0.2c-0.6,0-1.1,0.1-1.5,0.4c-0.4,0.3-0.6,0.7-0.6,1.2c0,0.4,0.1,0.7,0.4,1c0.3,0.3,0.6,0.4,1.1,0.4
		c0.3,0,0.6,0,1-0.1c0.3-0.1,0.7-0.1,1-0.1c0.5,0,0.8,0.3,1.1,0.8s0.4,1.5,0.4,2.9V405.8z M407.6,401.8c0.5,0,0.9,0,1.2-0.1
		c0.3,0,0.5-0.1,0.6-0.3c0.1-0.2,0.2-0.4,0.2-0.7c0-0.3,0-0.7,0-1.3c0-1.4-0.2-2.8-0.7-4c-0.5-1.2-1.2-2.3-2-3.2
		c-0.9-0.9-1.9-1.6-3.1-2.1c-1.2-0.5-2.5-0.8-4-0.8c-1.6,0-3,0.3-4.4,1c-1.4,0.7-2.6,1.6-3.6,2.8c-0.9,1.2-1.6,2.5-2,4
		c-0.4,1.5-0.6,3-0.6,4.5c0,1.6,0.2,3.1,0.7,4.5s1.1,2.6,2,3.7c0.9,1,2,1.9,3.2,2.5c1.3,0.6,2.8,0.9,4.5,0.9c1.2,0,2.5-0.2,3.8-0.6
		c1.3-0.4,2.4-1,3.3-1.9c0.6-0.6,1.2-1.3,1.8-2.3c0.5-0.9,0.8-1.8,0.8-2.7c0-0.5-0.2-0.9-0.5-1.2c-0.3-0.3-0.7-0.5-1.2-0.5
		c-0.6,0-1,0.2-1.2,0.6c-0.2,0.4-0.4,0.8-0.5,1.3c-0.4,1.4-1.1,2.5-2.2,3.2c-1.1,0.7-2.3,1.1-3.8,1.1c-1.2,0-2.2-0.2-3.1-0.7
		c-0.9-0.5-1.6-1.1-2.2-1.9c-0.6-0.8-1-1.7-1.3-2.7c-0.3-1-0.4-2.1-0.3-3.2H407.6z M393.2,398.7c0.1-0.9,0.3-1.7,0.7-2.5
		s0.8-1.5,1.4-2c0.6-0.6,1.3-1,2.1-1.3c0.8-0.3,1.6-0.5,2.6-0.5c1,0,1.8,0.2,2.5,0.5c0.7,0.3,1.4,0.8,1.9,1.3c0.5,0.6,0.9,1.2,1.2,2
		c0.3,0.8,0.4,1.6,0.5,2.5H393.2z M380.4,411.6c0,0.8,0,1.7-0.1,2.5c-0.1,0.8-0.3,1.5-0.6,2.2c-0.3,0.6-0.8,1.1-1.4,1.5
		c-0.6,0.4-1.5,0.6-2.5,0.6c-0.5,0-1-0.1-1.3-0.2c-0.4-0.1-0.7-0.4-1.2-0.7c0.2-0.2,0.4-0.4,0.5-0.7c0.1-0.3,0.2-0.6,0.2-0.9
		c0-0.6-0.2-1-0.7-1.3c-0.4-0.3-0.9-0.5-1.4-0.5c-0.7,0-1.2,0.2-1.6,0.7s-0.6,1.1-0.6,1.7c0,0.8,0.2,1.5,0.6,2.1
		c0.4,0.6,0.9,1,1.5,1.4c0.6,0.4,1.3,0.6,2,0.8c0.7,0.2,1.4,0.3,2.1,0.3c1.3,0,2.5-0.3,3.7-0.8c1.2-0.5,2.1-1.3,2.8-2.4
		c0.6-1,1-2,1.1-3.1c0.1-1.1,0.2-2.2,0.2-3.3v-13.9c0-1,0.1-2,0.2-3c0.1-1,0.2-2,0.2-2.9c0-0.5-0.1-0.9-0.2-1.1
		c-0.2-0.2-0.4-0.4-0.8-0.4c-0.5,0-0.9,0.1-1.3,0.2c-0.4,0.2-0.8,0.2-1.4,0.2c-0.6,0-1.1-0.1-1.4-0.2c-0.4-0.2-0.8-0.2-1.4-0.2
		c-0.5,0-0.9,0.1-1.3,0.4c-0.4,0.3-0.6,0.7-0.6,1.2c0,0.4,0.1,0.7,0.4,1c0.3,0.3,0.6,0.4,1.1,0.4c0.3,0,0.6,0,1-0.1
		c0.3-0.1,0.7-0.1,1-0.1c0.2,0,0.4,0,0.5,0.1s0.3,0.3,0.4,0.5c0.1,0.3,0.2,0.6,0.3,1.1c0.1,0.5,0.1,1.1,0.1,1.9V411.6z M379.8,383.5
		c-0.5,0.5-0.7,1.1-0.7,1.8c0,0.7,0.2,1.2,0.7,1.7c0.5,0.5,1.1,0.7,1.8,0.7s1.3-0.2,1.8-0.7c0.5-0.5,0.7-1.1,0.7-1.7
		c0-0.7-0.2-1.3-0.7-1.8c-0.5-0.5-1.1-0.7-1.8-0.7S380.3,383,379.8,383.5 M355.4,401.8c0.5,0,0.9,0,1.2-0.1c0.3,0,0.5-0.1,0.6-0.3
		c0.1-0.2,0.2-0.4,0.2-0.7c0-0.3,0-0.7,0-1.3c0-1.4-0.2-2.8-0.7-4c-0.5-1.2-1.2-2.3-2-3.2c-0.9-0.9-1.9-1.6-3.1-2.1
		c-1.2-0.5-2.5-0.8-4-0.8c-1.6,0-3,0.3-4.4,1c-1.4,0.7-2.6,1.6-3.6,2.8c-0.9,1.2-1.6,2.5-2,4c-0.4,1.5-0.6,3-0.6,4.5
		c0,1.6,0.2,3.1,0.7,4.5s1.1,2.6,2,3.7c0.9,1,1.9,1.9,3.2,2.5s2.8,0.9,4.5,0.9c1.2,0,2.5-0.2,3.8-0.6c1.3-0.4,2.4-1,3.3-1.9
		c0.6-0.6,1.2-1.3,1.8-2.3c0.5-0.9,0.8-1.8,0.8-2.7c0-0.5-0.2-0.9-0.5-1.2c-0.3-0.3-0.7-0.5-1.2-0.5c-0.6,0-1,0.2-1.2,0.6
		c-0.2,0.4-0.4,0.8-0.5,1.3c-0.4,1.4-1.1,2.5-2.2,3.2c-1.1,0.7-2.3,1.1-3.8,1.1c-1.2,0-2.2-0.2-3.1-0.7c-0.9-0.5-1.6-1.1-2.2-1.9
		c-0.6-0.8-1-1.7-1.3-2.7c-0.3-1-0.4-2.1-0.3-3.2H355.4z M341,398.7c0.1-0.9,0.3-1.7,0.7-2.5c0.3-0.8,0.8-1.5,1.4-2
		c0.6-0.6,1.3-1,2.1-1.3s1.6-0.5,2.6-0.5c1,0,1.8,0.2,2.5,0.5c0.7,0.3,1.4,0.8,1.9,1.3c0.5,0.6,0.9,1.2,1.2,2
		c0.3,0.8,0.4,1.6,0.5,2.5H341z M309.7,402.8v1.3v1.5c0,0.5,0,1,0,1.4c0,0.5-0.1,0.9-0.2,1.2c-0.3,1.1-1,1.6-2.1,1.6
		c-0.3,0-0.7,0-1-0.1c-0.3-0.1-0.7-0.1-1-0.1c-0.4,0-0.7,0.1-1,0.4c-0.3,0.3-0.4,0.6-0.4,1.1c0,0.5,0.2,0.9,0.6,1.2
		c0.4,0.3,0.9,0.4,1.5,0.4c0.9,0,1.8-0.1,2.6-0.2c0.8-0.2,1.8-0.2,3-0.2c0.8,0,1.5,0,2.2,0.1c0.7,0,1.3,0.1,1.9,0.2
		c0.6,0.1,1.2,0.1,1.9,0.2c0.6,0,1.3,0.1,2.1,0.1c1,0,2-0.1,3-0.2c1-0.1,2-0.4,2.9-0.7c0.9-0.3,1.8-0.8,2.7-1.3
		c0.8-0.5,1.6-1.2,2.2-2c1.2-1.5,2.1-3.3,2.7-5.2c0.5-1.9,0.8-3.8,0.8-5.8c0-1-0.1-1.9-0.2-2.9c-0.1-1-0.4-2-0.7-2.9
		c-0.3-1-0.7-1.9-1.2-2.7c-0.5-0.9-1-1.7-1.7-2.4c-1.4-1.6-3-2.6-4.9-3.2c-1.8-0.6-3.7-0.9-5.8-0.9c-0.8,0-1.5,0-2.1,0.1
		c-0.7,0-1.3,0.1-1.9,0.2c-0.6,0.1-1.3,0.1-1.9,0.2c-0.7,0-1.4,0.1-2.1,0.1c-0.7,0-1.2,0-1.7-0.1c-0.5,0-1-0.1-1.4-0.2
		c-0.4-0.1-0.8-0.1-1.2-0.2c-0.4,0-0.8-0.1-1.3-0.1c-0.6,0-1,0.2-1.4,0.5c-0.3,0.3-0.5,0.7-0.5,1.1s0.1,0.8,0.4,1
		c0.3,0.3,0.6,0.4,1,0.4c0.3,0,0.7,0,1-0.1c0.3-0.1,0.7-0.1,1-0.1c1.2,0,1.9,0.5,2.1,1.6c0.1,0.4,0.2,1,0.2,1.7c0,0.8,0,2,0,3.6
		V402.8z M313.5,388.9c0-1,0-1.7,0.1-2c0.1-0.3,0.2-0.5,0.3-0.7c0.1-0.1,0.3-0.2,0.5-0.3c0.2-0.1,0.5-0.1,0.8-0.2
		c0.3-0.1,0.8-0.1,1.3-0.1c0.6,0,1.3,0,2.1,0c0.8,0,1.6,0,2.3,0.1c0.8,0.1,1.5,0.2,2.2,0.4c0.7,0.2,1.4,0.5,2.1,0.9
		c0.7,0.4,1.3,0.9,1.8,1.5c1.1,1.2,1.8,2.7,2.2,4.3c0.4,1.6,0.6,3.3,0.6,4.9c0,1.4-0.2,2.9-0.5,4.4c-0.3,1.5-0.9,2.8-1.8,4
		c-0.6,0.8-1.1,1.4-1.7,1.8c-0.6,0.5-1.3,0.8-1.9,1.1c-0.7,0.3-1.4,0.4-2.2,0.5c-0.8,0.1-1.6,0.1-2.5,0.1c-1.5,0-2.6,0-3.3-0.1
		c-0.7-0.1-1.3-0.2-1.7-0.4c-0.1-0.1-0.3-0.2-0.3-0.3s-0.2-0.2-0.2-0.4c-0.1-0.2-0.1-0.5-0.1-0.8c0-0.3,0-0.8,0-1.4V388.9z
		 M278.3,393.2c-0.6,0.6-0.8,1.2-0.8,2s0.3,1.4,0.8,2c0.6,0.5,1.2,0.8,2,0.8c0.8,0,1.4-0.3,2-0.8c0.5-0.5,0.8-1.2,0.8-2
		s-0.3-1.4-0.8-2c-0.6-0.6-1.2-0.8-2-0.8C279.5,392.4,278.9,392.6,278.3,393.2 M278.3,407.9c-0.6,0.6-0.8,1.2-0.8,2
		c0,0.8,0.3,1.5,0.8,2c0.6,0.6,1.2,0.8,2,0.8c0.8,0,1.4-0.3,2-0.8c0.5-0.5,0.8-1.2,0.8-2c0-0.8-0.3-1.4-0.8-2
		c-0.6-0.6-1.2-0.8-2-0.8C279.5,407.1,278.9,407.3,278.3,407.9 M261.4,404.3c0-1-0.1-2-0.2-2.8c-0.1-0.8-0.4-1.5-0.8-2.2
		c-0.4-0.6-0.9-1.1-1.6-1.5c-0.7-0.4-1.6-0.6-2.7-0.8V397c1-0.2,2-0.4,2.8-0.8c0.8-0.3,1.6-0.8,2.1-1.4c0.6-0.6,1-1.3,1.3-2.1
		c0.3-0.8,0.5-1.8,0.5-2.9c0-1.2-0.3-2.4-0.8-3.5c-0.5-1.1-1.3-2-2.4-2.7c-0.9-0.6-2-1-3.2-1.1c-1.2-0.2-2.4-0.2-3.5-0.2
		c-1,0-2.1,0.1-3.3,0.2c-1.3,0.2-2.8,0.2-4.7,0.2c-1.1,0-2.2-0.1-3.3-0.2c-1.1-0.2-2.3-0.2-3.6-0.2c-0.5,0-0.9,0.1-1.3,0.4
		c-0.4,0.3-0.6,0.7-0.6,1.2c0,0.4,0.1,0.8,0.4,1s0.6,0.4,1,0.4c0.3,0,0.7,0,1-0.1c0.3-0.1,0.7-0.1,1-0.1c1.2,0,1.9,0.5,2.1,1.6
		c0.1,0.3,0.1,0.7,0.2,1.2c0,0.5,0,1,0,1.5v1.5v1.3v10.7v1.3v1.5c0,0.5,0,1,0,1.4c0,0.5-0.1,0.9-0.2,1.2c-0.3,1.1-1,1.6-2.1,1.6
		c-0.3,0-0.7,0-1-0.1c-0.3-0.1-0.7-0.1-1-0.1c-0.4,0-0.7,0.1-1,0.4s-0.4,0.6-0.4,1c0,0.5,0.2,0.9,0.6,1.2s0.8,0.4,1.3,0.4
		c1.1,0,2-0.1,2.9-0.2c0.9-0.2,1.8-0.2,2.9-0.2c1.1,0,2.1,0.1,3.1,0.2c0.9,0.2,1.9,0.2,2.8,0.2c0.5,0,0.9-0.1,1.3-0.4
		c0.4-0.3,0.6-0.6,0.6-1.2c0-0.4-0.1-0.7-0.4-1c-0.3-0.3-0.6-0.4-1-0.4c-0.3,0-0.7,0-1,0.1c-0.3,0.1-0.7,0.1-1,0.1
		c-1.2,0-1.9-0.5-2.1-1.6c0-0.1-0.1-0.3-0.1-0.6c0-0.2-0.1-0.5-0.1-0.9c0-0.4,0-0.9,0-1.5c0-0.6,0-1.4,0-2.4v-2.2
		c0-0.9,0.3-1.5,1-1.7s1.7-0.4,3.2-0.4c1.1,0,1.9,0,2.6,0c0.7,0,1.2,0.1,1.6,0.1c0.4,0.1,0.8,0.1,1,0.2c0.3,0.1,0.5,0.2,0.8,0.4
		c0.4,0.3,0.7,0.6,0.9,0.9c0.2,0.3,0.4,0.7,0.5,1.1c0.1,0.4,0.2,0.8,0.2,1.3c0,0.5,0,0.9,0,1.3v2.7c0,0.8,0.1,1.5,0.2,2.2
		c0.1,0.7,0.4,1.3,0.7,1.8c0.3,0.5,0.8,0.9,1.4,1.3c0.6,0.3,1.3,0.5,2.2,0.5c0.8,0,1.5,0,2.1,0.1c0.5,0,1.1,0.1,1.8,0.1
		c0.5,0,0.9-0.2,1.2-0.5c0.3-0.3,0.5-0.7,0.5-1.2c0-0.5-0.2-0.9-0.5-1.2c-0.3-0.3-0.7-0.4-1.2-0.4c-0.3,0-0.7,0-1,0.1
		c-0.3,0.1-0.7,0.1-1,0.1c-0.6,0-1.1-0.1-1.4-0.2c-0.3-0.1-0.6-0.4-0.7-0.6s-0.3-0.6-0.3-1c0-0.4,0-0.8,0-1.3V404.3z M245.8,387.3
		c0-0.4,0.1-0.8,0.3-1.1c0.2-0.3,0.5-0.6,1-0.8c0.5-0.2,1.1-0.4,1.9-0.5c0.8-0.1,1.8-0.2,3-0.2c1,0,1.9,0.1,2.7,0.2
		c0.8,0.2,1.6,0.4,2.2,0.9c0.6,0.4,1.1,0.9,1.5,1.6c0.3,0.7,0.5,1.5,0.5,2.6c0,0.9-0.2,1.8-0.5,2.6c-0.3,0.8-0.9,1.5-1.7,1.9
		c-0.8,0.4-1.8,0.7-2.9,0.8s-2.1,0.1-3.1,0.1h-3.6c-0.6,0-1-0.1-1.1-0.2c-0.1-0.1-0.2-0.4-0.2-1V387.3z"/>
</g>
</svg>
