<?xml version="1.0" encoding="utf-8"?>
<!-- Generator: Adobe Illustrator 19.2.1, SVG Export Plug-In . SVG Version: 6.00 Build 0)  -->
<svg version="1.1" id="Calque_1" xmlns="http://www.w3.org/2000/svg" xmlns:xlink="http://www.w3.org/1999/xlink" x="0px" y="0px"
	 viewBox="0 0 461 144" style="enable-background:new 0 0 461 144;" xml:space="preserve">
<style type="text/css">
	.st0{clip-path:url(#SVGID_2_);}
	.st1{clip-path:url(#SVGID_4_);}
	.st2{clip-path:url(#SVGID_6_);}
</style>
<g>
	<g>
		<defs>
			<rect id="SVGID_1_" x="4" y="3.3" width="453.6" height="136.3"/>
		</defs>
		<clipPath id="SVGID_2_">
			<use xlink:href="#SVGID_1_"  style="overflow:visible;"/>
		</clipPath>
		<path class="st0" d="M435.6,118c0.2,0.6,0.5,1.1,0.9,1.5s0.9,0.8,1.4,1s1.1,0.4,1.8,0.4c0.4,0,0.9-0.1,1.3-0.2
			c0.4-0.1,0.8-0.3,1.2-0.6c0.3-0.2,0.6-0.5,0.8-0.9s0.3-0.8,0.3-1.3s-0.2-1-0.5-1.4s-0.8-0.6-1.4-0.6c-0.5,0-0.9,0.1-1.2,0.4
			c-0.4,0.2-0.5,0.6-0.5,1.1v0.4c-0.8-0.4-1.1-1-1.1-1.9c0-1,0.3-1.8,0.9-2.5c0.6-0.7,1.3-1.3,2.1-1.7c0.7-0.4,1.5-0.7,2.4-0.9
			c0.9-0.2,1.7-0.3,2.5-0.3s1.7,0.1,2.6,0.3c0.9,0.2,1.7,0.5,2.3,0.9s1.3,1,1.7,1.7s0.7,1.5,0.7,2.5c0,0.8-0.1,1.5-0.4,2.1
			c-0.3,0.6-0.7,1.1-1.2,1.5s-1,0.8-1.6,1.1s-1.2,0.7-1.9,1c-0.8,0.4-1.6,0.9-2.3,1.3c-0.7,0.5-1.4,1-1.9,1.6c-0.6,0.6-1,1.2-1.3,2
			s-0.5,1.6-0.5,2.6c0,0.7,0.1,1.2,0.4,1.6c0.3,0.4,0.8,0.6,1.5,0.6c0.8,0,1.2-0.2,1.4-0.7s0.2-1,0.2-1.6c0-0.7,0.1-1.3,0.4-1.8
			c0.2-0.5,0.6-0.9,1-1.3c0.4-0.3,0.9-0.7,1.5-0.9c0.5-0.3,1.1-0.5,1.7-0.8c0.9-0.4,1.8-0.8,2.6-1.3s1.5-1,2.1-1.7
			c0.6-0.6,1.1-1.4,1.5-2.2c0.4-0.8,0.5-1.8,0.5-2.9c0-1.4-0.3-2.6-1-3.8s-1.6-2.1-2.7-2.8c-1-0.6-2.2-1.1-3.5-1.4s-2.6-0.4-3.8-0.4
			c-1.3,0-2.6,0.2-4,0.5s-2.6,0.8-3.7,1.6c-1.1,0.8-2,1.7-2.6,2.8c-0.7,1.1-1,2.3-1,3.7C435.3,116.8,435.4,117.4,435.6,118
			 M443,133.8c-0.6,0.6-0.8,1.2-0.8,2s0.3,1.5,0.8,2c0.6,0.5,1.2,0.8,2,0.8s1.4-0.3,2-0.8c0.6-0.6,0.8-1.2,0.8-2s-0.3-1.4-0.8-2
			c-0.6-0.6-1.2-0.8-2-0.8C444.3,133,443.6,133.3,443,133.8 M412.4,123.7c0-1.2-0.2-2.3-0.5-3.4c-0.3-1-0.9-2-1.8-2.8
			c-0.8-0.7-1.8-1.3-2.9-1.6c-1.1-0.4-2.2-0.5-3.3-0.5c-1.4,0-2.6,0.2-3.7,0.7c-1,0.5-2,1.2-3,2.1v-8c0-0.8-0.1-1.4-0.2-1.7
			c-0.1-0.4-0.5-0.5-1-0.5c-0.4,0-0.8,0.1-1.1,0.2c-0.3,0.2-0.7,0.2-1.3,0.2c-0.4,0-0.9-0.1-1.3-0.2s-0.9-0.2-1.6-0.2
			c-0.3,0-0.7,0.1-1.1,0.4s-0.6,0.7-0.6,1.2c0,0.4,0.1,0.7,0.4,1c0.3,0.3,0.6,0.4,1.1,0.4c0.3,0,0.6,0,1-0.1c0.3-0.1,0.7-0.1,1-0.1
			c0.1,0,0.3,0,0.5,0.1c0.2,0,0.3,0.2,0.4,0.4c0.1,0.2,0.2,0.6,0.3,1.1s0.1,1.2,0.1,2.1v17.7c0,1.4-0.1,2.3-0.2,2.9
			c-0.2,0.5-0.5,0.8-1,0.8c-0.4,0-0.7,0-1-0.1s-0.6-0.1-1-0.1s-0.8,0.1-1.1,0.4s-0.4,0.6-0.4,1c0,0.5,0.2,0.9,0.6,1.2
			c0.4,0.3,0.8,0.4,1.3,0.4c0.4,0,0.7,0,1.1-0.1c0.3,0,0.7-0.1,1-0.2s0.7-0.1,1.1-0.2c0.4,0,0.9-0.1,1.3-0.1c0.5,0,1,0,1.4,0.1
			c0.4,0,0.8,0.1,1.1,0.2s0.7,0.1,1,0.2c0.3,0,0.7,0.1,1,0.1c0.5,0,1-0.1,1.3-0.4s0.5-0.7,0.5-1.2c0-0.4-0.1-0.7-0.4-1
			c-0.3-0.3-0.6-0.4-1.1-0.4c-0.3,0-0.6,0-1,0.1s-0.7,0.1-1,0.1c-0.5,0-0.8-0.2-1-0.7s-0.3-1.5-0.3-2.9v-5.8c0-1,0-1.9,0.1-2.9
			s0.4-1.9,1-2.8c0.6-0.8,1.4-1.4,2.3-1.8c1-0.4,2-0.5,2.9-0.5c1.1,0,2.2,0.3,3.1,0.8c0.9,0.6,1.6,1.4,1.9,2.6
			c0.1,0.4,0.2,0.9,0.3,1.4s0.1,1.1,0.1,1.6c0,0.6,0,1.1,0,1.7v1.4v4.4c0,1.4-0.1,2.3-0.2,2.9c-0.2,0.5-0.5,0.8-1,0.8
			c-0.4,0-0.7,0-1-0.1s-0.6-0.1-1-0.1s-0.8,0.1-1.1,0.4s-0.4,0.6-0.4,1c0,0.5,0.2,0.9,0.6,1.2c0.4,0.3,0.8,0.4,1.3,0.4
			c0.4,0,0.7,0,1.1-0.1c0.3,0,0.7-0.1,1-0.2s0.7-0.1,1.1-0.2c0.4,0,0.9-0.1,1.3-0.1c0.5,0,1,0,1.4,0.1c0.4,0,0.8,0.1,1.1,0.2
			s0.7,0.1,1,0.2c0.3,0,0.7,0.1,1,0.1c0.6,0,1-0.1,1.3-0.4s0.5-0.7,0.5-1.2c0-0.4-0.1-0.7-0.4-1c-0.3-0.3-0.6-0.4-1.1-0.4
			c-0.3,0-0.6,0-1,0.1c-0.3,0.1-0.7,0.1-1,0.1c-0.5,0-0.8-0.2-1-0.7s-0.3-1.5-0.3-2.9v-8.8H412.4z M363.9,122.5c0,0.3,0,0.6,0,0.9
			s0.1,0.6,0.2,0.8c0.1,0.3,0.3,0.5,0.5,0.7s0.5,0.3,0.9,0.3c0.6,0,1.1-0.2,1.5-0.5s0.8-0.7,1.2-1.1c0.9-0.8,1.9-1.4,3.1-1.8
			c1.2-0.4,2.4-0.6,3.5-0.6c2.3,0,4.1,0.6,5.5,1.9c1.3,1.2,2,3,2,5.3c0,2.5-0.9,4.4-2.8,5.9c-1.7,1.3-3.5,2-5.7,2
			c-0.5,0-1,0-1.6-0.1s-1.2-0.2-1.7-0.4c-0.6-0.2-1.1-0.4-1.7-0.6s-1-0.5-1.3-0.8c-0.2-0.2-0.5-0.5-0.7-0.9
			c-0.3-0.4-0.4-0.7-0.4-1.1c0-0.1,0.1-0.2,0.2-0.2h0.3c0.5,0,0.9-0.2,1.2-0.7c0.3-0.4,0.5-0.9,0.5-1.3c0-0.8-0.3-1.3-0.8-1.8
			c-0.5-0.4-1.1-0.6-1.9-0.6c-0.5,0-1,0.1-1.4,0.3c-0.4,0.2-0.8,0.5-1.1,0.9s-0.5,0.8-0.7,1.2c-0.2,0.5-0.2,1-0.2,1.5
			c0,1.3,0.4,2.5,1.2,3.4c0.8,1,1.7,1.8,2.7,2.5c1,0.6,2.1,1.1,3.3,1.3c1.2,0.3,2.4,0.4,3.6,0.4c1.7,0,3.4-0.2,4.9-0.7
			s2.9-1.2,4-2.2s2.1-2.1,2.7-3.6c0.7-1.4,1-3,1-4.9c0-1.4-0.3-2.8-0.8-4.2c-0.6-1.4-1.4-2.5-2.5-3.4c-1-0.8-2.2-1.4-3.5-1.7
			c-1.3-0.3-2.6-0.5-3.9-0.5c-1.5,0-2.9,0.2-4.1,0.6c-1.2,0.4-2.4,1-3.7,1.9l0.6-7.3c0.1-0.5,0.2-0.8,0.4-0.9s0.6-0.2,1.3-0.2h8.3
			c1,0,1.7,0.2,2.1,0.6c0.4,0.4,0.7,1,0.7,2c0,0.5,0.1,1,0.3,1.4c0.2,0.5,0.6,0.7,1.2,0.7c0.4,0,0.8-0.1,1.1-0.4s0.5-0.6,0.5-1.1
			c0-0.3,0-0.5-0.1-0.7s-0.1-0.5-0.2-0.7c-0.1-0.3-0.1-0.5-0.2-0.8c-0.1-0.3-0.1-0.7-0.1-1.1c0-0.6,0-1.1-0.1-1.5
			c0-0.4-0.1-0.8-0.3-1c-0.1-0.2-0.3-0.4-0.6-0.5s-0.6-0.2-1.1-0.2h-14.4c-0.4,0-0.8,0.1-1.2,0.2s-0.6,0.4-0.8,0.8
			c-0.1,0.2-0.1,0.5-0.1,0.9c0,0.3-0.1,0.7-0.1,1.1s0,0.8,0,1.1c0,0.4,0,0.7,0,0.9L363.9,122.5z M355.2,112.3c0.3-0.3,0.6-0.7,1-1.1
			c0.3-0.4,0.5-0.7,0.5-1.1s-0.1-0.7-0.3-0.9c-0.2-0.2-0.4-0.4-0.7-0.5s-0.6-0.2-0.9-0.2c-0.3,0-0.6,0-0.9,0h-17.1
			c-0.8,0-1.3,0.2-1.6,0.5s-0.4,0.8-0.4,1.6v6c0,0.5,0.1,0.9,0.3,1.3s0.6,0.6,1.1,0.6c0.7,0,1.2-0.2,1.3-0.7
			c0.2-0.4,0.3-0.9,0.3-1.3c0-0.5,0-0.9-0.1-1.3c0-0.4-0.1-0.8-0.1-1.2c0-0.6,0.1-1,0.4-1.3c0.3-0.3,0.6-0.5,1-0.6s0.8-0.2,1.3-0.2
			h1.3h9.1l-8.2,8.4c-0.2,0.2-0.4,0.4-0.7,0.7c-0.3,0.3-0.4,0.6-0.4,0.9s0.1,0.6,0.3,0.8c0.2,0.2,0.4,0.4,0.8,0.4c0.3,0,0.6,0,1-0.1
			c0.3-0.1,0.6-0.1,1-0.2l2.5-0.2c0.8,0,1.7,0.1,2.6,0.3c0.9,0.2,1.6,0.6,2.3,1.2c0.6,0.5,1,1.2,1.3,1.9c0.3,0.7,0.4,1.5,0.4,2.3
			c0,1.2-0.2,2.3-0.7,3.3c-0.4,1-1.1,1.8-1.8,2.4c-0.8,0.6-1.6,1.1-2.7,1.5c-1,0.3-2.1,0.5-3.3,0.5c-1,0-2.1-0.1-3.2-0.4
			c-1.1-0.3-2-0.7-2.8-1.4c-0.2-0.2-0.5-0.4-0.7-0.6c-0.2-0.3-0.5-0.5-0.7-0.8s-0.4-0.6-0.5-1c-0.1-0.3-0.2-0.6-0.2-0.9
			s0.1-0.5,0.2-0.5c0.1-0.1,0.3-0.1,0.6-0.1c0.7,0,1.2-0.2,1.7-0.5c0.4-0.3,0.7-0.9,0.7-1.6s-0.2-1.4-0.7-1.8
			c-0.5-0.5-1.1-0.7-1.8-0.7s-1.3,0.1-1.8,0.4s-1,0.7-1.4,1.1c-0.4,0.5-0.6,1-0.8,1.6s-0.3,1.2-0.3,1.8c0,1.5,0.4,2.8,1.1,3.9
			c0.7,1.1,1.7,2,2.8,2.7s2.4,1.2,3.8,1.6c1.4,0.3,2.7,0.5,4,0.5c1.5,0,3.1-0.2,4.6-0.6s2.9-1.1,4.1-2.2c1.2-1,2.1-2.2,2.7-3.5
			c0.6-1.4,1-2.8,1-4.4c0-1.3-0.2-2.5-0.7-3.6c-0.4-1.1-1-2-1.8-2.7c-0.8-0.8-1.7-1.3-2.8-1.7c-1.1-0.4-2.3-0.6-3.6-0.6h-0.7
			L355.2,112.3z M291.3,132.1c0,1.4-0.1,2.4-0.2,2.9c-0.1,0.5-0.5,0.8-1,0.8c-0.4,0-0.7,0-1-0.1s-0.6-0.1-1-0.1s-0.8,0.1-1.1,0.4
			s-0.4,0.6-0.4,1c0,1.1,0.6,1.6,1.9,1.6c0.8,0,1.5-0.1,2.1-0.2c0.6-0.2,1.5-0.2,2.5-0.2s1.8,0.1,2.4,0.2c0.6,0.2,1.3,0.2,2,0.2
			c1.2,0,1.9-0.5,1.9-1.6c0-0.4-0.1-0.7-0.4-1c-0.3-0.3-0.6-0.4-1.1-0.4c-0.3,0-0.6,0-1,0.1c-0.3,0.1-0.7,0.1-1,0.1
			c-0.5,0-0.8-0.3-1-0.8c-0.2-0.6-0.3-1.5-0.3-2.8v-5.1c0-1.1,0-2,0.1-2.7s0.2-1.3,0.3-1.7c0.1-0.4,0.2-0.8,0.3-1
			c0.1-0.3,0.3-0.5,0.4-0.7c0.6-0.8,1.3-1.5,2.3-1.9s2-0.6,3-0.6c0.9,0,1.8,0.2,2.7,0.6s1.6,1,2,1.8c0.2,0.3,0.3,0.7,0.4,1
			c0.1,0.3,0.2,0.6,0.2,1s0.1,0.8,0.1,1.3s0,1.1,0,1.8v6.4c0,1.4-0.1,2.4-0.2,2.9c-0.1,0.5-0.5,0.8-1,0.8c-0.4,0-0.7,0-1-0.1
			s-0.6-0.1-1-0.1s-0.8,0.1-1.1,0.4s-0.4,0.6-0.4,1c0,1,0.6,1.6,1.9,1.6c0.8,0,1.5-0.1,2.1-0.2c0.6-0.2,1.5-0.2,2.5-0.2
			s1.8,0.1,2.4,0.2c0.6,0.2,1.3,0.2,2,0.2c1.2,0,1.9-0.5,1.9-1.6c0-0.4-0.1-0.7-0.4-1c-0.3-0.3-0.6-0.4-1.1-0.4c-0.3,0-0.6,0-1,0.1
			c-0.3,0.1-0.7,0.1-1,0.1c-0.5,0-0.8-0.3-1-0.8c-0.2-0.6-0.3-1.5-0.3-2.8v-8.1c0-1.2-0.1-2.4-0.3-3.4c-0.2-1.1-0.8-2-1.7-2.9
			c-0.9-0.8-1.8-1.4-2.9-1.8c-1.1-0.4-2.2-0.6-3.4-0.6c-1.4,0-2.7,0.3-4,0.8s-2.4,1.3-3.2,2.5h-0.1c0-0.8,0-1.5-0.1-1.9
			c-0.1-0.5-0.4-0.7-0.8-0.7c-0.3,0-0.5,0-0.7,0.1c-0.2,0-0.4,0.1-0.6,0.2c-0.2,0.1-0.4,0.1-0.6,0.2c-0.2,0-0.5,0.1-0.8,0.1
			s-0.5,0-0.7-0.1c-0.2,0-0.4-0.1-0.5-0.2c-0.2-0.1-0.3-0.1-0.5-0.2c-0.2,0-0.4-0.1-0.6-0.1c-0.4,0-0.7,0.2-1.1,0.5
			s-0.5,0.7-0.5,1.1s0.1,0.7,0.4,1c0.3,0.3,0.6,0.4,1.1,0.4c0.3,0,0.6,0,1-0.1c0.3-0.1,0.7-0.1,1-0.1c0.5,0,0.8,0.2,1,0.7
			s0.3,1.5,0.3,3v9.2H291.3z M263.6,131.9c0.4,1.4,1.1,2.7,1.9,3.8c0.9,1.1,1.9,2,3.2,2.6s2.8,1,4.5,1c1.8,0,3.3-0.3,4.7-0.9
			c1.3-0.6,2.4-1.5,3.3-2.6c0.9-1.1,1.6-2.4,2-3.8c0.5-1.5,0.7-3,0.7-4.7c0-1.5-0.2-3-0.7-4.5c-0.4-1.5-1.1-2.9-2.1-4
			c-1-1.2-2.2-2.1-3.6-2.6c-1.4-0.5-2.8-0.7-4.4-0.7c-1.7,0-3.3,0.3-4.6,1s-2.4,1.5-3.2,2.6c-0.9,1.1-1.5,2.4-1.9,3.8
			c-0.4,1.5-0.6,3-0.6,4.6S263.2,130.4,263.6,131.9 M267,124.1c0.2-1.1,0.6-2,1.1-2.9c0.6-1.1,1.4-1.8,2.3-2.3
			c0.9-0.5,2-0.7,3.2-0.7c1,0,2,0.2,3,0.6c0.9,0.4,1.7,1,2.3,2c0.6,0.9,1,1.9,1.2,3s0.3,2.2,0.3,3.2c0,1.2-0.1,2.3-0.3,3.4
			s-0.6,2.1-1.2,3c-0.6,0.9-1.3,1.6-2.2,2.1s-2,0.8-3.4,0.8c-1.3,0-2.3-0.3-3.2-0.8s-1.5-1.2-2.1-2.1s-0.9-1.8-1.1-2.9
			c-0.2-1.1-0.3-2.1-0.3-3.2S266.7,125.2,267,124.1 M253.2,132.2c0,1.4-0.1,2.3-0.3,2.8s-0.5,0.8-1,0.8c-0.4,0-0.7,0-1-0.1
			s-0.6-0.1-1-0.1s-0.8,0.1-1.1,0.4s-0.4,0.6-0.4,1s0.2,0.8,0.5,1.1c0.3,0.3,0.6,0.5,1,0.5c0.8,0,1.5-0.1,2.2-0.2
			c0.7-0.2,1.5-0.2,2.4-0.2s1.7,0.1,2.4,0.2c0.7,0.2,1.4,0.2,2.1,0.2c0.5,0,0.9-0.1,1.3-0.4c0.4-0.3,0.6-0.7,0.6-1.2
			c0-0.4-0.1-0.7-0.4-1c-0.3-0.3-0.6-0.4-1.1-0.4c-0.3,0-0.6,0-0.9,0.1c-0.3,0.1-0.6,0.2-0.8,0.2c-0.4,0-0.7-0.2-0.9-0.5
			s-0.3-0.8-0.3-1.3v-16.2c0-0.4-0.1-0.9-0.2-1.3c-0.2-0.4-0.5-0.6-1-0.6c-0.4,0-0.8,0.1-1.1,0.2c-0.3,0.2-0.8,0.2-1.3,0.2
			s-1-0.1-1.4-0.2c-0.4-0.2-0.9-0.2-1.5-0.2c-0.4,0-0.8,0.1-1.1,0.4s-0.5,0.7-0.5,1.2c0,0.4,0.1,0.7,0.4,1c0.3,0.3,0.6,0.4,1.1,0.4
			c0.3,0,0.6,0,1-0.1c0.3-0.1,0.7-0.1,1-0.1c0.2,0,0.4,0.1,0.6,0.2c0.2,0.1,0.3,0.3,0.4,0.5c0.1,0.3,0.2,0.6,0.2,1.1
			s0.1,1.1,0.1,1.8V132.2z M252.3,109.5c-0.5,0.5-0.7,1.1-0.7,1.8c0,0.7,0.2,1.3,0.7,1.8s1.1,0.7,1.7,0.7c0.7,0,1.3-0.2,1.8-0.7
			s0.7-1.1,0.7-1.8c0-0.7-0.2-1.3-0.7-1.8s-1.1-0.7-1.8-0.7C253.4,108.7,252.8,109,252.3,109.5 M234.1,130.2c0,0.9,0,1.7,0,2.2
			c0,0.6,0.1,1.1,0.2,1.5c0.1,0.4,0.2,0.8,0.3,1.1c0.1,0.3,0.2,0.6,0.4,1c0.5,0.9,1.2,1.6,2.2,2s1.9,0.6,3,0.6
			c1.5,0,2.8-0.3,3.7-0.8s1.6-1.2,2.1-2c0.5-0.9,0.8-1.8,1-3c0.1-1.1,0.2-2.3,0.2-3.6c0-0.5-0.1-1-0.3-1.4s-0.7-0.7-1.3-0.7
			s-1.1,0.2-1.3,0.6s-0.4,1.1-0.4,2.1v1.4c0,0.5,0,1-0.1,1.5s-0.2,1-0.5,1.4c-0.2,0.4-0.6,0.8-1,1s-0.9,0.4-1.6,0.4
			c-0.6,0-1.1-0.1-1.5-0.3c-0.4-0.2-0.7-0.5-1-0.9c-0.2-0.4-0.4-0.9-0.5-1.6s-0.2-1.5-0.2-2.5v-10.6c0-0.4,0.1-0.7,0.2-0.7
			c0.1-0.1,0.4-0.1,0.9-0.1h3.8c1,0,1.6-0.2,1.9-0.5c0.3-0.3,0.4-0.7,0.4-1.1c0-0.5-0.1-0.9-0.4-1.2c-0.3-0.3-0.9-0.4-1.8-0.4h-4.3
			c-0.3,0-0.5,0-0.6-0.1s-0.1-0.3-0.1-0.6v-4.3c0-0.6-0.1-1.1-0.3-1.5s-0.6-0.7-1.4-0.7c-0.8,0-1.2,0.2-1.4,0.7
			c-0.2,0.4-0.3,1-0.3,1.6v3.6c0,0.6,0,1-0.1,1.2s-0.3,0.2-0.7,0.2h-1.5c-0.5,0-0.9,0.2-1.2,0.5s-0.5,0.7-0.5,1.1
			c0,0.7,0.2,1.1,0.6,1.3s1,0.3,1.9,0.3c0.7,0,1.1,0.1,1.3,0.3c0.2,0.2,0.3,0.6,0.3,1.3v9.7H234.1z M224.2,123.7
			c0-1.3-0.1-2.5-0.4-3.7c-0.3-1.1-0.9-2.1-2-3c-0.8-0.6-1.8-1.1-2.8-1.3c-1.1-0.3-2.1-0.4-3.1-0.4s-2,0.1-3,0.4s-2,0.7-2.7,1.2
			c-0.8,0.5-1.4,1.2-1.9,1.9c-0.5,0.8-0.8,1.6-0.8,2.5c0,0.8,0.3,1.4,0.8,2c0.5,0.5,1.2,0.8,1.9,0.8c0.6,0,1.2-0.2,1.6-0.5
			c0.5-0.3,0.7-0.9,0.7-1.5c0-0.4-0.1-0.7-0.2-0.9c-0.1-0.2-0.2-0.4-0.4-0.5c-0.1-0.1-0.2-0.2-0.3-0.2s-0.2-0.1-0.2-0.2
			c0-0.2,0.1-0.4,0.4-0.7c0.2-0.2,0.5-0.4,0.6-0.5c0.5-0.3,1-0.5,1.6-0.7s1.2-0.3,1.7-0.3c0.6,0,1.3,0.1,1.8,0.2
			c0.6,0.1,1.1,0.3,1.6,0.7c0.5,0.3,0.8,0.7,1.1,1.2s0.4,1.1,0.4,1.8c0,0.8-0.2,1.4-0.6,1.9c-0.4,0.4-0.9,0.8-1.5,1s-1.2,0.3-2,0.4
			c-0.7,0.1-1.4,0.1-2,0.2c-1.1,0.1-2.1,0.3-3,0.5s-1.9,0.5-2.8,1.1c-1,0.6-1.8,1.3-2.2,2.3c-0.5,0.9-0.7,2-0.7,3.2
			c0,1.1,0.3,2.1,0.8,3s1.2,1.6,2.1,2.2c0.8,0.5,1.6,0.8,2.5,1s1.8,0.3,2.7,0.3c1.4,0,2.7-0.2,4-0.7s2.3-1.3,3-2.6
			c0.2,1.1,0.8,1.9,1.6,2.4s1.8,0.7,2.8,0.7c0.7,0,1.4-0.1,2.1-0.3c0.7-0.2,1.3-0.6,1.7-1.2c0.5-0.6,0.7-1.3,0.8-2.2
			c0.1-0.9,0.1-2.1,0.1-3.8c0-0.5-0.1-0.9-0.3-1.3c-0.2-0.3-0.6-0.5-1.2-0.5c-0.4,0-0.7,0.1-0.9,0.2c-0.2,0.2-0.3,0.4-0.4,0.6
			c-0.1,0.2-0.1,0.5-0.1,0.8v0.9c0,0.3,0,0.7,0,1.2s0,0.9-0.1,1.3s-0.2,0.8-0.5,1.1c-0.2,0.3-0.6,0.5-1,0.5c-0.5,0-0.9-0.2-1.2-0.5
			c-0.2-0.4-0.4-0.8-0.5-1.3s-0.1-1-0.1-1.6s0-1,0-1.3L224.2,123.7z M209.9,130.8c0.3-0.5,0.7-0.8,1.2-1.1c0.5-0.3,1-0.5,1.6-0.6
			s1.2-0.2,1.8-0.3c0.5-0.1,1.1-0.1,1.6-0.2c0.6-0.1,1.1-0.1,1.6-0.3c0.5-0.1,1-0.3,1.5-0.5s0.9-0.5,1.3-0.9c0,0.5-0.1,0.9-0.1,1.4
			s0,0.9,0,1.4c0,0.8-0.1,1.5-0.2,2.2c-0.1,0.7-0.4,1.4-0.9,2c-0.7,0.8-1.5,1.4-2.5,1.8c-1,0.3-2,0.5-3,0.5c-0.6,0-1.1-0.1-1.7-0.2
			c-0.5-0.1-1-0.3-1.4-0.7c-0.4-0.3-0.8-0.7-1-1.1c-0.3-0.4-0.4-1-0.4-1.7C209.4,131.8,209.6,131.2,209.9,130.8 M196.2,132.2
			c0,1.4-0.1,2.3-0.3,2.8s-0.5,0.8-1,0.8c-0.4,0-0.7,0-1-0.1s-0.6-0.1-1-0.1s-0.8,0.1-1.1,0.4s-0.4,0.6-0.4,1s0.2,0.8,0.5,1.1
			c0.3,0.3,0.6,0.5,1,0.5c0.8,0,1.5-0.1,2.2-0.2s1.5-0.2,2.4-0.2s1.7,0.1,2.4,0.2c0.7,0.2,1.4,0.2,2.1,0.2c0.5,0,0.9-0.1,1.3-0.4
			c0.4-0.3,0.6-0.7,0.6-1.2c0-0.4-0.1-0.7-0.4-1c-0.3-0.3-0.6-0.4-1.1-0.4c-0.3,0-0.6,0-0.9,0.1c-0.3,0.1-0.6,0.2-0.8,0.2
			c-0.4,0-0.7-0.2-0.9-0.5s-0.3-0.8-0.3-1.3v-16.2c0-0.4-0.1-0.9-0.2-1.3c-0.2-0.4-0.5-0.6-1-0.6c-0.4,0-0.8,0.1-1.1,0.2
			c-0.3,0.2-0.8,0.2-1.3,0.2s-1-0.1-1.4-0.2c-0.4-0.2-0.9-0.2-1.5-0.2c-0.4,0-0.8,0.1-1.1,0.4s-0.5,0.7-0.5,1.2c0,0.4,0.1,0.7,0.4,1
			c0.3,0.3,0.6,0.4,1.1,0.4c0.3,0,0.6,0,1-0.1c0.3-0.1,0.7-0.1,1-0.1c0.2,0,0.4,0.1,0.6,0.2c0.2,0.1,0.3,0.3,0.4,0.5
			c0.1,0.3,0.2,0.6,0.2,1.1s0.1,1.1,0.1,1.8V132.2z M195.4,109.5c-0.5,0.5-0.7,1.1-0.7,1.8c0,0.7,0.2,1.3,0.7,1.8s1.1,0.7,1.7,0.7
			c0.7,0,1.3-0.2,1.8-0.7s0.7-1.1,0.7-1.8c0-0.7-0.2-1.3-0.7-1.8s-1.1-0.7-1.8-0.7C196.4,108.7,195.8,109,195.4,109.5 M177.5,135.4
			c-0.9-0.5-1.5-1.2-2.1-2.1c-0.5-0.9-0.9-1.8-1.1-2.9c-0.2-1.1-0.3-2.1-0.3-3.2s0.1-2.1,0.4-3.2c0.3-1.1,0.7-2,1.2-2.9
			c0.6-0.9,1.3-1.6,2.2-2.1s1.9-0.8,3.2-0.8c0.5,0,1,0.1,1.6,0.2s1.1,0.4,1.5,0.6s0.9,0.6,1.2,1.1c0.3,0.4,0.5,0.9,0.5,1.5
			c-0.6,0-1.1,0.2-1.6,0.5s-0.7,0.8-0.7,1.5s0.3,1.3,0.8,1.7c0.5,0.4,1.1,0.7,1.8,0.7c0.6,0,1-0.1,1.5-0.3c0.4-0.2,0.8-0.5,1-0.9
			c0.3-0.4,0.5-0.8,0.6-1.3s0.2-1,0.2-1.5c0-1-0.3-2-0.8-2.9c-0.6-0.9-1.2-1.7-2.1-2.3c-0.8-0.5-1.6-0.9-2.5-1.2
			c-0.9-0.3-1.8-0.4-2.7-0.4c-1.8,0-3.4,0.3-4.7,1s-2.4,1.5-3.3,2.7c-0.9,1.1-1.5,2.4-2,3.9c-0.4,1.5-0.7,3.1-0.7,4.8
			c0,1.5,0.2,3,0.7,4.4c0.4,1.4,1.1,2.6,1.9,3.7c0.8,1.1,1.9,1.9,3.2,2.5s2.7,0.9,4.4,0.9c1.3,0,2.6-0.2,3.8-0.7
			c1.2-0.4,2.3-1.2,3.2-2.2c0.3-0.3,0.6-0.7,0.8-1.1c0.3-0.5,0.5-0.9,0.8-1.4c0.2-0.5,0.4-1,0.6-1.5s0.2-1,0.2-1.4
			c0-0.5-0.2-0.9-0.5-1.2c-0.3-0.3-0.7-0.5-1.2-0.5c-0.4,0-0.7,0.1-0.9,0.3c-0.2,0.2-0.4,0.4-0.5,0.7c-0.1,0.3-0.2,0.6-0.3,0.9
			s-0.2,0.6-0.2,0.9c-0.3,1.3-1,2.3-2,3.1c-1,0.8-2.1,1.1-3.5,1.1C179.4,136.2,178.3,136,177.5,135.4 M146.6,131.9
			c0.4,1.4,1.1,2.7,1.9,3.8c0.9,1.1,1.9,2,3.2,2.6s2.8,1,4.5,1c1.8,0,3.3-0.3,4.7-0.9c1.3-0.6,2.5-1.5,3.3-2.6
			c0.9-1.1,1.6-2.4,2-3.8c0.5-1.5,0.7-3,0.7-4.7c0-1.5-0.2-3-0.7-4.5s-1.1-2.9-2.1-4c-1-1.2-2.2-2.1-3.6-2.6
			c-1.4-0.5-2.8-0.7-4.4-0.7c-1.7,0-3.3,0.3-4.6,1s-2.4,1.5-3.2,2.6c-0.9,1.1-1.5,2.4-1.9,3.8c-0.4,1.5-0.6,3-0.6,4.6
			S146.2,130.4,146.6,131.9 M150,124.1c0.2-1.1,0.6-2,1.1-2.9c0.6-1.1,1.4-1.8,2.3-2.3c0.9-0.5,2-0.7,3.2-0.7c1,0,2,0.2,3,0.6
			c0.9,0.4,1.7,1,2.3,2c0.6,0.9,1,1.9,1.2,3s0.3,2.2,0.3,3.2c0,1.2-0.1,2.3-0.3,3.4s-0.6,2.1-1.2,3c-0.6,0.9-1.3,1.6-2.2,2.1
			s-2,0.8-3.4,0.8c-1.3,0-2.3-0.3-3.2-0.8s-1.5-1.2-2.1-2.1c-0.5-0.9-0.9-1.8-1.1-2.9c-0.2-1.1-0.3-2.1-0.3-3.2
			S149.7,125.2,150,124.1 M135.7,129.1c0.6,0.1,1.1,0.3,1.5,0.6c0.4,0.3,0.8,0.6,1.1,1s0.4,1,0.4,1.7c0,0.6-0.1,1.1-0.4,1.6
			c-0.3,0.5-0.6,0.9-1.1,1.2c-0.5,0.4-1.1,0.7-1.7,0.8c-0.6,0.1-1.3,0.2-1.9,0.2c-0.4,0-0.9,0-1.5-0.1c-0.5-0.1-1.1-0.2-1.6-0.3
			c-0.5-0.2-1-0.3-1.5-0.6c-0.5-0.2-0.9-0.5-1.2-0.8c-0.2-0.2-0.4-0.4-0.5-0.6s-0.2-0.4-0.3-0.7c-0.1-0.3-0.1-0.6-0.2-1
			c0-0.4-0.1-0.9-0.2-1.6c0-0.5-0.2-0.9-0.4-1.1s-0.6-0.3-1-0.3c-0.5,0-0.9,0.1-1.1,0.4c-0.3,0.3-0.4,0.7-0.4,1.2
			c0,0.6,0.1,1.2,0.2,1.7c0.1,0.6,0.2,1.2,0.2,1.7c0,0.6-0.1,1.2-0.2,1.8c-0.1,0.6-0.2,1.2-0.2,1.8c0,0.5,0.1,0.9,0.4,1.3
			s0.7,0.5,1.3,0.5c0.5,0,0.9-0.2,1.2-0.6s0.4-1,0.3-1.8c0.9,0.8,1.9,1.3,3,1.6c1.1,0.3,2.2,0.5,3.4,0.5c1.1,0,2.2-0.1,3.3-0.4
			s2-0.7,2.9-1.3c0.9-0.6,1.5-1.3,2.1-2.2c0.5-0.9,0.8-2,0.8-3.2c0-1.1-0.2-2.1-0.6-2.8c-0.4-0.8-0.9-1.4-1.7-1.9s-1.7-0.9-2.8-1.2
			c-1.1-0.3-2.4-0.5-3.9-0.7c-1.9-0.2-3.2-0.6-4-1s-1.2-1.2-1.2-2.3c0-0.6,0.1-1.2,0.4-1.7c0.3-0.5,0.7-0.9,1.2-1.2
			c0.5-0.3,1-0.5,1.6-0.7s1.1-0.2,1.7-0.2c0.7,0,1.4,0.2,2.1,0.5c0.7,0.3,1.4,0.7,2,1.1c0.2,0.1,0.4,0.3,0.5,0.4s0.2,0.3,0.3,0.5
			s0.1,0.4,0.2,0.7c0,0.3,0,0.6,0,1c0,1.4,0.5,2.1,1.4,2.1c0.5,0,0.9-0.2,1.2-0.5s0.4-0.7,0.4-1.2s0-1-0.1-1.6
			c-0.1-0.5-0.1-1.1-0.1-1.6s0-1.1,0.1-1.6s0.1-1.1,0.1-1.6c0-1-0.5-1.4-1.5-1.4c-0.6,0-1,0.2-1.2,0.5c-0.2,0.4-0.3,0.8-0.2,1.3
			c-0.7-0.6-1.5-1-2.4-1.2s-1.8-0.3-2.7-0.3c-1.1,0-2.1,0.2-3.1,0.5s-1.9,0.7-2.7,1.3c-0.8,0.6-1.4,1.3-1.9,2.2
			c-0.5,0.9-0.7,1.9-0.7,3.1c0,1.3,0.3,2.4,0.9,3.2c0.6,0.8,1.4,1.4,2.3,1.8c0.9,0.4,2,0.7,3.1,0.9c1.1,0.2,2.2,0.3,3.2,0.5
			C134.6,128.9,135.1,129,135.7,129.1 M113.1,129.1c0.6,0.1,1.1,0.3,1.5,0.6c0.5,0.3,0.8,0.6,1.1,1s0.4,1,0.4,1.7
			c0,0.6-0.1,1.1-0.4,1.6c-0.3,0.5-0.6,0.9-1.1,1.2c-0.5,0.4-1.1,0.7-1.7,0.8c-0.6,0.1-1.3,0.2-1.9,0.2c-0.4,0-0.9,0-1.5-0.1
			c-0.5-0.1-1.1-0.2-1.6-0.3c-0.5-0.2-1-0.3-1.5-0.6c-0.5-0.2-0.9-0.5-1.2-0.8c-0.2-0.2-0.4-0.4-0.5-0.6s-0.2-0.4-0.3-0.7
			c-0.1-0.3-0.1-0.6-0.2-1c0-0.4-0.1-0.9-0.2-1.6c0-0.5-0.2-0.9-0.4-1.1c-0.2-0.2-0.6-0.3-1-0.3c-0.5,0-0.9,0.1-1.1,0.4
			c-0.3,0.3-0.4,0.7-0.4,1.2c0,0.6,0.1,1.2,0.2,1.7c0.1,0.6,0.2,1.2,0.2,1.7c0,0.6-0.1,1.2-0.2,1.8c-0.1,0.6-0.2,1.2-0.2,1.8
			c0,0.5,0.1,0.9,0.4,1.3s0.7,0.5,1.3,0.5c0.5,0,0.9-0.2,1.2-0.6c0.3-0.4,0.4-1,0.3-1.8c0.9,0.8,1.9,1.3,3,1.6
			c1.1,0.3,2.2,0.5,3.4,0.5c1.1,0,2.2-0.1,3.3-0.4s2-0.7,2.9-1.3c0.9-0.6,1.5-1.3,2.1-2.2c0.5-0.9,0.8-2,0.8-3.2
			c0-1.1-0.2-2.1-0.6-2.8c-0.4-0.8-1-1.4-1.7-1.9c-0.8-0.5-1.7-0.9-2.8-1.2c-1.1-0.3-2.4-0.5-3.9-0.7c-1.9-0.2-3.2-0.6-4-1
			s-1.2-1.2-1.2-2.3c0-0.6,0.1-1.2,0.4-1.7s0.7-0.9,1.2-1.2c0.5-0.3,1-0.5,1.6-0.7s1.1-0.2,1.7-0.2c0.7,0,1.4,0.2,2.1,0.5
			c0.7,0.3,1.4,0.7,2,1.1c0.2,0.1,0.4,0.3,0.5,0.4s0.2,0.3,0.3,0.5s0.1,0.4,0.2,0.7c0,0.3,0,0.6,0,1c0,1.4,0.5,2.1,1.4,2.1
			c0.5,0,0.9-0.2,1.2-0.5s0.4-0.7,0.4-1.2s0-1-0.1-1.6c-0.1-0.5-0.1-1.1-0.1-1.6s0-1.1,0.1-1.6s0.1-1.1,0.1-1.6c0-1-0.5-1.4-1.5-1.4
			c-0.6,0-1,0.2-1.2,0.5c-0.2,0.4-0.3,0.8-0.2,1.3c-0.7-0.6-1.5-1-2.4-1.2s-1.8-0.3-2.7-0.3c-1.1,0-2.1,0.2-3.1,0.5
			s-1.9,0.7-2.7,1.3c-0.8,0.6-1.4,1.3-1.9,2.2c-0.5,0.9-0.7,1.9-0.7,3.1c0,1.3,0.3,2.4,0.9,3.2c0.6,0.8,1.4,1.4,2.3,1.8
			s2,0.7,3.1,0.9c1.1,0.2,2.2,0.3,3.2,0.5C112,128.9,112.5,129,113.1,129.1 M92.8,123.7c0-1.3-0.1-2.5-0.4-3.7c-0.3-1.1-1-2.1-2-3
			c-0.8-0.6-1.8-1.1-2.8-1.3c-1.1-0.3-2.1-0.4-3.1-0.4s-2,0.1-3,0.4s-2,0.7-2.7,1.2c-0.8,0.5-1.4,1.2-1.9,1.9s-0.8,1.6-0.8,2.5
			c0,0.8,0.3,1.4,0.8,2c0.5,0.5,1.2,0.8,1.9,0.8c0.6,0,1.2-0.2,1.6-0.5c0.5-0.3,0.7-0.9,0.7-1.5c0-0.4-0.1-0.7-0.2-0.9
			c-0.1-0.2-0.2-0.4-0.4-0.5c-0.1-0.1-0.2-0.2-0.3-0.2c-0.1,0-0.2-0.1-0.2-0.2c0-0.2,0.1-0.4,0.4-0.7c0.2-0.2,0.5-0.4,0.6-0.5
			c0.5-0.3,1-0.5,1.6-0.7s1.2-0.3,1.7-0.3c0.6,0,1.3,0.1,1.8,0.2c0.6,0.1,1.1,0.3,1.6,0.7c0.4,0.3,0.8,0.7,1.1,1.2
			c0.3,0.5,0.4,1.1,0.4,1.8c0,0.8-0.2,1.4-0.6,1.9c-0.4,0.4-0.9,0.8-1.5,1s-1.2,0.3-2,0.4c-0.7,0.1-1.4,0.1-2,0.2
			c-1.1,0.1-2.1,0.3-3,0.5s-1.9,0.5-2.8,1.1c-1,0.6-1.8,1.3-2.2,2.3c-0.5,0.9-0.7,2-0.7,3.2c0,1.1,0.3,2.1,0.8,3s1.2,1.6,2.1,2.2
			c0.8,0.5,1.6,0.8,2.5,1s1.8,0.3,2.7,0.3c1.4,0,2.7-0.2,4-0.7s2.3-1.3,3-2.6c0.2,1.1,0.8,1.9,1.6,2.4c0.8,0.5,1.8,0.7,2.8,0.7
			c0.7,0,1.4-0.1,2.1-0.3c0.7-0.2,1.3-0.6,1.7-1.2c0.5-0.6,0.7-1.3,0.8-2.2c0.1-0.9,0.1-2.1,0.1-3.8c0-0.5-0.1-0.9-0.3-1.3
			s-0.6-0.5-1.2-0.5c-0.4,0-0.7,0.1-0.9,0.2c-0.2,0.2-0.3,0.4-0.4,0.6s-0.1,0.5-0.1,0.8v0.9c0,0.3,0,0.7,0,1.2s0,0.9-0.1,1.3
			s-0.2,0.8-0.5,1.1c-0.2,0.3-0.6,0.5-1,0.5c-0.5,0-0.9-0.2-1.2-0.5c-0.2-0.4-0.4-0.8-0.5-1.3s-0.1-1-0.1-1.6c0-0.5,0-1,0-1.3
			L92.8,123.7z M78.6,130.8c0.3-0.5,0.7-0.8,1.2-1.1c0.5-0.3,1-0.5,1.6-0.6s1.2-0.2,1.8-0.3c0.5-0.1,1.1-0.1,1.6-0.2
			c0.6-0.1,1.1-0.1,1.6-0.3s1-0.3,1.5-0.5s0.9-0.5,1.3-0.9c0,0.5-0.1,0.9-0.1,1.4s0,0.9,0,1.4c0,0.8-0.1,1.5-0.2,2.2s-0.4,1.4-0.9,2
			c-0.7,0.8-1.5,1.4-2.5,1.8c-1,0.3-2,0.5-3,0.5c-0.6,0-1.1-0.1-1.7-0.2c-0.5-0.1-1-0.3-1.4-0.7c-0.4-0.3-0.8-0.7-1-1.1
			c-0.3-0.4-0.4-1-0.4-1.7C78.1,131.8,78.2,131.2,78.6,130.8 M66.5,113.4c0.3,0,0.4,0.3,0.4,0.7c0,0.3-0.1,0.7-0.3,1.1
			c-0.2,0.4-0.4,0.9-0.6,1.3c-0.2,0.5-0.5,0.9-0.8,1.3s-0.5,0.7-0.7,1c-0.1,0.1-0.2,0.3-0.3,0.5c-0.1,0.2-0.2,0.3-0.2,0.5
			s0.1,0.4,0.3,0.6c0.2,0.2,0.4,0.3,0.6,0.3c0.3,0,0.5-0.1,0.8-0.3c0.2-0.2,0.5-0.4,0.7-0.7c0.2-0.3,0.4-0.5,0.6-0.8
			s0.3-0.5,0.4-0.7c0.6-0.9,1.1-1.9,1.5-3s0.6-2.2,0.6-3.3c0-0.5-0.1-1-0.2-1.6c-0.1-0.5-0.4-1-0.6-1.4c-0.3-0.4-0.6-0.8-1.1-1
			c-0.4-0.3-1-0.4-1.6-0.4c-0.9,0-1.7,0.3-2.3,0.8c-0.6,0.5-0.9,1.2-0.9,2.2c0,0.8,0.2,1.5,0.7,1.9c0.5,0.5,1.1,0.7,1.9,0.8
			C65.9,113.3,66.2,113.4,66.5,113.4 M51.2,132.2c0,1.2-0.1,2.2-0.2,2.8c-0.2,0.6-0.5,0.9-1,0.9c-0.4,0-0.7,0-1-0.1s-0.6-0.1-1-0.1
			s-0.8,0.1-1.1,0.4c-0.3,0.3-0.4,0.6-0.4,1c0,0.5,0.2,0.9,0.6,1.2c0.4,0.3,0.8,0.4,1.3,0.4c0.4,0,0.7,0,1.1-0.1
			c0.3,0,0.7-0.1,1-0.2s0.7-0.1,1.1-0.2c0.4,0,0.9-0.1,1.3-0.1c0.5,0,1,0,1.4,0.1c0.4,0,0.8,0.1,1.1,0.2c0.3,0.1,0.7,0.1,1,0.2
			c0.3,0,0.6,0.1,1,0.1c0.5,0,0.9-0.1,1.3-0.4s0.6-0.7,0.6-1.2c0-0.4-0.1-0.7-0.4-1s-0.6-0.4-1.1-0.4c-0.3,0-0.6,0-1,0.1
			c-0.3,0.1-0.7,0.1-1,0.1c-0.2,0-0.3,0-0.5-0.1s-0.3-0.3-0.4-0.5c-0.1-0.3-0.2-0.6-0.3-1.1c-0.1-0.5-0.1-1.1-0.1-1.9v-21.9
			c0-0.8-0.1-1.4-0.2-1.7c-0.1-0.4-0.5-0.5-1-0.5c-0.4,0-0.8,0.1-1.1,0.2c-0.3,0.2-0.7,0.2-1.3,0.2c-0.4,0-0.9-0.1-1.3-0.2
			c-0.4-0.2-1-0.2-1.6-0.2c-0.5,0-1,0.1-1.4,0.4s-0.6,0.7-0.6,1.2c0,0.4,0.1,0.7,0.4,1s0.6,0.4,1.1,0.4s0.9,0,1.3-0.1
			s0.7-0.1,1.1-0.1c0.1,0,0.3,0,0.5,0.1c0.2,0,0.3,0.2,0.4,0.4c0.1,0.2,0.2,0.6,0.3,1.1c0.1,0.5,0.1,1.2,0.1,2.1L51.2,132.2
			L51.2,132.2z M22.4,123.7c0-1.3-0.1-2.5-0.4-3.7c-0.3-1.1-1-2.1-2-3c-0.8-0.6-1.8-1.1-2.8-1.3c-1.1-0.3-2.1-0.4-3.1-0.4
			s-2,0.1-3,0.4s-2,0.7-2.7,1.2c-0.8,0.5-1.4,1.2-1.9,1.9s-0.8,1.6-0.8,2.5c0,0.8,0.3,1.4,0.8,2c0.5,0.5,1.2,0.8,1.9,0.8
			c0.6,0,1.2-0.2,1.6-0.5c0.5-0.3,0.7-0.9,0.7-1.5c0-0.4-0.1-0.7-0.2-0.9c-0.1-0.2-0.2-0.4-0.4-0.5c-0.1-0.1-0.2-0.2-0.3-0.2
			c-0.1,0-0.2-0.1-0.2-0.2c0-0.2,0.1-0.4,0.4-0.7c0.2-0.2,0.5-0.4,0.6-0.5c0.5-0.3,1-0.5,1.6-0.7s1.2-0.3,1.7-0.3
			c0.6,0,1.3,0.1,1.8,0.2c0.6,0.1,1.1,0.3,1.6,0.7c0.4,0.3,0.8,0.7,1.1,1.2c0.3,0.5,0.4,1.1,0.4,1.8c0,0.8-0.2,1.4-0.6,1.9
			c-0.4,0.4-0.9,0.8-1.5,1s-1.2,0.3-2,0.4c-0.7,0.1-1.4,0.1-2,0.2c-1.1,0.1-2.1,0.3-3,0.5s-1.9,0.5-2.8,1.1c-1,0.6-1.8,1.3-2.2,2.3
			c-0.5,0.9-0.7,2-0.7,3.2c0,1.1,0.3,2.1,0.8,3s1.2,1.6,2.1,2.2c0.8,0.5,1.6,0.8,2.5,1s1.8,0.3,2.7,0.3c1.4,0,2.7-0.2,4-0.7
			s2.3-1.3,3-2.6c0.2,1.1,0.8,1.9,1.6,2.4c0.8,0.5,1.8,0.7,2.8,0.7c0.7,0,1.4-0.1,2.1-0.3c0.7-0.2,1.3-0.6,1.7-1.2
			c0.5-0.6,0.7-1.3,0.8-2.2c0.1-0.9,0.1-2.1,0.1-3.8c0-0.5-0.1-0.9-0.3-1.3s-0.6-0.5-1.2-0.5c-0.4,0-0.7,0.1-0.9,0.2
			c-0.2,0.2-0.3,0.4-0.4,0.6s-0.1,0.5-0.1,0.8v0.9c0,0.3,0,0.7,0,1.2s0,0.9-0.1,1.3s-0.2,0.8-0.5,1.1c-0.2,0.3-0.6,0.5-1,0.5
			c-0.5,0-0.9-0.2-1.2-0.5c-0.2-0.4-0.4-0.8-0.5-1.3s-0.1-1-0.1-1.6c0-0.5,0-1,0-1.3L22.4,123.7z M8.1,130.8
			c0.3-0.5,0.7-0.8,1.2-1.1c0.5-0.3,1-0.5,1.6-0.6s1.2-0.2,1.8-0.3c0.5-0.1,1.1-0.1,1.6-0.2c0.6-0.1,1.1-0.1,1.6-0.3s1-0.3,1.5-0.5
			s0.9-0.5,1.3-0.9c0,0.5-0.1,0.9-0.1,1.4s0,0.9,0,1.4c0,0.8-0.1,1.5-0.2,2.2s-0.4,1.4-0.9,2c-0.7,0.8-1.5,1.4-2.5,1.8
			c-1,0.3-2,0.5-3,0.5c-0.6,0-1.1-0.1-1.7-0.2c-0.5-0.1-1-0.3-1.4-0.7c-0.4-0.3-0.8-0.7-1-1.1c-0.3-0.4-0.4-1-0.4-1.7
			C7.6,131.8,7.8,131.2,8.1,130.8 M14.1,107.9c-0.3-0.3-0.6-0.5-0.8-0.7c-0.3-0.2-0.6-0.3-1-0.3c-0.6,0-1.1,0.2-1.4,0.6
			c-0.4,0.4-0.5,0.9-0.5,1.5s0.2,1,0.5,1.2c0.3,0.3,0.7,0.5,1.2,0.7l6,2.2c0.1,0.1,0.3,0.1,0.5,0.2s0.3,0.1,0.5,0.1
			c0.1,0,0.3,0,0.4-0.1s0.2-0.2,0.2-0.3c0-0.3-0.1-0.5-0.3-0.7c-0.2-0.2-0.4-0.3-0.5-0.5L14.1,107.9z"/>
	</g>
	<g>
		<defs>
			<rect id="SVGID_3_" x="4" y="3.3" width="453.6" height="136.3"/>
		</defs>
		<clipPath id="SVGID_4_">
			<use xlink:href="#SVGID_3_"  style="overflow:visible;"/>
		</clipPath>
		<path class="st1" d="M301.2,80c0,0.8,0,1.4-0.1,1.8c0,0.5-0.1,0.8-0.2,1.1c-0.1,0.3-0.2,0.4-0.4,0.5s-0.4,0.2-0.6,0.2
			c-0.4,0-0.7,0-1-0.1s-0.6-0.1-1-0.1s-0.8,0.1-1.1,0.4s-0.4,0.6-0.4,1c0,0.5,0.2,0.9,0.6,1.2c0.4,0.3,0.9,0.4,1.3,0.4
			c0.4,0,0.8,0,1.2-0.1c0.4,0,0.7-0.1,1.1-0.2c0.3-0.1,0.7-0.1,1.1-0.2c0.4,0,0.8-0.1,1.2-0.1c0.9,0,1.7,0.1,2.3,0.2
			c0.7,0.2,1.4,0.2,2.1,0.2c0.5,0,0.9-0.1,1.3-0.4c0.4-0.3,0.6-0.7,0.6-1.2c0-0.4-0.1-0.7-0.4-1c-0.3-0.3-0.6-0.4-1.1-0.4
			c-0.3,0-0.6,0-1,0.1c-0.3,0.1-0.7,0.1-1,0.1c-0.2,0-0.4,0-0.5-0.1c-0.2-0.1-0.3-0.3-0.4-0.5c-0.1-0.3-0.2-0.6-0.3-1.1
			s-0.1-1.1-0.1-1.9V74c0-1.6,0.1-2.9,0.4-3.9c0.3-1.1,0.6-1.9,1.1-2.5s1.1-1.1,1.7-1.3c0.7-0.3,1.4-0.4,2.3-0.4
			c0.4,0,0.9,0.1,1.4,0.2s0.9,0.3,1.2,0.6c0.4,0.3,0.7,0.6,0.9,1s0.4,0.8,0.4,1.3c0,0.3-0.1,0.7-0.3,1c-0.1,0-0.2-0.1-0.3-0.1
			s-0.2,0-0.3,0c-0.5,0-0.9,0.2-1.3,0.6c-0.3,0.4-0.5,0.8-0.5,1.3c0,0.6,0.2,1.1,0.7,1.5s1,0.6,1.6,0.6c0.7,0,1.2-0.1,1.7-0.4
			s0.8-0.6,1.1-1s0.5-0.9,0.6-1.4s0.2-1.1,0.2-1.6c0-1-0.2-1.9-0.6-2.6c-0.4-0.8-0.9-1.4-1.5-1.9s-1.4-0.9-2.2-1.2
			c-0.9-0.3-1.7-0.4-2.6-0.4c-1.3,0-2.5,0.3-3.5,0.8c-1.1,0.5-1.9,1.4-2.6,2.5h-0.1c0-0.9,0-1.5-0.2-2c-0.1-0.4-0.5-0.7-1.1-0.7
			c-0.4,0-0.8,0.1-1.1,0.2c-0.3,0.2-0.8,0.2-1.3,0.2s-1-0.1-1.3-0.2c-0.4-0.2-0.8-0.2-1.2-0.2c-0.5,0-0.9,0.1-1.3,0.4
			c-0.4,0.3-0.6,0.7-0.6,1.2c0,0.4,0.1,0.7,0.4,1c0.3,0.3,0.6,0.4,1.1,0.4c0.6,0,1.1,0,1.4-0.1c0.4-0.1,0.7-0.1,1.1-0.1
			c0.5,0,0.8,0.2,1,0.7s0.3,1.5,0.3,2.9L301.2,80L301.2,80z M291.6,75.6c0.5,0,0.9,0,1.2-0.1c0.3,0,0.5-0.1,0.6-0.3
			c0.1-0.2,0.2-0.4,0.2-0.7c0-0.3,0-0.7,0-1.3c0-1.5-0.2-2.8-0.7-4s-1.2-2.3-2-3.2c-0.9-0.9-1.9-1.6-3.1-2.1c-1.2-0.5-2.5-0.8-4-0.8
			c-1.6,0-3,0.3-4.4,1s-2.6,1.6-3.6,2.8c-0.9,1.2-1.6,2.5-2,4s-0.6,3-0.6,4.5c0,1.6,0.2,3.1,0.7,4.5c0.4,1.4,1.1,2.6,2,3.7
			c0.9,1,2,1.9,3.2,2.5c1.3,0.6,2.8,0.9,4.5,0.9c1.2,0,2.5-0.2,3.8-0.6s2.4-1,3.3-1.9c0.6-0.6,1.2-1.3,1.8-2.3
			c0.5-0.9,0.8-1.8,0.8-2.7c0-0.5-0.2-0.9-0.5-1.2c-0.3-0.3-0.7-0.5-1.2-0.5c-0.6,0-1,0.2-1.2,0.6s-0.4,0.8-0.5,1.3
			c-0.4,1.4-1.1,2.5-2.2,3.2c-1.1,0.7-2.3,1.1-3.8,1.1c-1.2,0-2.2-0.2-3.1-0.7c-0.9-0.5-1.6-1.1-2.2-1.9c-0.6-0.8-1-1.7-1.3-2.7
			s-0.4-2.1-0.3-3.2h14.6V75.6z M277.2,72.4c0.1-0.9,0.3-1.7,0.7-2.5c0.3-0.8,0.8-1.5,1.4-2c0.6-0.6,1.3-1,2.1-1.3s1.6-0.5,2.6-0.5
			s1.8,0.2,2.5,0.5s1.4,0.8,1.9,1.3c0.5,0.6,0.9,1.2,1.2,2s0.4,1.6,0.5,2.5H277.2z M255.1,80c0,0.8,0,1.4-0.1,1.8
			c0,0.5-0.1,0.8-0.2,1.1c-0.1,0.3-0.2,0.4-0.4,0.5s-0.4,0.2-0.6,0.2c-0.4,0-0.7,0-1-0.1s-0.6-0.1-1-0.1s-0.8,0.1-1.1,0.4
			s-0.4,0.6-0.4,1c0,0.5,0.2,0.9,0.6,1.2s0.9,0.4,1.3,0.4c0.4,0,0.8,0,1.2-0.1c0.4,0,0.7-0.1,1.1-0.2c0.3-0.1,0.7-0.1,1.1-0.2
			c0.4,0,0.8-0.1,1.2-0.1c0.9,0,1.7,0.1,2.3,0.2c0.7,0.2,1.4,0.2,2.1,0.2c0.5,0,0.9-0.1,1.3-0.4c0.4-0.3,0.6-0.7,0.6-1.2
			c0-0.4-0.1-0.7-0.4-1c-0.3-0.3-0.6-0.4-1.1-0.4c-0.3,0-0.6,0-1,0.1c-0.3,0.1-0.7,0.1-1,0.1c-0.2,0-0.4,0-0.5-0.1
			c-0.2-0.1-0.3-0.3-0.4-0.5c-0.1-0.3-0.2-0.6-0.3-1.1s-0.1-1.1-0.1-1.9V74c0-1.6,0.1-2.9,0.4-3.9c0.3-1.1,0.6-1.9,1.1-2.5
			s1.1-1.1,1.7-1.3c0.7-0.3,1.4-0.4,2.3-0.4c0.4,0,0.9,0.1,1.4,0.2s0.9,0.3,1.2,0.6c0.4,0.3,0.7,0.6,0.9,1s0.4,0.8,0.4,1.3
			c0,0.3-0.1,0.7-0.3,1c-0.1,0-0.2-0.1-0.3-0.1s-0.2,0-0.3,0c-0.5,0-0.9,0.2-1.3,0.6c-0.3,0.4-0.5,0.8-0.5,1.3
			c0,0.6,0.2,1.1,0.7,1.5s1,0.6,1.6,0.6c0.7,0,1.2-0.1,1.7-0.4s0.8-0.6,1.1-1s0.5-0.9,0.6-1.4s0.2-1.1,0.2-1.6c0-1-0.2-1.9-0.6-2.6
			c-0.4-0.8-0.9-1.4-1.5-1.9s-1.4-0.9-2.2-1.2c-0.9-0.3-1.7-0.4-2.6-0.4c-1.3,0-2.5,0.3-3.5,0.8c-1.1,0.5-1.9,1.4-2.6,2.5h0.1
			c0-0.9,0-1.5-0.2-2c-0.1-0.4-0.5-0.7-1.1-0.7c-0.4,0-0.8,0.1-1.1,0.2c-0.3,0.2-0.8,0.2-1.3,0.2s-1-0.1-1.3-0.2
			c-0.4-0.2-0.8-0.2-1.2-0.2c-0.5,0-0.9,0.1-1.3,0.4s-0.6,0.7-0.6,1.2c0,0.4,0.1,0.7,0.4,1c0.3,0.3,0.6,0.4,1.1,0.4
			c0.6,0,1.1,0,1.4-0.1c0.4-0.1,0.7-0.1,1.1-0.1c0.5,0,0.8,0.2,1,0.7s0.3,1.5,0.3,2.9V80H255.1z M245.5,75.6c0.5,0,0.9,0,1.2-0.1
			c0.3,0,0.5-0.1,0.6-0.3c0.1-0.2,0.2-0.4,0.2-0.7c0-0.3,0-0.7,0-1.3c0-1.5-0.2-2.8-0.7-4s-1.2-2.3-2-3.2c-0.9-0.9-1.9-1.6-3.1-2.1
			c-1.2-0.5-2.5-0.8-4-0.8c-1.6,0-3,0.3-4.4,1s-2.6,1.6-3.6,2.8c-0.9,1.2-1.6,2.5-2,4s-0.6,3-0.6,4.5c0,1.6,0.2,3.1,0.7,4.5
			c0.4,1.4,1.1,2.6,2,3.7c0.9,1,2,1.9,3.2,2.5c1.3,0.6,2.8,0.9,4.5,0.9c1.2,0,2.5-0.2,3.8-0.6s2.4-1,3.3-1.9
			c0.6-0.6,1.2-1.3,1.8-2.3c0.5-0.9,0.8-1.8,0.8-2.7c0-0.5-0.2-0.9-0.5-1.2c-0.3-0.3-0.7-0.5-1.2-0.5c-0.6,0-1,0.2-1.2,0.6
			s-0.4,0.8-0.5,1.3c-0.4,1.4-1.1,2.5-2.2,3.2c-1.1,0.7-2.3,1.1-3.8,1.1c-1.2,0-2.2-0.2-3.1-0.7c-0.9-0.5-1.6-1.1-2.2-1.9
			c-0.6-0.8-1-1.7-1.3-2.7s-0.4-2.1-0.3-3.2h14.6V75.6z M231.1,72.4c0.1-0.9,0.3-1.7,0.7-2.5c0.3-0.8,0.8-1.5,1.4-2
			c0.6-0.6,1.3-1,2.1-1.3s1.6-0.5,2.6-0.5s1.8,0.2,2.5,0.5s1.4,0.8,1.9,1.3c0.5,0.6,0.9,1.2,1.2,2s0.4,1.6,0.5,2.5H231.1z
			 M241.2,58.8c0.4-0.2,0.8-0.4,1.2-0.7s0.5-0.7,0.5-1.2c0-0.6-0.2-1-0.6-1.5c-0.4-0.4-0.8-0.6-1.4-0.6c-0.4,0-0.7,0.1-1,0.3
			c-0.3,0.2-0.6,0.4-0.8,0.7l-4.6,4c-0.2,0.1-0.3,0.3-0.5,0.5s-0.3,0.4-0.3,0.7c0,0.1,0.1,0.3,0.2,0.3c0.1,0.1,0.2,0.1,0.4,0.1
			s0.3,0,0.5-0.1s0.3-0.1,0.5-0.2L241.2,58.8z M220.8,71.5c0-1.2-0.2-2.3-0.5-3.4c-0.3-1-0.9-2-1.8-2.8c-0.8-0.7-1.8-1.3-2.9-1.6
			s-2.2-0.5-3.3-0.5c-1.4,0-2.6,0.2-3.7,0.7c-1,0.5-2,1.2-3,2.1v-8c0-0.8-0.1-1.4-0.2-1.7c-0.1-0.4-0.5-0.5-1-0.5
			c-0.4,0-0.8,0.1-1.1,0.2c-0.3,0.2-0.7,0.2-1.3,0.2c-0.4,0-0.9-0.1-1.3-0.2c-0.4-0.2-0.9-0.2-1.6-0.2c-0.3,0-0.7,0.1-1.1,0.4
			c-0.4,0.3-0.6,0.7-0.6,1.2c0,0.4,0.1,0.7,0.4,1s0.6,0.4,1.1,0.4c0.3,0,0.6,0,1-0.1c0.3-0.1,0.7-0.1,1-0.1c0.1,0,0.3,0,0.5,0.1
			c0.2,0,0.3,0.2,0.4,0.4c0.1,0.2,0.2,0.6,0.3,1.1s0.1,1.2,0.1,2.1V80c0,1.4-0.1,2.3-0.2,2.9c-0.2,0.5-0.5,0.8-1,0.8
			c-0.4,0-0.7,0-1-0.1s-0.6-0.1-1-0.1s-0.8,0.1-1.1,0.4s-0.4,0.6-0.4,1c0,0.5,0.2,0.9,0.6,1.2c0.4,0.3,0.8,0.4,1.3,0.4
			c0.4,0,0.7,0,1.1-0.1c0.3,0,0.7-0.1,1-0.2s0.7-0.1,1.1-0.2c0.4,0,0.9-0.1,1.3-0.1c0.5,0,1,0,1.4,0.1c0.4,0,0.8,0.1,1.1,0.2
			s0.7,0.1,1,0.2c0.3,0,0.7,0.1,1,0.1c0.6,0,1-0.1,1.3-0.4s0.5-0.7,0.5-1.2c0-0.4-0.1-0.7-0.4-1c-0.3-0.3-0.6-0.4-1.1-0.4
			c-0.3,0-0.6,0-1,0.1c-0.3,0.1-0.7,0.1-1,0.1c-0.5,0-0.8-0.2-1-0.7s-0.3-1.5-0.3-2.9v-5.8c0-1,0-1.9,0.1-2.9s0.4-1.9,1-2.8
			c0.6-0.8,1.4-1.4,2.3-1.8c1-0.4,2-0.5,2.9-0.5c1.1,0,2.2,0.3,3.1,0.8c0.9,0.6,1.6,1.4,1.9,2.6c0.1,0.4,0.2,0.9,0.3,1.4
			s0.1,1.1,0.1,1.6c0,0.6,0,1.1,0,1.7v1.4v4.4c0,1.4-0.1,2.3-0.2,2.9c-0.2,0.5-0.5,0.8-1,0.8c-0.4,0-0.7,0-1-0.1s-0.6-0.1-1-0.1
			s-0.8,0.1-1.1,0.4s-0.4,0.6-0.4,1c0,0.5,0.2,0.9,0.6,1.2c0.4,0.3,0.8,0.4,1.3,0.4c0.4,0,0.7,0,1.1-0.1c0.3,0,0.7-0.1,1-0.2
			s0.7-0.1,1.1-0.2c0.4,0,0.9-0.1,1.3-0.1c0.5,0,1,0,1.4,0.1c0.4,0,0.8,0.1,1.1,0.2s0.7,0.1,1,0.2c0.3,0,0.7,0.1,1,0.1
			c0.5,0,1-0.1,1.3-0.4s0.5-0.7,0.5-1.2c0-0.4-0.1-0.7-0.4-1c-0.3-0.3-0.6-0.4-1.1-0.4c-0.3,0-0.6,0-1,0.1c-0.3,0.1-0.7,0.1-1,0.1
			c-0.5,0-0.8-0.2-1-0.7s-0.3-1.5-0.3-2.9v-8.8H220.8z M192.4,57.6c0-0.8-0.1-1.3-0.2-1.5c-0.1-0.2-0.3-0.4-0.5-0.4
			c-0.4,0-0.8,0.1-1.2,0.2c-0.4,0.2-0.8,0.2-1.4,0.2c-0.6,0-1.1-0.1-1.5-0.2c-0.4-0.2-0.9-0.2-1.5-0.2c-0.4,0-0.8,0.1-1.1,0.4
			s-0.5,0.7-0.5,1.2c0,0.4,0.1,0.7,0.4,1s0.6,0.4,1.1,0.4c0.3,0,0.6,0,1-0.1c0.3-0.1,0.7-0.1,1-0.1c0.2,0,0.4,0,0.5,0.1
			c0.2,0.1,0.3,0.2,0.4,0.5c0.1,0.3,0.2,0.6,0.2,1.1c0.1,0.5,0.1,1.1,0.1,1.9v4.2h-0.1c-0.8-1.2-1.7-2.1-2.9-2.5
			c-1.2-0.5-2.5-0.7-3.8-0.7c-1.7,0-3.1,0.3-4.4,1c-1.2,0.7-2.3,1.5-3.1,2.6s-1.4,2.3-1.8,3.8c-0.4,1.4-0.6,2.9-0.6,4.4
			c0,1.6,0.2,3.1,0.6,4.5c0.4,1.5,1,2.7,1.9,3.9c0.8,1.1,1.9,2,3.2,2.7s2.8,1,4.5,1c1.3,0,2.5-0.2,3.8-0.7s2.2-1.3,2.9-2.4h0.1v0.4
			c0,0.8,0.1,1.4,0.3,1.7c0.2,0.3,0.6,0.4,1.2,0.4c0.3,0,0.5,0,0.7-0.1c0.2,0,0.4-0.1,0.5-0.2c0.2-0.1,0.3-0.1,0.5-0.2
			c0.2,0,0.4-0.1,0.6-0.1c0.5,0,0.9,0.1,1.3,0.2c0.4,0.2,0.8,0.2,1.2,0.2s0.7-0.1,1-0.4s0.4-0.7,0.4-1.2c0-0.4-0.1-0.7-0.4-1
			c-0.3-0.3-0.6-0.4-1.1-0.4c-0.3,0-0.6,0-1,0.1c-0.3,0.1-0.7,0.1-1,0.1c-0.5,0-0.8-0.2-1-0.7s-0.3-1.5-0.3-3L192.4,57.6L192.4,57.6
			z M185.3,66.7c0.9,0.4,1.6,1,2.3,1.9c0.6,0.9,1,1.9,1.2,3c0.1,1.1,0.2,2.2,0.2,3.3c0,1-0.1,2.1-0.2,3.2c-0.1,1.1-0.4,2.1-0.8,3
			c-0.5,1-1.2,1.8-2.2,2.3s-2,0.7-3.1,0.7c-1.2,0-2.2-0.3-3.1-0.8s-1.5-1.2-2.1-2s-1-1.8-1.2-2.9s-0.4-2.1-0.4-3.2
			c0-1,0.1-2.1,0.3-3.2s0.6-2,1.1-2.9s1.2-1.6,2-2.1s1.9-0.8,3.1-0.8C183.5,66.1,184.4,66.3,185.3,66.7 M164.4,71.5
			c0-1.3-0.1-2.5-0.4-3.7c-0.3-1.1-0.9-2.1-2-3c-0.8-0.6-1.8-1.1-2.9-1.3c-1.1-0.3-2.1-0.4-3.1-0.4s-2,0.1-3,0.4s-2,0.7-2.7,1.2
			c-0.8,0.5-1.4,1.2-1.9,1.9c-0.5,0.8-0.8,1.6-0.8,2.5c0,0.8,0.3,1.4,0.8,2c0.5,0.5,1.2,0.8,1.9,0.8c0.6,0,1.2-0.2,1.6-0.5
			c0.5-0.3,0.7-0.9,0.7-1.5c0-0.4-0.1-0.7-0.2-0.9c-0.1-0.2-0.2-0.4-0.4-0.5c-0.1-0.1-0.2-0.2-0.3-0.2s-0.2-0.1-0.2-0.2
			c0-0.2,0.1-0.4,0.4-0.7c0.2-0.2,0.5-0.4,0.6-0.5c0.5-0.3,1-0.5,1.6-0.7s1.2-0.3,1.7-0.3c0.6,0,1.3,0.1,1.8,0.2
			c0.6,0.1,1.1,0.3,1.6,0.7c0.4,0.3,0.8,0.7,1.1,1.2s0.4,1.1,0.4,1.8c0,0.8-0.2,1.4-0.6,1.9c-0.4,0.4-0.9,0.8-1.5,1s-1.2,0.3-2,0.4
			c-0.7,0.1-1.4,0.1-2,0.2c-1.1,0.1-2.1,0.3-3,0.5s-1.9,0.5-2.8,1.1c-1,0.6-1.8,1.3-2.2,2.3c-0.5,0.9-0.7,2-0.7,3.2
			c0,1.1,0.3,2.1,0.8,3s1.2,1.6,2.1,2.2c0.8,0.5,1.6,0.8,2.5,1s1.8,0.3,2.7,0.3c1.4,0,2.7-0.2,4-0.7s2.3-1.3,3-2.6
			c0.2,1.1,0.8,1.9,1.6,2.4s1.8,0.7,2.8,0.7c0.7,0,1.4-0.1,2.1-0.3c0.7-0.2,1.3-0.6,1.7-1.2c0.5-0.6,0.7-1.3,0.8-2.2
			c0.1-0.9,0.1-2.1,0.1-3.8c0-0.5-0.1-0.9-0.3-1.3c-0.2-0.3-0.6-0.5-1.2-0.5c-0.4,0-0.7,0.1-0.9,0.2c-0.2,0.2-0.3,0.4-0.4,0.6
			c-0.1,0.2-0.1,0.5-0.1,0.8v0.9c0,0.3,0,0.7,0,1.2s0,0.9-0.1,1.3s-0.2,0.8-0.5,1.1c-0.2,0.3-0.6,0.5-1,0.5c-0.5,0-0.9-0.2-1.2-0.5
			c-0.2-0.4-0.4-0.8-0.5-1.3s-0.1-1-0.1-1.6c0-0.5,0-1,0-1.3L164.4,71.5z M150.1,78.6c0.3-0.5,0.7-0.8,1.2-1.1s1-0.5,1.6-0.6
			s1.2-0.2,1.8-0.3c0.5-0.1,1.1-0.1,1.6-0.2c0.6-0.1,1.1-0.1,1.6-0.3c0.5-0.1,1-0.3,1.5-0.5s0.9-0.5,1.3-0.9c0,0.5-0.1,0.9-0.1,1.4
			s0,0.9,0,1.4c0,0.8-0.1,1.5-0.2,2.2c-0.1,0.7-0.4,1.4-0.9,2c-0.7,0.8-1.5,1.4-2.5,1.8c-1,0.3-2,0.5-3,0.5c-0.6,0-1.1-0.1-1.7-0.2
			c-0.5-0.1-1-0.3-1.4-0.7c-0.4-0.3-0.8-0.7-1-1.1c-0.3-0.4-0.4-1-0.4-1.7C149.6,79.6,149.8,79,150.1,78.6"/>
	</g>
	<g>
		<defs>
			<rect id="SVGID_5_" x="4" y="3.3" width="453.6" height="136.3"/>
		</defs>
		<clipPath id="SVGID_6_">
			<use xlink:href="#SVGID_5_"  style="overflow:visible;"/>
		</clipPath>
		<path class="st2" d="M352.9,25.8c0,0.9,0,1.7,0,2.2c0,0.6,0.1,1.1,0.2,1.5c0.1,0.4,0.2,0.8,0.3,1.1c0.1,0.3,0.2,0.6,0.4,1
			c0.5,0.9,1.2,1.6,2.2,2s1.9,0.6,3,0.6c1.5,0,2.8-0.3,3.7-0.8s1.6-1.2,2.1-2c0.5-0.9,0.8-1.8,1-3c0.1-1.1,0.2-2.3,0.2-3.6
			c0-0.5-0.1-1-0.3-1.4s-0.7-0.7-1.3-0.7s-1.1,0.2-1.3,0.6c-0.3,0.4-0.4,1.1-0.4,2.1v1.4c0,0.5,0,1-0.1,1.5s-0.2,1-0.5,1.4
			c-0.2,0.4-0.6,0.8-1,1s-0.9,0.4-1.6,0.4c-0.6,0-1.1-0.1-1.5-0.3c-0.4-0.2-0.7-0.5-1-0.9c-0.2-0.4-0.4-0.9-0.5-1.6
			s-0.2-1.5-0.2-2.5V15.2c0-0.4,0.1-0.7,0.2-0.7c0.1-0.1,0.4-0.1,0.9-0.1h3.8c1,0,1.6-0.2,1.9-0.5c0.3-0.3,0.4-0.7,0.4-1.1
			c0-0.5-0.1-0.9-0.4-1.2c-0.3-0.3-0.9-0.4-1.8-0.4H357c-0.3,0-0.5,0-0.6-0.1s-0.1-0.3-0.1-0.6V6.2c0-0.6-0.1-1.1-0.3-1.5
			S355.4,4,354.6,4c-0.8,0-1.2,0.2-1.4,0.7c-0.2,0.4-0.3,1-0.3,1.6v3.6c0,0.6,0,1-0.1,1.2s-0.3,0.2-0.7,0.2h-1.5
			c-0.5,0-0.9,0.2-1.2,0.5s-0.5,0.7-0.5,1.1c0,0.7,0.2,1.1,0.6,1.3s1,0.3,1.9,0.3c0.7,0,1.1,0.1,1.3,0.3c0.2,0.2,0.3,0.6,0.3,1.3
			L352.9,25.8L352.9,25.8z M325.8,27.7c0,1.4-0.1,2.4-0.2,2.9c-0.1,0.5-0.5,0.8-1,0.8c-0.4,0-0.7,0-1-0.1s-0.6-0.1-1-0.1
			s-0.8,0.1-1.1,0.4s-0.4,0.6-0.4,1c0,1.1,0.6,1.6,1.9,1.6c0.8,0,1.5-0.1,2.1-0.2c0.6-0.2,1.5-0.2,2.5-0.2s1.8,0.1,2.4,0.2
			c0.6,0.2,1.3,0.2,2,0.2c1.2,0,1.9-0.5,1.9-1.6c0-0.4-0.1-0.7-0.4-1c-0.3-0.3-0.6-0.4-1.1-0.4c-0.3,0-0.6,0-1,0.1
			c-0.3,0.1-0.7,0.1-1,0.1c-0.5,0-0.8-0.3-1-0.8c-0.2-0.6-0.3-1.5-0.3-2.8v-5.1c0-1.1,0-2,0.1-2.7s0.2-1.3,0.3-1.7
			c0.1-0.4,0.2-0.8,0.3-1c0.1-0.3,0.3-0.5,0.4-0.7c0.5-0.8,1.3-1.5,2.3-1.9s2-0.6,3-0.6c0.9,0,1.8,0.2,2.7,0.6s1.6,1,2,1.8
			c0.2,0.3,0.3,0.7,0.4,1c0.1,0.3,0.2,0.6,0.2,1s0.1,0.8,0.1,1.3s0,1.1,0,1.8V28c0,1.4-0.1,2.4-0.2,2.9c-0.1,0.5-0.5,0.8-1,0.8
			c-0.4,0-0.7,0-1-0.1s-0.6-0.1-1-0.1s-0.8,0.1-1.1,0.4s-0.4,0.6-0.4,1c0,1,0.6,1.6,1.9,1.6c0.8,0,1.5-0.1,2.1-0.2
			c0.6-0.2,1.5-0.2,2.5-0.2s1.8,0.1,2.4,0.2c0.6,0.2,1.3,0.2,2,0.2c1.2,0,1.9-0.5,1.9-1.6c0-0.4-0.1-0.7-0.4-1
			c-0.3-0.3-0.6-0.4-1.1-0.4c-0.3,0-0.6,0-1,0.1c-0.3,0.1-0.7,0.1-1,0.1c-0.5,0-0.8-0.3-1-0.8c-0.2-0.6-0.3-1.5-0.3-2.8v-8.4
			c0-1.2-0.1-2.4-0.3-3.4c-0.2-1.1-0.8-2-1.7-2.9c-0.9-0.8-1.8-1.4-2.9-1.8c-1.1-0.4-2.2-0.6-3.4-0.6c-1.4,0-2.7,0.3-4,0.8
			s-2.4,1.3-3.2,2.5h-0.1c0-0.8,0-1.5-0.1-1.9s-0.4-0.7-0.8-0.7c-0.3,0-0.5,0-0.7,0.1c-0.2,0-0.4,0.1-0.6,0.2
			c-0.2,0.1-0.4,0.1-0.6,0.2c-0.2,0-0.5,0.1-0.8,0.1s-0.5,0-0.7-0.1c-0.2,0-0.4-0.1-0.5-0.2c-0.2-0.1-0.3-0.1-0.5-0.2
			c-0.2,0-0.4-0.1-0.6-0.1c-0.4,0-0.7,0.2-1.1,0.5c-0.3,0.3-0.5,0.7-0.5,1.1s0.1,0.7,0.4,1c0.3,0.3,0.6,0.4,1.1,0.4
			c0.3,0,0.6,0,1-0.1c0.3-0.1,0.7-0.1,1-0.1c0.5,0,0.8,0.2,1,0.7s0.3,1.5,0.3,3v9.5H325.8z M316.7,23.4c0.5,0,0.9,0,1.2-0.1
			c0.3,0,0.5-0.1,0.6-0.3c0.1-0.2,0.2-0.4,0.2-0.7c0-0.3,0-0.7,0-1.3c0-1.5-0.2-2.8-0.7-4s-1.2-2.3-2-3.2s-1.9-1.6-3.1-2.1
			c-1.2-0.5-2.5-0.8-4-0.8c-1.6,0-3,0.3-4.4,1s-2.6,1.6-3.6,2.9c-0.9,1.2-1.6,2.5-2,4s-0.6,3-0.6,4.5c0,1.6,0.2,3.1,0.7,4.5
			c0.4,1.4,1.1,2.6,2,3.7c0.9,1,2,1.9,3.2,2.5c1.3,0.6,2.8,0.9,4.5,0.9c1.2,0,2.5-0.2,3.8-0.6s2.4-1,3.3-1.9
			c0.6-0.6,1.2-1.3,1.8-2.3c0.5-0.9,0.8-1.8,0.8-2.7c0-0.5-0.2-0.9-0.5-1.2c-0.3-0.3-0.7-0.5-1.2-0.5c-0.6,0-1,0.2-1.2,0.6
			s-0.4,0.8-0.5,1.3c-0.4,1.4-1.1,2.5-2.2,3.2c-1.1,0.7-2.3,1.1-3.8,1.1c-1.2,0-2.2-0.2-3.1-0.7c-0.9-0.5-1.6-1.1-2.2-1.9
			c-0.6-0.8-1-1.7-1.3-2.7s-0.4-2.1-0.3-3.2L316.7,23.4L316.7,23.4z M302.3,20.2c0.1-0.9,0.3-1.7,0.7-2.5c0.3-0.8,0.8-1.5,1.4-2
			s1.3-1,2.1-1.3s1.6-0.5,2.6-0.5s1.8,0.2,2.5,0.5s1.4,0.8,1.9,1.3c0.5,0.6,0.9,1.2,1.2,2s0.4,1.6,0.5,2.5H302.3z M288.2,27.7
			c0,1.4-0.1,2.4-0.2,2.9c-0.1,0.5-0.5,0.8-1,0.8c-0.4,0-0.7,0-1-0.1s-0.6-0.1-1-0.1s-0.8,0.1-1.1,0.4s-0.4,0.6-0.4,1
			c0,1.1,0.6,1.6,1.9,1.6c0.8,0,1.5-0.1,2.1-0.2c0.6-0.2,1.5-0.2,2.5-0.2s1.8,0.1,2.4,0.2c0.6,0.2,1.3,0.2,2,0.2
			c1.2,0,1.9-0.5,1.9-1.6c0-0.4-0.1-0.7-0.4-1c-0.3-0.3-0.6-0.4-1.1-0.4c-0.3,0-0.6,0-1,0.1c-0.3,0.1-0.7,0.1-1,0.1
			c-0.5,0-0.8-0.3-1-0.8c-0.2-0.6-0.3-1.5-0.3-2.8v-7.2c0-1.3-0.1-2.6-0.2-3.7c-0.1-1.1-0.7-2.3-1.5-3.4c-0.8-1-1.7-1.6-2.9-1.9
			s-2.4-0.5-3.6-0.5c-1.4,0-2.7,0.2-3.9,0.7s-2.2,1.3-3,2.5c-0.7-1.1-1.6-1.9-2.7-2.5c-1.1-0.5-2.4-0.8-3.7-0.8
			c-1.4,0-2.6,0.3-3.6,0.8s-2,1.3-2.8,2.4h-0.1c0-0.8,0-1.5-0.1-1.9s-0.4-0.7-0.8-0.7c-0.3,0-0.5,0-0.7,0.1c-0.2,0-0.4,0.1-0.6,0.2
			c-0.2,0.1-0.4,0.1-0.6,0.2c-0.2,0-0.5,0.1-0.8,0.1s-0.5,0-0.7-0.1c-0.2,0-0.4-0.1-0.5-0.2c-0.2-0.1-0.3-0.1-0.5-0.2
			c-0.2,0-0.4-0.1-0.6-0.1c-0.4,0-0.7,0.2-1.1,0.5c-0.3,0.3-0.5,0.7-0.5,1.1s0.1,0.7,0.4,1c0.3,0.3,0.6,0.4,1.1,0.4
			c0.3,0,0.6,0,1-0.1c0.3-0.1,0.7-0.1,1-0.1c0.5,0,0.8,0.2,1,0.7s0.3,1.5,0.3,3v9.7c0,1.4-0.1,2.4-0.2,2.9c-0.1,0.5-0.5,0.8-1,0.8
			c-0.4,0-0.7,0-1-0.1s-0.6-0.1-1-0.1s-0.8,0.1-1.1,0.4s-0.4,0.6-0.4,1c0,1.1,0.6,1.6,1.9,1.6c0.8,0,1.5-0.1,2.1-0.2
			c0.6-0.2,1.5-0.2,2.5-0.2s1.8,0.1,2.4,0.2c0.6,0.2,1.3,0.2,2,0.2c1.2,0,1.9-0.5,1.9-1.6c0-0.4-0.1-0.7-0.4-1
			c-0.3-0.3-0.6-0.4-1.1-0.4c-0.3,0-0.6,0-1,0.1c-0.3,0.1-0.7,0.1-1,0.1c-0.5,0-0.8-0.3-1-0.8c-0.2-0.6-0.3-1.5-0.3-2.8v-5.1
			c0-0.9,0-1.7,0-2.3c0-0.6,0.1-1.1,0.2-1.6s0.2-0.8,0.3-1.2c0.1-0.3,0.3-0.7,0.5-1.1c0.5-0.9,1.2-1.5,2-1.9
			c0.9-0.4,1.8-0.6,2.8-0.6c0.5,0,1,0.1,1.5,0.2s0.9,0.4,1.3,0.6c0.4,0.3,0.7,0.6,1,0.9s0.4,0.7,0.6,1c0.1,0.5,0.2,1.1,0.3,1.8
			c0,0.7,0,1.6,0,2.6v6.6c0,1.4-0.1,2.4-0.2,2.9c-0.1,0.5-0.5,0.8-1,0.8c-0.4,0-0.7,0-1-0.1s-0.6-0.1-1-0.1s-0.8,0.1-1.1,0.4
			s-0.4,0.6-0.4,1c0,1.1,0.6,1.6,1.9,1.6c0.8,0,1.5-0.1,2.1-0.2c0.6-0.2,1.5-0.2,2.5-0.2s1.8,0.1,2.4,0.2c0.6,0.2,1.3,0.2,2,0.2
			c1.2,0,1.9-0.5,1.9-1.6c0-0.4-0.1-0.7-0.4-1c-0.3-0.3-0.6-0.4-1.1-0.4c-0.3,0-0.6,0-1,0.1s-0.7,0.1-1,0.1c-0.5,0-0.8-0.3-1-0.8
			c-0.2-0.6-0.3-1.5-0.3-2.8v-5c0-0.9,0-1.7,0.1-2.4c0-0.7,0.1-1.2,0.2-1.7c0.1-0.5,0.1-0.8,0.2-1.2c0.1-0.3,0.2-0.6,0.3-0.9
			c0.4-0.9,1-1.5,1.9-2c0.8-0.5,1.7-0.7,2.7-0.7s1.9,0.2,2.8,0.7c0.8,0.5,1.5,1.2,1.9,2.1c0.2,0.5,0.3,1.2,0.4,2
			c0.1,0.9,0.1,2.1,0.1,3.6v5.3H288.2z M246.4,27.7c0,1.4-0.1,2.4-0.2,2.9c-0.1,0.5-0.5,0.8-1,0.8c-0.4,0-0.7,0-1-0.1
			s-0.6-0.1-1-0.1s-0.8,0.1-1.1,0.4s-0.4,0.6-0.4,1c0,1.1,0.6,1.6,1.9,1.6c0.8,0,1.5-0.1,2.1-0.2c0.6-0.2,1.5-0.2,2.5-0.2
			s1.8,0.1,2.4,0.2c0.6,0.2,1.3,0.2,2,0.2c1.2,0,1.9-0.5,1.9-1.6c0-0.4-0.1-0.7-0.4-1c-0.3-0.3-0.6-0.4-1.1-0.4c-0.3,0-0.6,0-1,0.1
			s-0.7,0.1-1,0.1c-0.5,0-0.8-0.3-1-0.8c-0.2-0.6-0.3-1.5-0.3-2.8v-7.2c0-1.3-0.1-2.6-0.2-3.7c-0.1-1.1-0.7-2.3-1.5-3.4
			c-0.8-1-1.7-1.6-2.9-1.9s-2.4-0.5-3.6-0.5c-1.4,0-2.7,0.2-3.9,0.7s-2.2,1.3-3,2.5c-0.7-1.1-1.6-1.9-2.7-2.5
			c-1.1-0.5-2.4-0.8-3.7-0.8c-1.4,0-2.6,0.3-3.6,0.8s-2,1.3-2.8,2.4h-0.1c0-0.8,0-1.5-0.1-1.9s-0.4-0.7-0.8-0.7
			c-0.3,0-0.5,0-0.7,0.1c-0.2,0-0.4,0.1-0.6,0.2c-0.2,0.1-0.4,0.1-0.6,0.2c-0.2,0-0.5,0.1-0.8,0.1s-0.5,0-0.7-0.1
			c-0.2,0-0.4-0.1-0.5-0.2c-0.2-0.1-0.3-0.1-0.5-0.2c-0.2,0-0.4-0.1-0.6-0.1c-0.4,0-0.7,0.2-1.1,0.5c-0.3,0.3-0.5,0.7-0.5,1.1
			s0.1,0.7,0.4,1c0.3,0.3,0.6,0.4,1.1,0.4c0.3,0,0.6,0,1-0.1c0.3-0.1,0.7-0.1,1-0.1c0.5,0,0.8,0.2,1,0.7s0.3,1.5,0.3,3v9.7
			c0,1.4-0.1,2.4-0.2,2.9c-0.1,0.5-0.5,0.8-1,0.8c-0.4,0-0.7,0-1-0.1s-0.6-0.1-1-0.1s-0.8,0.1-1.1,0.4s-0.4,0.6-0.4,1
			c0,1.1,0.6,1.6,1.9,1.6c0.8,0,1.5-0.1,2.1-0.2c0.6-0.2,1.5-0.2,2.5-0.2s1.8,0.1,2.4,0.2c0.6,0.2,1.3,0.2,2,0.2
			c1.2,0,1.9-0.5,1.9-1.6c0-0.4-0.1-0.7-0.4-1c-0.3-0.3-0.6-0.4-1.1-0.4c-0.3,0-0.6,0-1,0.1s-0.7,0.1-1,0.1c-0.5,0-0.8-0.3-1-0.8
			c-0.2-0.6-0.3-1.5-0.3-2.8v-5.1c0-0.9,0-1.7,0-2.3c0-0.6,0.1-1.1,0.2-1.6c0.1-0.4,0.2-0.8,0.3-1.2s0.3-0.7,0.5-1.1
			c0.5-0.9,1.2-1.5,2-1.9c0.9-0.4,1.8-0.6,2.8-0.6c0.5,0,1,0.1,1.5,0.2c0.5,0.2,0.9,0.4,1.3,0.6c0.4,0.3,0.7,0.6,1,0.9
			s0.4,0.7,0.6,1c0.1,0.5,0.2,1.1,0.3,1.8c0,0.7,0,1.6,0,2.6v6.6c0,1.4-0.1,2.4-0.2,2.9c-0.1,0.5-0.5,0.8-1,0.8c-0.4,0-0.7,0-1-0.1
			s-0.6-0.1-1-0.1s-0.8,0.1-1.1,0.4s-0.4,0.6-0.4,1c0,1.1,0.6,1.6,1.9,1.6c0.8,0,1.5-0.1,2.1-0.2c0.6-0.2,1.5-0.2,2.5-0.2
			s1.8,0.1,2.4,0.2c0.6,0.2,1.3,0.2,2,0.2c1.2,0,1.9-0.5,1.9-1.6c0-0.4-0.1-0.7-0.4-1c-0.3-0.3-0.6-0.4-1.1-0.4c-0.3,0-0.6,0-1,0.1
			s-0.7,0.1-1,0.1c-0.5,0-0.8-0.3-1-0.8c-0.2-0.6-0.3-1.5-0.3-2.8v-5c0-0.9,0-1.7,0.1-2.4c0-0.7,0.1-1.2,0.2-1.7
			c0.1-0.5,0.1-0.8,0.2-1.2c0.1-0.3,0.2-0.6,0.3-0.9c0.4-0.9,1-1.5,1.9-2c0.8-0.5,1.7-0.7,2.7-0.7s1.9,0.2,2.8,0.7
			c0.8,0.5,1.5,1.2,1.9,2.1c0.2,0.5,0.3,1.2,0.4,2c0.1,0.9,0.1,2.1,0.1,3.6v5.3H246.4z M191.1,27.5c0.4,1.4,1.1,2.7,1.9,3.8
			c0.9,1.1,1.9,2,3.2,2.6s2.8,1,4.5,1c1.8,0,3.3-0.3,4.7-0.9c1.3-0.6,2.4-1.5,3.3-2.6c0.9-1.1,1.6-2.4,2-3.8c0.5-1.5,0.7-3,0.7-4.7
			c0-1.5-0.2-3-0.7-4.5c-0.4-1.5-1.1-2.9-2.1-4c-1-1.2-2.2-2.1-3.6-2.6c-1.4-0.5-2.8-0.7-4.4-0.7c-1.7,0-3.3,0.3-4.6,1
			s-2.4,1.5-3.2,2.6c-0.9,1.1-1.5,2.4-1.9,3.8c-0.4,1.5-0.6,3-0.6,4.6S190.7,26,191.1,27.5 M194.4,19.7c0.2-1.1,0.6-2,1.1-2.9
			c0.6-1.1,1.4-1.8,2.3-2.3c0.9-0.4,2-0.7,3.2-0.7c1,0,2,0.2,3,0.6c0.9,0.4,1.7,1,2.3,2c0.6,0.9,1,1.9,1.2,3s0.3,2.2,0.3,3.2
			c0,1.2-0.1,2.3-0.3,3.4s-0.6,2.1-1.2,3c-0.6,0.9-1.3,1.6-2.2,2.1s-2,0.8-3.4,0.8c-1.3,0-2.3-0.3-3.2-0.8s-1.5-1.2-2.1-2.1
			c-0.5-0.9-0.9-1.8-1.1-2.9c-0.2-1.1-0.3-2.1-0.3-3.2C194.1,21.8,194.2,20.8,194.4,19.7 M170.7,30.6c-1.2-0.8-2.2-1.8-3-3
			c-0.7-1.2-1.3-2.6-1.6-4.1s-0.5-3-0.5-4.5s0.2-3,0.5-4.5s0.8-2.9,1.6-4.1c0.7-1.2,1.7-2.2,2.9-2.9c1.2-0.8,2.7-1.1,4.6-1.1
			c1.2,0,2.4,0.3,3.6,0.8c1.2,0.5,2.1,1.3,2.7,2.4c0.5,0.8,0.8,1.6,0.9,2.3c0.1,0.8,0.2,1.5,0.2,2.3c0,1,0.1,1.8,0.3,2.1
			c0.2,0.4,0.7,0.6,1.4,0.6c0.5,0,0.9-0.1,1.2-0.4s0.5-0.7,0.5-1.3c0-0.7-0.1-1.4-0.2-2.1c-0.1-0.7-0.2-1.6-0.2-2.5s0.1-1.8,0.2-2.7
			c0.1-0.9,0.2-1.8,0.2-2.7c0-0.5-0.1-0.9-0.4-1.3c-0.2-0.4-0.6-0.6-1.2-0.6c-0.4,0-0.8,0.1-1,0.4s-0.4,0.6-0.4,1c0,0.3,0,0.7,0.1,1
			c0,0.3,0.1,0.7,0.1,1l-0.1,0.1c-1-1.3-2.2-2.2-3.5-2.8c-1.4-0.6-2.9-0.8-4.6-0.8c-2.1,0-4,0.4-5.8,1.3s-3.3,2.2-4.5,3.9
			c-1.1,1.6-1.9,3.3-2.3,5.3c-0.5,1.9-0.7,3.8-0.7,5.7c0,2,0.3,3.9,0.8,5.8s1.4,3.5,2.5,4.9s2.5,2.6,4.2,3.4s3.6,1.3,5.9,1.3
			c1.6,0,3.2-0.3,4.6-0.8c1.4-0.5,2.7-1.2,3.7-2.2c1.1-0.9,1.9-2.1,2.5-3.4s0.9-2.8,0.9-4.5c0-0.6-0.1-1.1-0.4-1.5
			c-0.3-0.4-0.7-0.5-1.4-0.5s-1.1,0.2-1.3,0.6s-0.3,0.9-0.3,1.5c0,0.9-0.1,1.7-0.3,2.5s-0.6,1.6-1.2,2.3c-0.8,1-1.7,1.8-2.9,2.2
			c-1.2,0.5-2.4,0.7-3.6,0.7C173.5,31.8,172,31.4,170.7,30.6 M135.3,14.7c-0.6,0.6-0.8,1.2-0.8,2s0.3,1.4,0.8,2
			c0.6,0.5,1.2,0.8,2,0.8s1.4-0.3,2-0.8s0.8-1.2,0.8-2s-0.3-1.5-0.8-2c-0.6-0.6-1.2-0.8-2-0.8S135.8,14.2,135.3,14.7 M135.3,29.4
			c-0.6,0.6-0.8,1.2-0.8,2s0.3,1.4,0.8,2c0.6,0.5,1.2,0.8,2,0.8s1.4-0.3,2-0.8c0.6-0.6,0.8-1.2,0.8-2s-0.3-1.4-0.8-2
			c-0.6-0.6-1.2-0.8-2-0.8C136.5,28.6,135.8,28.9,135.3,29.4 M115.8,33.3c1.3-0.8,2.4-1.7,3.3-2.8c0.9-1.1,1.6-2.3,2.1-3.5
			c0.5-1.3,0.9-2.6,1.1-4s0.3-2.8,0.3-4.1c0-1.9-0.2-3.8-0.7-5.7c-0.5-1.9-1.2-3.5-2.2-5s-2.3-2.6-3.9-3.5c-1.6-0.9-3.5-1.3-5.8-1.3
			c-2,0-3.9,0.4-5.7,1.3c-1.8,0.9-3.2,2.2-4.3,4c-0.5,0.8-0.9,1.6-1.2,2.5S98.2,13,98,14c-0.2,1-0.4,1.9-0.5,2.8s-0.2,1.8-0.2,2.7
			c0,1.9,0.2,3.8,0.7,5.6c0.4,1.9,1.2,3.5,2.2,5c1,1.4,2.3,2.6,3.8,3.5c1.6,0.9,3.5,1.3,5.7,1.3c0.2,0,0.4,0,0.7,0
			c0.2,0,0.4,0,0.7-0.1c0.2,0,0.4-0.1,0.7-0.1c0.2,0,0.4-0.1,0.7-0.1v2.9c0,1.7,0.4,3.1,1.3,4c0.9,1,2.3,1.4,4.1,1.4
			c0.9,0,1.8-0.2,2.6-0.5s1.5-0.8,2.1-1.6c0.3-0.5,0.6-1,0.8-1.6s0.3-1.2,0.3-1.8c0-0.7-0.1-1.2-0.3-1.6s-0.7-0.6-1.5-0.6
			c-0.3,0-0.6,0.1-0.8,0.2s-0.3,0.3-0.4,0.5c-0.1,0.2-0.2,0.4-0.2,0.7c0,0.3-0.1,0.5-0.1,0.8c-0.1,0.8-0.2,1.4-0.5,1.9
			c-0.2,0.5-0.8,0.8-1.8,0.8c-0.6,0-1-0.1-1.4-0.3c-0.3-0.2-0.6-0.5-0.7-0.8c-0.2-0.3-0.3-0.7-0.3-1.2c0-0.4-0.1-0.9,0-1.3v-3.2
			H115.8z M115.5,28.9c0-0.8-0.1-1.5-0.1-2.3s-0.2-1.5-0.6-2.2c-0.4-0.8-1.1-1.5-2-1.9c-0.9-0.5-1.8-0.7-2.7-0.7
			c-0.7,0-1.4,0.1-2.1,0.3c-0.7,0.2-1.3,0.6-1.9,1s-1,1-1.3,1.6s-0.5,1.3-0.5,2.1c0,0.7,0.1,1.4,0.3,2c0.2,0.7,0.5,1.3,0.8,1.8
			l-0.1,0.1c-0.3-0.1-0.5-0.4-0.8-0.7c-0.3-0.3-0.5-0.6-0.7-1s-0.4-0.7-0.6-1.1s-0.3-0.7-0.5-0.9c-0.6-1.2-0.9-2.5-1-3.9
			s-0.2-2.7-0.2-3.8c0-1.4,0.1-2.9,0.4-4.4s0.7-2.9,1.3-4.2c0.7-1.3,1.6-2.3,2.7-3.1c1.1-0.8,2.6-1.2,4.4-1.2c1.7,0,3.1,0.4,4.1,1.2
			c1.1,0.8,1.9,1.8,2.5,3s1,2.6,1.3,4c0.2,1.5,0.3,2.8,0.3,4.2c0,0.9,0,1.9-0.1,2.9s-0.2,2-0.4,3s-0.5,1.9-1,2.8
			c-0.4,0.9-1,1.8-1.6,2.5L115.5,28.9L115.5,28.9z M112.6,31.3c-0.4,0.1-0.8,0.3-1.2,0.3c-0.4,0.1-0.8,0.1-1.2,0.1
			c-1.1,0-2-0.4-2.6-1.2c-0.6-0.8-0.9-1.7-0.9-2.8c0-1,0.3-1.8,0.9-2.4c0.6-0.7,1.4-1,2.4-1c0.6,0,1,0.1,1.4,0.4
			c0.4,0.2,0.6,0.6,0.8,0.9c0.2,0.4,0.3,0.8,0.4,1.3c0.1,0.5,0.1,1,0.1,1.4v3H112.6z"/>
	</g>
</g>
</svg>
