<?xml version="1.0" encoding="utf-8"?>
<!-- Generator: Adobe Illustrator 19.2.1, SVG Export Plug-In . SVG Version: 6.00 Build 0)  -->
<svg version="1.1" id="Calque_1" xmlns="http://www.w3.org/2000/svg" xmlns:xlink="http://www.w3.org/1999/xlink" x="0px" y="0px"
	 viewBox="0 0 403 148" style="enable-background:new 0 0 403 148;" xml:space="preserve">
<style type="text/css">
	.st0{clip-path:url(#SVGID_2_);}
	.st1{clip-path:url(#SVGID_4_);}
	.st2{clip-path:url(#SVGID_6_);}
</style>
<g>
	<g>
		<defs>
			<rect id="SVGID_1_" x="1" y="3.5" width="397.6" height="141.1"/>
		</defs>
		<clipPath id="SVGID_2_">
			<use xlink:href="#SVGID_1_"  style="overflow:visible;"/>
		</clipPath>
		<path class="st0" d="M362.8,132.3c-0.5,0.5-0.8,1.2-0.8,1.9c0,0.8,0.3,1.4,0.8,2c0.5,0.5,1.2,0.8,2,0.8c0.7,0,1.4-0.3,1.9-0.8
			s0.8-1.2,0.8-2c0-0.7-0.3-1.4-0.8-1.9s-1.2-0.8-1.9-0.8C364,131.5,363.3,131.7,362.8,132.3 M334.8,130.6c0,1.4-0.1,2.3-0.2,2.9
			c-0.1,0.5-0.5,0.8-1,0.8c-0.4,0-0.7,0-1-0.1s-0.6-0.1-0.9-0.1c-0.4,0-0.8,0.1-1.1,0.4s-0.4,0.6-0.4,1c0,1.1,0.6,1.6,1.8,1.6
			c0.8,0,1.5-0.1,2.1-0.2c0.6-0.2,1.5-0.2,2.5-0.2s1.8,0.1,2.4,0.2c0.6,0.2,1.3,0.2,2,0.2c1.2,0,1.8-0.5,1.8-1.6
			c0-0.4-0.1-0.7-0.4-1c-0.3-0.3-0.6-0.4-1.1-0.4c-0.3,0-0.6,0-0.9,0.1c-0.3,0.1-0.7,0.1-1,0.1c-0.5,0-0.8-0.3-1-0.8
			c-0.2-0.6-0.3-1.5-0.3-2.8v-5.1c0-1.1,0-1.9,0.1-2.6s0.2-1.3,0.3-1.7c0.1-0.4,0.2-0.8,0.3-1c0.1-0.3,0.3-0.5,0.4-0.7
			c0.5-0.8,1.3-1.5,2.3-1.9s2-0.6,2.9-0.6s1.8,0.2,2.7,0.6s1.5,1,2,1.8c0.2,0.3,0.3,0.7,0.4,0.9c0.1,0.3,0.1,0.6,0.2,1
			c0,0.4,0.1,0.8,0.1,1.3s0,1.1,0,1.7v6.4c0,1.4-0.1,2.3-0.2,2.9c-0.1,0.5-0.5,0.8-1,0.8c-0.4,0-0.7,0-1-0.1s-0.6-0.1-0.9-0.1
			c-0.4,0-0.8,0.1-1.1,0.4s-0.4,0.6-0.4,1c0,1,0.6,1.5,1.8,1.5c0.8,0,1.5-0.1,2.1-0.2c0.6-0.2,1.5-0.2,2.5-0.2s1.8,0.1,2.4,0.2
			c0.6,0.2,1.3,0.2,2,0.2c1.2,0,1.8-0.5,1.8-1.5c0-0.4-0.1-0.7-0.4-1c-0.3-0.3-0.6-0.4-1.1-0.4c-0.3,0-0.6,0-0.9,0.1
			c-0.3,0.1-0.7,0.1-1,0.1c-0.5,0-0.8-0.3-1-0.8c-0.2-0.6-0.3-1.5-0.3-2.8v-8c0-1.2-0.1-2.3-0.3-3.4s-0.8-2-1.7-2.9
			c-0.9-0.8-1.8-1.4-2.9-1.7c-1.1-0.4-2.2-0.6-3.3-0.6c-1.3,0-2.7,0.3-4,0.8s-2.4,1.3-3.2,2.4h-0.1c0-0.8,0-1.5-0.1-1.9
			s-0.4-0.7-0.8-0.7c-0.3,0-0.5,0-0.7,0.1c-0.2,0-0.4,0.1-0.6,0.2c-0.2,0.1-0.4,0.1-0.6,0.2s-0.5,0.1-0.8,0.1s-0.5,0-0.7-0.1
			s-0.4-0.1-0.5-0.2c-0.2-0.1-0.3-0.1-0.5-0.2c-0.2,0-0.4-0.1-0.6-0.1c-0.4,0-0.7,0.2-1.1,0.5c-0.3,0.3-0.5,0.7-0.5,1.1
			s0.1,0.7,0.4,1c0.3,0.3,0.6,0.4,1.1,0.4c0.3,0,0.6,0,0.9-0.1c0.3-0.1,0.7-0.1,1-0.1c0.5,0,0.8,0.2,1,0.7s0.3,1.5,0.3,2.9V130.6z
			 M307.4,130.3c0.4,1.4,1,2.7,1.9,3.7c0.8,1.1,1.9,1.9,3.2,2.6c1.3,0.6,2.8,0.9,4.5,0.9s3.3-0.3,4.6-0.9s2.4-1.5,3.3-2.5
			c0.9-1.1,1.6-2.3,2-3.8c0.5-1.4,0.7-3,0.7-4.6c0-1.5-0.2-2.9-0.6-4.4c-0.4-1.5-1.1-2.8-2.1-4s-2.2-2.1-3.5-2.6s-2.8-0.7-4.3-0.7
			c-1.7,0-3.2,0.3-4.5,1c-1.3,0.6-2.4,1.5-3.2,2.6s-1.5,2.3-1.9,3.8c-0.4,1.4-0.6,2.9-0.6,4.5C306.8,127.4,307,128.9,307.4,130.3
			 M310.8,122.7c0.2-1.1,0.6-2,1.1-2.8c0.6-1.1,1.4-1.8,2.3-2.3c0.9-0.4,2-0.7,3.2-0.7c1,0,2,0.2,2.9,0.6s1.7,1,2.3,1.9
			s1,1.8,1.2,2.9s0.3,2.2,0.3,3.2c0,1.1-0.1,2.3-0.3,3.4s-0.6,2.1-1.2,2.9c-0.5,0.9-1.3,1.5-2.2,2.1c-0.9,0.5-2,0.8-3.3,0.8
			s-2.3-0.3-3.2-0.8c-0.8-0.5-1.5-1.2-2-2.1s-0.9-1.8-1.1-2.9c-0.2-1.1-0.3-2.1-0.3-3.2C310.4,124.8,310.5,123.8,310.8,122.7
			 M297.1,130.6c0,1.3-0.1,2.3-0.3,2.8s-0.5,0.8-1,0.8c-0.4,0-0.7,0-1-0.1s-0.6-0.1-0.9-0.1c-0.4,0-0.8,0.1-1.1,0.4s-0.4,0.6-0.4,1
			s0.2,0.8,0.5,1.1c0.3,0.3,0.6,0.5,1,0.5c0.7,0,1.5-0.1,2.2-0.2c0.7-0.2,1.5-0.2,2.4-0.2s1.7,0.1,2.3,0.2c0.6,0.2,1.3,0.2,2.1,0.2
			c0.5,0,0.9-0.1,1.3-0.4c0.4-0.3,0.6-0.7,0.6-1.2c0-0.4-0.1-0.7-0.4-1c-0.3-0.3-0.6-0.4-1.1-0.4c-0.3,0-0.6,0-0.9,0.1
			c-0.3,0.1-0.6,0.2-0.8,0.2c-0.4,0-0.7-0.2-0.9-0.5s-0.3-0.8-0.3-1.3v-16c0-0.4-0.1-0.8-0.2-1.2c-0.2-0.4-0.5-0.6-1-0.6
			c-0.4,0-0.8,0.1-1.1,0.2c-0.3,0.2-0.8,0.2-1.3,0.2s-1-0.1-1.4-0.2c-0.4-0.2-0.9-0.2-1.5-0.2c-0.4,0-0.8,0.1-1.1,0.4
			s-0.5,0.7-0.5,1.2c0,0.4,0.1,0.7,0.4,1c0.3,0.3,0.6,0.4,1.1,0.4c0.3,0,0.6,0,0.9-0.1c0.3-0.1,0.7-0.1,1-0.1c0.2,0,0.4,0.1,0.6,0.1
			c0.2,0.1,0.3,0.3,0.4,0.5c0.1,0.3,0.2,0.6,0.2,1.1s0.1,1.1,0.1,1.8v9.6H297.1z M296.3,108.2c-0.5,0.5-0.7,1.1-0.7,1.7
			c0,0.7,0.2,1.3,0.7,1.8s1.1,0.7,1.7,0.7c0.7,0,1.3-0.2,1.8-0.7s0.7-1.1,0.7-1.8c0-0.7-0.2-1.3-0.7-1.7c-0.5-0.5-1.1-0.7-1.8-0.7
			C297.4,107.5,296.8,107.7,296.3,108.2 M278.2,128.7c0,0.9,0,1.6,0,2.2s0.1,1.1,0.2,1.5c0.1,0.4,0.2,0.8,0.3,1.1
			c0.1,0.3,0.2,0.6,0.4,0.9c0.5,0.9,1.2,1.6,2.2,2c0.9,0.4,1.9,0.6,2.9,0.6c1.5,0,2.7-0.3,3.6-0.8c0.9-0.5,1.6-1.2,2.1-2
			s0.8-1.8,0.9-2.9c0.1-1.1,0.2-2.3,0.2-3.6c0-0.5-0.1-1-0.3-1.4s-0.6-0.6-1.2-0.6c-0.6,0-1.1,0.2-1.3,0.6c-0.3,0.4-0.4,1.1-0.4,2.1
			v1.4c0,0.5,0,1-0.1,1.5s-0.2,1-0.5,1.4c-0.2,0.4-0.5,0.7-0.9,1c-0.4,0.2-0.9,0.4-1.5,0.4s-1.1-0.1-1.5-0.3c-0.4-0.2-0.7-0.5-1-0.9
			c-0.2-0.4-0.4-0.9-0.5-1.6c-0.1-0.6-0.2-1.5-0.2-2.4v-10.4c0-0.4,0.1-0.6,0.2-0.7s0.4-0.1,0.9-0.1h3.8c1,0,1.6-0.2,1.9-0.5
			c0.3-0.3,0.4-0.7,0.4-1.1c0-0.5-0.1-0.9-0.4-1.2c-0.3-0.3-0.9-0.4-1.8-0.4h-4.3c-0.3,0-0.5,0-0.6-0.1s-0.1-0.3-0.1-0.6v-4.3
			c0-0.6-0.1-1.1-0.3-1.5s-0.6-0.6-1.4-0.6c-0.7,0-1.2,0.2-1.4,0.6s-0.3,0.9-0.3,1.5v3.5c0,0.6,0,1-0.1,1.1
			c-0.1,0.2-0.3,0.2-0.7,0.2h-1.5c-0.5,0-0.8,0.2-1.2,0.5c-0.3,0.3-0.5,0.7-0.5,1c0,0.6,0.2,1.1,0.6,1.3c0.4,0.2,1,0.3,1.9,0.3
			c0.7,0,1.1,0.1,1.2,0.3c0.2,0.2,0.3,0.6,0.3,1.2L278.2,128.7L278.2,128.7z M253.1,138.2c0,1.4-0.1,2.3-0.3,2.8s-0.5,0.8-1,0.8
			c-0.4,0-0.7,0-1-0.1s-0.6-0.1-0.9-0.1c-0.4,0-0.8,0.1-1.1,0.4s-0.4,0.6-0.4,1c0,0.5,0.2,0.9,0.6,1.2c0.4,0.3,0.8,0.4,1.3,0.4
			c0.7,0,1.4-0.1,2.1-0.2c0.7-0.2,1.5-0.2,2.3-0.2c0.7,0,1.5,0.1,2.2,0.2c0.7,0.2,1.5,0.2,2.3,0.2c0.5,0,0.9-0.1,1.3-0.4
			c0.4-0.3,0.6-0.7,0.6-1.2c0-0.4-0.1-0.7-0.4-1c-0.3-0.3-0.6-0.4-1.1-0.4c-0.3,0-0.6,0-0.9,0.1c-0.3,0.1-0.7,0.1-1,0.1
			c-0.4,0-0.7-0.2-0.9-0.7c-0.2-0.4-0.3-1.4-0.3-2.9v-3.4h0.1c0.6,0.9,1.5,1.6,2.6,2s2.2,0.6,3.4,0.6c1.6,0,3.1-0.3,4.6-1
			c1.4-0.7,2.6-1.7,3.5-3.1c0.8-1.1,1.3-2.4,1.7-3.9c0.3-1.5,0.5-2.9,0.5-4.3c0-1.6-0.2-3.1-0.6-4.4c-0.4-1.4-1-2.6-1.8-3.6
			s-1.8-1.8-3.1-2.4c-1.2-0.6-2.7-0.9-4.4-0.9c-1.3,0-2.5,0.3-3.7,0.8s-2.2,1.4-2.8,2.5h-0.1v-1.4c0-0.5-0.1-0.8-0.3-1
			s-0.5-0.3-0.8-0.3c-0.4,0-0.8,0.1-1.2,0.2c-0.4,0.2-0.8,0.2-1.2,0.2s-0.8-0.1-1.2-0.2c-0.4-0.2-0.8-0.2-1.1-0.2
			c-0.5,0-0.9,0.1-1.3,0.4c-0.4,0.3-0.6,0.7-0.6,1.2c0,0.4,0.1,0.7,0.4,1c0.3,0.3,0.6,0.4,1.1,0.4c0.3,0,0.6,0,0.9-0.1
			c0.3-0.1,0.7-0.1,1-0.1c0.5,0,0.9,0.3,1,0.8c0.2,0.6,0.2,1.5,0.2,2.8v17.4H253.1z M266,117.7c0.8,0.5,1.5,1.2,1.9,2
			c0.5,0.8,0.8,1.8,1,2.8s0.3,2.1,0.3,3.1c0,1.1-0.1,2.3-0.3,3.3c-0.2,1.1-0.6,2-1.1,2.9c-0.5,0.8-1.2,1.5-2.1,2
			c-0.9,0.5-2,0.8-3.3,0.8c-1,0-1.9-0.2-2.7-0.5c-0.8-0.4-1.5-1-2.1-1.8s-0.9-1.7-1-2.6s-0.2-1.9-0.2-2.9c0-1.6,0.1-2.9,0.2-3.8
			c0.1-0.9,0.3-1.8,0.6-2.6c0.2-0.6,0.5-1.1,0.9-1.6c0.4-0.4,0.8-0.8,1.4-1.1c0.5-0.3,1.1-0.5,1.7-0.7c0.6-0.1,1.2-0.2,1.8-0.2
			C264.1,116.9,265.2,117.2,266,117.7 M239.5,130.6c0,1.3-0.1,2.3-0.3,2.8s-0.5,0.8-1,0.8c-0.4,0-0.7,0-1-0.1s-0.6-0.1-0.9-0.1
			c-0.4,0-0.8,0.1-1.1,0.4s-0.4,0.6-0.4,1s0.2,0.8,0.5,1.1c0.3,0.3,0.6,0.5,1,0.5c0.7,0,1.5-0.1,2.1-0.2c0.7-0.2,1.5-0.2,2.4-0.2
			s1.7,0.1,2.3,0.2c0.6,0.2,1.3,0.2,2.1,0.2c0.5,0,0.9-0.1,1.3-0.4c0.4-0.3,0.6-0.7,0.6-1.2c0-0.4-0.1-0.7-0.4-1
			c-0.3-0.3-0.6-0.4-1.1-0.4c-0.3,0-0.6,0-0.9,0.1c-0.3,0.1-0.6,0.2-0.8,0.2c-0.4,0-0.7-0.2-0.9-0.5s-0.3-0.8-0.3-1.3v-16
			c0-0.4-0.1-0.8-0.2-1.2c-0.2-0.4-0.5-0.6-1-0.6c-0.4,0-0.8,0.1-1.1,0.2c-0.3,0.2-0.8,0.2-1.3,0.2s-1-0.1-1.4-0.2
			c-0.4-0.2-0.9-0.2-1.5-0.2c-0.4,0-0.8,0.1-1.1,0.4s-0.5,0.7-0.5,1.2c0,0.4,0.1,0.7,0.4,1c0.3,0.3,0.6,0.4,1.1,0.4
			c0.3,0,0.6,0,0.9-0.1c0.3-0.1,0.7-0.1,1-0.1c0.2,0,0.4,0.1,0.6,0.1c0.2,0.1,0.3,0.3,0.4,0.5c0.1,0.3,0.2,0.6,0.2,1.1
			s0.1,1.1,0.1,1.8v9.6H239.5z M238.7,108.2c-0.5,0.5-0.7,1.1-0.7,1.7c0,0.7,0.2,1.3,0.7,1.8s1.1,0.7,1.7,0.7c0.7,0,1.3-0.2,1.8-0.7
			s0.7-1.1,0.7-1.8c0-0.7-0.2-1.3-0.7-1.7c-0.5-0.5-1.1-0.7-1.8-0.7S239.2,107.7,238.7,108.2 M218,130.6c0,0.7,0,1.4-0.1,1.8
			c0,0.5-0.1,0.8-0.2,1.1c-0.1,0.3-0.2,0.4-0.4,0.5s-0.4,0.2-0.6,0.2c-0.4,0-0.7,0-1-0.1s-0.6-0.1-0.9-0.1c-0.4,0-0.8,0.1-1.1,0.4
			s-0.4,0.6-0.4,1c0,0.5,0.2,0.9,0.6,1.2c0.4,0.3,0.8,0.4,1.3,0.4c0.4,0,0.8,0,1.2-0.1c0.4,0,0.7-0.1,1.1-0.2
			c0.3-0.1,0.7-0.1,1.1-0.2c0.4,0,0.8-0.1,1.2-0.1c0.9,0,1.7,0.1,2.3,0.2c0.7,0.2,1.4,0.2,2.1,0.2c0.5,0,0.9-0.1,1.3-0.4
			c0.4-0.3,0.6-0.7,0.6-1.2c0-0.4-0.1-0.7-0.4-1c-0.3-0.3-0.6-0.4-1.1-0.4c-0.3,0-0.6,0-0.9,0.1c-0.3,0.1-0.7,0.1-1,0.1
			c-0.2,0-0.4,0-0.5-0.1c-0.2-0.1-0.3-0.3-0.4-0.5c-0.1-0.3-0.2-0.6-0.3-1.1s-0.1-1.1-0.1-1.9v-5.8c0-1.5,0.1-2.8,0.4-3.9
			c0.3-1,0.6-1.9,1.1-2.5s1-1.1,1.7-1.3c0.7-0.3,1.4-0.4,2.2-0.4c0.4,0,0.9,0.1,1.3,0.2s0.9,0.3,1.2,0.6c0.4,0.3,0.7,0.6,0.9,0.9
			c0.2,0.4,0.4,0.8,0.4,1.3c0,0.3-0.1,0.6-0.3,1c-0.1,0-0.2-0.1-0.3-0.1s-0.2,0-0.3,0c-0.5,0-0.9,0.2-1.2,0.6s-0.5,0.8-0.5,1.3
			c0,0.6,0.2,1.1,0.7,1.5s1,0.6,1.6,0.6c0.7,0,1.2-0.1,1.7-0.4s0.8-0.6,1.1-1s0.5-0.9,0.6-1.4s0.2-1.1,0.2-1.6c0-1-0.2-1.8-0.6-2.6
			c-0.4-0.8-0.9-1.4-1.5-1.9s-1.4-0.9-2.2-1.2c-0.8-0.3-1.7-0.4-2.6-0.4c-1.3,0-2.5,0.3-3.5,0.8s-1.9,1.3-2.6,2.4h-0.1
			c0-0.9,0-1.5-0.1-2c-0.1-0.4-0.5-0.7-1.1-0.7c-0.4,0-0.8,0.1-1.1,0.2c-0.3,0.2-0.8,0.2-1.3,0.2s-1-0.1-1.3-0.2
			c-0.4-0.2-0.8-0.2-1.2-0.2c-0.5,0-0.9,0.1-1.3,0.4c-0.4,0.3-0.6,0.7-0.6,1.2c0,0.4,0.1,0.7,0.4,1c0.3,0.3,0.6,0.4,1.1,0.4
			c0.6,0,1,0,1.4-0.1s0.7-0.1,1.1-0.1c0.5,0,0.8,0.2,1,0.7s0.3,1.4,0.3,2.9v9.8H218z M199,133.9c-0.8-0.5-1.5-1.2-2-2.1
			c-0.5-0.8-0.9-1.8-1.1-2.9c-0.2-1.1-0.3-2.1-0.3-3.1c0-1.1,0.1-2.1,0.4-3.2c0.3-1,0.7-2,1.2-2.8s1.3-1.5,2.1-2.1
			c0.9-0.5,1.9-0.8,3.1-0.8c0.5,0,1,0.1,1.5,0.2s1,0.4,1.5,0.6c0.5,0.3,0.8,0.6,1.2,1.1c0.3,0.4,0.5,0.9,0.5,1.5
			c-0.6,0-1.1,0.2-1.5,0.5c-0.5,0.3-0.7,0.8-0.7,1.4c0,0.7,0.3,1.3,0.8,1.7s1.1,0.6,1.8,0.6c0.5,0,1-0.1,1.4-0.3
			c0.4-0.2,0.8-0.5,1-0.9c0.3-0.4,0.5-0.8,0.6-1.2c0.1-0.5,0.2-0.9,0.2-1.5c0-1-0.3-2-0.8-2.9s-1.2-1.7-2.1-2.3
			c-0.7-0.5-1.6-0.9-2.5-1.2c-0.9-0.3-1.8-0.4-2.7-0.4c-1.8,0-3.4,0.3-4.7,1c-1.3,0.6-2.4,1.5-3.3,2.6c-0.9,1.1-1.5,2.4-2,3.9
			c-0.4,1.5-0.6,3-0.6,4.7c0,1.5,0.2,3,0.6,4.3c0.4,1.4,1.1,2.6,1.9,3.6c0.8,1,1.9,1.9,3.1,2.5c1.2,0.6,2.7,0.9,4.3,0.9
			c1.3,0,2.5-0.2,3.7-0.7c1.2-0.4,2.2-1.2,3.1-2.1c0.3-0.3,0.6-0.7,0.8-1.1c0.3-0.4,0.5-0.9,0.8-1.4c0.2-0.5,0.4-1,0.6-1.4
			c0.1-0.5,0.2-0.9,0.2-1.4s-0.2-0.9-0.5-1.2c-0.3-0.3-0.7-0.5-1.2-0.5c-0.4,0-0.7,0.1-0.9,0.3c-0.2,0.2-0.4,0.4-0.5,0.6
			c-0.1,0.3-0.2,0.5-0.3,0.9c-0.1,0.3-0.2,0.6-0.2,0.9c-0.3,1.3-1,2.3-1.9,3.1c-0.9,0.7-2.1,1.1-3.4,1.1
			C200.9,134.7,199.9,134.4,199,133.9 M181.8,127.6c0.5,0.1,1,0.3,1.5,0.6c0.4,0.3,0.8,0.6,1.1,1s0.4,1,0.4,1.6s-0.1,1.1-0.4,1.6
			c-0.3,0.5-0.6,0.9-1.1,1.2c-0.5,0.4-1,0.7-1.7,0.8c-0.6,0.1-1.2,0.2-1.8,0.2c-0.4,0-0.9,0-1.4-0.1s-1.1-0.2-1.6-0.3
			c-0.5-0.2-1-0.3-1.5-0.6s-0.9-0.5-1.2-0.8c-0.2-0.2-0.4-0.4-0.5-0.6s-0.2-0.4-0.3-0.7c-0.1-0.3-0.1-0.6-0.2-1
			c0-0.4-0.1-0.9-0.1-1.5c0-0.5-0.2-0.9-0.4-1.1s-0.5-0.3-0.9-0.3c-0.5,0-0.9,0.1-1.1,0.4c-0.3,0.3-0.4,0.7-0.4,1.1
			c0,0.6,0.1,1.1,0.2,1.7c0.1,0.6,0.2,1.1,0.2,1.7s-0.1,1.2-0.2,1.8c-0.1,0.6-0.2,1.2-0.2,1.8c0,0.5,0.1,0.9,0.4,1.3
			c0.3,0.4,0.7,0.5,1.2,0.5s0.9-0.2,1.2-0.6s0.4-1,0.3-1.8c0.9,0.7,1.9,1.3,2.9,1.6c1.1,0.3,2.2,0.5,3.3,0.5s2.2-0.1,3.2-0.4
			c1.1-0.3,2-0.7,2.9-1.3c0.8-0.6,1.5-1.3,2-2.2c0.5-0.9,0.8-1.9,0.8-3.1c0-1.1-0.2-2-0.6-2.8c-0.4-0.7-0.9-1.4-1.7-1.8
			c-0.8-0.5-1.7-0.9-2.8-1.1c-1.1-0.3-2.4-0.5-3.8-0.7c-1.9-0.2-3.2-0.6-4-1c-0.8-0.5-1.2-1.2-1.2-2.3c0-0.6,0.1-1.2,0.4-1.7
			c0.3-0.5,0.7-0.9,1.1-1.2c0.5-0.3,1-0.5,1.5-0.7c0.6-0.2,1.1-0.2,1.7-0.2c0.7,0,1.4,0.2,2.1,0.5c0.7,0.3,1.4,0.7,1.9,1.1
			c0.2,0.1,0.4,0.3,0.5,0.4s0.2,0.3,0.3,0.5s0.1,0.4,0.2,0.6c0,0.3,0,0.6,0,1c0,1.4,0.5,2.1,1.4,2.1c0.5,0,0.9-0.2,1.1-0.5
			c0.3-0.3,0.4-0.7,0.4-1.1c0-0.5,0-1-0.1-1.6c-0.1-0.5-0.1-1.1-0.1-1.6s0-1.1,0.1-1.6s0.1-1,0.1-1.6c0-0.9-0.5-1.4-1.5-1.4
			c-0.6,0-1,0.2-1.2,0.5c-0.2,0.4-0.3,0.8-0.2,1.3c-0.7-0.6-1.5-1-2.4-1.2s-1.8-0.3-2.7-0.3c-1.1,0-2.1,0.2-3.1,0.5
			s-1.9,0.7-2.7,1.3c-0.8,0.6-1.4,1.3-1.9,2.2c-0.5,0.9-0.7,1.9-0.7,3c0,1.3,0.3,2.4,0.9,3.2c0.6,0.8,1.3,1.4,2.3,1.8
			c0.9,0.4,1.9,0.7,3,0.9c1.1,0.2,2.2,0.3,3.2,0.5C180.7,127.4,181.3,127.5,181.8,127.6 M145.1,130.2c0,1.1,0.2,2.1,0.5,3.1
			s0.9,1.8,1.8,2.5c0.8,0.6,1.7,1,2.7,1.3s2,0.4,3,0.4c1.4,0,2.8-0.2,4-0.7s2.2-1.3,3-2.5h0.1c0,0.9,0,1.5,0.1,2
			c0.1,0.4,0.4,0.7,0.9,0.7c0.4,0,0.8-0.1,1.2-0.2c0.4-0.2,0.8-0.2,1.3-0.2c0.4,0,0.8,0.1,1.2,0.2c0.4,0.2,0.8,0.2,1.2,0.2
			c0.5,0,0.9-0.1,1.3-0.4c0.4-0.3,0.6-0.7,0.6-1.2c0-0.4-0.1-0.7-0.4-1c-0.3-0.3-0.6-0.4-1.1-0.4c-0.3,0-0.6,0-0.9,0.1
			c-0.3,0.1-0.7,0.1-1,0.1c-0.2,0-0.4-0.1-0.5-0.2c-0.2-0.1-0.3-0.3-0.4-0.5c-0.1-0.3-0.2-0.6-0.2-1.1c-0.1-0.5-0.1-1.1-0.1-1.8
			v-8.1c0-1.1,0-2.2,0.1-3.3c0-1,0.1-2.1,0.1-3.2c0-0.4-0.1-0.8-0.3-1.1c-0.2-0.3-0.5-0.4-1-0.4c-0.4,0-0.8,0.1-1.2,0.2
			c-0.4,0.2-0.8,0.2-1.2,0.2s-0.9-0.1-1.3-0.2c-0.4-0.2-0.9-0.2-1.4-0.2s-1,0.1-1.4,0.4s-0.6,0.7-0.6,1.2c0,0.4,0.1,0.7,0.4,1
			c0.3,0.3,0.6,0.4,1.1,0.4c0.3,0,0.6,0,0.9-0.1c0.3-0.1,0.7-0.1,1-0.1c0.4,0,0.8,0.3,1.1,0.8c0.3,0.6,0.5,1.5,0.5,2.8v2.9
			c0,0.5,0,1.1,0,1.7s0,1.2-0.1,1.9s-0.1,1.3-0.2,1.9c-0.1,0.6-0.2,1.1-0.4,1.6c-0.4,1.3-1.1,2.2-2.2,2.8c-1,0.6-2.2,0.9-3.5,0.9
			c-0.5,0-1-0.1-1.5-0.2s-1-0.3-1.4-0.6c-0.4-0.3-0.8-0.6-1.1-1s-0.6-0.9-0.8-1.4c-0.1-0.4-0.2-0.8-0.3-1.3s-0.1-1-0.1-1.5
			s-0.1-1.1-0.1-1.6s0-1,0-1.4v-1.9c0-0.7,0-1.3,0-1.9c0-0.5,0.1-1.1,0.1-1.6s0.1-1.1,0.1-1.7s0-1.4,0-2.3c0-0.5-0.1-0.9-0.3-1.3
			c-0.2-0.3-0.6-0.5-1.2-0.5c-0.4,0-0.8,0.1-1.2,0.2c-0.4,0.2-0.8,0.2-1.2,0.2s-0.9-0.1-1.3-0.2c-0.4-0.2-0.8-0.2-1.2-0.2
			c-0.6,0-1.1,0.1-1.5,0.4s-0.6,0.7-0.6,1.2c0,0.4,0.1,0.7,0.4,1c0.3,0.3,0.6,0.4,1.1,0.4c0.3,0,0.6,0,0.9-0.1
			c0.3-0.1,0.7-0.1,1-0.1c0.5,0,0.8,0.3,1.1,0.8s0.4,1.5,0.4,2.8L145.1,130.2L145.1,130.2z M118.7,130.3c0.4,1.4,1,2.7,1.9,3.7
			c0.8,1.1,1.9,1.9,3.2,2.6c1.3,0.6,2.8,0.9,4.5,0.9s3.3-0.3,4.6-0.9s2.4-1.5,3.3-2.5c0.9-1.1,1.6-2.3,2-3.8c0.5-1.4,0.7-3,0.7-4.6
			c0-1.5-0.2-2.9-0.6-4.4c-0.4-1.5-1.1-2.8-2.1-4s-2.2-2.1-3.5-2.6s-2.8-0.7-4.3-0.7c-1.7,0-3.2,0.3-4.5,1s-2.4,1.5-3.2,2.6
			s-1.5,2.3-1.9,3.8c-0.4,1.4-0.6,2.9-0.6,4.5C118.1,127.4,118.3,128.9,118.7,130.3 M122,122.7c0.2-1.1,0.6-2,1.1-2.8
			c0.6-1.1,1.4-1.8,2.3-2.3c0.9-0.4,2-0.7,3.2-0.7c1,0,2,0.2,2.9,0.6s1.7,1,2.3,1.9s1,1.8,1.2,2.9s0.3,2.2,0.3,3.2
			c0,1.1-0.1,2.3-0.3,3.4s-0.6,2.1-1.2,2.9c-0.5,0.9-1.3,1.5-2.2,2.1c-0.9,0.5-2,0.8-3.3,0.8s-2.3-0.3-3.2-0.8
			c-0.8-0.5-1.5-1.2-2-2.1s-0.9-1.8-1.1-2.9c-0.2-1.1-0.3-2.1-0.3-3.2C121.6,124.8,121.7,123.8,122,122.7 M107.9,127.6
			c0.5,0.1,1,0.3,1.5,0.6c0.4,0.3,0.8,0.6,1.1,1s0.4,1,0.4,1.6s-0.1,1.1-0.4,1.6c-0.3,0.5-0.6,0.9-1.1,1.2c-0.5,0.4-1,0.7-1.7,0.8
			s-1.2,0.2-1.8,0.2c-0.4,0-0.9,0-1.4-0.1s-1.1-0.2-1.6-0.3c-0.5-0.2-1-0.3-1.5-0.6c-0.5-0.2-0.9-0.5-1.2-0.8
			c-0.2-0.2-0.4-0.4-0.5-0.6s-0.2-0.4-0.3-0.7c-0.1-0.3-0.1-0.6-0.2-1c0-0.4-0.1-0.9-0.2-1.5c0-0.5-0.2-0.9-0.4-1.1
			s-0.5-0.3-0.9-0.3c-0.5,0-0.9,0.1-1.1,0.4c-0.3,0.3-0.4,0.7-0.4,1.1c0,0.6,0.1,1.1,0.2,1.7c0.1,0.6,0.2,1.1,0.2,1.7
			s-0.1,1.2-0.2,1.8c-0.1,0.6-0.2,1.2-0.2,1.8c0,0.5,0.1,0.9,0.4,1.3c0.3,0.4,0.7,0.5,1.2,0.5s0.9-0.2,1.2-0.6s0.4-1,0.3-1.8
			c0.9,0.7,1.9,1.3,2.9,1.6c1.1,0.3,2.2,0.5,3.3,0.5s2.2-0.1,3.2-0.4c1.1-0.3,2-0.7,2.9-1.3c0.8-0.6,1.5-1.3,2-2.2
			c0.5-0.9,0.8-1.9,0.8-3.1c0-1.1-0.2-2-0.6-2.8c-0.4-0.7-0.9-1.4-1.7-1.8c-0.8-0.5-1.7-0.9-2.8-1.1c-1.1-0.3-2.4-0.5-3.8-0.7
			c-1.9-0.2-3.2-0.6-4-1c-0.8-0.5-1.2-1.2-1.2-2.3c0-0.6,0.1-1.2,0.4-1.7c0.3-0.5,0.7-0.9,1.1-1.2c0.5-0.3,1-0.5,1.5-0.7
			c0.6-0.2,1.1-0.2,1.7-0.2c0.7,0,1.4,0.2,2.1,0.5c0.7,0.3,1.4,0.7,1.9,1.1c0.2,0.1,0.4,0.3,0.5,0.4s0.2,0.3,0.3,0.5
			s0.1,0.4,0.1,0.6s0,0.6,0,1c0,1.4,0.5,2.1,1.4,2.1c0.5,0,0.9-0.2,1.1-0.5c0.3-0.3,0.4-0.7,0.4-1.1c0-0.5,0-1-0.1-1.6
			c-0.1-0.5-0.1-1.1-0.1-1.6s0-1.1,0.1-1.6s0.1-1,0.1-1.6c0-0.9-0.5-1.4-1.5-1.4c-0.6,0-1,0.2-1.2,0.5c-0.2,0.4-0.3,0.8-0.2,1.3
			c-0.7-0.6-1.5-1-2.4-1.2s-1.8-0.3-2.7-0.3c-1.1,0-2.1,0.2-3.1,0.5s-1.9,0.7-2.7,1.3c-0.8,0.6-1.4,1.3-1.9,2.2
			c-0.5,0.9-0.7,1.9-0.7,3c0,1.3,0.3,2.4,0.9,3.2c0.6,0.8,1.3,1.4,2.3,1.8c0.9,0.4,1.9,0.7,3,0.9c1.1,0.2,2.2,0.3,3.2,0.5
			C106.8,127.4,107.3,127.5,107.9,127.6 M74.3,126.3c0.5,0,0.9,0,1.2-0.1c0.3,0,0.5-0.1,0.6-0.3c0.1-0.2,0.2-0.4,0.2-0.7
			c0-0.3,0-0.7,0-1.3c0-1.4-0.2-2.8-0.7-4s-1.1-2.3-2-3.1c-0.9-0.9-1.9-1.6-3.1-2.1s-2.5-0.8-4-0.8s-3,0.3-4.4,1
			c-1.4,0.6-2.6,1.6-3.5,2.8c-0.9,1.2-1.6,2.5-2,4s-0.6,2.9-0.6,4.4c0,1.6,0.2,3.1,0.6,4.5s1.1,2.6,1.9,3.6c0.9,1,1.9,1.8,3.2,2.4
			c1.3,0.6,2.8,0.9,4.5,0.9c1.2,0,2.5-0.2,3.7-0.6c1.3-0.4,2.4-1,3.3-1.9c0.6-0.6,1.2-1.3,1.7-2.2c0.5-0.9,0.8-1.8,0.8-2.7
			c0-0.5-0.2-0.9-0.5-1.2c-0.3-0.3-0.7-0.5-1.2-0.5c-0.6,0-1,0.2-1.1,0.6c-0.2,0.4-0.4,0.8-0.5,1.3c-0.4,1.4-1.1,2.5-2.2,3.2
			c-1,0.7-2.3,1.1-3.8,1.1c-1.2,0-2.2-0.2-3.1-0.7s-1.6-1.1-2.2-1.8c-0.6-0.8-1-1.7-1.3-2.7s-0.4-2.1-0.3-3.2h14.8V126.3z
			 M60.1,123.2c0.1-0.9,0.3-1.7,0.6-2.5c0.3-0.8,0.8-1.4,1.4-2c0.6-0.5,1.3-1,2-1.3c0.8-0.3,1.6-0.5,2.5-0.5s1.8,0.2,2.5,0.5
			s1.4,0.8,1.9,1.3s0.9,1.2,1.2,2c0.3,0.8,0.4,1.6,0.5,2.5H60.1z M50.2,108.6c0-0.7-0.1-1.2-0.2-1.5c-0.1-0.2-0.3-0.4-0.5-0.4
			c-0.4,0-0.8,0.1-1.2,0.2c-0.4,0.2-0.8,0.2-1.4,0.2s-1.1-0.1-1.5-0.2c-0.4-0.2-0.9-0.2-1.5-0.2c-0.4,0-0.8,0.1-1.1,0.4
			c-0.3,0.3-0.5,0.7-0.5,1.2c0,0.4,0.1,0.7,0.4,1s0.6,0.4,1.1,0.4c0.3,0,0.6,0,0.9-0.1s0.7-0.1,1-0.1c0.2,0,0.4,0,0.5,0.1
			c0.2,0.1,0.3,0.2,0.4,0.5s0.2,0.6,0.2,1.1c0.1,0.5,0.1,1.1,0.1,1.9v4.2h-0.1c-0.7-1.2-1.7-2-2.9-2.5c-1.2-0.5-2.4-0.7-3.8-0.7
			c-1.7,0-3.1,0.3-4.3,1c-1.2,0.6-2.2,1.5-3.1,2.6c-0.8,1.1-1.4,2.3-1.8,3.7c-0.4,1.4-0.6,2.9-0.6,4.4s0.2,3,0.6,4.5
			c0.4,1.4,1,2.7,1.8,3.8c0.8,1.1,1.9,2,3.1,2.6c1.2,0.7,2.7,1,4.5,1c1.3,0,2.5-0.2,3.8-0.7c1.2-0.5,2.2-1.3,2.9-2.4h0.1v0.4
			c0,0.8,0.1,1.4,0.3,1.7s0.6,0.4,1.2,0.4c0.3,0,0.5,0,0.7-0.1c0.2,0,0.4-0.1,0.5-0.2c0.2-0.1,0.3-0.1,0.5-0.2
			c0.2,0,0.4-0.1,0.6-0.1c0.5,0,0.9,0.1,1.3,0.2c0.4,0.2,0.8,0.2,1.2,0.2c0.4,0,0.7-0.1,1-0.4s0.4-0.7,0.4-1.2c0-0.4-0.1-0.7-0.4-1
			s-0.6-0.4-1.1-0.4c-0.3,0-0.6,0-0.9,0.1s-0.7,0.1-1,0.1c-0.5,0-0.8-0.2-1-0.7s-0.3-1.4-0.3-2.9L50.2,108.6L50.2,108.6z
			 M43.2,117.5c0.9,0.4,1.6,1,2.3,1.9c0.6,0.9,1,1.9,1.2,3c0.1,1.1,0.2,2.2,0.2,3.2s-0.1,2-0.2,3.1s-0.4,2.1-0.8,2.9
			c-0.5,1-1.2,1.7-2.2,2.2s-2,0.7-3.1,0.7c-1.2,0-2.2-0.3-3.1-0.8c-0.8-0.5-1.5-1.2-2.1-2c-0.5-0.8-0.9-1.8-1.2-2.8
			c-0.2-1-0.4-2.1-0.4-3.2c0-1,0.1-2.1,0.3-3.1c0.2-1.1,0.6-2,1.1-2.9s1.2-1.6,2-2.1s1.8-0.8,3.1-0.8
			C41.4,116.9,42.3,117.1,43.2,117.5"/>
	</g>
	<g>
		<defs>
			<rect id="SVGID_3_" x="1" y="3.5" width="397.6" height="141.1"/>
		</defs>
		<clipPath id="SVGID_4_">
			<use xlink:href="#SVGID_3_"  style="overflow:visible;"/>
		</clipPath>
		<path class="st1" d="M347.3,74.7c0.5,0,0.9,0,1.2-0.1c0.3,0,0.5-0.1,0.6-0.3c0.1-0.2,0.2-0.4,0.2-0.7c0-0.3,0-0.7,0-1.3
			c0-1.4-0.2-2.8-0.7-4s-1.1-2.3-2-3.1c-0.9-0.9-1.9-1.6-3.1-2.1c-1.2-0.5-2.5-0.8-4-0.8s-3,0.3-4.4,1c-1.4,0.6-2.6,1.6-3.5,2.8
			c-0.9,1.2-1.6,2.5-2,4S329,73,329,74.5c0,1.6,0.2,3.1,0.6,4.5c0.4,1.4,1.1,2.6,1.9,3.6c0.9,1,1.9,1.8,3.2,2.4s2.8,0.9,4.5,0.9
			c1.2,0,2.5-0.2,3.7-0.6c1.3-0.4,2.3-1,3.3-1.9c0.6-0.6,1.2-1.3,1.7-2.2c0.5-0.9,0.8-1.8,0.8-2.7c0-0.5-0.2-0.9-0.5-1.2
			c-0.3-0.3-0.7-0.5-1.2-0.5c-0.6,0-1,0.2-1.1,0.6c-0.2,0.4-0.4,0.8-0.5,1.3c-0.4,1.4-1.1,2.5-2.2,3.2c-1,0.7-2.3,1.1-3.8,1.1
			c-1.2,0-2.2-0.2-3.1-0.7c-0.9-0.5-1.6-1.1-2.2-1.8c-0.6-0.8-1-1.7-1.3-2.7s-0.4-2.1-0.3-3.2h14.8V74.7z M333.1,71.6
			c0.1-0.9,0.3-1.7,0.6-2.5s0.8-1.4,1.4-2c0.6-0.5,1.3-1,2-1.3c0.8-0.3,1.6-0.5,2.5-0.5s1.8,0.2,2.5,0.5s1.4,0.8,1.9,1.3
			c0.5,0.6,0.9,1.2,1.2,2s0.4,1.6,0.5,2.5H333.1z M311.3,79c0,0.7,0,1.4-0.1,1.8c0,0.5-0.1,0.8-0.2,1.1c-0.1,0.3-0.2,0.4-0.4,0.5
			s-0.4,0.1-0.6,0.1c-0.4,0-0.7,0-1-0.1s-0.6-0.1-0.9-0.1c-0.4,0-0.8,0.1-1.1,0.4s-0.4,0.6-0.4,1c0,0.5,0.2,0.9,0.6,1.2
			c0.4,0.3,0.8,0.4,1.3,0.4c0.4,0,0.8,0,1.2-0.1c0.4,0,0.7-0.1,1.1-0.2c0.3-0.1,0.7-0.1,1.1-0.2c0.4,0,0.8-0.1,1.2-0.1
			c0.9,0,1.7,0.1,2.3,0.2c0.7,0.2,1.4,0.2,2.1,0.2c0.5,0,0.9-0.1,1.3-0.4c0.4-0.3,0.6-0.7,0.6-1.2c0-0.4-0.1-0.7-0.4-1
			c-0.3-0.3-0.6-0.4-1.1-0.4c-0.3,0-0.6,0-0.9,0.1c-0.3,0.1-0.7,0.1-1,0.1c-0.2,0-0.4,0-0.5-0.1c-0.2-0.1-0.3-0.3-0.4-0.5
			s-0.2-0.6-0.3-1.1s-0.1-1.1-0.1-1.9v-5.8c0-1.5,0.1-2.8,0.4-3.9c0.3-1,0.6-1.9,1.1-2.5s1-1.1,1.7-1.3c0.7-0.3,1.4-0.4,2.2-0.4
			c0.4,0,0.9,0.1,1.3,0.2c0.5,0.1,0.9,0.3,1.2,0.6s0.7,0.6,0.9,0.9c0.2,0.4,0.4,0.8,0.4,1.3c0,0.3-0.1,0.6-0.3,1
			c-0.1,0-0.2-0.1-0.3-0.1s-0.2,0-0.3,0c-0.5,0-0.9,0.2-1.2,0.6s-0.5,0.8-0.5,1.3c0,0.6,0.2,1.1,0.7,1.5s1,0.6,1.6,0.6
			c0.7,0,1.2-0.1,1.7-0.4s0.8-0.6,1.1-1s0.5-0.9,0.6-1.4s0.2-1.1,0.2-1.6c0-1-0.2-1.8-0.6-2.6c-0.4-0.8-0.9-1.4-1.5-1.9
			s-1.4-0.9-2.2-1.2c-0.8-0.3-1.7-0.4-2.6-0.4c-1.3,0-2.5,0.3-3.5,0.8s-1.9,1.3-2.6,2.4h-0.1c0-0.9,0-1.5-0.1-2
			c-0.1-0.4-0.5-0.7-1.1-0.7c-0.4,0-0.8,0.1-1.1,0.2c-0.3,0.2-0.8,0.2-1.3,0.2s-1-0.1-1.3-0.2c-0.4-0.2-0.8-0.2-1.2-0.2
			c-0.5,0-0.9,0.1-1.3,0.4c-0.4,0.3-0.6,0.7-0.6,1.2c0,0.4,0.1,0.7,0.4,1c0.3,0.3,0.6,0.4,1.1,0.4c0.6,0,1,0,1.4-0.1
			s0.7-0.1,1.1-0.1c0.5,0,0.8,0.2,1,0.7s0.3,1.4,0.3,2.9V79H311.3z M297.1,79c0,1.3-0.1,2.3-0.3,2.8s-0.5,0.8-1,0.8
			c-0.4,0-0.7,0-1-0.1s-0.6-0.1-0.9-0.1c-0.4,0-0.8,0.1-1.1,0.4s-0.4,0.6-0.4,1s0.2,0.8,0.5,1.1c0.3,0.3,0.6,0.5,1,0.5
			c0.7,0,1.5-0.1,2.2-0.2c0.7-0.2,1.5-0.2,2.4-0.2s1.7,0.1,2.3,0.2c0.6,0.2,1.3,0.2,2.1,0.2c0.5,0,0.9-0.1,1.3-0.4
			c0.4-0.3,0.6-0.7,0.6-1.2c0-0.4-0.1-0.7-0.4-1c-0.3-0.3-0.6-0.4-1.1-0.4c-0.3,0-0.6,0-0.9,0.1c-0.3,0.1-0.6,0.1-0.8,0.1
			c-0.4,0-0.7-0.2-0.9-0.5s-0.3-0.8-0.3-1.3v-16c0-0.4-0.1-0.8-0.2-1.2c-0.2-0.4-0.5-0.6-1-0.6c-0.4,0-0.8,0.1-1.1,0.2
			c-0.3,0.2-0.8,0.2-1.3,0.2s-1-0.1-1.4-0.2c-0.4-0.2-0.9-0.2-1.5-0.2c-0.4,0-0.8,0.1-1.1,0.4s-0.5,0.7-0.5,1.2c0,0.4,0.1,0.7,0.4,1
			c0.3,0.3,0.6,0.4,1.1,0.4c0.3,0,0.6,0,0.9-0.1c0.3-0.1,0.7-0.1,1-0.1c0.2,0,0.4,0.1,0.6,0.2c0.2,0.1,0.3,0.3,0.4,0.5
			c0.1,0.3,0.2,0.6,0.2,1.1s0.1,1.1,0.1,1.8V79H297.1z M296.3,56.6c-0.5,0.5-0.7,1.1-0.7,1.7s0.2,1.3,0.7,1.8s1.1,0.7,1.7,0.7
			c0.7,0,1.3-0.2,1.8-0.7s0.7-1.1,0.7-1.8s-0.2-1.3-0.7-1.7c-0.5-0.5-1.1-0.7-1.8-0.7C297.4,55.9,296.8,56.1,296.3,56.6 M285.2,70.7
			c0-1.3-0.1-2.5-0.4-3.6c-0.3-1.1-0.9-2.1-2-2.9c-0.8-0.6-1.8-1.1-2.8-1.3c-1-0.3-2.1-0.4-3.1-0.4c-0.9,0-1.9,0.1-3,0.4
			c-1,0.3-1.9,0.7-2.7,1.2c-0.7,0.5-1.4,1.2-1.9,1.9c-0.5,0.8-0.8,1.6-0.8,2.5c0,0.8,0.3,1.4,0.8,2c0.5,0.5,1.1,0.8,1.9,0.8
			c0.6,0,1.1-0.2,1.6-0.5s0.7-0.8,0.7-1.5c0-0.4-0.1-0.7-0.2-0.9c-0.1-0.2-0.2-0.4-0.4-0.5c-0.1-0.1-0.2-0.2-0.3-0.2
			s-0.2-0.1-0.2-0.2c0-0.2,0.1-0.4,0.4-0.6c0.2-0.2,0.5-0.4,0.6-0.5c0.5-0.3,1-0.5,1.6-0.7s1.1-0.3,1.7-0.3c0.6,0,1.2,0.1,1.8,0.2
			s1.1,0.3,1.5,0.6c0.4,0.3,0.8,0.7,1.1,1.2s0.4,1.1,0.4,1.8c0,0.8-0.2,1.4-0.6,1.8c-0.4,0.4-0.9,0.7-1.4,0.9
			c-0.6,0.2-1.2,0.3-1.9,0.4s-1.4,0.1-2,0.2c-1.1,0.1-2,0.3-3,0.5c-0.9,0.2-1.8,0.5-2.8,1.1s-1.7,1.3-2.2,2.3
			c-0.5,0.9-0.7,2-0.7,3.2c0,1.1,0.3,2.1,0.8,2.9c0.5,0.9,1.2,1.6,2.1,2.2c0.7,0.5,1.6,0.8,2.5,1s1.8,0.3,2.7,0.3
			c1.4,0,2.7-0.2,4-0.7s2.3-1.3,3-2.5c0.2,1.1,0.8,1.9,1.6,2.4s1.8,0.7,2.8,0.7c0.7,0,1.4-0.1,2.1-0.3c0.7-0.2,1.2-0.6,1.7-1.2
			s0.7-1.3,0.8-2.2c0.1-0.9,0.1-2.1,0.1-3.7c0-0.5-0.1-0.9-0.3-1.2c-0.2-0.3-0.6-0.5-1.2-0.5c-0.4,0-0.7,0.1-0.9,0.2
			c-0.2,0.2-0.3,0.4-0.4,0.6c-0.1,0.2-0.1,0.5-0.1,0.8v0.9c0,0.3,0,0.7,0,1.2s0,0.9-0.1,1.3s-0.2,0.8-0.5,1.1
			c-0.2,0.3-0.6,0.5-1,0.5c-0.5,0-0.9-0.2-1.1-0.5c-0.2-0.4-0.4-0.8-0.5-1.3s-0.1-1-0.1-1.5s0-1,0-1.3L285.2,70.7z M271.1,77.6
			c0.3-0.5,0.7-0.8,1.2-1.1c0.5-0.3,1-0.5,1.6-0.6s1.2-0.2,1.7-0.3c0.5-0.1,1-0.1,1.6-0.2c0.5-0.1,1.1-0.1,1.6-0.3
			c0.5-0.1,1-0.3,1.5-0.5s0.9-0.5,1.3-0.9c0,0.5-0.1,0.9-0.1,1.4s0,0.9,0,1.4c0,0.7-0.1,1.5-0.2,2.1c-0.1,0.7-0.4,1.4-0.9,2
			c-0.7,0.8-1.5,1.4-2.5,1.8c-1,0.3-2,0.5-3,0.5c-0.6,0-1.1-0.1-1.7-0.2c-0.5-0.1-1-0.3-1.4-0.6c-0.4-0.3-0.8-0.7-1-1.1
			c-0.3-0.4-0.4-1-0.4-1.7C270.7,78.7,270.8,78.1,271.1,77.6 M257.8,79c0,1.2-0.1,2.1-0.2,2.7c-0.2,0.6-0.5,0.9-1,0.9
			c-0.4,0-0.7,0-1-0.1s-0.6-0.1-0.9-0.1c-0.4,0-0.8,0.1-1.1,0.4s-0.4,0.6-0.4,1c0,0.5,0.2,0.9,0.6,1.2c0.4,0.3,0.8,0.4,1.3,0.4
			c0.4,0,0.7,0,1.1-0.1c0.3,0,0.7-0.1,1-0.2s0.7-0.1,1.1-0.2c0.4,0,0.8-0.1,1.3-0.1s1,0,1.4,0.1c0.4,0,0.8,0.1,1.1,0.2
			s0.6,0.1,0.9,0.2c0.3,0,0.6,0.1,1,0.1c0.5,0,0.9-0.1,1.3-0.4c0.4-0.3,0.6-0.7,0.6-1.2c0-0.4-0.1-0.7-0.4-1
			c-0.3-0.3-0.6-0.4-1.1-0.4c-0.3,0-0.6,0-0.9,0.1c-0.3,0.1-0.7,0.1-1,0.1c-0.2,0-0.3,0-0.5-0.1s-0.3-0.3-0.4-0.5
			c-0.1-0.3-0.2-0.6-0.3-1.1s-0.1-1.1-0.1-1.9V57.3c0-0.8-0.1-1.3-0.2-1.7c-0.1-0.4-0.5-0.5-1-0.5c-0.4,0-0.8,0.1-1.1,0.2
			c-0.3,0.2-0.7,0.2-1.3,0.2c-0.4,0-0.9-0.1-1.3-0.2c-0.4-0.2-1-0.2-1.6-0.2c-0.5,0-1,0.1-1.4,0.4s-0.6,0.7-0.6,1.2
			c0,0.4,0.1,0.7,0.4,1c0.3,0.3,0.6,0.4,1.1,0.4s0.9,0,1.3-0.1c0.4-0.1,0.7-0.1,1.1-0.1c0.1,0,0.3,0,0.5,0.1c0.2,0,0.3,0.2,0.4,0.4
			c0.1,0.2,0.2,0.6,0.3,1.1s0.1,1.2,0.1,2.1L257.8,79L257.8,79z M228.9,78.6c0,1.1,0.2,2.1,0.5,3.1s0.9,1.8,1.8,2.5
			c0.8,0.6,1.7,1,2.7,1.3s2,0.4,3,0.4c1.4,0,2.8-0.2,4-0.7s2.2-1.3,3-2.5h0.1c0,0.9,0,1.5,0.1,2c0.1,0.4,0.4,0.7,0.9,0.7
			c0.4,0,0.8-0.1,1.2-0.2c0.4-0.2,0.8-0.2,1.3-0.2c0.4,0,0.8,0.1,1.2,0.2c0.4,0.2,0.8,0.2,1.2,0.2c0.5,0,0.9-0.1,1.3-0.4
			c0.4-0.3,0.6-0.7,0.6-1.2c0-0.4-0.1-0.7-0.4-1c-0.3-0.3-0.6-0.4-1.1-0.4c-0.3,0-0.6,0-0.9,0.1c-0.3,0.1-0.7,0.1-1,0.1
			c-0.2,0-0.4,0-0.5-0.1c-0.2-0.1-0.3-0.3-0.4-0.5c-0.1-0.3-0.2-0.6-0.2-1.1c-0.1-0.5-0.1-1.1-0.1-1.8V71c0-1.1,0-2.2,0.1-3.3
			c0-1,0.1-2.1,0.1-3.2c0-0.4-0.1-0.8-0.3-1.1c-0.2-0.3-0.5-0.4-1-0.4c-0.4,0-0.8,0.1-1.2,0.2c-0.4,0.2-0.8,0.2-1.2,0.2
			s-0.9-0.1-1.3-0.2C242,63,241.5,63,241,63s-1,0.1-1.4,0.4s-0.6,0.7-0.6,1.2c0,0.4,0.1,0.7,0.4,1c0.3,0.3,0.6,0.4,1.1,0.4
			c0.3,0,0.6,0,0.9-0.1c0.3-0.1,0.7-0.1,1-0.1c0.4,0,0.8,0.3,1.1,0.8c0.3,0.6,0.5,1.5,0.5,2.8v2.9c0,0.5,0,1.1,0,1.7s0,1.2-0.1,1.9
			c0,0.6-0.1,1.3-0.2,1.9c-0.1,0.6-0.2,1.1-0.4,1.6c-0.4,1.3-1.1,2.2-2.2,2.8c-1,0.6-2.2,0.9-3.5,0.9c-0.5,0-1-0.1-1.5-0.2
			s-1-0.3-1.4-0.6c-0.4-0.3-0.8-0.6-1.1-1s-0.6-0.9-0.8-1.4c-0.1-0.4-0.2-0.8-0.3-1.3s-0.1-1-0.1-1.5s-0.1-1.1-0.1-1.6s0-1,0-1.4
			v-1.9c0-0.7,0-1.3,0-1.9c0-0.5,0.1-1.1,0.1-1.6s0.1-1.1,0.1-1.7s0-1.4,0-2.3c0-0.5-0.1-0.9-0.3-1.3c-0.2-0.3-0.6-0.5-1.2-0.5
			c-0.4,0-0.8,0.1-1.2,0.2c-0.4,0.2-0.8,0.2-1.2,0.2s-0.9-0.1-1.3-0.2c-0.4-0.2-0.8-0.2-1.2-0.2c-0.6,0-1.1,0.1-1.5,0.4
			S224,64,224,64.5c0,0.4,0.1,0.7,0.4,1c0.3,0.3,0.6,0.4,1.1,0.4c0.3,0,0.6,0,0.9-0.1c0.3-0.1,0.7-0.1,1-0.1c0.5,0,0.8,0.3,1.1,0.8
			s0.4,1.5,0.4,2.8L228.9,78.6L228.9,78.6z M216,79c0,1.4-0.1,2.3-0.2,2.9c-0.1,0.5-0.5,0.8-1,0.8c-0.4,0-0.7,0-1-0.1
			s-0.6-0.1-0.9-0.1c-0.4,0-0.8,0.1-1.1,0.4s-0.4,0.6-0.4,1c0,1.1,0.6,1.6,1.8,1.6c0.8,0,1.5-0.1,2.1-0.2c0.6-0.2,1.5-0.2,2.5-0.2
			s1.8,0.1,2.4,0.2c0.6,0.2,1.3,0.2,2,0.2c1.2,0,1.8-0.5,1.8-1.6c0-0.4-0.1-0.7-0.4-1c-0.3-0.3-0.6-0.4-1.1-0.4
			c-0.3,0-0.6,0-0.9,0.1c-0.3,0.1-0.7,0.1-1,0.1c-0.5,0-0.8-0.3-1-0.8c-0.2-0.6-0.3-1.5-0.3-2.8V72c0-1.3-0.1-2.5-0.2-3.7
			c-0.1-1.1-0.6-2.2-1.5-3.3c-0.7-0.9-1.7-1.6-2.9-1.9s-2.4-0.5-3.5-0.5c-1.4,0-2.7,0.2-3.8,0.7c-1.2,0.5-2.2,1.3-3,2.5
			c-0.7-1.1-1.6-1.9-2.7-2.4c-1.1-0.5-2.3-0.8-3.6-0.8c-1.4,0-2.6,0.3-3.6,0.8s-1.9,1.3-2.8,2.4h-0.1c0-0.8,0-1.5-0.1-1.9
			s-0.4-0.7-0.8-0.7c-0.3,0-0.5,0-0.7,0.1c-0.2,0-0.4,0.1-0.6,0.2c-0.2,0.1-0.4,0.1-0.6,0.2c-0.2,0-0.5,0.1-0.8,0.1s-0.5,0-0.7-0.1
			c-0.2,0-0.4-0.1-0.5-0.2c-0.2-0.1-0.3-0.1-0.5-0.2c-0.2,0-0.4-0.1-0.6-0.1c-0.4,0-0.7,0.2-1.1,0.5c-0.3,0.3-0.5,0.7-0.5,1.1
			s0.1,0.7,0.4,1c0.3,0.3,0.6,0.4,1.1,0.4c0.3,0,0.6,0,0.9-0.1c0.3-0.1,0.7-0.1,1-0.1c0.5,0,0.8,0.2,1,0.7s0.3,1.5,0.3,2.9v9.5
			c0,1.4-0.1,2.3-0.2,2.9c-0.1,0.5-0.5,0.8-1,0.8c-0.4,0-0.7,0-1-0.1s-0.6-0.1-0.9-0.1c-0.4,0-0.8,0.1-1.1,0.4s-0.4,0.6-0.4,1
			c0,1.1,0.6,1.6,1.8,1.6c0.8,0,1.5-0.1,2.1-0.2c0.6-0.2,1.5-0.2,2.5-0.2s1.8,0.1,2.4,0.2c0.6,0.2,1.3,0.2,2,0.2
			c1.2,0,1.8-0.5,1.8-1.6c0-0.4-0.1-0.7-0.4-1c-0.3-0.3-0.6-0.4-1.1-0.4c-0.3,0-0.6,0-0.9,0.1c-0.3,0.1-0.7,0.1-1,0.1
			c-0.5,0-0.8-0.3-1-0.8c-0.2-0.6-0.3-1.5-0.3-2.8v-5.1c0-0.9,0-1.7,0-2.3c0-0.6,0.1-1.1,0.2-1.5c0.1-0.4,0.2-0.8,0.3-1.1
			c0.1-0.3,0.3-0.7,0.5-1.1c0.5-0.9,1.2-1.5,2-1.9c0.9-0.4,1.8-0.6,2.8-0.6c0.5,0,1,0.1,1.5,0.2c0.5,0.2,0.9,0.4,1.2,0.6
			c0.4,0.3,0.7,0.6,0.9,0.9c0.3,0.3,0.4,0.7,0.6,1c0.1,0.5,0.2,1.1,0.3,1.8c0,0.7,0,1.6,0,2.6v6.5c0,1.4-0.1,2.3-0.2,2.9
			c-0.1,0.5-0.5,0.8-1,0.8c-0.4,0-0.7,0-1-0.1s-0.6-0.1-0.9-0.1c-0.4,0-0.8,0.1-1.1,0.4s-0.4,0.6-0.4,1c0,1.1,0.6,1.6,1.8,1.6
			c0.8,0,1.5-0.1,2.1-0.2c0.6-0.2,1.5-0.2,2.5-0.2s1.8,0.1,2.4,0.2c0.6,0.2,1.3,0.2,2,0.2c1.2,0,1.8-0.5,1.8-1.6
			c0-0.4-0.1-0.7-0.4-1c-0.3-0.3-0.6-0.4-1.1-0.4c-0.3,0-0.6,0-0.9,0.1c-0.3,0.1-0.7,0.1-1,0.1c-0.5,0-0.8-0.3-1-0.8
			c-0.2-0.6-0.3-1.5-0.3-2.8v-4.9c0-0.9,0-1.7,0.1-2.3c0-0.6,0.1-1.2,0.2-1.6c0.1-0.4,0.1-0.8,0.2-1.2c0.1-0.3,0.2-0.6,0.3-0.9
			c0.4-0.9,1-1.5,1.8-2s1.7-0.7,2.6-0.7c1,0,1.9,0.2,2.8,0.7c0.8,0.5,1.4,1.2,1.8,2.1c0.2,0.5,0.3,1.2,0.4,2c0.1,0.8,0.1,2,0.1,3.5
			L216,79L216,79z M166.8,79c0,0.7,0,1.4-0.1,1.8c0,0.5-0.1,0.8-0.2,1.1s-0.2,0.4-0.4,0.5s-0.4,0.1-0.6,0.1c-0.4,0-0.7,0-1-0.1
			s-0.6-0.1-0.9-0.1c-0.4,0-0.8,0.1-1.1,0.4s-0.4,0.6-0.4,1c0,0.5,0.2,0.9,0.6,1.2s0.8,0.4,1.3,0.4c0.4,0,0.8,0,1.2-0.1
			s0.7-0.1,1.1-0.2c0.3-0.1,0.7-0.1,1.1-0.2c0.4,0,0.8-0.1,1.2-0.1c0.9,0,1.7,0.1,2.3,0.2c0.7,0.2,1.4,0.2,2.1,0.2
			c0.5,0,0.9-0.1,1.3-0.4c0.4-0.3,0.6-0.7,0.6-1.2c0-0.4-0.1-0.7-0.4-1c-0.3-0.3-0.6-0.4-1.1-0.4c-0.3,0-0.6,0-0.9,0.1
			s-0.7,0.1-1,0.1c-0.2,0-0.4,0-0.5-0.1c-0.2-0.1-0.3-0.3-0.4-0.5c-0.1-0.3-0.2-0.6-0.3-1.1s-0.1-1.1-0.1-1.9v-5.8
			c0-1.5,0.1-2.8,0.4-3.9c0.3-1,0.6-1.9,1.1-2.5s1-1.1,1.7-1.3c0.7-0.3,1.4-0.4,2.2-0.4c0.4,0,0.9,0.1,1.3,0.2
			c0.5,0.1,0.9,0.3,1.2,0.6c0.4,0.3,0.7,0.6,0.9,0.9c0.2,0.4,0.4,0.8,0.4,1.3c0,0.3-0.1,0.6-0.3,1c-0.1,0-0.2-0.1-0.3-0.1
			s-0.2,0-0.3,0c-0.5,0-0.9,0.2-1.2,0.6s-0.5,0.8-0.5,1.3c0,0.6,0.2,1.1,0.7,1.5s1,0.6,1.6,0.6c0.7,0,1.2-0.1,1.7-0.4s0.8-0.6,1.1-1
			s0.5-0.9,0.6-1.4s0.2-1.1,0.2-1.6c0-1-0.2-1.8-0.6-2.6c-0.4-0.8-0.9-1.4-1.5-1.9s-1.4-0.9-2.2-1.2c-0.8-0.3-1.7-0.4-2.6-0.4
			c-1.3,0-2.5,0.3-3.5,0.8s-1.9,1.3-2.6,2.4h-0.1c0-0.9,0-1.5-0.2-2c-0.1-0.4-0.5-0.7-1.1-0.7c-0.4,0-0.8,0.1-1.1,0.2
			c-0.3,0.2-0.8,0.2-1.3,0.2s-1-0.1-1.3-0.2c-0.4-0.2-0.8-0.2-1.2-0.2c-0.5,0-0.9,0.1-1.3,0.4c-0.4,0.3-0.6,0.7-0.6,1.2
			c0,0.4,0.1,0.7,0.4,1c0.3,0.3,0.6,0.4,1.1,0.4c0.6,0,1,0,1.4-0.1s0.7-0.1,1.1-0.1c0.5,0,0.8,0.2,1,0.7s0.3,1.4,0.3,2.9L166.8,79
			L166.8,79z M138.9,78.7c0.4,1.4,1,2.7,1.9,3.7c0.8,1.1,1.9,1.9,3.2,2.6c1.3,0.6,2.8,0.9,4.5,0.9s3.3-0.3,4.6-0.9s2.4-1.5,3.3-2.5
			c0.9-1.1,1.6-2.3,2-3.8c0.5-1.4,0.7-3,0.7-4.6c0-1.5-0.2-2.9-0.6-4.4c-0.4-1.5-1.1-2.8-2.1-4s-2.2-2.1-3.5-2.6s-2.8-0.7-4.3-0.7
			c-1.7,0-3.2,0.3-4.5,1c-1.3,0.6-2.4,1.5-3.2,2.6s-1.5,2.3-1.9,3.8c-0.4,1.4-0.6,2.9-0.6,4.5C138.3,75.8,138.5,77.3,138.9,78.7
			 M142.2,71.1c0.2-1.1,0.6-2,1.1-2.8c0.6-1.1,1.4-1.8,2.3-2.3c0.9-0.4,2-0.7,3.2-0.7c1,0,2,0.2,2.9,0.6s1.7,1,2.3,1.9
			s1,1.8,1.2,2.9s0.3,2.2,0.3,3.2c0,1.1-0.1,2.3-0.3,3.4s-0.6,2.1-1.2,2.9c-0.5,0.9-1.3,1.5-2.2,2.1c-0.9,0.5-2,0.8-3.3,0.8
			s-2.3-0.3-3.2-0.8c-0.8-0.5-1.5-1.2-2-2.1s-0.9-1.8-1.1-2.9c-0.2-1.1-0.3-2.1-0.3-3.2C141.8,73.2,142,72.2,142.2,71.1 M126.2,80.2
			c0,0.9-0.1,1.6-0.4,1.9c-0.2,0.3-0.5,0.5-0.9,0.5s-0.7,0-1-0.1s-0.6-0.1-0.9-0.1c-0.4,0-0.8,0.1-1.1,0.4s-0.4,0.6-0.4,1
			s0.2,0.8,0.6,1.1c0.4,0.3,0.8,0.5,1.3,0.5c0.7,0,1.5-0.1,2.1-0.2c0.7-0.2,1.5-0.2,2.4-0.2c0.6,0,1.1,0,1.5,0.1
			c0.4,0,0.8,0.1,1.1,0.2s0.6,0.1,0.9,0.2c0.3,0,0.6,0.1,0.9,0.1c0.5,0,0.9-0.1,1.3-0.4c0.4-0.3,0.6-0.7,0.6-1.2
			c0-0.4-0.1-0.7-0.4-1c-0.3-0.3-0.6-0.4-1.1-0.4c-0.3,0-0.6,0-0.9,0.1c-0.3,0.1-0.7,0.1-1,0.1c-0.8,0-1.2-0.8-1.2-2.4V67.6
			c0-0.5,0.3-0.7,0.8-0.7h2.7c0.6,0,1.1-0.1,1.4-0.3c0.4-0.2,0.6-0.7,0.6-1.3c0-1-0.7-1.5-2-1.5h-2.9c-0.3,0-0.4-0.1-0.5-0.2
			s-0.1-0.4-0.1-0.9c0-0.7,0.1-1.3,0.2-1.9c0.1-0.6,0.4-1.1,0.7-1.6s0.7-0.8,1.2-1.1c0.5-0.3,1.1-0.4,1.9-0.4c0.4,0,0.8,0,1.2,0.1
			s0.7,0.3,1,0.6c-0.3,0.4-0.4,0.7-0.4,1.1c0,0.5,0.2,1,0.6,1.4c0.4,0.4,0.9,0.5,1.4,0.5c0.7,0,1.2-0.2,1.6-0.6
			c0.4-0.4,0.6-0.9,0.6-1.6c0-0.8-0.2-1.4-0.6-1.9c-0.4-0.5-0.9-0.9-1.5-1.2c-0.6-0.3-1.3-0.5-2-0.7c-0.7-0.1-1.4-0.2-2-0.2
			c-2.6,0-4.5,0.7-5.6,2c-1.2,1.3-1.7,3.3-1.7,5.8c0,0.5-0.1,0.7-0.2,0.8c-0.1,0.1-0.6,0.1-1.2,0.1H123c-0.4,0-0.8,0.1-1.1,0.4
			s-0.4,0.7-0.4,1.1c0,0.5,0.1,0.9,0.4,1.2c0.3,0.3,0.7,0.5,1.4,0.5h1.9c0.4,0,0.6,0.1,0.7,0.3c0.1,0.2,0.2,0.5,0.2,1.1L126.2,80.2
			L126.2,80.2z M81.6,79c0,1.4-0.1,2.3-0.2,2.9c-0.1,0.5-0.5,0.8-1,0.8c-0.4,0-0.7,0-1-0.1s-0.6-0.1-0.9-0.1c-0.4,0-0.8,0.1-1.1,0.4
			s-0.4,0.6-0.4,1c0,1.1,0.6,1.6,1.8,1.6c0.8,0,1.5-0.1,2.1-0.2c0.6-0.2,1.5-0.2,2.5-0.2s1.8,0.1,2.4,0.2c0.6,0.2,1.3,0.2,2,0.2
			c1.2,0,1.8-0.5,1.8-1.6c0-0.4-0.1-0.7-0.4-1c-0.3-0.3-0.6-0.4-1.1-0.4c-0.3,0-0.6,0-0.9,0.1c-0.3,0.1-0.7,0.1-1,0.1
			c-0.5,0-0.8-0.3-1-0.8c-0.2-0.6-0.3-1.5-0.3-2.8V74c0-1.1,0-1.9,0.1-2.6s0.2-1.3,0.3-1.7c0.1-0.4,0.2-0.8,0.3-1
			c0.1-0.3,0.3-0.5,0.4-0.7c0.5-0.8,1.3-1.5,2.3-1.9s2-0.6,2.9-0.6s1.8,0.2,2.7,0.6s1.5,1,2,1.8c0.2,0.3,0.3,0.7,0.4,0.9
			c0.1,0.3,0.1,0.6,0.2,1c0,0.4,0.1,0.8,0.1,1.3s0,1.1,0,1.7v6.4c0,1.4-0.1,2.3-0.2,2.9c-0.1,0.5-0.5,0.8-1,0.8c-0.4,0-0.7,0-1-0.1
			s-0.6-0.1-0.9-0.1c-0.4,0-0.8,0.1-1.1,0.4s-0.4,0.6-0.4,1c0,1,0.6,1.5,1.8,1.5c0.8,0,1.5-0.1,2.1-0.2c0.6-0.2,1.5-0.2,2.5-0.2
			s1.8,0.1,2.4,0.2c0.6,0.2,1.3,0.2,2,0.2c1.2,0,1.8-0.5,1.8-1.5c0-0.4-0.1-0.7-0.4-1c-0.3-0.3-0.6-0.4-1.1-0.4
			c-0.3,0-0.6,0-0.9,0.1c-0.3,0.1-0.7,0.1-1,0.1c-0.5,0-0.8-0.3-1-0.8s-0.3-1.5-0.3-2.8v-8c0-1.2-0.1-2.3-0.3-3.4s-0.8-2-1.7-2.9
			c-0.9-0.8-1.8-1.4-2.9-1.7c-1.1-0.4-2.2-0.6-3.3-0.6c-1.3,0-2.7,0.3-4,0.8s-2.4,1.3-3.2,2.4h-0.1c0-0.8,0-1.5-0.1-1.9
			s-0.4-0.7-0.8-0.7c-0.3,0-0.5,0-0.7,0.1c-0.2,0-0.4,0.1-0.6,0.2c-0.2,0.1-0.4,0.1-0.6,0.2c-0.2,0-0.5,0.1-0.8,0.1s-0.5,0-0.7-0.1
			c-0.2,0-0.4-0.1-0.5-0.2c-0.2-0.1-0.3-0.1-0.5-0.2c-0.2,0-0.4-0.1-0.6-0.1c-0.4,0-0.7,0.2-1.1,0.5c-0.3,0.3-0.5,0.7-0.5,1.1
			s0.1,0.7,0.4,1c0.3,0.3,0.6,0.4,1.1,0.4c0.3,0,0.6,0,0.9-0.1c0.3-0.1,0.7-0.1,1-0.1c0.5,0,0.8,0.2,1,0.7s0.3,1.5,0.3,2.9V79z
			 M53,78.6c0,1.1,0.2,2.1,0.5,3.1s0.9,1.8,1.8,2.5c0.8,0.6,1.7,1,2.7,1.3s2,0.4,3,0.4c1.4,0,2.8-0.2,4-0.7s2.2-1.3,3-2.5h0.1
			c0,0.9,0,1.5,0.1,2c0.1,0.4,0.4,0.7,0.9,0.7c0.4,0,0.8-0.1,1.2-0.2c0.4-0.2,0.8-0.2,1.3-0.2c0.4,0,0.8,0.1,1.2,0.2
			c0.4,0.2,0.8,0.2,1.2,0.2c0.5,0,0.9-0.1,1.3-0.4s0.6-0.7,0.6-1.2c0-0.4-0.1-0.7-0.4-1s-0.6-0.4-1.1-0.4c-0.3,0-0.6,0-0.9,0.1
			s-0.7,0.1-1,0.1c-0.2,0-0.4,0-0.5-0.1c-0.2-0.1-0.3-0.3-0.4-0.5c-0.1-0.3-0.2-0.6-0.2-1.1c-0.1-0.5-0.1-1.1-0.1-1.8V71
			c0-1.1,0-2.2,0.1-3.3c0-1,0.1-2.1,0.1-3.2c0-0.4-0.1-0.8-0.3-1.1c-0.2-0.3-0.5-0.4-1-0.4c-0.4,0-0.8,0.1-1.2,0.2
			c-0.4,0.2-0.8,0.2-1.2,0.2c-0.4,0-0.9-0.1-1.3-0.2C66.1,63,65.6,63,65.1,63s-1,0.1-1.4,0.4s-0.6,0.7-0.6,1.2c0,0.4,0.1,0.7,0.4,1
			s0.6,0.4,1.1,0.4c0.3,0,0.6,0,0.9-0.1s0.7-0.1,1-0.1c0.4,0,0.8,0.3,1.1,0.8c0.3,0.6,0.5,1.5,0.5,2.8v2.9c0,0.5,0,1.1,0,1.7
			s0,1.2-0.1,1.9c0,0.6-0.1,1.3-0.2,1.9s-0.2,1.1-0.4,1.6c-0.4,1.3-1.1,2.2-2.2,2.8c-1,0.6-2.2,0.9-3.5,0.9c-0.5,0-1-0.1-1.5-0.2
			s-1-0.3-1.4-0.6c-0.4-0.3-0.8-0.6-1.1-1c-0.3-0.4-0.6-0.9-0.8-1.4c-0.1-0.4-0.2-0.8-0.3-1.3c-0.1-0.5-0.1-1-0.1-1.5s0-1.1-0.1-1.6
			c0-0.5,0-1,0-1.4v-1.9c0-0.7,0-1.3,0-1.9c0-0.5,0.1-1.1,0.1-1.6s0.1-1.1,0.1-1.7s0-1.4,0-2.3c0-0.5-0.1-0.9-0.3-1.3
			c-0.2-0.3-0.6-0.5-1.2-0.5c-0.4,0-0.8,0.1-1.2,0.2c-0.4,0.2-0.8,0.2-1.2,0.2c-0.4,0-0.9-0.1-1.3-0.2c-0.4-0.2-0.8-0.2-1.2-0.2
			c-0.6,0-1.1,0.1-1.5,0.4s-0.6,0.7-0.6,1.2c0,0.4,0.1,0.7,0.4,1s0.6,0.4,1.1,0.4c0.3,0,0.6,0,0.9-0.1s0.7-0.1,1-0.1
			c0.5,0,0.8,0.3,1.1,0.8C52.9,67,53,68,53,69.3V78.6z"/>
	</g>
	<g>
		<defs>
			<rect id="SVGID_5_" x="1" y="3.5" width="397.6" height="141.1"/>
		</defs>
		<clipPath id="SVGID_6_">
			<use xlink:href="#SVGID_5_"  style="overflow:visible;"/>
		</clipPath>
		<path class="st2" d="M385.8,25.5c0,0.9,0,1.6,0,2.2s0.1,1.1,0.2,1.5c0.1,0.4,0.2,0.8,0.3,1.1c0.1,0.3,0.2,0.6,0.4,0.9
			c0.5,0.9,1.2,1.6,2.1,2c0.9,0.4,1.9,0.6,2.9,0.6c1.5,0,2.7-0.3,3.6-0.8c0.9-0.5,1.6-1.2,2.1-2s0.8-1.8,0.9-2.9
			c0.1-1.1,0.2-2.3,0.2-3.6c0-0.5-0.1-1-0.3-1.4s-0.6-0.6-1.2-0.6c-0.6,0-1.1,0.2-1.3,0.6c-0.3,0.4-0.4,1.1-0.4,2.1v1.4
			c0,0.5,0,1-0.1,1.5s-0.2,1-0.5,1.4c-0.2,0.4-0.5,0.7-0.9,1c-0.4,0.2-0.9,0.4-1.5,0.4s-1.1-0.1-1.5-0.3c-0.4-0.2-0.7-0.5-1-0.9
			c-0.2-0.4-0.4-0.9-0.5-1.6c-0.1-0.6-0.2-1.5-0.2-2.4V15.3c0-0.4,0.1-0.6,0.2-0.7s0.4-0.1,0.9-0.1h3.8c1,0,1.6-0.2,1.9-0.5
			c0.3-0.3,0.4-0.7,0.4-1.1c0-0.5-0.1-0.9-0.4-1.2c-0.3-0.3-0.9-0.4-1.8-0.4h-4.3c-0.3,0-0.5,0-0.6-0.1s-0.1-0.3-0.1-0.6V6.3
			c0-0.6-0.1-1.1-0.3-1.5s-0.6-0.6-1.4-0.6c-0.7,0-1.2,0.2-1.4,0.6s-0.3,0.9-0.3,1.5v3.5c0,0.6,0,1-0.1,1.1
			c-0.1,0.2-0.3,0.2-0.7,0.2h-1.5c-0.5,0-0.8,0.2-1.2,0.5c-0.3,0.3-0.5,0.7-0.5,1c0,0.7,0.2,1.1,0.6,1.3c0.4,0.2,1,0.3,1.9,0.3
			c0.7,0,1.1,0.1,1.2,0.3c0.2,0.2,0.3,0.6,0.3,1.2L385.8,25.5L385.8,25.5z M359,27.4c0,1.4-0.1,2.3-0.2,2.9c-0.1,0.5-0.5,0.8-1,0.8
			c-0.4,0-0.7,0-1-0.1s-0.6-0.1-0.9-0.1c-0.4,0-0.8,0.1-1.1,0.4s-0.4,0.6-0.4,1c0,1.1,0.6,1.6,1.8,1.6c0.8,0,1.5-0.1,2.1-0.2
			c0.6-0.2,1.5-0.2,2.5-0.2s1.8,0.1,2.4,0.2c0.6,0.2,1.3,0.2,2,0.2c1.2,0,1.8-0.5,1.8-1.6c0-0.4-0.1-0.7-0.4-1
			c-0.3-0.3-0.6-0.4-1.1-0.4c-0.3,0-0.6,0-0.9,0.1c-0.3,0.1-0.7,0.1-1,0.1c-0.5,0-0.8-0.3-1-0.8c-0.2-0.6-0.3-1.5-0.3-2.8v-5.1
			c0-1.1,0-1.9,0.1-2.6s0.2-1.3,0.3-1.7c0.1-0.4,0.2-0.8,0.3-1s0.3-0.5,0.4-0.7c0.5-0.8,1.3-1.5,2.3-1.9s2-0.6,2.9-0.6
			s1.8,0.2,2.7,0.6s1.5,1,2,1.8c0.2,0.3,0.3,0.7,0.4,0.9c0.1,0.3,0.2,0.6,0.2,1s0.1,0.8,0.1,1.3s0,1.1,0,1.7v6.4
			c0,1.4-0.1,2.3-0.2,2.9c-0.1,0.5-0.5,0.8-1,0.8c-0.4,0-0.7,0-1-0.1s-0.6-0.1-0.9-0.1c-0.4,0-0.8,0.1-1.1,0.4s-0.4,0.6-0.4,1
			c0,1,0.6,1.5,1.8,1.5c0.8,0,1.5-0.1,2.1-0.2c0.6-0.2,1.5-0.2,2.5-0.2s1.8,0.1,2.4,0.2c0.6,0.2,1.3,0.2,2,0.2
			c1.2,0,1.8-0.5,1.8-1.5c0-0.4-0.1-0.7-0.4-1c-0.3-0.3-0.6-0.4-1.1-0.4c-0.3,0-0.6,0-0.9,0.1c-0.3,0.1-0.7,0.1-1,0.1
			c-0.5,0-0.8-0.3-1-0.8s-0.3-1.5-0.3-2.8v-8c0-1.2-0.1-2.3-0.3-3.4s-0.8-2-1.7-2.9c-0.9-0.8-1.8-1.4-2.9-1.7
			c-1.1-0.4-2.2-0.6-3.3-0.6c-1.3,0-2.7,0.3-4,0.8s-2.4,1.3-3.2,2.4h-0.1c0-0.8,0-1.5-0.1-1.9s-0.4-0.7-0.8-0.7
			c-0.3,0-0.5,0-0.7,0.1c-0.2,0-0.4,0.1-0.6,0.2c-0.2,0.1-0.4,0.1-0.6,0.2c-0.2,0-0.5,0.1-0.8,0.1s-0.5,0-0.7-0.1
			c-0.2,0-0.4-0.1-0.5-0.2c-0.2-0.1-0.3-0.1-0.5-0.2c-0.2,0-0.4-0.1-0.6-0.1c-0.4,0-0.7,0.2-1.1,0.5c-0.3,0.3-0.5,0.7-0.5,1.1
			s0.1,0.7,0.4,1c0.3,0.3,0.6,0.4,1.1,0.4c0.3,0,0.6,0,0.9-0.1c0.3-0.1,0.7-0.1,1-0.1c0.5,0,0.8,0.2,1,0.7s0.3,1.5,0.3,2.9V27.4z
			 M347.2,19.1c0-1.3-0.1-2.5-0.4-3.6c-0.3-1.1-0.9-2.1-2-2.9c-0.8-0.6-1.8-1.1-2.8-1.3c-1-0.3-2.1-0.4-3.1-0.4
			c-0.9,0-1.9,0.1-3,0.4c-1,0.3-1.9,0.7-2.7,1.2c-0.7,0.5-1.4,1.2-1.9,1.9c-0.5,0.8-0.8,1.6-0.8,2.5c0,0.8,0.3,1.4,0.8,2
			c0.5,0.5,1.1,0.8,1.9,0.8c0.6,0,1.1-0.2,1.6-0.5s0.7-0.8,0.7-1.5c0-0.4-0.1-0.7-0.2-0.9c-0.1-0.2-0.2-0.4-0.4-0.5
			c-0.1-0.1-0.2-0.2-0.3-0.2s-0.2-0.1-0.2-0.1c0-0.2,0.1-0.4,0.4-0.6c0.2-0.2,0.5-0.4,0.6-0.5c0.5-0.3,1-0.5,1.6-0.7
			s1.1-0.3,1.7-0.3c0.6,0,1.2,0.1,1.8,0.2s1.1,0.3,1.5,0.6c0.4,0.3,0.8,0.7,1.1,1.2s0.4,1.1,0.4,1.8c0,0.8-0.2,1.4-0.6,1.8
			c-0.4,0.4-0.9,0.7-1.4,0.9c-0.6,0.2-1.2,0.3-1.9,0.4s-1.4,0.1-2,0.2c-1.1,0.1-2.1,0.3-3,0.5s-1.8,0.5-2.8,1.1s-1.7,1.3-2.2,2.3
			c-0.5,0.9-0.7,2-0.7,3.2c0,1.1,0.3,2.1,0.8,2.9c0.5,0.9,1.2,1.6,2.1,2.2c0.7,0.5,1.6,0.8,2.5,1s1.8,0.3,2.7,0.3
			c1.4,0,2.7-0.2,4-0.7s2.3-1.3,3-2.5c0.2,1.1,0.8,1.9,1.6,2.4s1.8,0.7,2.8,0.7c0.7,0,1.4-0.1,2.1-0.3c0.7-0.2,1.2-0.6,1.7-1.2
			s0.7-1.3,0.8-2.2c0.1-0.9,0.1-2.1,0.1-3.7c0-0.5-0.1-0.9-0.3-1.2c-0.2-0.3-0.6-0.5-1.2-0.5c-0.4,0-0.7,0.1-0.9,0.2
			c-0.2,0.2-0.3,0.4-0.4,0.6c-0.1,0.2-0.1,0.5-0.1,0.8v0.9c0,0.3,0,0.7,0,1.2s0,0.9-0.1,1.3s-0.2,0.8-0.5,1.1
			c-0.2,0.3-0.6,0.5-1,0.5c-0.5,0-0.9-0.2-1.1-0.5c-0.2-0.4-0.4-0.8-0.5-1.3s-0.1-1-0.1-1.5s0-1,0-1.3L347.2,19.1z M333.1,26
			c0.3-0.5,0.7-0.8,1.2-1.1c0.5-0.3,1-0.5,1.6-0.6s1.2-0.2,1.7-0.3c0.5-0.1,1-0.1,1.6-0.2c0.5-0.1,1.1-0.1,1.6-0.3
			c0.5-0.1,1-0.3,1.5-0.5s0.9-0.5,1.3-0.9c0,0.5-0.1,0.9-0.1,1.4s0,0.9,0,1.4c0,0.7-0.1,1.5-0.2,2.1c-0.1,0.7-0.4,1.4-0.9,2
			c-0.7,0.8-1.5,1.4-2.5,1.8c-1,0.3-2,0.5-3,0.5c-0.6,0-1.1-0.1-1.7-0.2s-1-0.3-1.4-0.6c-0.4-0.3-0.8-0.7-1-1.1
			c-0.3-0.4-0.4-1-0.4-1.7C332.6,27.1,332.8,26.5,333.1,26 M319.1,24.4c0.5,0.1,1,0.3,1.5,0.6c0.4,0.3,0.8,0.6,1.1,1s0.4,1,0.4,1.6
			s-0.1,1.1-0.4,1.6c-0.3,0.5-0.6,0.9-1.1,1.2c-0.5,0.4-1,0.7-1.7,0.8c-0.6,0.1-1.2,0.2-1.8,0.2c-0.4,0-0.9,0-1.4-0.1
			s-1.1-0.2-1.6-0.3c-0.5-0.2-1-0.3-1.5-0.6s-0.9-0.5-1.2-0.8c-0.2-0.2-0.4-0.4-0.5-0.6s-0.2-0.4-0.3-0.7c-0.1-0.3-0.1-0.6-0.2-1
			c0-0.4-0.1-0.9-0.2-1.5c0-0.5-0.2-0.9-0.4-1.1s-0.5-0.3-0.9-0.3c-0.5,0-0.9,0.1-1.1,0.4c-0.3,0.3-0.4,0.7-0.4,1.1
			c0,0.6,0.1,1.1,0.2,1.7c0.1,0.6,0.2,1.1,0.2,1.7s-0.1,1.2-0.2,1.8c-0.1,0.6-0.2,1.2-0.2,1.8c0,0.5,0.1,0.9,0.4,1.3
			c0.3,0.4,0.7,0.5,1.2,0.5s0.9-0.2,1.2-0.6s0.4-1,0.3-1.8c0.9,0.7,1.9,1.3,2.9,1.6c1.1,0.3,2.2,0.5,3.3,0.5s2.2-0.1,3.2-0.4
			c1.1-0.3,2-0.7,2.9-1.3c0.8-0.6,1.5-1.3,2-2.2c0.5-0.9,0.8-1.9,0.8-3.1c0-1.1-0.2-2-0.6-2.8c-0.4-0.7-0.9-1.4-1.7-1.8
			c-0.8-0.5-1.7-0.9-2.8-1.1c-1.1-0.3-2.4-0.5-3.8-0.7c-1.9-0.2-3.2-0.6-4-1c-0.8-0.5-1.2-1.2-1.2-2.3c0-0.6,0.1-1.2,0.4-1.7
			c0.3-0.5,0.7-0.9,1.1-1.2c0.5-0.3,1-0.5,1.5-0.7c0.6-0.2,1.1-0.2,1.7-0.2c0.7,0,1.4,0.2,2.1,0.5c0.7,0.3,1.4,0.7,1.9,1.1
			c0.2,0.1,0.4,0.3,0.5,0.4s0.2,0.3,0.3,0.5s0.1,0.4,0.1,0.6c0,0.3,0,0.6,0,1c0,1.4,0.5,2.1,1.4,2.1c0.5,0,0.9-0.2,1.1-0.5
			c0.3-0.3,0.4-0.7,0.4-1.1c0-0.5,0-1-0.1-1.6c-0.1-0.5-0.1-1.1-0.1-1.6s0-1.1,0.1-1.6s0.1-1,0.1-1.6c0-0.9-0.5-1.4-1.5-1.4
			c-0.6,0-1,0.2-1.2,0.5c-0.2,0.4-0.3,0.8-0.2,1.3c-0.7-0.6-1.5-1-2.4-1.2S316.9,11,316,11c-1.1,0-2.1,0.1-3.1,0.5
			c-1,0.3-1.9,0.7-2.7,1.3c-0.8,0.6-1.4,1.3-1.9,2.2c-0.5,0.9-0.7,1.9-0.7,3c0,1.3,0.3,2.4,0.9,3.2c0.6,0.8,1.3,1.4,2.3,1.8
			c0.9,0.4,1.9,0.7,3,0.9c1.1,0.2,2.2,0.3,3.2,0.5C318,24.2,318.5,24.3,319.1,24.4 M296.7,24.4c0.5,0.1,1,0.3,1.5,0.6
			c0.4,0.3,0.8,0.6,1.1,1s0.4,1,0.4,1.6s-0.1,1.1-0.4,1.6c-0.3,0.5-0.6,0.9-1.1,1.2c-0.5,0.4-1,0.7-1.7,0.8
			c-0.6,0.1-1.2,0.2-1.8,0.2c-0.4,0-0.9,0-1.4-0.1s-1.1-0.2-1.6-0.3c-0.5-0.2-1-0.3-1.5-0.6s-0.9-0.5-1.2-0.8
			c-0.2-0.2-0.4-0.4-0.5-0.6s-0.2-0.4-0.3-0.7c-0.1-0.3-0.1-0.6-0.2-1c0-0.4-0.1-0.9-0.2-1.5c0-0.5-0.2-0.9-0.4-1.1
			s-0.5-0.3-0.9-0.3c-0.5,0-0.9,0.1-1.1,0.4c-0.3,0.3-0.4,0.7-0.4,1.1c0,0.6,0.1,1.1,0.2,1.7c0.1,0.6,0.2,1.1,0.2,1.7
			s-0.1,1.2-0.2,1.8c-0.1,0.6-0.2,1.2-0.2,1.8c0,0.5,0.1,0.9,0.4,1.3c0.3,0.4,0.7,0.5,1.2,0.5s0.9-0.2,1.2-0.6s0.4-1,0.3-1.8
			c0.9,0.7,1.9,1.3,2.9,1.6c1.1,0.3,2.2,0.5,3.3,0.5s2.2-0.1,3.2-0.4c1.1-0.3,2-0.7,2.9-1.3c0.8-0.6,1.5-1.3,2-2.2
			c0.5-0.9,0.8-1.9,0.8-3.1c0-1.1-0.2-2-0.6-2.8c-0.4-0.7-0.9-1.4-1.7-1.8c-0.8-0.5-1.7-0.9-2.8-1.1c-1.1-0.3-2.4-0.5-3.8-0.7
			c-1.9-0.2-3.2-0.6-4-1c-0.8-0.5-1.2-1.2-1.2-2.3c0-0.6,0.1-1.2,0.4-1.7c0.3-0.5,0.7-0.9,1.1-1.2c0.5-0.3,1-0.5,1.5-0.7
			c0.6-0.2,1.1-0.2,1.7-0.2c0.7,0,1.4,0.2,2.1,0.5c0.7,0.3,1.4,0.7,1.9,1.1c0.2,0.1,0.4,0.3,0.5,0.4s0.2,0.3,0.3,0.5
			s0.1,0.4,0.2,0.6c0,0.3,0,0.6,0,1c0,1.4,0.5,2.1,1.4,2.1c0.5,0,0.9-0.2,1.1-0.5c0.3-0.3,0.4-0.7,0.4-1.1c0-0.5,0-1-0.1-1.6
			c-0.1-0.5-0.1-1.1-0.1-1.6s0-1.1,0.1-1.6s0.1-1,0.1-1.6c0-0.9-0.5-1.4-1.5-1.4c-0.6,0-1,0.2-1.2,0.5c-0.2,0.4-0.3,0.8-0.2,1.3
			c-0.7-0.6-1.5-1-2.4-1.2s-1.8-0.3-2.7-0.3c-1.1,0-2.1,0.1-3.1,0.5c-1,0.3-1.9,0.7-2.7,1.3c-0.8,0.6-1.4,1.3-1.9,2.2
			c-0.5,0.9-0.7,1.9-0.7,3c0,1.3,0.3,2.4,0.9,3.2c0.6,0.8,1.3,1.4,2.3,1.8c0.9,0.4,1.9,0.7,3,0.9c1.1,0.2,2.2,0.3,3.2,0.5
			C295.6,24.2,296.2,24.3,296.7,24.4 M274.8,27.4c0,1.3-0.1,2.3-0.3,2.8s-0.5,0.8-1,0.8c-0.4,0-0.7,0-1-0.1s-0.6-0.1-0.9-0.1
			c-0.4,0-0.8,0.1-1.1,0.4s-0.4,0.6-0.4,1s0.2,0.8,0.5,1.1c0.3,0.3,0.6,0.5,1,0.5c0.7,0,1.5-0.1,2.2-0.2c0.7-0.2,1.5-0.2,2.4-0.2
			s1.7,0.1,2.3,0.2c0.6,0.2,1.3,0.2,2.1,0.2c0.5,0,0.9-0.1,1.3-0.4c0.4-0.3,0.6-0.7,0.6-1.2c0-0.4-0.1-0.7-0.4-1
			c-0.3-0.3-0.6-0.4-1.1-0.4c-0.3,0-0.6,0-0.9,0.1c-0.3,0.1-0.6,0.2-0.8,0.2c-0.4,0-0.7-0.2-0.9-0.5s-0.3-0.8-0.3-1.3v-16
			c0-0.4-0.1-0.8-0.2-1.2c-0.2-0.4-0.5-0.6-1-0.6c-0.4,0-0.8,0.1-1.1,0.2c-0.3,0.2-0.8,0.2-1.3,0.2s-1-0.1-1.4-0.2
			c-0.4-0.2-0.9-0.2-1.5-0.2c-0.4,0-0.8,0.1-1.1,0.4s-0.5,0.7-0.5,1.2c0,0.4,0.1,0.7,0.4,1c0.3,0.3,0.6,0.4,1.1,0.4
			c0.3,0,0.6,0,0.9-0.1c0.3-0.1,0.7-0.1,1-0.1c0.2,0,0.4,0,0.6,0.1c0.2,0.1,0.3,0.3,0.4,0.5c0.1,0.3,0.2,0.6,0.2,1.1
			s0.1,1.1,0.1,1.8v9.6H274.8z M274,5c-0.5,0.5-0.7,1.1-0.7,1.7c0,0.7,0.2,1.3,0.7,1.8s1.1,0.7,1.7,0.7c0.7,0,1.3-0.2,1.8-0.7
			s0.7-1.1,0.7-1.8c0-0.7-0.2-1.3-0.7-1.7c-0.5-0.5-1.1-0.7-1.8-0.7C275.1,4.3,274.5,4.5,274,5 M261.3,27.4c0,1.2-0.1,2.1-0.2,2.7
			c-0.2,0.6-0.5,0.9-1,0.9c-0.4,0-0.7,0-1-0.1s-0.6-0.1-0.9-0.1c-0.4,0-0.8,0.1-1.1,0.4s-0.4,0.6-0.4,1c0,0.5,0.2,0.9,0.6,1.2
			c0.4,0.3,0.8,0.4,1.3,0.4c0.4,0,0.7,0,1.1-0.1c0.3,0,0.7-0.1,1-0.2s0.7-0.1,1.1-0.2c0.4,0,0.8-0.1,1.3-0.1s1,0,1.4,0.1
			c0.4,0,0.8,0.1,1.1,0.2s0.6,0.1,0.9,0.2c0.3,0,0.6,0.1,1,0.1c0.5,0,0.9-0.1,1.3-0.4c0.4-0.3,0.6-0.7,0.6-1.2c0-0.4-0.1-0.7-0.4-1
			c-0.3-0.3-0.6-0.4-1.1-0.4c-0.3,0-0.6,0-0.9,0.1c-0.3,0.1-0.7,0.1-1,0.1c-0.2,0-0.3,0-0.5-0.1s-0.3-0.3-0.4-0.5
			c-0.1-0.3-0.2-0.6-0.3-1.1s-0.1-1.1-0.1-1.9V5.7c0-0.8-0.1-1.3-0.2-1.7c-0.1-0.4-0.5-0.5-1-0.5c-0.4,0-0.8,0.1-1.1,0.2
			c-0.3,0.2-0.7,0.2-1.3,0.2c-0.4,0-0.9-0.1-1.3-0.2c-0.4-0.2-1-0.2-1.6-0.2c-0.5,0-1,0.1-1.4,0.4s-0.6,0.7-0.6,1.2
			c0,0.4,0.1,0.7,0.4,1c0.3,0.3,0.6,0.4,1.1,0.4s0.9,0,1.3-0.1c0.4-0.1,0.7-0.1,1.1-0.1c0.1,0,0.3,0,0.5,0.1c0.2,0,0.3,0.2,0.4,0.4
			c0.1,0.2,0.2,0.6,0.3,1.1s0.1,1.2,0.1,2.1L261.3,27.4L261.3,27.4z M234.3,35c0,1.4-0.1,2.3-0.3,2.8s-0.5,0.8-1,0.8
			c-0.4,0-0.7,0-1-0.1s-0.6-0.1-0.9-0.1c-0.4,0-0.8,0.1-1.1,0.4s-0.4,0.6-0.4,1c0,0.5,0.2,0.9,0.6,1.2c0.4,0.3,0.8,0.4,1.3,0.4
			c0.7,0,1.4-0.1,2.1-0.2c0.7-0.2,1.5-0.2,2.3-0.2c0.7,0,1.5,0.1,2.2,0.2c0.7,0.2,1.5,0.2,2.3,0.2c0.5,0,0.9-0.1,1.3-0.4
			c0.4-0.3,0.6-0.7,0.6-1.2c0-0.4-0.1-0.7-0.4-1c-0.3-0.3-0.6-0.4-1.1-0.4c-0.3,0-0.6,0-0.9,0.1c-0.3,0.1-0.7,0.1-1,0.1
			c-0.4,0-0.7-0.2-0.9-0.7c-0.2-0.4-0.3-1.4-0.3-2.9v-3.3h0.1c0.6,0.9,1.5,1.6,2.6,2s2.2,0.6,3.4,0.6c1.6,0,3.1-0.3,4.6-1
			c1.4-0.7,2.6-1.7,3.5-3.1c0.8-1.1,1.3-2.4,1.7-3.9c0.3-1.5,0.5-2.9,0.5-4.3c0-1.6-0.2-3.1-0.6-4.4c-0.4-1.4-1-2.6-1.8-3.6
			s-1.8-1.8-3.1-2.4c-1.2-0.6-2.7-0.9-4.4-0.9c-1.3,0-2.5,0.3-3.7,0.8s-2.1,1.4-2.8,2.5h-0.1v-1.4c0-0.5-0.1-0.8-0.3-1
			s-0.5-0.3-0.8-0.3c-0.4,0-0.8,0.1-1.2,0.2c-0.4,0.2-0.8,0.2-1.2,0.2s-0.8-0.1-1.2-0.2c-0.4-0.2-0.8-0.2-1.1-0.2
			c-0.5,0-0.9,0.1-1.3,0.4c-0.4,0.3-0.6,0.7-0.6,1.2c0,0.4,0.1,0.7,0.4,1c0.3,0.3,0.6,0.4,1.1,0.4c0.3,0,0.6,0,0.9-0.1
			c0.3-0.1,0.7-0.1,1-0.1c0.5,0,0.9,0.3,1,0.8c0.2,0.6,0.2,1.5,0.2,2.8V35H234.3z M247.1,14.5c0.8,0.5,1.5,1.2,1.9,2
			c0.5,0.8,0.8,1.8,1,2.8s0.3,2.1,0.3,3.1c0,1.1-0.1,2.3-0.3,3.3c-0.2,1.1-0.6,2-1.1,2.9c-0.5,0.8-1.2,1.5-2.1,2
			c-0.9,0.5-2,0.8-3.3,0.8c-1,0-1.9-0.2-2.7-0.5c-0.8-0.4-1.5-1-2.1-1.8s-0.9-1.7-1-2.6s-0.2-1.9-0.2-2.9c0-1.6,0.1-2.9,0.2-3.8
			c0.1-0.9,0.3-1.8,0.6-2.6c0.2-0.6,0.5-1.1,0.9-1.6c0.4-0.4,0.8-0.8,1.4-1.1s1.1-0.5,1.7-0.7c0.6-0.1,1.2-0.2,1.8-0.2
			C245.3,13.7,246.3,14,247.1,14.5 M220.3,27.4c0,1.4-0.1,2.3-0.2,2.9c-0.1,0.5-0.5,0.8-1,0.8c-0.4,0-0.7,0-1-0.1s-0.6-0.1-0.9-0.1
			c-0.4,0-0.8,0.1-1.1,0.4s-0.4,0.6-0.4,1c0,1.1,0.6,1.6,1.8,1.6c0.8,0,1.5-0.1,2.1-0.2c0.6-0.2,1.5-0.2,2.5-0.2s1.8,0.1,2.4,0.2
			c0.6,0.2,1.3,0.2,2,0.2c1.2,0,1.8-0.5,1.8-1.6c0-0.4-0.1-0.7-0.4-1c-0.3-0.3-0.6-0.4-1.1-0.4c-0.3,0-0.6,0-0.9,0.1
			c-0.3,0.1-0.7,0.1-1,0.1c-0.5,0-0.8-0.3-1-0.8c-0.2-0.6-0.3-1.5-0.3-2.8v-7.1c0-1.3-0.1-2.5-0.2-3.7c-0.1-1.1-0.6-2.2-1.5-3.3
			c-0.7-0.9-1.7-1.6-2.9-1.9s-2.4-0.5-3.5-0.5c-1.4,0-2.7,0.2-3.8,0.7c-1.2,0.5-2.2,1.3-3,2.5c-0.7-1.1-1.6-1.9-2.7-2.4
			c-1.1-0.5-2.3-0.8-3.6-0.8c-1.4,0-2.6,0.3-3.6,0.8s-1.9,1.3-2.8,2.4h-0.1c0-0.8,0-1.5-0.1-1.9s-0.4-0.7-0.8-0.7
			c-0.3,0-0.5,0-0.7,0.1c-0.2,0-0.4,0.1-0.6,0.2c-0.2,0.1-0.4,0.1-0.6,0.2c-0.2,0-0.5,0.1-0.8,0.1s-0.5,0-0.7-0.1
			c-0.2,0-0.4-0.1-0.5-0.2c-0.2-0.1-0.3-0.1-0.5-0.2c-0.2,0-0.4-0.1-0.6-0.1c-0.4,0-0.7,0.2-1.1,0.5c-0.3,0.3-0.5,0.7-0.5,1.1
			s0.1,0.7,0.4,1c0.3,0.3,0.6,0.4,1.1,0.4c0.3,0,0.6,0,0.9-0.1c0.3-0.1,0.7-0.1,1-0.1c0.5,0,0.8,0.2,1,0.7s0.3,1.5,0.3,2.9v9.5
			c0,1.4-0.1,2.3-0.2,2.9c-0.1,0.5-0.5,0.8-1,0.8c-0.4,0-0.7,0-1-0.1S190.3,31,190,31c-0.4,0-0.8,0.1-1.1,0.4s-0.4,0.6-0.4,1
			c0,1.1,0.6,1.6,1.8,1.6c0.8,0,1.5-0.1,2.1-0.2c0.6-0.2,1.5-0.2,2.5-0.2s1.8,0.1,2.4,0.2c0.6,0.2,1.3,0.2,2,0.2
			c1.2,0,1.8-0.5,1.8-1.6c0-0.4-0.1-0.7-0.4-1c-0.3-0.3-0.6-0.4-1.1-0.4c-0.3,0-0.6,0-0.9,0.1c-0.3,0.1-0.7,0.1-1,0.1
			c-0.5,0-0.8-0.3-1-0.8c-0.2-0.6-0.3-1.5-0.3-2.8v-5.1c0-0.9,0-1.7,0-2.3c0-0.6,0.1-1.1,0.2-1.5s0.2-0.8,0.3-1.1
			c0.1-0.3,0.3-0.7,0.5-1.1c0.5-0.9,1.2-1.5,2-1.9c0.9-0.4,1.8-0.6,2.8-0.6c0.5,0,1,0.1,1.5,0.2c0.5,0.2,0.9,0.4,1.2,0.6
			c0.4,0.3,0.7,0.6,0.9,0.9c0.3,0.3,0.4,0.7,0.6,1c0.1,0.5,0.2,1.1,0.3,1.8c0,0.7,0,1.6,0,2.6v6.5c0,1.4-0.1,2.3-0.2,2.9
			c-0.1,0.5-0.5,0.8-1,0.8c-0.4,0-0.7,0-1-0.1s-0.6-0.1-0.9-0.1c-0.4,0-0.8,0.1-1.1,0.4s-0.4,0.6-0.4,1c0,1.1,0.6,1.6,1.8,1.6
			c0.8,0,1.5-0.1,2.1-0.2c0.6-0.2,1.5-0.2,2.5-0.2s1.8,0.1,2.4,0.2c0.6,0.2,1.3,0.2,2,0.2c1.2,0,1.8-0.5,1.8-1.6
			c0-0.4-0.1-0.7-0.4-1c-0.3-0.3-0.6-0.4-1.1-0.4c-0.3,0-0.6,0-0.9,0.1c-0.3,0.1-0.7,0.1-1,0.1c-0.5,0-0.8-0.3-1-0.8
			c-0.2-0.6-0.3-1.5-0.3-2.8v-4.9c0-0.9,0-1.7,0.1-2.3c0-0.6,0.1-1.2,0.2-1.6c0.1-0.4,0.1-0.8,0.2-1.2c0.1-0.3,0.2-0.6,0.3-0.9
			c0.4-0.9,1-1.5,1.8-2s1.7-0.7,2.6-0.7c1,0,1.9,0.2,2.8,0.7c0.8,0.5,1.4,1.2,1.8,2.1c0.2,0.5,0.3,1.2,0.4,2c0.1,0.8,0.1,2,0.1,3.5
			L220.3,27.4L220.3,27.4z M184,23.1c0.5,0,0.9,0,1.2-0.1c0.3,0,0.5-0.1,0.6-0.3c0.1-0.2,0.2-0.4,0.2-0.7s0-0.7,0-1.3
			c0-1.4-0.2-2.8-0.7-4s-1.1-2.3-2-3.1c-0.9-0.9-1.9-1.6-3.1-2.1c-1.2-0.5-2.5-0.8-4-0.8s-3,0.3-4.4,1c-1.4,0.6-2.6,1.6-3.5,2.8
			c-0.9,1.2-1.6,2.5-2,4s-0.6,2.9-0.6,4.4c0,1.6,0.2,3.1,0.6,4.5c0.4,1.4,1.1,2.6,1.9,3.6c0.9,1,1.9,1.8,3.2,2.4s2.8,0.9,4.5,0.9
			c1.2,0,2.5-0.2,3.7-0.6c1.3-0.4,2.4-1,3.3-1.9c0.6-0.6,1.2-1.3,1.7-2.2c0.5-0.9,0.8-1.8,0.8-2.7c0-0.5-0.2-0.9-0.5-1.2
			c-0.3-0.3-0.7-0.5-1.2-0.5c-0.6,0-1,0.2-1.1,0.6c-0.2,0.4-0.4,0.8-0.5,1.3c-0.4,1.4-1.1,2.5-2.2,3.2c-1,0.7-2.3,1.1-3.8,1.1
			c-1.2,0-2.2-0.2-3.1-0.7c-0.9-0.5-1.6-1.1-2.2-1.8c-0.6-0.8-1-1.7-1.3-2.7s-0.4-2.1-0.3-3.2H184V23.1z M169.8,20
			c0.1-0.9,0.3-1.7,0.6-2.5s0.8-1.4,1.4-2c0.6-0.5,1.3-1,2-1.3c0.8-0.3,1.6-0.5,2.5-0.5s1.8,0.2,2.5,0.5s1.4,0.8,1.9,1.3
			c0.5,0.6,0.9,1.2,1.2,2s0.4,1.6,0.5,2.5H169.8z M148,27.4c0,0.7,0,1.4-0.1,1.8c0,0.5-0.1,0.8-0.2,1.1s-0.2,0.4-0.4,0.5
			s-0.4,0.2-0.6,0.2c-0.4,0-0.7,0-1-0.1s-0.6-0.1-0.9-0.1c-0.4,0-0.8,0.1-1.1,0.4s-0.4,0.6-0.4,1c0,0.5,0.2,0.9,0.6,1.2
			c0.4,0.3,0.8,0.4,1.3,0.4c0.4,0,0.8,0,1.2-0.1c0.4,0,0.7-0.1,1.1-0.2c0.3-0.1,0.7-0.1,1.1-0.2c0.4,0,0.8-0.1,1.2-0.1
			c0.9,0,1.7,0.1,2.3,0.2c0.7,0.2,1.4,0.2,2.1,0.2c0.5,0,0.9-0.1,1.3-0.4c0.4-0.3,0.6-0.7,0.6-1.2c0-0.4-0.1-0.7-0.4-1
			c-0.3-0.3-0.6-0.4-1.1-0.4c-0.3,0-0.6,0-0.9,0.1c-0.3,0.1-0.7,0.1-1,0.1c-0.2,0-0.4,0-0.5-0.1c-0.2-0.1-0.3-0.3-0.4-0.5
			c-0.1-0.3-0.2-0.6-0.3-1.1s-0.1-1.1-0.1-1.9v-5.5c0-1.5,0.1-2.8,0.4-3.9c0.3-1,0.6-1.9,1.1-2.5s1-1.1,1.7-1.3
			c0.7-0.3,1.4-0.4,2.2-0.4c0.4,0,0.9,0.1,1.3,0.2c0.5,0.1,0.9,0.3,1.2,0.6c0.4,0.3,0.7,0.6,0.9,0.9c0.2,0.4,0.4,0.8,0.4,1.3
			c0,0.3-0.1,0.6-0.3,1c-0.1,0-0.2-0.1-0.3-0.1s-0.2,0-0.3,0c-0.5,0-0.9,0.2-1.2,0.6s-0.5,0.8-0.5,1.3c0,0.6,0.2,1.1,0.7,1.5
			s1,0.6,1.6,0.6c0.7,0,1.2-0.1,1.7-0.4s0.8-0.6,1.1-1s0.5-0.9,0.6-1.4s0.2-1.1,0.2-1.6c0-1-0.2-1.8-0.6-2.6
			c-0.4-0.8-0.9-1.4-1.5-1.9s-1.4-0.9-2.2-1.2c-0.8-0.3-1.7-0.4-2.6-0.4c-1.3,0-2.5,0.3-3.5,0.8s-1.9,1.3-2.6,2.4h-0.1
			c0-0.9,0-1.5-0.2-2c-0.1-0.4-0.5-0.7-1.1-0.7c-0.4,0-0.8,0.1-1.1,0.2c-0.3,0.2-0.8,0.2-1.3,0.2s-1-0.1-1.3-0.2
			c-0.4-0.2-0.8-0.2-1.2-0.2c-0.5,0-0.9,0.1-1.3,0.4c-0.4,0.3-0.6,0.7-0.6,1.2c0,0.4,0.1,0.7,0.4,1c0.3,0.3,0.6,0.4,1.1,0.4
			c0.6,0,1,0,1.4-0.1s0.7-0.1,1.1-0.1c0.5,0,0.8,0.2,1,0.7s0.3,1.4,0.3,2.9L148,27.4L148,27.4z M102.7,27.4c0,1.4-0.1,2.3-0.2,2.9
			c-0.1,0.5-0.5,0.8-1,0.8c-0.4,0-0.7,0-1-0.1s-0.6-0.1-0.9-0.1c-0.4,0-0.8,0.1-1.1,0.4s-0.4,0.6-0.4,1c0,1.1,0.6,1.6,1.8,1.6
			c0.8,0,1.5-0.1,2.1-0.2c0.6-0.2,1.5-0.2,2.5-0.2s1.8,0.1,2.4,0.2c0.6,0.2,1.3,0.2,2,0.2c1.2,0,1.8-0.5,1.8-1.6
			c0-0.4-0.1-0.7-0.4-1c-0.3-0.3-0.6-0.4-1.1-0.4c-0.3,0-0.6,0-0.9,0.1c-0.3,0.1-0.7,0.1-1,0.1c-0.5,0-0.8-0.3-1-0.8
			c-0.2-0.6-0.3-1.5-0.3-2.8v-5.1c0-1.1,0-1.9,0.1-2.6s0.2-1.3,0.3-1.7c0.1-0.4,0.2-0.8,0.3-1c0.1-0.3,0.3-0.5,0.4-0.7
			c0.5-0.8,1.3-1.5,2.3-1.9s2-0.6,2.9-0.6s1.8,0.2,2.7,0.6s1.5,1,2,1.8c0.2,0.3,0.3,0.7,0.4,0.9c0.1,0.3,0.2,0.6,0.2,1
			s0.1,0.8,0.1,1.3s0,1.1,0,1.7v6.4c0,1.4-0.1,2.3-0.2,2.9c-0.1,0.5-0.5,0.8-1,0.8c-0.4,0-0.7,0-1-0.1s-0.6-0.1-0.9-0.1
			c-0.4,0-0.8,0.1-1.1,0.4s-0.4,0.6-0.4,1c0,1,0.6,1.5,1.8,1.5c0.8,0,1.5-0.1,2.1-0.2c0.6-0.2,1.5-0.2,2.5-0.2s1.8,0.1,2.4,0.2
			c0.6,0.2,1.3,0.2,2,0.2c1.2,0,1.8-0.5,1.8-1.5c0-0.4-0.1-0.7-0.4-1c-0.3-0.3-0.6-0.4-1.1-0.4c-0.3,0-0.6,0-0.9,0.1
			c-0.3,0.1-0.7,0.1-1,0.1c-0.5,0-0.8-0.3-1-0.8S121,29,121,27.7v-8c0-1.2-0.1-2.3-0.3-3.4s-0.8-2-1.7-2.9c-0.9-0.8-1.8-1.4-2.9-1.7
			c-1.1-0.4-2.2-0.6-3.3-0.6c-1.3,0-2.7,0.3-4,0.8s-2.4,1.3-3.2,2.4h-0.1c0-0.8,0-1.5-0.1-1.9s-0.4-0.7-0.8-0.7
			c-0.3,0-0.5,0-0.7,0.1c-0.2,0-0.4,0.1-0.6,0.2c-0.2,0.1-0.4,0.1-0.6,0.2c-0.2,0-0.5,0.1-0.8,0.1s-0.5,0-0.7-0.1
			c-0.2,0-0.4-0.1-0.5-0.2c-0.2-0.1-0.3-0.1-0.5-0.2c-0.2,0-0.4-0.1-0.6-0.1c-0.4,0-0.7,0.2-1.1,0.5c-0.3,0.3-0.5,0.7-0.5,1.1
			s0.1,0.7,0.4,1c0.3,0.3,0.6,0.4,1.1,0.4c0.3,0,0.6,0,0.9-0.1c0.3-0.1,0.7-0.1,1-0.1c0.5,0,0.8,0.2,1,0.7s0.3,1.5,0.3,2.9V27.4z
			 M78.1,22.1c0-1,0-1.6,0.1-1.9s0.2-0.5,0.3-0.7c0.3-0.2,0.6-0.3,1-0.3s1,0,1.7,0c1.4,0,2.3,0.1,2.8,0.4s0.7,0.8,0.7,1.5
			c0,0.5,0,1-0.1,1.4c-0.1,0.5-0.1,0.9-0.1,1.4c0,0.6,0.1,1,0.3,1.4c0.2,0.3,0.6,0.5,1.2,0.5c0.5,0,0.8-0.1,1.1-0.4s0.5-0.6,0.5-1.1
			c0-0.4,0-0.8-0.1-1.2c-0.1-0.4-0.1-0.9-0.2-1.4c-0.1-0.5-0.1-1-0.2-1.6c0-0.6-0.1-1.3,0-2c-0.1-1.5,0-2.8,0.2-3.9s0.3-1.9,0.3-2.5
			c0-0.5-0.1-1-0.4-1.4c-0.3-0.4-0.7-0.6-1.2-0.6s-0.9,0.2-1.2,0.5c-0.2,0.4-0.4,0.8-0.4,1.3s0,0.9,0.1,1.4s0.1,0.9,0.1,1.4
			c0,0.7-0.3,1.3-0.8,1.5c-0.5,0.3-1.5,0.4-2.9,0.4c-0.7,0-1.2,0-1.6,0c-0.4,0-0.7-0.1-0.9-0.3c-0.2-0.1-0.4-0.3-0.4-0.6
			c0-0.3,0-0.7,0-1.3v-3.5c0-0.5,0-1,0-1.3s0.1-0.6,0.1-0.9c0.1-0.2,0.1-0.4,0.2-0.5c0.1-0.1,0.2-0.3,0.4-0.4s0.4-0.2,0.6-0.3
			c0.2-0.1,0.5-0.2,0.9-0.2s0.8-0.1,1.3-0.1s1.2,0,2,0c1.3,0,2.4,0,3.2,0s1.5,0.1,2,0.2s0.8,0.2,1.1,0.3c0.2,0.1,0.4,0.3,0.6,0.4
			c0.2,0.3,0.4,0.5,0.5,0.8s0.2,0.6,0.3,1.1c0.1,0.4,0.1,0.9,0.1,1.5s0,1.3,0,2.1c0,1.2,0.1,2,0.3,2.5s0.6,0.7,1.3,0.7
			c0.5,0,0.9-0.2,1.2-0.5s0.5-0.7,0.5-1.2c0-0.7-0.1-1.4-0.2-2.1c-0.1-0.7-0.2-1.4-0.2-2.1c0-0.8,0.1-1.6,0.2-2.4
			c0.1-0.8,0.2-1.6,0.2-2.4S94.4,4.4,94,4.1c-0.4-0.3-1-0.5-1.7-0.5c-2.3,0-4.7,0.1-7,0.2C82.9,4,80.4,4,77.8,4
			c-1.6,0-3-0.1-4.1-0.2c-1.1-0.2-2.2-0.2-3.3-0.2c-0.5,0-0.9,0.1-1.3,0.4s-0.6,0.6-0.6,1.2c0,0.4,0.1,0.7,0.4,1s0.6,0.4,1,0.4
			c0.3,0,0.7,0,1-0.1s0.7-0.1,1-0.1C73,6.4,73.7,6.9,74,8c0.1,0.3,0.1,0.7,0.2,1.2c0,0.5,0,0.9,0,1.5v1.5v1.2V24v2.1
			c0,0.6,0,1.1,0,1.5s0,0.7-0.1,1c0,0.3-0.1,0.5-0.1,0.8c-0.3,1.1-1,1.6-2.1,1.6c-0.3,0-0.7,0-1-0.1s-0.7-0.1-1-0.1
			c-0.4,0-0.7,0.1-1,0.4s-0.4,0.6-0.4,1c0,0.5,0.2,0.9,0.5,1.1c0.3,0.3,0.8,0.4,1.4,0.4c1.1,0,2.1-0.1,3.3-0.2
			c1.1-0.2,2.5-0.2,4.1-0.2c2.6,0,5.1,0.1,7.5,0.2c2.4,0.2,4.7,0.2,7,0.2c1.9,0,2.8-0.7,2.8-1.9c0-0.7,0-1.4-0.1-2.1
			s-0.1-1.4-0.1-2.1s0-1.5,0.1-2.2s0.1-1.4,0.1-2.2c0-0.6-0.1-1-0.4-1.4c-0.2-0.4-0.7-0.6-1.3-0.6s-1,0.2-1.3,0.6
			c-0.2,0.4-0.4,0.9-0.4,1.4c0,0.7,0,1.3,0.1,1.9s0.1,1.3,0.1,1.9c0,0.8-0.1,1.5-0.3,2s-0.5,0.9-0.9,1.1c-0.4,0.3-1,0.4-1.6,0.5
			c-0.7,0.1-1.4,0.1-2.4,0.1h-5.1c-0.8,0-1.4,0-1.8-0.1c-0.5-0.1-0.8-0.2-1.1-0.3c-0.3-0.2-0.4-0.4-0.5-0.8
			c-0.1-0.3-0.1-0.8-0.2-1.4l-0.1-3v-3H78.1z M43.1,14.3c-0.6,0.6-0.8,1.2-0.8,2s0.3,1.4,0.8,2c0.6,0.5,1.2,0.8,2,0.8s1.4-0.3,2-0.8
			c0.5-0.5,0.8-1.2,0.8-2s-0.3-1.5-0.8-2c-0.6-0.6-1.2-0.8-2-0.8C44.3,13.5,43.6,13.8,43.1,14.3 M43.1,29c-0.6,0.6-0.8,1.2-0.8,2
			s0.3,1.5,0.8,2c0.6,0.6,1.2,0.8,2,0.8s1.4-0.3,2-0.8c0.5-0.5,0.8-1.2,0.8-2s-0.3-1.4-0.8-2c-0.6-0.6-1.2-0.8-2-0.8
			C44.3,28.2,43.6,28.5,43.1,29 M26.1,25.4c0-1-0.1-2-0.2-2.8s-0.4-1.5-0.8-2.2c-0.4-0.6-0.9-1.1-1.6-1.5s-1.6-0.6-2.7-0.8V18
			c1-0.2,2-0.4,2.8-0.8c0.8-0.3,1.6-0.8,2.1-1.4c0.6-0.6,1-1.3,1.3-2.1s0.5-1.8,0.5-2.9c0-1.2-0.3-2.4-0.8-3.5s-1.3-2-2.4-2.7
			c-0.9-0.6-2-1-3.2-1.1c-1.2-0.2-2.4-0.2-3.5-0.2c-1,0-2.1,0.1-3.4,0.2c-1.3,0.2-2.8,0.2-4.7,0.2c-1.1,0-2.2-0.1-3.3-0.2
			C5.1,3.3,3.9,3.3,2.6,3.3c-0.5,0-0.9,0.1-1.3,0.4S0.7,4.4,0.7,4.9c0,0.4,0.1,0.8,0.4,1c0.3,0.3,0.6,0.4,1,0.4c0.3,0,0.7,0,1-0.1
			s0.7-0.1,1-0.1c1.2,0,1.9,0.5,2.1,1.6C6.3,8,6.3,8.4,6.4,8.9c0,0.5,0,1,0,1.5v1.5v1.3v10.7v1.3v1.5c0,0.5,0,1,0,1.4
			c0,0.5-0.1,0.9-0.2,1.2c-0.3,1.1-1,1.6-2.1,1.6c-0.3,0-0.7,0-1-0.1s-0.7-0.1-1-0.1c-0.4,0-0.7,0.1-1,0.4s-0.4,0.6-0.4,1
			c0,0.5,0.2,0.9,0.6,1.2c0.4,0.3,0.8,0.4,1.3,0.4c1.1,0,2-0.1,2.9-0.2c0.9-0.2,1.8-0.2,2.9-0.2s2.1,0.1,3.1,0.2
			c0.9,0.2,1.9,0.2,2.8,0.2c0.5,0,0.9-0.1,1.3-0.4s0.6-0.6,0.6-1.2c0-0.4-0.1-0.7-0.4-1s-0.6-0.4-1-0.4c-0.3,0-0.7,0-1,0.1
			s-0.7,0.1-1,0.1c-1.2,0-1.9-0.5-2.1-1.6c0-0.1-0.1-0.3-0.1-0.6c0-0.2-0.1-0.5-0.1-0.9s0-0.9,0-1.5s0-1.4,0-2.4v-2.2
			c0-0.9,0.3-1.5,1-1.7c0.6-0.2,1.7-0.4,3.2-0.4c1.1,0,1.9,0,2.6,0s1.2,0.1,1.6,0.1c0.4,0.1,0.8,0.1,1,0.2c0.3,0.1,0.5,0.2,0.8,0.4
			c0.4,0.3,0.7,0.6,0.9,0.9c0.2,0.3,0.4,0.7,0.5,1.1s0.2,0.8,0.2,1.3c0,0.4,0,0.9,0,1.3v2.7c0,0.8,0.1,1.5,0.2,2.2s0.4,1.3,0.7,1.8
			c0.3,0.5,0.8,0.9,1.4,1.3c0.6,0.3,1.3,0.5,2.2,0.5c0.8,0,1.5,0,2.1,0.1c0.5,0,1.1,0.1,1.8,0.1c0.5,0,0.9-0.2,1.2-0.5
			c0.3-0.3,0.5-0.7,0.5-1.2s-0.2-0.9-0.5-1.2c-0.3-0.3-0.7-0.4-1.2-0.4c-0.3,0-0.7,0-1,0.1s-0.7,0.1-1,0.1c-0.6,0-1.1-0.1-1.4-0.2
			s-0.6-0.4-0.7-0.6s-0.3-0.6-0.3-1s0-0.8,0-1.3v-2H26.1z M10.6,8.4c0-0.4,0.1-0.8,0.3-1.1c0.2-0.3,0.5-0.6,1-0.8
			C12.4,6.3,13,6.1,13.8,6s1.8-0.2,3-0.2c1,0,1.9,0.1,2.7,0.2c0.8,0.2,1.6,0.4,2.2,0.9c0.6,0.4,1.1,0.9,1.5,1.6s0.5,1.5,0.5,2.6
			c0,0.9-0.2,1.8-0.5,2.6c-0.3,0.8-0.9,1.5-1.7,1.9c-0.8,0.4-1.8,0.7-2.9,0.8s-2.1,0.1-3.1,0.1h-3.6c-0.6,0-1-0.1-1.1-0.2
			s-0.2-0.4-0.2-1L10.6,8.4L10.6,8.4z"/>
	</g>
</g>
</svg>
