<svg width="334.644" height="334.644" version="1.1" xmlns="http://www.w3.org/2000/svg">
	<path d="M173.081,300.776c0.428,0,0.687-0.033,0.781-0.1s0.141-0.314,0.141-0.742v-3.566
		c0-1.575-0.014-2.838-0.04-3.786c-0.028-0.948-0.107-1.683-0.24-2.204c-0.135-0.521-0.349-0.86-0.642-1.021
		c-0.293-0.161-0.708-0.24-1.242-0.24c-0.427,0-0.815,0.026-1.162,0.079c-0.347,0.055-0.708,0.081-1.081,0.081
		c-0.188,0-0.381-0.04-0.582-0.12c-0.199-0.081-0.3-0.227-0.3-0.441c0-0.186,0.101-0.32,0.3-0.4c0.201-0.08,0.394-0.12,0.582-0.12
		c0.613,0,1.334,0.047,2.162,0.14c0.829,0.094,1.777,0.141,2.846,0.141c1.041,0,1.976-0.047,2.804-0.141
		c0.829-0.093,1.55-0.14,2.164-0.14c0.186,0,0.381,0.04,0.58,0.12c0.201,0.08,0.302,0.215,0.302,0.4c0,0.215-0.101,0.36-0.302,0.441
		c-0.199,0.08-0.394,0.12-0.58,0.12c-0.374,0-0.736-0.026-1.083-0.081c-0.346-0.053-0.734-0.079-1.16-0.079
		c-0.535,0-0.95,0.079-1.243,0.24c-0.294,0.16-0.507,0.5-0.64,1.021c-0.135,0.521-0.214,1.256-0.242,2.204
		c-0.026,0.948-0.039,2.211-0.039,3.786v11.298c0,1.576,0.013,2.838,0.039,3.787c0.028,0.947,0.107,1.682,0.242,2.203
		c0.133,0.52,0.346,0.861,0.64,1.021c0.293,0.16,0.708,0.24,1.243,0.24c0.426,0,0.814-0.025,1.16-0.08
		c0.347-0.053,0.709-0.08,1.083-0.08c0.186,0,0.381,0.039,0.58,0.121c0.201,0.078,0.302,0.227,0.302,0.441
		c0,0.186-0.101,0.318-0.302,0.398c-0.199,0.08-0.394,0.121-0.58,0.121c-0.614,0-1.335-0.047-2.164-0.141
		c-0.828-0.092-1.763-0.141-2.804-0.141c-1.069,0-2.017,0.049-2.846,0.141c-0.828,0.094-1.549,0.141-2.162,0.141
		c-0.188,0-0.381-0.041-0.582-0.121c-0.199-0.08-0.3-0.213-0.3-0.398c0-0.215,0.101-0.363,0.3-0.441
		c0.201-0.082,0.394-0.121,0.582-0.121c0.373,0,0.734,0.027,1.081,0.08c0.347,0.055,0.735,0.08,1.162,0.08
		c0.534,0,0.949-0.08,1.242-0.24c0.293-0.16,0.507-0.502,0.642-1.021c0.133-0.521,0.212-1.256,0.24-2.203
		c0.026-0.949,0.04-2.211,0.04-3.787v-5.488c0-0.215-0.027-0.361-0.081-0.439c-0.053-0.082-0.186-0.123-0.4-0.123h-15.786
		c-0.294,0-0.467,0.055-0.521,0.162c-0.053,0.105-0.079,0.307-0.079,0.6v5.289c0,1.576,0.013,2.838,0.039,3.787
		c0.027,0.947,0.107,1.682,0.241,2.203c0.133,0.52,0.347,0.861,0.64,1.021c0.294,0.16,0.709,0.24,1.243,0.24
		c0.427,0,0.814-0.025,1.161-0.08c0.347-0.053,0.708-0.08,1.082-0.08c0.187,0,0.381,0.039,0.581,0.121
		c0.201,0.078,0.301,0.227,0.301,0.441c0,0.186-0.1,0.318-0.301,0.398c-0.2,0.08-0.394,0.121-0.581,0.121
		c-0.614,0-1.335-0.047-2.163-0.141c-0.828-0.092-1.763-0.141-2.804-0.141c-1.07,0-2.018,0.049-2.846,0.141
		c-0.828,0.094-1.549,0.141-2.162,0.141c-0.188,0-0.381-0.041-0.582-0.121c-0.2-0.08-0.3-0.213-0.3-0.398
		c0-0.215,0.1-0.363,0.3-0.441c0.201-0.082,0.394-0.121,0.582-0.121c0.373,0,0.734,0.027,1.081,0.08
		c0.347,0.055,0.734,0.08,1.162,0.08c0.533,0,0.948-0.08,1.241-0.24c0.294-0.16,0.508-0.502,0.642-1.021
		c0.133-0.521,0.213-1.256,0.24-2.203c0.026-0.949,0.041-2.211,0.041-3.787v-11.298c0-1.575-0.015-2.838-0.041-3.786
		c-0.027-0.948-0.107-1.683-0.24-2.204c-0.134-0.521-0.348-0.86-0.642-1.021c-0.293-0.161-0.708-0.24-1.241-0.24
		c-0.428,0-0.815,0.026-1.162,0.079c-0.347,0.055-0.708,0.081-1.081,0.081c-0.188,0-0.381-0.04-0.582-0.12
		c-0.2-0.081-0.3-0.227-0.3-0.441c0-0.186,0.1-0.32,0.3-0.4c0.201-0.08,0.394-0.12,0.582-0.12c0.613,0,1.334,0.047,2.162,0.14
		c0.828,0.094,1.776,0.141,2.846,0.141c1.041,0,1.976-0.047,2.804-0.141c0.828-0.093,1.549-0.14,2.163-0.14
		c0.187,0,0.381,0.04,0.581,0.12c0.201,0.08,0.301,0.215,0.301,0.4c0,0.215-0.1,0.36-0.301,0.441c-0.2,0.08-0.394,0.12-0.581,0.12
		c-0.374,0-0.735-0.026-1.082-0.081c-0.347-0.053-0.734-0.079-1.161-0.079c-0.534,0-0.949,0.079-1.243,0.24
		c-0.293,0.16-0.507,0.5-0.64,1.021c-0.134,0.521-0.214,1.256-0.241,2.204c-0.026,0.948-0.039,2.211-0.039,3.786v3.525
		c0,0.457,0.052,0.717,0.16,0.783c0.106,0.066,0.386,0.1,0.841,0.1H173.081z"/>
	<path d="M47.603,249.47c-1.624,0-3.047-0.216-4.27-0.643c-1.225-0.426-2.242-0.981-3.053-1.663
		c-0.811-0.68-1.424-1.455-1.836-2.323c-0.413-0.867-0.619-1.742-0.619-2.624c0-0.934,0.253-1.724,0.762-2.363
		c0.506-0.643,1.122-0.962,1.843-0.962c0.426,0,0.794,0.127,1.102,0.38c0.306,0.255,0.46,0.582,0.46,0.981
		c0,0.321-0.107,0.608-0.32,0.861c-0.214,0.255-0.495,0.381-0.842,0.381c-0.16,0-0.347-0.06-0.56-0.18
		c-0.214-0.12-0.415-0.18-0.602-0.18c-0.24,0-0.447,0.134-0.621,0.399c-0.173,0.269-0.26,0.628-0.26,1.082
		c0,0.828,0.233,1.604,0.701,2.324c0.467,0.721,1.088,1.35,1.863,1.883c0.774,0.535,1.676,0.956,2.705,1.263
		c1.027,0.307,2.089,0.461,3.184,0.461c1.737,0,3.226-0.247,4.467-0.741c1.243-0.494,2.258-1.143,3.046-1.943
		c0.787-0.802,1.363-1.723,1.723-2.765c0.361-1.042,0.541-2.11,0.541-3.206c0-0.88-0.113-1.763-0.341-2.645
		c-0.226-0.881-0.62-1.662-1.181-2.343c-0.562-0.681-1.316-1.235-2.264-1.663c-0.948-0.427-2.131-0.642-3.546-0.642
		c-0.722,0-1.336,0.055-1.843,0.161c-0.508,0.106-0.929,0.22-1.263,0.34c-0.334,0.121-0.594,0.228-0.781,0.321
		c-0.186,0.094-0.32,0.141-0.4,0.141c-0.24,0-0.36-0.12-0.36-0.361c0-0.105,0.045-0.213,0.139-0.32
		c0.094-0.106,0.208-0.227,0.341-0.36l9.496-9.216c0.133-0.133,0.26-0.267,0.381-0.4c0.119-0.133,0.179-0.253,0.179-0.36
		c0-0.106-0.2-0.16-0.602-0.16H41.635c-0.776,0-1.286,0.101-1.526,0.3c-0.241,0.201-0.361,0.742-0.361,1.623
		c0,0.721,0.039,1.51,0.12,2.363c0.08,0.856,0.12,1.657,0.12,2.404c0,0.374-0.065,0.621-0.193,0.741
		c-0.129,0.121-0.258,0.181-0.387,0.181c-0.128,0-0.244-0.053-0.347-0.16c-0.103-0.106-0.155-0.28-0.155-0.521
		c0-0.347,0.027-0.82,0.081-1.422c0.053-0.602,0.079-1.168,0.079-1.703c0-0.507-0.026-1.094-0.079-1.762
		c-0.054-0.668-0.081-1.296-0.081-1.884c0-0.721,0.333-1.083,1.001-1.083h15.386c0.533,0,0.955,0.034,1.263,0.103
		c0.306,0.067,0.46,0.261,0.46,0.582c0,0.215-0.088,0.435-0.261,0.664c-0.174,0.226-0.368,0.447-0.58,0.662l-8.573,8.397v0.081
		c0.213-0.051,0.459-0.095,0.738-0.134c0.279-0.038,0.686-0.058,1.218-0.058c1.649,0,3.025,0.247,4.129,0.74
		c1.105,0.493,1.989,1.125,2.655,1.899c0.665,0.771,1.137,1.631,1.416,2.577c0.279,0.947,0.42,1.886,0.42,2.817
		c0,1.119-0.194,2.254-0.579,3.399c-0.386,1.145-0.998,2.185-1.836,3.117s-1.929,1.692-3.273,2.279
		C51.147,249.175,49.517,249.47,47.603,249.47"/>
	<path d="M91.253,272.439c0.08-0.587,0.167-0.974,0.26-1.162c0.093-0.187,0.327-0.28,0.7-0.28h13.354
		c0.319,0,0.533,0.114,0.639,0.341c0.107,0.228,0.173,0.567,0.199,1.021c0.054,0.587,0.167,1.149,0.341,1.684
		c0.172,0.534,0.259,1.016,0.259,1.441c0,0.161-0.04,0.3-0.12,0.42c-0.081,0.122-0.186,0.183-0.319,0.183
		c-0.266,0-0.427-0.136-0.48-0.401c-0.054-0.267-0.133-0.894-0.24-1.883c-0.08-0.856-0.294-1.383-0.639-1.583
		c-0.347-0.2-0.934-0.3-1.76-0.3H93.173c-0.347,0-0.574,0.06-0.681,0.18c-0.106,0.12-0.187,0.434-0.24,0.941l-1.359,10.816
		c0,0.135,0.053,0.201,0.16,0.201c0.106,0,0.273-0.126,0.5-0.381c0.227-0.253,0.392-0.434,0.499-0.541
		c0.373-0.373,0.826-0.721,1.359-1.041c0.534-0.32,1.121-0.594,1.76-0.821c0.64-0.227,1.32-0.407,2.04-0.542
		c0.719-0.133,1.438-0.199,2.158-0.199c1.44,0,2.745,0.207,3.918,0.621c1.172,0.414,2.173,0.995,3,1.742
		c0.825,0.749,1.464,1.657,1.918,2.725c0.453,1.068,0.68,2.258,0.68,3.565c0,1.282-0.221,2.519-0.66,3.707
		c-0.44,1.188-1.093,2.229-1.959,3.125c-0.867,0.895-1.954,1.616-3.26,2.164c-1.305,0.546-2.811,0.821-4.517,0.821
		c-1.307,0-2.56-0.176-3.76-0.521c-1.199-0.347-2.253-0.827-3.159-1.443c-0.907-0.613-1.625-1.36-2.159-2.242
		c-0.533-0.883-0.799-1.869-0.799-2.965c0-0.374,0.046-0.756,0.14-1.143c0.093-0.386,0.246-0.734,0.461-1.042
		c0.213-0.307,0.48-0.561,0.801-0.761s0.707-0.301,1.162-0.301c0.533,0,0.921,0.147,1.162,0.44c0.24,0.295,0.36,0.602,0.36,0.922
		c0,0.4-0.127,0.708-0.381,0.921c-0.254,0.216-0.527,0.321-0.82,0.321c-0.135,0-0.315-0.073-0.541-0.221
		c-0.227-0.146-0.422-0.22-0.582-0.22c-0.507,0-0.76,0.428-0.76,1.281c0,0.695,0.186,1.402,0.56,2.123
		c0.373,0.722,0.921,1.37,1.642,1.943c0.722,0.576,1.616,1.049,2.686,1.423c1.067,0.375,2.296,0.562,3.685,0.562
		c1.709,0,3.171-0.254,4.388-0.763c1.214-0.506,2.203-1.167,2.964-1.981c0.762-0.815,1.315-1.744,1.663-2.784
		c0.347-1.042,0.52-2.099,0.52-3.166c0-1.442-0.233-2.664-0.7-3.666c-0.468-1.002-1.089-1.823-1.863-2.464
		c-0.775-0.642-1.657-1.103-2.644-1.382c-0.989-0.28-2.003-0.422-3.045-0.422c-0.962,0-1.851,0.101-2.665,0.302
		c-0.815,0.199-1.543,0.454-2.183,0.76c-0.642,0.308-1.196,0.642-1.663,1.002c-0.468,0.361-0.835,0.702-1.102,1.021
		c-0.375,0.454-0.648,0.729-0.822,0.821c-0.173,0.094-0.327,0.142-0.46,0.142c-0.24,0-0.435-0.073-0.581-0.222
		c-0.147-0.146-0.194-0.366-0.14-0.661L91.253,272.439z"/>
	<path fill="none" stroke="#000000" stroke-width="1.25" d="M334.02,334.019
		H0.625V0.625H334.02V334.019z M334.02,167.322c0,92.064-74.633,166.696-166.697,166.696S0.625,259.386,0.625,167.322
		S75.258,0.625,167.322,0.625S334.02,75.258,334.02,167.322z M110.382,76.396V224.15H258.08 M129.38,57.453v147.754h147.698
		 M148.379,38.51v147.755h147.698 M167.378,19.568v147.754h147.698 M83.35,311.29l-13.124,22.729 M22.293,249.579l-21.669,12.51
		 M23.354,83.349L0.625,70.226 M85.066,22.293L72.555,0.624 M251.294,23.354l13.123-22.73 M312.35,85.066l21.669-12.511
		 M311.29,251.294l22.729,13.123 M249.578,312.351l12.51,21.668 M0.625,334.019l49.249-49.25 M284.769,49.876L334.02,0.625
		 M0.625,0.625l49.249,49.249 M284.769,284.768l49.251,49.25"/>
</svg>
