<?xml version="1.0" encoding="utf-8"?>
<!-- Generator: Adobe Illustrator 19.2.1, SVG Export Plug-In . SVG Version: 6.00 Build 0)  -->
<svg version="1.1" id="Calque_1" xmlns="http://www.w3.org/2000/svg" xmlns:xlink="http://www.w3.org/1999/xlink" x="0px" y="0px"
	 viewBox="0 0 428.6 97" style="enable-background:new 0 0 428.6 97;" xml:space="preserve">
<style type="text/css">
	.st0{clip-path:url(#SVGID_2_);}
	.st1{clip-path:url(#SVGID_4_);}
</style>
<g id="XMLID_2_">
	<g>
		<defs>
			<rect id="SVGID_1_" x="1.7" y="2.8" width="423.5" height="90.8"/>
		</defs>
		<clipPath id="SVGID_2_">
			<use xlink:href="#SVGID_1_"  style="overflow:visible;"/>
		</clipPath>
		<path id="XMLID_10_" class="st0" d="M403.1,65.3c0.2,0.6,0.5,1.1,0.9,1.5s0.9,0.8,1.4,1s1.1,0.4,1.8,0.4c0.4,0,0.9-0.1,1.3-0.2
			c0.4-0.1,0.8-0.3,1.2-0.6c0.3-0.2,0.6-0.6,0.8-0.9c0.2-0.4,0.3-0.8,0.3-1.3s-0.2-1-0.5-1.4s-0.8-0.6-1.4-0.6
			c-0.5,0-0.9,0.1-1.2,0.4c-0.4,0.2-0.5,0.6-0.5,1.1v0.4c-0.8-0.4-1.1-1-1.1-1.9c0-1,0.3-1.8,0.9-2.5c0.6-0.7,1.3-1.3,2.1-1.7
			c0.7-0.4,1.5-0.7,2.4-0.9c0.9-0.2,1.7-0.3,2.5-0.3s1.7,0.1,2.6,0.3c0.9,0.2,1.7,0.5,2.3,0.9c0.7,0.4,1.3,1,1.7,1.7
			s0.7,1.5,0.7,2.5c0,0.8-0.1,1.5-0.4,2.1c-0.3,0.6-0.7,1.1-1.2,1.5s-1,0.8-1.6,1.1c-0.6,0.3-1.2,0.7-1.9,1
			c-0.8,0.4-1.6,0.9-2.3,1.3c-0.7,0.5-1.4,1-1.9,1.6c-0.6,0.6-1,1.2-1.3,2s-0.5,1.6-0.5,2.6c0,0.7,0.1,1.2,0.4,1.6
			c0.3,0.4,0.8,0.6,1.5,0.6c0.8,0,1.2-0.2,1.4-0.7s0.2-1,0.2-1.6c0-0.7,0.1-1.3,0.4-1.8c0.2-0.5,0.6-0.9,1-1.3
			c0.4-0.3,0.9-0.7,1.5-0.9c0.5-0.3,1.1-0.5,1.7-0.8c0.9-0.4,1.8-0.8,2.6-1.3s1.5-1,2.1-1.7c0.6-0.6,1.1-1.4,1.5-2.2
			c0.4-0.8,0.5-1.8,0.5-2.9c0-1.4-0.3-2.6-1-3.8s-1.6-2.1-2.7-2.8c-1-0.6-2.2-1.1-3.5-1.4S415.2,55,414,55c-1.3,0-2.6,0.2-4,0.5
			s-2.6,0.8-3.7,1.6c-1.1,0.8-2,1.7-2.6,2.8s-1,2.3-1,3.7C402.8,64.1,402.9,64.7,403.1,65.3 M410.6,81.1c-0.6,0.6-0.8,1.2-0.8,2
			s0.3,1.4,0.8,2c0.6,0.6,1.2,0.8,2,0.8s1.4-0.3,2-0.8c0.5-0.6,0.8-1.2,0.8-2s-0.3-1.4-0.8-2c-0.6-0.6-1.2-0.8-2-0.8
			S411.1,80.6,410.6,81.1 M368.2,79.5c0,0.8,0,1.4-0.1,1.8c0,0.5-0.1,0.8-0.2,1.1c-0.1,0.3-0.2,0.4-0.4,0.5s-0.4,0.2-0.6,0.2
			c-0.4,0-0.7,0-1-0.1s-0.6-0.1-1-0.1s-0.8,0.1-1.1,0.4s-0.4,0.6-0.4,1c0,0.5,0.2,0.9,0.6,1.2c0.4,0.3,0.9,0.4,1.3,0.4
			c0.4,0,0.8,0,1.2-0.1c0.4,0,0.7-0.1,1.1-0.2c0.3-0.1,0.7-0.1,1.1-0.2c0.4,0,0.8-0.1,1.2-0.1c0.9,0,1.7,0.1,2.3,0.2
			c0.7,0.2,1.4,0.2,2.1,0.2c0.5,0,0.9-0.1,1.3-0.4c0.4-0.3,0.6-0.7,0.6-1.2c0-0.4-0.1-0.7-0.4-1c-0.3-0.3-0.6-0.4-1.1-0.4
			c-0.3,0-0.6,0-1,0.1c-0.3,0.1-0.7,0.1-1,0.1c-0.2,0-0.4,0-0.5-0.1c-0.2-0.1-0.3-0.3-0.4-0.5c-0.1-0.3-0.2-0.6-0.3-1.1
			s-0.1-1.1-0.1-1.9v-5.8c0-1.6,0.1-2.9,0.4-3.9c0.3-1.1,0.6-1.9,1.1-2.5s1.1-1.1,1.7-1.3c0.7-0.3,1.4-0.4,2.3-0.4
			c0.4,0,0.9,0.1,1.4,0.2s0.9,0.3,1.2,0.6c0.4,0.3,0.7,0.6,0.9,1s0.4,0.8,0.4,1.3c0,0.3-0.1,0.7-0.3,1c-0.1,0-0.2-0.1-0.3-0.1
			s-0.2,0-0.3,0c-0.5,0-0.9,0.2-1.3,0.6c-0.3,0.4-0.5,0.8-0.5,1.3c0,0.6,0.2,1.1,0.7,1.5s1,0.6,1.6,0.6c0.7,0,1.2-0.1,1.7-0.4
			s0.8-0.6,1.1-1s0.5-0.9,0.6-1.4s0.2-1.1,0.2-1.6c0-1-0.2-1.9-0.6-2.6c-0.4-0.8-0.9-1.4-1.5-1.9s-1.4-0.9-2.2-1.2
			c-0.9-0.3-1.7-0.4-2.6-0.4c-1.3,0-2.5,0.3-3.5,0.8c-1.1,0.5-1.9,1.4-2.6,2.5h0c0-0.9,0-1.5-0.2-2c-0.1-0.4-0.5-0.7-1.1-0.7
			c-0.4,0-0.8,0.1-1.1,0.2c-0.3,0.2-0.8,0.2-1.3,0.2s-1-0.1-1.3-0.2c-0.4-0.2-0.8-0.2-1.2-0.2c-0.5,0-0.9,0.1-1.3,0.4
			c-0.4,0.3-0.6,0.7-0.6,1.2c0,0.4,0.1,0.7,0.4,1c0.3,0.3,0.6,0.4,1.1,0.4c0.6,0,1.1,0,1.4-0.1c0.4-0.1,0.7-0.1,1.1-0.1
			c0.5,0,0.8,0.2,1,0.7s0.3,1.5,0.3,2.9L368.2,79.5L368.2,79.5z M358.5,75.1c0.5,0,0.9,0,1.2-0.1c0.3,0,0.5-0.1,0.6-0.3
			c0.1-0.2,0.2-0.4,0.2-0.7c0-0.3,0-0.7,0-1.3c0-1.5-0.2-2.8-0.7-4s-1.2-2.3-2-3.2c-0.9-0.9-1.9-1.6-3.1-2.1c-1.2-0.5-2.5-0.8-4-0.8
			c-1.6,0-3,0.3-4.4,1s-2.6,1.6-3.6,2.8c-0.9,1.2-1.6,2.5-2,4s-0.6,3-0.6,4.5c0,1.6,0.2,3.1,0.7,4.5s1.1,2.6,2,3.7
			c0.9,1,2,1.9,3.2,2.5c1.3,0.6,2.8,0.9,4.5,0.9c1.2,0,2.5-0.2,3.8-0.6s2.4-1,3.3-1.9c0.6-0.6,1.2-1.3,1.8-2.3
			c0.5-0.9,0.8-1.8,0.8-2.7c0-0.5-0.2-0.9-0.5-1.2c-0.3-0.3-0.7-0.5-1.2-0.5c-0.6,0-1,0.2-1.2,0.6s-0.4,0.8-0.5,1.3
			c-0.4,1.4-1.1,2.5-2.2,3.2c-1.1,0.7-2.3,1.1-3.8,1.1c-1.2,0-2.2-0.2-3.1-0.7c-0.9-0.5-1.6-1.1-2.2-1.9c-0.6-0.8-1-1.7-1.3-2.7
			s-0.4-2.1-0.3-3.2h14.6V75.1z M344.1,71.9c0.1-0.9,0.3-1.7,0.7-2.5c0.3-0.8,0.8-1.5,1.4-2c0.6-0.6,1.3-1,2.1-1.3s1.6-0.5,2.6-0.5
			s1.8,0.2,2.5,0.5s1.4,0.8,1.9,1.3c0.5,0.6,0.9,1.2,1.2,2s0.4,1.6,0.5,2.5H344.1z M322,79.5c0,0.8,0,1.4-0.1,1.8
			c0,0.5-0.1,0.8-0.2,1.1c-0.1,0.3-0.2,0.4-0.4,0.5s-0.4,0.2-0.6,0.2c-0.4,0-0.7,0-1-0.1s-0.6-0.1-1-0.1s-0.8,0.1-1.1,0.4
			s-0.4,0.6-0.4,1c0,0.5,0.2,0.9,0.6,1.2c0.4,0.3,0.9,0.4,1.3,0.4c0.4,0,0.8,0,1.2-0.1c0.4,0,0.7-0.1,1.1-0.2
			c0.3-0.1,0.7-0.1,1.1-0.2c0.4,0,0.8-0.1,1.2-0.1c0.9,0,1.7,0.1,2.3,0.2c0.7,0.2,1.4,0.2,2.1,0.2c0.5,0,0.9-0.1,1.3-0.4
			c0.4-0.3,0.6-0.7,0.6-1.2c0-0.4-0.1-0.7-0.4-1c-0.3-0.3-0.6-0.4-1.1-0.4c-0.3,0-0.6,0-1,0.1c-0.3,0.1-0.7,0.1-1,0.1
			c-0.2,0-0.4,0-0.5-0.1c-0.2-0.1-0.3-0.3-0.4-0.5c-0.1-0.3-0.2-0.6-0.3-1.1s-0.1-1.1-0.1-1.9v-5.8c0-1.6,0.1-2.9,0.4-3.9
			c0.3-1.1,0.6-1.9,1.1-2.5s1.1-1.1,1.7-1.3c0.7-0.3,1.4-0.4,2.3-0.4c0.4,0,0.9,0.1,1.4,0.2s0.9,0.3,1.2,0.6c0.4,0.3,0.7,0.6,0.9,1
			s0.4,0.8,0.4,1.3c0,0.3-0.1,0.7-0.3,1c-0.1,0-0.2-0.1-0.3-0.1s-0.2,0-0.3,0c-0.5,0-0.9,0.2-1.3,0.6c-0.3,0.4-0.5,0.8-0.5,1.3
			c0,0.6,0.2,1.1,0.7,1.5s1,0.6,1.6,0.6c0.7,0,1.2-0.1,1.7-0.4s0.8-0.6,1.1-1s0.5-0.9,0.6-1.4s0.2-1.1,0.2-1.6c0-1-0.2-1.9-0.6-2.6
			c-0.4-0.8-0.9-1.4-1.5-1.9s-1.4-0.9-2.2-1.2c-0.9-0.3-1.7-0.4-2.6-0.4c-1.3,0-2.5,0.3-3.5,0.8c-1.1,0.5-1.9,1.4-2.6,2.5h-0.1
			c0-0.9,0-1.5-0.2-2c-0.1-0.4-0.5-0.7-1.1-0.7c-0.4,0-0.8,0.1-1.1,0.2c-0.3,0.2-0.8,0.2-1.3,0.2s-1-0.1-1.3-0.2
			c-0.4-0.2-0.8-0.2-1.2-0.2c-0.5,0-0.9,0.1-1.3,0.4c-0.4,0.3-0.6,0.7-0.6,1.2c0,0.4,0.1,0.7,0.4,1c0.3,0.3,0.6,0.4,1.1,0.4
			c0.6,0,1.1,0,1.4-0.1c0.4-0.1,0.7-0.1,1.1-0.1c0.5,0,0.8,0.2,1,0.7s0.3,1.5,0.3,2.9L322,79.5L322,79.5z M312.4,75.1
			c0.5,0,0.9,0,1.2-0.1c0.3,0,0.5-0.1,0.6-0.3c0.1-0.2,0.2-0.4,0.2-0.7c0-0.3,0-0.7,0-1.3c0-1.5-0.2-2.8-0.7-4s-1.2-2.3-2-3.2
			c-0.9-0.9-1.9-1.6-3.1-2.1c-1.2-0.5-2.5-0.8-4-0.8c-1.6,0-3,0.3-4.4,1s-2.6,1.6-3.6,2.8c-0.9,1.2-1.6,2.5-2,4s-0.6,3-0.6,4.5
			c0,1.6,0.2,3.1,0.7,4.5s1.1,2.6,2,3.7c0.9,1,2,1.9,3.2,2.5c1.3,0.6,2.8,0.9,4.5,0.9c1.2,0,2.5-0.2,3.8-0.6s2.4-1,3.3-1.9
			c0.6-0.6,1.2-1.3,1.8-2.3c0.5-0.9,0.8-1.8,0.8-2.7c0-0.5-0.2-0.9-0.5-1.2c-0.3-0.3-0.7-0.5-1.2-0.5c-0.6,0-1,0.2-1.2,0.6
			s-0.4,0.8-0.5,1.3c-0.4,1.4-1.1,2.5-2.2,3.2c-1.1,0.7-2.3,1.1-3.8,1.1c-1.2,0-2.2-0.2-3.1-0.7c-0.9-0.5-1.6-1.1-2.2-1.9
			c-0.6-0.8-1-1.7-1.3-2.7s-0.4-2.1-0.3-3.2h14.6V75.1z M298,71.9c0.1-0.9,0.3-1.7,0.7-2.5c0.3-0.8,0.8-1.5,1.4-2
			c0.6-0.6,1.3-1,2.1-1.3s1.6-0.5,2.6-0.5s1.8,0.2,2.5,0.5s1.4,0.8,1.9,1.3c0.5,0.6,0.9,1.2,1.2,2s0.4,1.6,0.5,2.5H298z M308.1,58.3
			c0.4-0.2,0.8-0.4,1.2-0.7c0.3-0.3,0.5-0.7,0.5-1.2s-0.2-1-0.6-1.5c-0.4-0.4-0.8-0.6-1.4-0.6c-0.4,0-0.7,0.1-1,0.3
			s-0.6,0.4-0.8,0.7l-4.6,4c-0.2,0.1-0.3,0.3-0.5,0.5s-0.3,0.4-0.3,0.7c0,0.1,0.1,0.3,0.2,0.3s0.2,0.1,0.4,0.1s0.3,0,0.5-0.1
			s0.3-0.1,0.5-0.2L308.1,58.3z M287.7,71c0-1.2-0.2-2.3-0.5-3.4c-0.3-1-0.9-2-1.8-2.8c-0.8-0.7-1.8-1.3-2.9-1.6
			c-1.1-0.4-2.2-0.5-3.3-0.5c-1.4,0-2.6,0.2-3.7,0.7c-1,0.5-2,1.2-3,2.1v-8c0-0.8-0.1-1.4-0.2-1.7c-0.1-0.4-0.5-0.5-1-0.5
			c-0.4,0-0.8,0.1-1.1,0.2c-0.3,0.2-0.7,0.2-1.3,0.2c-0.4,0-0.9-0.1-1.3-0.2c-0.4-0.2-0.9-0.2-1.6-0.2c-0.3,0-0.7,0.1-1.1,0.4
			c-0.4,0.3-0.6,0.7-0.6,1.2c0,0.4,0.1,0.7,0.4,1c0.3,0.3,0.6,0.4,1.1,0.4c0.3,0,0.6,0,1-0.1c0.3-0.1,0.7-0.1,1-0.1
			c0.1,0,0.3,0,0.5,0.1c0.2,0,0.3,0.2,0.4,0.4c0.1,0.2,0.2,0.6,0.3,1.1s0.1,1.2,0.1,2.1v17.7c0,1.4-0.1,2.3-0.2,2.9
			c-0.2,0.5-0.5,0.8-1,0.8c-0.4,0-0.7,0-1-0.1s-0.6-0.1-1-0.1s-0.8,0.1-1.1,0.4s-0.4,0.6-0.4,1c0,0.5,0.2,0.9,0.6,1.2
			c0.4,0.3,0.8,0.4,1.3,0.4c0.4,0,0.7,0,1.1-0.1c0.3,0,0.7-0.1,1-0.2s0.7-0.1,1.1-0.2c0.4,0,0.9-0.1,1.3-0.1c0.5,0,1,0,1.4,0.1
			c0.4,0,0.8,0.1,1.1,0.2s0.7,0.1,1,0.2c0.3,0,0.7,0.1,1,0.1c0.5,0,1-0.1,1.3-0.4s0.5-0.7,0.5-1.2c0-0.4-0.1-0.7-0.4-1
			c-0.3-0.3-0.6-0.4-1.1-0.4c-0.3,0-0.6,0-1,0.1c-0.3,0.1-0.7,0.1-1,0.1c-0.5,0-0.8-0.2-1-0.7s-0.3-1.5-0.3-2.9v-5.8
			c0-1,0-1.9,0.1-2.9s0.4-1.9,1-2.8c0.6-0.8,1.4-1.4,2.3-1.8c1-0.4,2-0.5,2.9-0.5c1.1,0,2.2,0.3,3.1,0.8c0.9,0.6,1.6,1.4,1.9,2.6
			c0.1,0.4,0.2,0.9,0.3,1.4s0.1,1.1,0.1,1.6c0,0.6,0,1.1,0,1.7v1.4v4.3c0,1.4-0.1,2.3-0.2,2.9c-0.2,0.5-0.5,0.8-1,0.8
			c-0.4,0-0.7,0-1-0.1s-0.6-0.1-1-0.1s-0.8,0.1-1.1,0.4s-0.4,0.6-0.4,1c0,0.5,0.2,0.9,0.6,1.2c0.4,0.3,0.8,0.4,1.3,0.4
			c0.4,0,0.7,0,1.1-0.1c0.3,0,0.7-0.1,1-0.2s0.7-0.1,1.1-0.2c0.4,0,0.9-0.1,1.3-0.1c0.5,0,1,0,1.4,0.1c0.4,0,0.8,0.1,1.1,0.2
			s0.7,0.1,1,0.2c0.3,0,0.7,0.1,1,0.1c0.6,0,1-0.1,1.3-0.4s0.5-0.7,0.5-1.2c0-0.4-0.1-0.7-0.4-1c-0.3-0.3-0.6-0.4-1.1-0.4
			c-0.3,0-0.6,0-1,0.1c-0.3,0.1-0.7,0.1-1,0.1c-0.5,0-0.8-0.2-1-0.7s-0.3-1.5-0.3-2.9V71H287.7z M259.3,57.1c0-0.8-0.1-1.3-0.2-1.5
			c-0.1-0.2-0.3-0.4-0.5-0.4c-0.4,0-0.8,0.1-1.2,0.2c-0.4,0.2-0.8,0.2-1.4,0.2c-0.6,0-1.1-0.1-1.5-0.2c-0.4-0.2-0.9-0.2-1.5-0.2
			c-0.4,0-0.8,0.1-1.1,0.4s-0.5,0.7-0.5,1.2c0,0.4,0.1,0.7,0.4,1c0.3,0.3,0.6,0.4,1.1,0.4c0.3,0,0.6,0,1-0.1c0.3-0.1,0.7-0.1,1-0.1
			c0.2,0,0.4,0,0.5,0.1c0.2,0.1,0.3,0.2,0.4,0.5c0.1,0.3,0.2,0.6,0.2,1.1c0.1,0.5,0.1,1.1,0.1,1.9v4.2H256c-0.8-1.2-1.7-2.1-2.9-2.5
			c-1.2-0.5-2.5-0.7-3.8-0.7c-1.7,0-3.1,0.3-4.4,1c-1.2,0.7-2.3,1.5-3.1,2.6s-1.4,2.3-1.8,3.8c-0.4,1.4-0.6,2.9-0.6,4.4
			c0,1.6,0.2,3.1,0.6,4.5c0.4,1.5,1,2.7,1.9,3.9c0.8,1.1,1.9,2,3.2,2.7s2.8,1,4.5,1c1.3,0,2.5-0.2,3.8-0.7s2.2-1.3,2.9-2.4h0.1v0.4
			c0,0.8,0.1,1.4,0.3,1.7c0.2,0.3,0.6,0.4,1.2,0.4c0.3,0,0.5,0,0.7-0.1c0.2,0,0.4-0.1,0.5-0.2c0.2-0.1,0.3-0.1,0.5-0.2
			c0.2,0,0.4-0.1,0.6-0.1c0.5,0,0.9,0.1,1.3,0.2c0.4,0.2,0.8,0.2,1.2,0.2s0.7-0.1,1-0.4s0.4-0.7,0.4-1.2c0-0.4-0.1-0.7-0.4-1
			c-0.3-0.3-0.6-0.4-1.1-0.4c-0.3,0-0.6,0-1,0.1c-0.3,0.1-0.7,0.1-1,0.1c-0.5,0-0.8-0.2-1-0.7s-0.3-1.5-0.3-3L259.3,57.1L259.3,57.1
			z M252.3,66.2c0.9,0.4,1.6,1,2.3,1.9c0.6,0.9,1,1.9,1.2,3s0.2,2.2,0.2,3.3c0,1-0.1,2.1-0.2,3.2c-0.1,1.1-0.4,2.1-0.8,3
			c-0.5,1-1.2,1.8-2.2,2.3s-2,0.7-3.1,0.7c-1.2,0-2.2-0.3-3.1-0.8c-0.8-0.5-1.5-1.2-2.1-2s-1-1.8-1.2-2.9s-0.4-2.1-0.4-3.2
			c0-1,0.1-2.1,0.3-3.2s0.6-2,1.1-2.9s1.2-1.6,2-2.1c0.8-0.6,1.9-0.8,3.1-0.8C250.4,65.6,251.4,65.8,252.3,66.2 M231.3,71
			c0-1.3-0.1-2.5-0.4-3.7c-0.3-1.1-1-2.1-2-3c-0.8-0.6-1.8-1.1-2.8-1.3c-1.1-0.3-2.1-0.4-3.1-0.4s-2,0.1-3,0.4s-2,0.7-2.7,1.2
			c-0.8,0.5-1.4,1.2-1.9,1.9c-0.5,0.8-0.8,1.6-0.8,2.5c0,0.8,0.3,1.4,0.8,2c0.5,0.5,1.2,0.8,1.9,0.8c0.6,0,1.2-0.2,1.6-0.5
			c0.5-0.3,0.7-0.9,0.7-1.5c0-0.4-0.1-0.7-0.2-0.9c-0.1-0.2-0.2-0.4-0.4-0.5c-0.1-0.1-0.2-0.2-0.3-0.2s-0.2-0.1-0.2-0.2
			c0-0.2,0.1-0.4,0.4-0.7c0.2-0.2,0.5-0.4,0.6-0.5c0.5-0.3,1-0.5,1.6-0.7s1.2-0.3,1.7-0.3c0.6,0,1.3,0.1,1.8,0.2
			c0.6,0.1,1.1,0.3,1.6,0.7c0.4,0.3,0.8,0.7,1.1,1.2s0.4,1.1,0.4,1.8c0,0.8-0.2,1.4-0.6,1.9c-0.4,0.4-0.9,0.8-1.5,1s-1.2,0.3-2,0.4
			c-0.7,0.1-1.4,0.1-2,0.2c-1.1,0.1-2.1,0.3-3,0.5s-1.9,0.5-2.8,1.1c-1,0.6-1.8,1.3-2.2,2.3c-0.5,0.9-0.7,2-0.7,3.2
			c0,1.1,0.3,2.1,0.8,3s1.2,1.6,2.1,2.2c0.8,0.5,1.6,0.8,2.5,1s1.8,0.3,2.7,0.3c1.4,0,2.7-0.2,4-0.7s2.3-1.3,3-2.6
			c0.2,1.1,0.8,1.9,1.6,2.4s1.8,0.7,2.8,0.7c0.7,0,1.4-0.1,2.1-0.3c0.7-0.2,1.3-0.6,1.7-1.2c0.5-0.6,0.7-1.3,0.8-2.2
			c0.1-0.9,0.1-2.1,0.1-3.8c0-0.5-0.1-0.9-0.3-1.3c-0.2-0.3-0.6-0.5-1.2-0.5c-0.4,0-0.7,0.1-0.9,0.2c-0.2,0.2-0.3,0.4-0.4,0.6
			c-0.1,0.2-0.1,0.5-0.1,0.8v0.9c0,0.3,0,0.7,0,1.2s0,0.9-0.1,1.3s-0.2,0.8-0.5,1.1c-0.2,0.3-0.6,0.5-1,0.5c-0.5,0-0.9-0.2-1.2-0.5
			c-0.2-0.4-0.4-0.8-0.5-1.3s-0.1-1-0.1-1.6c0-0.5,0-1,0-1.3L231.3,71z M217,78.1c0.3-0.5,0.7-0.8,1.2-1.1c0.5-0.3,1-0.5,1.6-0.6
			s1.2-0.2,1.8-0.3c0.5-0.1,1.1-0.1,1.6-0.2s1.1-0.1,1.6-0.3c0.5-0.1,1-0.3,1.5-0.5s0.9-0.5,1.3-0.9c0,0.5-0.1,0.9-0.1,1.4
			s0,0.9,0,1.4c0,0.8-0.1,1.5-0.2,2.2c-0.1,0.7-0.4,1.4-0.9,2c-0.7,0.8-1.5,1.4-2.5,1.8c-1,0.3-2,0.5-3,0.5c-0.6,0-1.1-0.1-1.7-0.2
			c-0.5-0.1-1-0.3-1.4-0.7c-0.4-0.3-0.8-0.7-1-1.1c-0.3-0.5-0.4-1-0.4-1.7C216.6,79.1,216.7,78.5,217,78.1 M186.8,79.5
			c0,1.4-0.1,2.3-0.3,2.8s-0.5,0.8-1,0.8c-0.4,0-0.7,0-1-0.1s-0.6-0.1-1-0.1s-0.8,0.1-1.1,0.4s-0.4,0.6-0.4,1s0.2,0.8,0.5,1.1
			c0.3,0.3,0.6,0.5,1,0.5c0.8,0,1.5-0.1,2.2-0.2c0.7-0.2,1.5-0.2,2.4-0.2s1.7,0.1,2.4,0.2c0.7,0.2,1.4,0.2,2.1,0.2
			c0.5,0,0.9-0.1,1.3-0.4c0.4-0.3,0.6-0.7,0.6-1.2c0-0.4-0.1-0.7-0.4-1c-0.3-0.3-0.6-0.4-1.1-0.4c-0.3,0-0.6,0-0.9,0.1
			c-0.3,0.1-0.6,0.2-0.8,0.2c-0.4,0-0.7-0.2-0.9-0.5s-0.3-0.8-0.3-1.3V65.2c0-0.4-0.1-0.9-0.2-1.3s-0.5-0.6-1-0.6
			c-0.4,0-0.8,0.1-1.1,0.2c-0.3,0.2-0.8,0.2-1.3,0.2s-1-0.1-1.4-0.2c-0.4-0.2-0.9-0.2-1.5-0.2c-0.4,0-0.8,0.1-1.1,0.4
			s-0.5,0.7-0.5,1.2c0,0.4,0.1,0.7,0.4,1c0.3,0.3,0.6,0.4,1.1,0.4c0.3,0,0.6,0,1-0.1c0.3-0.1,0.7-0.1,1-0.1c0.2,0,0.4,0.1,0.6,0.2
			c0.2,0.1,0.3,0.3,0.4,0.5c0.1,0.3,0.2,0.6,0.2,1.1s0.1,1.1,0.1,1.8V79.5z M185.9,56.8c-0.5,0.5-0.7,1.1-0.7,1.8
			c0,0.7,0.2,1.3,0.7,1.8s1.1,0.7,1.7,0.7c0.7,0,1.3-0.2,1.8-0.7s0.7-1.1,0.7-1.8c0-0.7-0.2-1.3-0.7-1.8s-1.1-0.7-1.8-0.7
			C187,56,186.4,56.3,185.9,56.8 M158.9,79.2c0.4,1.4,1.1,2.7,1.9,3.8c0.9,1.1,1.9,2,3.2,2.6s2.8,1,4.5,1c1.8,0,3.3-0.3,4.7-0.9
			c1.3-0.6,2.5-1.5,3.4-2.6s1.6-2.4,2-3.8c0.5-1.5,0.7-3,0.7-4.7c0-1.5-0.2-3-0.7-4.5c-0.4-1.5-1.1-2.9-2.1-4
			c-1-1.2-2.2-2.1-3.6-2.6c-1.4-0.5-2.8-0.7-4.4-0.7c-1.7,0-3.3,0.3-4.6,1s-2.4,1.5-3.2,2.6c-0.9,1.1-1.5,2.4-1.9,3.8
			c-0.4,1.5-0.6,3-0.6,4.6C158.3,76.2,158.5,77.7,158.9,79.2 M162.3,71.4c0.2-1.1,0.6-2,1.1-2.9c0.6-1.1,1.4-1.8,2.3-2.3
			c0.9-0.4,2-0.7,3.2-0.7c1,0,2,0.2,3,0.6c0.9,0.4,1.7,1,2.3,2c0.6,0.9,1,1.9,1.2,3s0.3,2.2,0.3,3.2c0,1.2-0.1,2.3-0.3,3.4
			s-0.6,2.1-1.2,3s-1.3,1.6-2.2,2.1s-2,0.8-3.4,0.8c-1.3,0-2.3-0.3-3.2-0.8s-1.5-1.2-2.1-2.1c-0.5-0.9-0.9-1.8-1.1-2.9
			c-0.2-1.1-0.3-2.1-0.3-3.2C161.9,73.5,162.1,72.5,162.3,71.4 M133.4,79c0,1.1,0.2,2.2,0.5,3.2s0.9,1.8,1.9,2.5
			c0.8,0.6,1.7,1.1,2.7,1.3c1,0.3,2,0.4,3,0.4c1.4,0,2.8-0.2,4-0.7s2.2-1.3,3-2.6h0.1c0,0.9,0,1.5,0.2,2c0.1,0.4,0.4,0.7,0.9,0.7
			c0.4,0,0.8-0.1,1.2-0.2c0.4-0.2,0.8-0.2,1.3-0.2c0.4,0,0.8,0.1,1.2,0.2c0.4,0.2,0.8,0.2,1.2,0.2c0.5,0,0.9-0.1,1.3-0.4
			c0.4-0.3,0.6-0.7,0.6-1.2c0-0.4-0.1-0.7-0.4-1c-0.3-0.3-0.6-0.4-1.1-0.4c-0.3,0-0.6,0-1,0.1s-0.7,0.1-1,0.1
			c-0.2,0-0.4-0.1-0.5-0.2c-0.2-0.1-0.3-0.3-0.4-0.5c-0.1-0.3-0.2-0.6-0.2-1.1c-0.1-0.5-0.1-1.1-0.1-1.8v-8.2c0-1.2,0-2.3,0.1-3.3
			c0-1,0.1-2.1,0.1-3.2c0-0.4-0.1-0.8-0.3-1.1c-0.2-0.3-0.5-0.4-1-0.4c-0.4,0-0.8,0.1-1.2,0.2c-0.4,0.2-0.8,0.2-1.2,0.2
			s-0.9-0.1-1.3-0.2c-0.4-0.2-0.9-0.2-1.4-0.2c-0.6,0-1,0.1-1.4,0.4s-0.6,0.7-0.6,1.2c0,0.4,0.1,0.7,0.4,1c0.3,0.3,0.6,0.4,1.1,0.4
			c0.3,0,0.6,0,1-0.1c0.3-0.1,0.7-0.1,1-0.1c0.4,0,0.8,0.3,1.1,0.8c0.3,0.6,0.5,1.5,0.5,2.8v3c0,0.5,0,1.1,0,1.7s0,1.3-0.1,1.9
			c0,0.7-0.1,1.3-0.2,1.9c-0.1,0.6-0.2,1.1-0.4,1.6c-0.4,1.3-1.1,2.3-2.2,2.8c-1,0.6-2.2,0.9-3.5,0.9c-0.5,0-1-0.1-1.6-0.2
			c-0.5-0.1-1-0.3-1.4-0.6c-0.4-0.3-0.8-0.6-1.2-1c-0.3-0.4-0.6-0.9-0.8-1.4c-0.1-0.4-0.2-0.8-0.3-1.3s-0.1-1-0.1-1.5
			s-0.1-1.1-0.1-1.6s0-1,0-1.4v-2c0-0.7,0-1.4,0-1.9s0.1-1.1,0.1-1.6s0.1-1.1,0.1-1.8c0-0.6,0-1.4,0-2.3c0-0.5-0.1-1-0.3-1.3
			s-0.6-0.5-1.2-0.5c-0.4,0-0.8,0.1-1.2,0.2c-0.4,0.2-0.8,0.2-1.2,0.2s-0.9-0.1-1.3-0.2c-0.4-0.2-0.8-0.2-1.2-0.2
			c-0.6,0-1.1,0.1-1.5,0.4s-0.6,0.7-0.6,1.2c0,0.4,0.1,0.7,0.4,1s0.6,0.4,1.1,0.4c0.3,0,0.6,0,1-0.1c0.3-0.1,0.7-0.1,1-0.1
			c0.5,0,0.8,0.3,1.1,0.8s0.4,1.5,0.4,2.9L133.4,79L133.4,79z M120.9,87.3c0,1.2-0.1,2.1-0.2,2.7s-0.5,0.8-1,0.8c-0.4,0-0.7,0-1-0.1
			s-0.6-0.1-1-0.1s-0.8,0.1-1.1,0.4c-0.3,0.3-0.4,0.6-0.4,1c0,0.5,0.2,0.9,0.6,1.2c0.4,0.3,0.9,0.4,1.4,0.4c0.8,0,1.5-0.1,2.3-0.2
			c0.8-0.2,1.5-0.2,2.3-0.2s1.5,0.1,2.2,0.2c0.7,0.2,1.4,0.2,2.1,0.2c0.5,0,0.9-0.1,1.3-0.4s0.6-0.7,0.6-1.2c0-0.4-0.1-0.7-0.4-1
			s-0.6-0.4-1.1-0.4c-0.3,0-0.6,0-1,0.1c-0.3,0.1-0.7,0.1-1,0.1c-0.2,0-0.4-0.1-0.5-0.2c-0.2-0.1-0.3-0.3-0.4-0.5
			c-0.1-0.3-0.2-0.6-0.2-1.1c-0.1-0.5-0.1-1.1-0.1-1.8V65.4c0-0.8-0.1-1.4-0.3-1.6c-0.2-0.3-0.5-0.4-1-0.4c-1.2,0-1.7,0.8-1.5,2.4
			l-0.1,0.1c-0.8-1.1-1.8-1.9-3-2.3c-1.2-0.5-2.4-0.7-3.8-0.7c-1.6,0-3.1,0.3-4.4,0.8c-1.3,0.6-2.5,1.5-3.5,2.8
			c-0.8,1.1-1.4,2.4-1.7,3.8c-0.4,1.4-0.5,2.9-0.5,4.3c0,1.6,0.2,3.1,0.6,4.6s1.1,2.7,1.9,3.9c0.8,1.1,1.9,2,3.2,2.7
			c1.3,0.7,2.8,1,4.5,1c1.2,0,2.3-0.2,3.4-0.6s2-1,2.8-1.9L120.9,87.3L120.9,87.3z M117.6,66.5c1,0.6,1.7,1.4,2.3,2.4
			c0.4,0.8,0.7,1.8,0.8,2.9c0.1,1.1,0.2,2.4,0.2,3.8c0,1-0.1,1.9-0.2,2.8s-0.4,1.7-0.9,2.5c-0.6,0.9-1.3,1.5-2.3,2
			c-0.9,0.5-1.9,0.7-2.9,0.7c-1.2,0-2.3-0.3-3.1-0.8c-0.8-0.6-1.5-1.3-2-2.2c-0.5-0.9-0.9-1.9-1.1-3s-0.3-2.2-0.3-3.3
			c0-1,0.1-2,0.3-3c0.2-1,0.6-1.9,1.1-2.8c0.5-0.8,1.2-1.5,2-2s1.9-0.8,3.1-0.8C115.6,65.6,116.7,65.9,117.6,66.5 M86.3,79.5
			c0,0.8,0,1.4-0.1,1.8c0,0.5-0.1,0.8-0.2,1.1c-0.1,0.3-0.2,0.4-0.4,0.5s-0.4,0.2-0.6,0.2c-0.4,0-0.7,0-1-0.1s-0.6-0.1-1-0.1
			s-0.8,0.1-1.1,0.4c-0.3,0.3-0.4,0.6-0.4,1c0,0.5,0.2,0.9,0.6,1.2c0.4,0.3,0.9,0.4,1.3,0.4s0.8,0,1.2-0.1c0.4,0,0.7-0.1,1.1-0.2
			c0.3-0.1,0.7-0.1,1.1-0.2c0.4,0,0.8-0.1,1.2-0.1c0.9,0,1.7,0.1,2.3,0.2c0.7,0.2,1.4,0.2,2.1,0.2c0.5,0,0.9-0.1,1.3-0.4
			s0.6-0.7,0.6-1.2c0-0.4-0.1-0.7-0.4-1s-0.6-0.4-1.1-0.4c-0.3,0-0.6,0-1,0.1c-0.3,0.1-0.7,0.1-1,0.1c-0.2,0-0.4,0-0.5-0.1
			c-0.2-0.1-0.3-0.3-0.4-0.5c-0.1-0.3-0.2-0.6-0.3-1.1c-0.1-0.5-0.1-1.1-0.1-1.9v-5.8c0-1.6,0.1-2.9,0.4-3.9
			c0.3-1.1,0.6-1.9,1.1-2.5s1.1-1.1,1.7-1.3c0.7-0.3,1.4-0.4,2.3-0.4c0.4,0,0.9,0.1,1.4,0.2s0.9,0.3,1.2,0.6c0.4,0.3,0.7,0.6,0.9,1
			c0.2,0.4,0.4,0.8,0.4,1.3c0,0.3-0.1,0.7-0.3,1c-0.1,0-0.2-0.1-0.3-0.1c-0.1,0-0.2,0-0.3,0c-0.5,0-0.9,0.2-1.3,0.6
			c-0.3,0.4-0.5,0.8-0.5,1.3c0,0.6,0.2,1.1,0.7,1.5s1,0.6,1.6,0.6c0.7,0,1.2-0.1,1.7-0.4s0.8-0.6,1.1-1c0.3-0.4,0.5-0.9,0.6-1.4
			s0.2-1.1,0.2-1.6c0-1-0.2-1.9-0.6-2.6c-0.4-0.8-0.9-1.4-1.5-1.9s-1.4-0.9-2.2-1.2s-1.7-0.4-2.6-0.4c-1.3,0-2.5,0.3-3.5,0.8
			c-1.1,0.5-1.9,1.4-2.6,2.5H89c0-0.9,0-1.5-0.2-2c-0.1-0.4-0.5-0.7-1.1-0.7c-0.4,0-0.8,0.1-1.1,0.2c-0.3,0.2-0.8,0.2-1.3,0.2
			s-1-0.1-1.3-0.2c-0.4-0.2-0.8-0.2-1.2-0.2c-0.5,0-0.9,0.1-1.3,0.4s-0.6,0.7-0.6,1.2c0,0.4,0.1,0.7,0.4,1s0.6,0.4,1.1,0.4
			c0.6,0,1.1,0,1.4-0.1c0.4-0.1,0.7-0.1,1.1-0.1c0.5,0,0.8,0.2,1,0.7s0.3,1.5,0.3,2.9L86.3,79.5L86.3,79.5z M56.9,79
			c0,1.1,0.2,2.2,0.5,3.2s0.9,1.8,1.9,2.5c0.8,0.6,1.7,1.1,2.7,1.3c1,0.3,2,0.4,3,0.4c1.5,0,2.8-0.2,4-0.7s2.2-1.3,3-2.6h0.1
			c0,0.9,0,1.5,0.2,2c0.1,0.4,0.4,0.7,0.9,0.7c0.4,0,0.8-0.1,1.2-0.2c0.4-0.2,0.8-0.2,1.3-0.2c0.4,0,0.8,0.1,1.2,0.2
			c0.4,0.2,0.8,0.2,1.2,0.2c0.5,0,0.9-0.1,1.3-0.4s0.6-0.7,0.6-1.2c0-0.4-0.1-0.7-0.4-1s-0.6-0.4-1.1-0.4c-0.3,0-0.6,0-1,0.1
			s-0.7,0.1-1,0.1c-0.2,0-0.4-0.1-0.5-0.2c-0.2-0.1-0.3-0.3-0.4-0.5c-0.1-0.3-0.2-0.6-0.2-1.1c-0.1-0.5-0.1-1.1-0.1-1.8v-8.2
			c0-1.2,0-2.3,0.1-3.3c0-1,0.1-2.1,0.1-3.2c0-0.4-0.1-0.8-0.3-1.1c-0.2-0.3-0.5-0.4-1-0.4c-0.4,0-0.8,0.1-1.2,0.2
			c-0.4,0.2-0.8,0.2-1.2,0.2c-0.4,0-0.9-0.1-1.3-0.2c-0.4-0.2-0.9-0.2-1.4-0.2c-0.6,0-1,0.1-1.4,0.4s-0.6,0.7-0.6,1.2
			c0,0.4,0.1,0.7,0.4,1s0.6,0.4,1.1,0.4c0.3,0,0.6,0,1-0.1s0.7-0.1,1-0.1c0.4,0,0.8,0.3,1.1,0.8c0.3,0.6,0.5,1.5,0.5,2.8v3
			c0,0.5,0,1.1,0,1.7s0,1.3-0.1,1.9c0,0.7-0.1,1.3-0.2,1.9s-0.2,1.1-0.4,1.6c-0.4,1.3-1.1,2.3-2.2,2.8c-1,0.6-2.2,0.9-3.5,0.9
			c-0.5,0-1-0.1-1.6-0.2c-0.5-0.1-1-0.3-1.4-0.6c-0.4-0.3-0.8-0.6-1.2-1c-0.3-0.4-0.6-0.9-0.8-1.4c-0.1-0.4-0.2-0.8-0.3-1.3
			c-0.1-0.5-0.1-1-0.1-1.5s-0.1-1.1-0.1-1.6s0-1,0-1.4v-2c0-0.7,0-1.4,0-1.9s0.1-1.1,0.1-1.6c0-0.6,0.1-1.1,0.1-1.8
			c0-0.6,0-1.4,0-2.3c0-0.5-0.1-1-0.3-1.3C60,63.2,59.6,63,59,63c-0.4,0-0.8,0.1-1.2,0.2c-0.4,0.2-0.8,0.2-1.2,0.2
			c-0.4,0-0.9-0.1-1.3-0.2C54.9,63,54.5,63,54.1,63c-0.6,0-1.1,0.1-1.5,0.4S52,64.1,52,64.6c0,0.4,0.1,0.7,0.4,1S53,66,53.5,66
			c0.3,0,0.6,0,1-0.1s0.7-0.1,1-0.1c0.5,0,0.8,0.3,1.1,0.8c0.3,0.5,0.4,1.5,0.4,2.9V79H56.9z M30.2,79.2c0.4,1.4,1.1,2.7,1.9,3.8
			c0.9,1.1,1.9,2,3.2,2.6c1.3,0.6,2.8,1,4.5,1c1.8,0,3.3-0.3,4.7-0.9c1.3-0.6,2.5-1.5,3.4-2.6s1.6-2.4,2-3.8c0.5-1.5,0.7-3,0.7-4.7
			c0-1.5-0.2-3-0.7-4.5s-1.1-2.9-2.1-4c-1-1.2-2.2-2.1-3.6-2.6s-2.8-0.7-4.4-0.7c-1.7,0-3.3,0.3-4.6,1c-1.3,0.7-2.4,1.5-3.2,2.6
			c-0.9,1.1-1.5,2.4-1.9,3.8c-0.4,1.5-0.6,3-0.6,4.6C29.6,76.2,29.8,77.7,30.2,79.2 M33.5,71.4c0.2-1.1,0.6-2,1.1-2.9
			c0.6-1.1,1.4-1.8,2.3-2.3c0.9-0.4,2-0.7,3.2-0.7c1,0,2,0.2,3,0.6c0.9,0.4,1.7,1,2.3,2c0.6,0.9,1,1.9,1.2,3s0.3,2.2,0.3,3.2
			c0,1.2-0.1,2.3-0.3,3.4c-0.2,1.1-0.6,2.1-1.2,3s-1.3,1.6-2.2,2.1c-0.9,0.5-2,0.8-3.4,0.8c-1.3,0-2.3-0.3-3.2-0.8
			c-0.9-0.5-1.5-1.2-2.1-2.1s-0.9-1.8-1.1-2.9s-0.3-2.1-0.3-3.2C33.2,73.5,33.3,72.5,33.5,71.4 M7.5,76.1v1.3v1.5c0,0.5,0,1,0,1.4
			c0,0.5-0.1,0.9-0.2,1.2c-0.3,1.1-1,1.6-2.1,1.6c-0.3,0-0.7,0-1-0.1s-0.7-0.1-1-0.1c-0.4,0-0.7,0.1-1,0.4s-0.4,0.6-0.4,1
			c0,0.5,0.2,0.9,0.6,1.2c0.4,0.3,0.8,0.4,1.3,0.4c0.9,0,1.9-0.1,2.8-0.2c0.9-0.2,1.9-0.2,3-0.2s2.1,0.1,3.1,0.2
			c1,0.2,1.9,0.2,2.7,0.2c0.5,0,0.9-0.1,1.3-0.4s0.6-0.7,0.6-1.2c0-0.4-0.1-0.8-0.4-1c-0.3-0.3-0.6-0.4-1-0.4c-0.3,0-0.7,0-1,0.1
			s-0.7,0.1-1,0.1c-1.2,0-1.9-0.5-2.1-1.6c-0.1-0.3-0.1-0.7-0.1-1.2s-0.1-1-0.1-1.5s0-1,0-1.5V76v-2.3c0-0.4,0.1-0.7,0.3-0.8
			c0.2-0.1,0.5-0.2,0.9-0.2h2.5h2.3c0.8,0,1.7,0,2.5-0.1s1.6-0.2,2.4-0.4c0.8-0.2,1.5-0.4,2.2-0.8c1.4-0.7,2.6-1.7,3.3-3
			c0.8-1.3,1.1-2.8,1.1-4.4c0-1.5-0.3-2.8-0.9-4.1c-0.6-1.2-1.6-2.2-2.9-3c-1-0.6-2.2-1-3.6-1.2c-1.3-0.2-2.6-0.2-3.8-0.2
			c-0.7,0-1.7,0.1-3.1,0.2c-1.4,0.2-3.1,0.2-4.9,0.2c-1.3,0-2.3-0.1-3.2-0.2c-0.8-0.2-1.7-0.2-2.5-0.2c-0.6,0-1.1,0.1-1.5,0.4
			S2,56.6,2,57.1c0,0.4,0.1,0.8,0.4,1.1c0.3,0.3,0.6,0.4,1,0.4c0.3,0,0.7,0,1-0.1s0.7-0.1,1-0.1c1.2,0,1.9,0.5,2.1,1.6
			c0.1,0.3,0.1,0.7,0.2,1.2c0,0.5,0,1,0,1.5v1.5v1.3v10.6H7.5z M11.2,62.4v-0.7c0-0.3,0-0.6,0-0.9s0.1-0.6,0.1-0.8
			c0-0.3,0.1-0.5,0.2-0.6c0.2-0.2,0.4-0.4,0.8-0.5s0.7-0.2,1.2-0.3c0.4-0.1,0.8-0.1,1.2-0.1c0.4,0,0.7,0,1,0h1.4c0.5,0,1.1,0,1.6,0
			c0.6,0,1.1,0.1,1.6,0.2s1,0.2,1.3,0.3c1.1,0.3,1.9,1,2.3,1.9c0.5,0.9,0.7,1.9,0.7,3c0,1.3-0.2,2.3-0.7,3.1
			c-0.5,0.8-1.1,1.3-1.8,1.7c-0.8,0.4-1.6,0.6-2.6,0.8c-1,0.1-2,0.2-3.1,0.2h-4.2c-0.3,0-0.6-0.1-0.8-0.2c-0.2-0.1-0.3-0.4-0.3-0.8
			L11.2,62.4L11.2,62.4z"/>
	</g>
	<g>
		<defs>
			<rect id="SVGID_3_" x="1.7" y="2.8" width="423.5" height="90.8"/>
		</defs>
		<clipPath id="SVGID_4_">
			<use xlink:href="#SVGID_3_"  style="overflow:visible;"/>
		</clipPath>
		<path id="XMLID_4_" class="st1" d="M229.6,14.2c-0.6,0.6-0.8,1.2-0.8,2s0.3,1.4,0.8,2c0.6,0.5,1.2,0.8,2,0.8s1.4-0.3,2-0.8
			s0.8-1.2,0.8-2s-0.3-1.5-0.8-2c-0.6-0.6-1.2-0.8-2-0.8S230.1,13.7,229.6,14.2 M229.6,28.9c-0.6,0.6-0.8,1.2-0.8,2s0.3,1.4,0.8,2
			c0.6,0.6,1.2,0.8,2,0.8s1.4-0.3,2-0.8c0.6-0.6,0.8-1.2,0.8-2s-0.3-1.4-0.8-2c-0.6-0.6-1.2-0.8-2-0.8
			C230.8,28.1,230.1,28.4,229.6,28.9 M210.1,32.8c1.3-0.8,2.4-1.7,3.3-2.8c0.9-1.1,1.6-2.3,2.1-3.5c0.5-1.3,0.9-2.6,1.1-4
			s0.3-2.8,0.3-4.1c0-1.9-0.2-3.8-0.7-5.7c-0.5-1.9-1.2-3.5-2.2-5s-2.3-2.6-3.9-3.5c-1.6-0.9-3.5-1.3-5.8-1.3c-2,0-3.9,0.5-5.7,1.3
			c-1.8,0.9-3.2,2.2-4.3,4c-0.5,0.8-0.9,1.6-1.2,2.5s-0.6,1.8-0.8,2.8s-0.4,1.9-0.5,2.8s-0.2,1.8-0.2,2.7c0,1.9,0.2,3.8,0.7,5.6
			c0.4,1.9,1.2,3.5,2.2,5c1,1.4,2.3,2.6,3.8,3.5c1.6,0.9,3.5,1.3,5.7,1.3c0.2,0,0.4,0,0.7,0c0.2,0,0.4,0,0.7-0.1
			c0.2,0,0.4-0.1,0.7-0.1c0.2,0,0.4-0.1,0.7-0.1V37c0,1.7,0.4,3.1,1.3,4s2.3,1.4,4.1,1.4c0.9,0,1.8-0.2,2.6-0.5s1.5-0.8,2.1-1.6
			c0.3-0.5,0.6-1,0.8-1.6s0.3-1.2,0.3-1.8c0-0.7-0.1-1.2-0.3-1.6s-0.7-0.6-1.5-0.6c-0.3,0-0.6,0.1-0.8,0.2s-0.3,0.3-0.4,0.5
			s-0.2,0.4-0.2,0.7c0,0.3-0.1,0.5-0.1,0.8c-0.1,0.8-0.2,1.4-0.5,1.9c-0.2,0.5-0.8,0.8-1.8,0.8c-0.6,0-1-0.1-1.4-0.3
			c-0.3-0.2-0.6-0.5-0.7-0.8c-0.2-0.3-0.3-0.7-0.3-1.2c0-0.4-0.1-0.9,0-1.3v-3.2H210.1z M209.8,28.4c0-0.8-0.1-1.5-0.1-2.3
			s-0.2-1.5-0.6-2.2c-0.4-0.8-1.1-1.5-2-1.9c-0.9-0.5-1.8-0.7-2.7-0.7c-0.7,0-1.4,0.1-2.1,0.3c-0.7,0.2-1.3,0.6-1.9,1
			c-0.6,0.4-1,1-1.3,1.6s-0.5,1.3-0.5,2.1c0,0.7,0.1,1.4,0.3,2c0.2,0.7,0.5,1.3,0.8,1.8l-0.1,0.1c-0.3-0.1-0.5-0.4-0.8-0.7
			c-0.3-0.3-0.5-0.6-0.7-1s-0.4-0.7-0.6-1.1c-0.2-0.4-0.3-0.7-0.5-0.9c-0.6-1.2-0.9-2.5-1-3.9s-0.2-2.7-0.2-3.9
			c0-1.4,0.1-2.9,0.4-4.4c0.2-1.5,0.7-2.9,1.3-4.2c0.7-1.3,1.6-2.3,2.7-3.1c1.1-0.8,2.6-1.2,4.4-1.2c1.7,0,3.1,0.4,4.1,1.2
			c1.1,0.8,1.9,1.8,2.5,3s1,2.6,1.3,4c0.2,1.5,0.3,2.8,0.3,4.2c0,0.9,0,1.9-0.1,2.9s-0.2,2-0.4,3s-0.5,1.9-1,2.8
			c-0.4,0.9-1,1.8-1.6,2.5L209.8,28.4L209.8,28.4z M206.9,30.8c-0.4,0.1-0.8,0.3-1.2,0.3c-0.4,0.1-0.8,0.1-1.2,0.1
			c-1.1,0-2-0.4-2.6-1.2c-0.6-0.8-0.9-1.7-0.9-2.8c0-1,0.3-1.8,0.9-2.4c0.6-0.7,1.4-1,2.4-1c0.6,0,1,0.1,1.4,0.4
			c0.4,0.2,0.6,0.6,0.8,0.9c0.2,0.4,0.3,0.8,0.4,1.3c0.1,0.5,0.1,1,0.1,1.4v3H206.9z"/>
	</g>
</g>
</svg>
