<?xml version="1.0" encoding="utf-8"?>
<!-- Generator: Adobe Illustrator 19.2.1, SVG Export Plug-In . SVG Version: 6.00 Build 0)  -->
<svg version="1.1" id="Calque_1" xmlns="http://www.w3.org/2000/svg" xmlns:xlink="http://www.w3.org/1999/xlink" x="0px" y="0px"
	 viewBox="0 0 482 148" style="enable-background:new 0 0 482 148;" xml:space="preserve">
<style type="text/css">
	.st0{clip-path:url(#SVGID_2_);}
	.st1{clip-path:url(#SVGID_4_);}
	.st2{clip-path:url(#SVGID_6_);}
</style>
<g>
	<g>
		<defs>
			<rect id="SVGID_1_" x="6" y="7" width="468.2" height="135.6"/>
		</defs>
		<clipPath id="SVGID_2_">
			<use xlink:href="#SVGID_1_"  style="overflow:visible;"/>
		</clipPath>
		<path class="st0" d="M373.2,137.2c-0.6,0.6-0.8,1.2-0.8,2s0.3,1.5,0.8,2c0.6,0.5,1.2,0.8,2,0.8s1.4-0.3,2-0.8
			c0.6-0.6,0.8-1.2,0.8-2s-0.3-1.4-0.8-2c-0.6-0.5-1.2-0.8-2-0.8S373.7,136.7,373.2,137.2 M363.3,127.1c0-1.2-0.2-2.3-0.5-3.3
			s-0.9-2-1.8-2.8c-0.8-0.7-1.8-1.3-2.9-1.6c-1.1-0.4-2.2-0.5-3.3-0.5c-1.4,0-2.6,0.2-3.7,0.7c-1,0.5-2,1.2-3,2.1v-8
			c0-0.8-0.1-1.4-0.2-1.7c-0.1-0.4-0.5-0.5-1-0.5c-0.4,0-0.8,0.1-1.1,0.2c-0.3,0.2-0.7,0.2-1.3,0.2c-0.4,0-0.9-0.1-1.3-0.2
			c-0.4-0.2-0.9-0.2-1.6-0.2c-0.3,0-0.7,0.1-1.1,0.4c-0.4,0.3-0.6,0.7-0.6,1.2c0,0.4,0.1,0.7,0.4,1c0.3,0.3,0.6,0.4,1.1,0.4
			c0.3,0,0.6,0,1-0.1c0.3-0.1,0.7-0.1,1-0.1c0.1,0,0.3,0,0.5,0.1c0.2,0,0.3,0.2,0.4,0.4c0.1,0.2,0.2,0.6,0.3,1.1s0.1,1.2,0.1,2.1
			v17.7c0,1.4-0.1,2.3-0.2,2.9c-0.2,0.5-0.5,0.8-1,0.8c-0.4,0-0.7,0-1-0.1s-0.6-0.1-1-0.1s-0.8,0.1-1.1,0.4s-0.4,0.6-0.4,1
			c0,0.5,0.2,0.9,0.6,1.2c0.4,0.3,0.8,0.4,1.3,0.4c0.4,0,0.7,0,1.1-0.1c0.3,0,0.7-0.1,1-0.2s0.7-0.1,1.1-0.2c0.4,0,0.9-0.1,1.3-0.1
			c0.5,0,1,0,1.4,0.1c0.4,0,0.8,0.1,1.1,0.2s0.7,0.1,1,0.2c0.3,0,0.7,0.1,1,0.1c0.6,0,1-0.1,1.3-0.4s0.5-0.7,0.5-1.2
			c0-0.4-0.1-0.7-0.4-1c-0.3-0.3-0.6-0.4-1.1-0.4c-0.3,0-0.6,0-1,0.1c-0.3,0.1-0.7,0.1-1,0.1c-0.5,0-0.8-0.2-1-0.7s-0.3-1.5-0.3-2.9
			v-6.1c0-1,0-1.9,0.1-2.9s0.4-1.9,1-2.8c0.6-0.8,1.4-1.4,2.3-1.8c1-0.4,2-0.5,2.9-0.5c1.1,0,2.2,0.3,3.1,0.8
			c0.9,0.6,1.6,1.4,1.9,2.6c0.1,0.4,0.2,0.9,0.3,1.4s0.1,1.1,0.1,1.6c0,0.6,0,1.1,0,1.7v1.4v4.4c0,1.4-0.1,2.3-0.2,2.9
			c-0.2,0.5-0.5,0.8-1,0.8c-0.4,0-0.7,0-1-0.1s-0.6-0.1-1-0.1s-0.8,0.1-1.1,0.4s-0.4,0.6-0.4,1c0,0.5,0.2,0.9,0.6,1.2
			c0.4,0.3,0.8,0.4,1.3,0.4c0.4,0,0.7,0,1.1-0.1c0.3,0,0.7-0.1,1-0.2s0.7-0.1,1.1-0.2c0.4,0,0.9-0.1,1.3-0.1c0.5,0,1,0,1.4,0.1
			c0.4,0,0.8,0.1,1.1,0.2s0.7,0.1,1,0.2c0.3,0,0.7,0.1,1,0.1c0.5,0,1-0.1,1.3-0.4s0.5-0.7,0.5-1.2c0-0.4-0.1-0.7-0.4-1
			c-0.3-0.3-0.6-0.4-1.1-0.4c-0.3,0-0.6,0-1,0.1c-0.3,0.1-0.7,0.1-1,0.1c-0.5,0-0.8-0.2-1-0.7s-0.3-1.5-0.3-2.9v-8.6H363.3z
			 M336.8,113.7c-0.1-0.5-0.3-0.9-0.5-1.3s-0.5-0.7-0.9-0.9c-0.4-0.2-0.9-0.3-1.5-0.3c-0.5,0-1,0.2-1.5,0.6
			c-0.4,0.4-0.7,0.9-0.7,1.4s0.2,1,0.6,1.4c0.4,0.4,0.9,0.5,1.4,0.3c-0.1,0.2-0.2,0.4-0.3,0.6c-0.2,0.2-0.4,0.3-0.6,0.4
			c-0.2,0.1-0.5,0.2-0.7,0.2s-0.5,0.1-0.7,0.1c-0.4,0-0.9-0.1-1.3-0.3c-0.4-0.2-0.9-0.4-1.3-0.7c-0.5-0.3-0.9-0.5-1.3-0.8
			c-0.4-0.3-0.8-0.6-1.1-0.8c-0.9-0.7-1.7-1.2-2.4-1.7c-0.8-0.4-1.7-0.7-2.9-0.7c-1.1,0-2,0.3-2.5,0.9c-0.6,0.6-1.1,1.3-1.6,2.2
			l-0.1-0.1c0.1-0.2,0.1-0.5,0.2-0.8c0.1-0.3,0.1-0.6,0.1-0.9c0-0.4-0.1-0.8-0.3-1.1c-0.2-0.3-0.5-0.5-1-0.5c-0.6,0-1,0.2-1.2,0.5
			c-0.2,0.4-0.3,0.8-0.4,1.4c0,0.8,0.1,1.7,0.2,2.5c0.1,0.9,0.2,1.7,0.2,2.5c-0.1,0.8-0.1,1.7-0.2,2.5c-0.1,0.8-0.1,1.6-0.2,2.5
			c-0.1,0.5,0.1,0.9,0.4,1.3c0.3,0.4,0.8,0.5,1.3,0.5s0.9-0.2,1.3-0.5c0.4-0.3,0.5-0.8,0.5-1.3c0-0.8-0.1-1.5-0.3-2.2
			s-0.3-1.4-0.3-2.2c0-0.5,0-1,0.1-1.4c0.1-0.5,0.2-0.9,0.5-1.2c0.2-0.3,0.5-0.6,0.9-0.8c0.4-0.2,0.9-0.3,1.4-0.3
			c0.7,0,1.3,0.2,1.9,0.7c0.6,0.4,1.2,0.9,2,1.5c0.7,0.5,1.5,1,2.4,1.5c0.9,0.4,2,0.7,3.3,0.7c0.6,0,1.3-0.1,2-0.3
			c0.7-0.2,1.2-0.5,1.6-1l0.1,0.1c-0.1,0.7-0.5,1.3-1,1.8c-0.6,0.5-1.1,1-1.6,1.4c-1.4,1.2-2.8,2.4-4.2,3.7
			c-1.3,1.3-2.4,2.8-3.3,4.4c-0.3,0.7-0.7,1.5-0.9,2.3c-0.3,0.9-0.5,1.7-0.7,2.6s-0.3,1.7-0.4,2.6c-0.1,0.8-0.1,1.6-0.1,2.3
			c0,0.4,0,0.8,0.1,1.3c0,0.4,0.1,0.8,0.3,1.2c0.2,0.3,0.4,0.6,0.7,0.9c0.3,0.2,0.7,0.3,1.2,0.3c0.8,0,1.4-0.3,1.7-0.9
			s0.5-1.3,0.5-2c0-0.4,0-0.8,0-1.2c0-0.4,0-0.8,0-1.2c0-0.5,0-1.1,0.1-1.8c0.1-0.7,0.1-1.3,0.3-2c0.1-0.7,0.3-1.3,0.4-1.9
			c0.2-0.6,0.4-1.2,0.6-1.7c0.5-1,1.1-2,1.9-2.9c0.8-0.9,1.6-1.7,2.5-2.5c0.4-0.3,0.8-0.7,1.1-1s0.6-0.6,0.9-0.9
			c0.3-0.3,0.6-0.6,0.8-0.9c0.3-0.3,0.6-0.7,0.9-1.2c0.6-0.9,1-1.7,1.3-2.6c0.3-0.8,0.4-1.8,0.4-2.8
			C336.9,114.7,336.9,114.2,336.8,113.7 M298.1,114.7c0-0.3,0-0.5,0.1-0.8c0-0.3,0.1-0.6,0.1-0.8c0-0.5-0.1-0.8-0.3-1
			s-0.6-0.3-1.1-0.3c-0.6,0-1.2,0.1-1.7,0.2c-0.6,0.2-1.1,0.2-1.7,0.2c-0.6,0-1.2-0.1-1.8-0.2c-0.6-0.2-1.2-0.2-1.8-0.2
			c-0.4,0-0.7,0.1-1,0.3c-0.2,0.2-0.3,0.6-0.3,1.2c0,0.4,0.1,0.8,0.4,1c0.3,0.3,0.6,0.4,1,0.4c0.3,0,0.7,0,1-0.1s0.7-0.1,1-0.1
			c1.2,0,1.9,0.5,2.1,1.6c0.1,0.3,0.1,0.7,0.2,1.2c0,0.5,0,1,0,1.5v1.5v1.3v13.3c0,1.7-0.1,2.8-0.4,3.4c-0.3,0.6-0.9,0.9-1.9,0.9
			c-0.3,0-0.7,0-1-0.1s-0.7-0.1-1-0.1c-0.4,0-0.7,0.1-1,0.4s-0.4,0.6-0.4,1c0,0.5,0.2,0.9,0.6,1.2c0.4,0.3,0.8,0.4,1.2,0.4
			c0.9,0,1.9-0.1,2.8-0.2c0.9-0.2,1.9-0.2,3-0.2s2.1,0.1,3,0.2c0.9,0.2,1.9,0.2,2.9,0.2c0.5,0,0.9-0.1,1.3-0.4
			c0.4-0.3,0.6-0.7,0.6-1.2c0-0.4-0.1-0.8-0.4-1c-0.3-0.3-0.6-0.4-1-0.4c-0.3,0-0.7,0-1,0.1s-0.7,0.1-1,0.1c-0.5,0-0.8-0.1-1.2-0.2
			c-0.3-0.1-0.5-0.4-0.7-0.7s-0.3-0.8-0.4-1.4c-0.1-0.6-0.1-1.4-0.1-2.3L298.1,114.7L298.1,114.7z M259.1,127.1
			c0-1.3-0.1-2.5-0.4-3.7c-0.3-1.1-0.9-2.1-2-3c-0.8-0.6-1.8-1.1-2.8-1.3c-1.1-0.3-2.1-0.4-3.1-0.4s-2,0.1-3,0.4s-2,0.7-2.7,1.2
			c-0.8,0.5-1.4,1.2-1.9,1.9c-0.5,0.8-0.8,1.6-0.8,2.5c0,0.8,0.3,1.4,0.8,2c0.5,0.5,1.2,0.8,1.9,0.8c0.6,0,1.2-0.2,1.6-0.5
			c0.5-0.3,0.7-0.9,0.7-1.5c0-0.4-0.1-0.7-0.2-0.9c-0.1-0.2-0.2-0.4-0.4-0.5c-0.1-0.1-0.2-0.2-0.3-0.2s-0.2-0.1-0.2-0.2
			c0-0.2,0.1-0.5,0.4-0.7c0.2-0.2,0.5-0.4,0.6-0.5c0.5-0.3,1-0.5,1.6-0.7s1.2-0.3,1.7-0.3c0.6,0,1.3,0.1,1.8,0.2
			c0.6,0.1,1.1,0.3,1.6,0.7c0.4,0.3,0.8,0.7,1.1,1.2s0.4,1.1,0.4,1.8c0,0.8-0.2,1.4-0.6,1.9c-0.4,0.4-0.9,0.8-1.5,1s-1.2,0.3-2,0.4
			c-0.7,0.1-1.4,0.1-2,0.2c-1.1,0.1-2.1,0.3-3,0.5s-1.9,0.5-2.8,1.1c-1,0.6-1.8,1.3-2.2,2.3c-0.5,0.9-0.7,2-0.7,3.2
			c0,1.1,0.3,2.1,0.8,3s1.2,1.6,2.1,2.2c0.8,0.5,1.6,0.8,2.5,1s1.8,0.3,2.7,0.3c1.4,0,2.7-0.2,4-0.7s2.3-1.3,3-2.6
			c0.2,1.1,0.8,1.9,1.6,2.4s1.8,0.7,2.8,0.7c0.7,0,1.4-0.1,2.1-0.3c0.7-0.2,1.3-0.6,1.7-1.2c0.5-0.6,0.7-1.3,0.8-2.2
			c0.1-0.9,0.1-2.1,0.1-3.8c0-0.5-0.1-0.9-0.3-1.3s-0.6-0.5-1.2-0.5c-0.4,0-0.7,0.1-0.9,0.2c-0.2,0.2-0.3,0.4-0.4,0.6
			c-0.1,0.2-0.1,0.5-0.1,0.8v0.9c0,0.3,0,0.7,0,1.2s0,0.9-0.1,1.3s-0.2,0.8-0.5,1.1c-0.2,0.3-0.6,0.5-1,0.5c-0.5,0-0.9-0.2-1.2-0.5
			c-0.2-0.4-0.4-0.8-0.5-1.3s-0.1-1-0.1-1.6c0-0.5,0-1,0-1.3L259.1,127.1z M244.8,134.2c0.3-0.5,0.7-0.8,1.2-1.1
			c0.5-0.3,1-0.5,1.6-0.6s1.2-0.2,1.8-0.3c0.5-0.1,1.1-0.1,1.6-0.2c0.6-0.1,1.1-0.1,1.6-0.3c0.5-0.1,1-0.3,1.5-0.5s0.9-0.5,1.3-0.9
			c0,0.5-0.1,0.9-0.1,1.4s0,0.9,0,1.4c0,0.8-0.1,1.5-0.2,2.2c-0.1,0.7-0.4,1.4-0.9,2c-0.7,0.8-1.5,1.4-2.5,1.8c-1,0.3-2,0.5-3,0.5
			c-0.6,0-1.1-0.1-1.7-0.2c-0.5-0.1-1-0.3-1.4-0.7c-0.4-0.3-0.8-0.7-1-1.1c-0.3-0.4-0.4-1-0.4-1.7
			C244.3,135.2,244.5,134.6,244.8,134.2 M250.8,111.3c-0.3-0.3-0.6-0.5-0.8-0.7c-0.3-0.2-0.6-0.3-1-0.3c-0.6,0-1.1,0.2-1.4,0.6
			c-0.4,0.4-0.5,0.9-0.5,1.5s0.2,1,0.5,1.2c0.3,0.3,0.7,0.5,1.2,0.7l6,2.2c0.1,0.1,0.3,0.1,0.5,0.2s0.3,0.1,0.5,0.1
			c0.1,0,0.3,0,0.4-0.1c0.1-0.1,0.2-0.2,0.2-0.3c0-0.3-0.1-0.5-0.3-0.7s-0.4-0.3-0.5-0.5L250.8,111.3z M218.1,127.1
			c0-1.2-0.2-2.3-0.5-3.3s-0.9-2-1.8-2.8c-0.8-0.7-1.8-1.3-2.9-1.6c-1.1-0.4-2.2-0.5-3.3-0.5c-1.4,0-2.6,0.2-3.7,0.7
			c-1,0.5-2,1.2-3,2.1v-8c0-0.8-0.1-1.4-0.2-1.7c-0.1-0.4-0.5-0.5-1-0.5c-0.4,0-0.8,0.1-1.1,0.2c-0.3,0.2-0.7,0.2-1.3,0.2
			c-0.4,0-0.9-0.1-1.3-0.2c-0.4-0.2-0.9-0.2-1.6-0.2c-0.3,0-0.7,0.1-1.1,0.4c-0.4,0.3-0.6,0.7-0.6,1.2c0,0.4,0.1,0.7,0.4,1
			c0.3,0.3,0.6,0.4,1.1,0.4c0.3,0,0.6,0,1-0.1c0.3-0.1,0.7-0.1,1-0.1c0.1,0,0.3,0,0.5,0.1c0.2,0,0.3,0.2,0.4,0.4
			c0.1,0.2,0.2,0.6,0.3,1.1s0.1,1.2,0.1,2.1v17.7c0,1.4-0.1,2.3-0.2,2.9c-0.2,0.5-0.5,0.8-1,0.8c-0.4,0-0.7,0-1-0.1s-0.6-0.1-1-0.1
			s-0.8,0.1-1.1,0.4s-0.4,0.6-0.4,1c0,0.5,0.2,0.9,0.6,1.2c0.4,0.3,0.8,0.4,1.3,0.4c0.4,0,0.7,0,1.1-0.1c0.3,0,0.7-0.1,1-0.2
			s0.7-0.1,1.1-0.2c0.4,0,0.9-0.1,1.3-0.1c0.5,0,1,0,1.4,0.1c0.4,0,0.8,0.1,1.1,0.2s0.7,0.1,1,0.2c0.3,0,0.7,0.1,1,0.1
			c0.6,0,1-0.1,1.3-0.4s0.5-0.7,0.5-1.2c0-0.4-0.1-0.7-0.4-1c-0.3-0.3-0.6-0.4-1.1-0.4c-0.3,0-0.6,0-1,0.1c-0.3,0.1-0.7,0.1-1,0.1
			c-0.5,0-0.8-0.2-1-0.7s-0.3-1.5-0.3-2.9v-6.1c0-1,0-1.9,0.1-2.9s0.4-1.9,1-2.8c0.6-0.8,1.4-1.4,2.3-1.8c1-0.4,2-0.5,2.9-0.5
			c1.1,0,2.2,0.3,3.1,0.8c0.9,0.6,1.6,1.4,1.9,2.6c0.1,0.4,0.2,0.9,0.3,1.4s0.1,1.1,0.1,1.6c0,0.6,0,1.1,0,1.7v1.4v4.4
			c0,1.4-0.1,2.3-0.2,2.9c-0.2,0.5-0.5,0.8-1,0.8c-0.4,0-0.7,0-1-0.1s-0.6-0.1-1-0.1s-0.8,0.1-1.1,0.4s-0.4,0.6-0.4,1
			c0,0.5,0.2,0.9,0.6,1.2c0.4,0.3,0.8,0.4,1.3,0.4c0.4,0,0.7,0,1.1-0.1c0.3,0,0.7-0.1,1-0.2s0.7-0.1,1.1-0.2c0.4,0,0.9-0.1,1.3-0.1
			c0.5,0,1,0,1.4,0.1c0.4,0,0.8,0.1,1.1,0.2s0.7,0.1,1,0.2c0.3,0,0.7,0.1,1,0.1c0.5,0,1-0.1,1.3-0.4s0.5-0.7,0.5-1.2
			c0-0.4-0.1-0.7-0.4-1c-0.3-0.3-0.6-0.4-1.1-0.4c-0.3,0-0.6,0-1,0.1c-0.3,0.1-0.7,0.1-1,0.1c-0.5,0-0.8-0.2-1-0.7s-0.3-1.5-0.3-2.9
			v-8.6H218.1z M168.9,125.9c0.5,1.2,1.2,2.3,2.2,3.1c0.9,0.9,2,1.5,3.3,2c1.2,0.5,2.6,0.7,4.1,0.7c0.9,0,1.7-0.1,2.6-0.3
			c0.9-0.2,1.7-0.4,2.5-0.8s1.5-0.8,2.2-1.4c0.6-0.6,1.2-1.3,1.6-2.1l0.1,0.1c0,1.4-0.2,2.9-0.5,4.3c-0.3,1.5-0.9,2.8-1.6,4
			c-0.7,1.2-1.7,2.2-2.8,2.9c-1.2,0.8-2.6,1.1-4.3,1.1c-0.4,0-0.9,0-1.5-0.1s-1.1-0.2-1.7-0.4c-0.5-0.2-1-0.5-1.5-0.8
			s-0.8-0.7-1-1.2c0.4-0.1,0.7-0.4,1-0.7s0.3-0.7,0.3-1.2c0-0.6-0.2-1.1-0.7-1.6c-0.5-0.4-1-0.7-1.6-0.7c-0.8,0-1.5,0.3-2.1,0.9
			s-0.8,1.3-0.8,2.1c0,1.1,0.3,2.1,0.9,2.9c0.6,0.8,1.4,1.5,2.3,2.1c0.9,0.5,1.9,0.9,3,1.2c1.1,0.3,2.1,0.4,3,0.4
			c2.4,0,4.5-0.5,6.2-1.5s3.1-2.3,4.1-3.9s1.8-3.4,2.3-5.5c0.5-2,0.7-4.1,0.7-6.2c0-1.9-0.2-3.7-0.7-5.4c-0.4-1.7-1.1-3.3-2.1-4.6
			c-0.9-1.3-2.2-2.4-3.6-3.2c-1.5-0.8-3.3-1.2-5.4-1.2c-1.6,0-3.1,0.3-4.4,0.8c-1.4,0.5-2.5,1.3-3.6,2.2s-1.8,2.1-2.4,3.4
			c-0.6,1.3-0.9,2.8-0.9,4.4C168.1,123.4,168.4,124.7,168.9,125.9 M172.6,118.7c0.3-0.9,0.8-1.7,1.4-2.4c0.6-0.7,1.4-1.2,2.2-1.6
			c0.9-0.4,1.9-0.6,3-0.6s2.1,0.2,3,0.6s1.7,0.9,2.3,1.5c0.6,0.7,1.1,1.4,1.4,2.4c0.3,0.9,0.5,1.9,0.5,3c0,2.2-0.7,3.9-2.1,5.1
			c-1.4,1.2-3.2,1.8-5.4,1.8c-2.1,0-3.8-0.6-5.1-1.9c-1.3-1.2-1.9-2.9-1.9-5C172.1,120.6,172.3,119.6,172.6,118.7 M145.3,131.1
			c0.5,0,0.9,0,1.2-0.1c0.3,0,0.5-0.1,0.6-0.3c0.1-0.2,0.2-0.4,0.2-0.7c0-0.3,0-0.7,0-1.3c0-1.4-0.2-2.8-0.7-4s-1.2-2.3-2-3.2
			c-0.9-0.9-1.9-1.6-3.1-2.1c-1.2-0.5-2.5-0.8-4-0.8c-1.6,0-3,0.3-4.4,1s-2.6,1.6-3.6,2.8c-0.9,1.2-1.6,2.5-2,4s-0.6,3-0.6,4.5
			c0,1.6,0.2,3.1,0.7,4.5s1.1,2.6,2,3.7s2,1.9,3.2,2.5c1.3,0.6,2.8,0.9,4.5,0.9c1.2,0,2.5-0.2,3.8-0.6s2.4-1,3.3-1.9
			c0.6-0.6,1.2-1.3,1.8-2.3c0.5-0.9,0.8-1.8,0.8-2.7c0-0.5-0.2-0.9-0.5-1.2c-0.3-0.3-0.7-0.5-1.2-0.5c-0.6,0-1,0.2-1.2,0.6
			s-0.4,0.8-0.5,1.3c-0.4,1.4-1.1,2.5-2.2,3.2c-1.1,0.7-2.3,1.1-3.8,1.1c-1.2,0-2.2-0.2-3.1-0.7c-0.9-0.5-1.6-1.1-2.2-1.9
			c-0.6-0.8-1-1.7-1.3-2.7s-0.4-2.1-0.3-3.2h14.6V131.1z M130.9,128c0.1-0.9,0.3-1.7,0.7-2.5c0.3-0.8,0.8-1.4,1.4-2
			c0.6-0.5,1.3-1,2.1-1.3s1.6-0.5,2.6-0.5s1.8,0.2,2.5,0.5s1.4,0.8,1.9,1.3c0.5,0.6,0.9,1.2,1.2,2s0.4,1.6,0.5,2.5H130.9z
			 M120.9,113.2c0-0.8-0.1-1.3-0.2-1.5c-0.1-0.2-0.3-0.4-0.5-0.4c-0.4,0-0.8,0.1-1.2,0.2c-0.4,0.2-0.8,0.2-1.4,0.2
			c-0.6,0-1.1-0.1-1.5-0.2c-0.4-0.2-0.9-0.2-1.5-0.2c-0.4,0-0.8,0.1-1.1,0.4c-0.3,0.3-0.5,0.7-0.5,1.2c0,0.4,0.1,0.7,0.4,1
			s0.6,0.4,1.1,0.4c0.3,0,0.6,0,1-0.1c0.3-0.1,0.7-0.1,1-0.1c0.2,0,0.4,0,0.5,0.1c0.2,0.1,0.3,0.2,0.4,0.5s0.2,0.6,0.2,1.1
			c0.1,0.5,0.1,1.1,0.1,1.9v4.2h-0.1c-0.8-1.2-1.7-2.1-2.9-2.5c-1.2-0.5-2.5-0.7-3.8-0.7c-1.7,0-3.1,0.3-4.4,1
			c-1.2,0.7-2.3,1.5-3.1,2.6c-0.8,1.1-1.4,2.3-1.8,3.8c-0.4,1.4-0.6,2.9-0.6,4.4c0,1.6,0.2,3.1,0.6,4.5c0.4,1.5,1,2.7,1.9,3.9
			c0.8,1.1,1.9,2,3.2,2.7c1.3,0.7,2.8,1,4.5,1c1.3,0,2.5-0.2,3.8-0.7s2.2-1.3,2.9-2.4h0.1v0.4c0,0.8,0.1,1.4,0.3,1.7
			c0.2,0.3,0.6,0.4,1.2,0.4c0.3,0,0.5,0,0.7-0.1c0.2,0,0.4-0.1,0.5-0.2c0.2-0.1,0.3-0.1,0.5-0.2c0.2,0,0.4-0.1,0.6-0.1
			c0.5,0,0.9,0.1,1.3,0.2c0.4,0.2,0.8,0.2,1.2,0.2s0.7-0.1,1-0.4s0.4-0.7,0.4-1.2c0-0.4-0.1-0.7-0.4-1c-0.3-0.3-0.6-0.4-1.1-0.4
			c-0.3,0-0.6,0-1,0.1c-0.3,0.1-0.7,0.1-1,0.1c-0.5,0-0.8-0.2-1-0.7s-0.3-1.5-0.3-3V113.2z M113.9,122.3c0.9,0.4,1.6,1,2.3,1.9
			c0.6,0.9,1,1.9,1.2,3c0.1,1.1,0.2,2.2,0.2,3.3c0,1-0.1,2.1-0.2,3.2c-0.1,1.1-0.4,2.1-0.8,3c-0.5,1-1.2,1.8-2.2,2.3s-2,0.7-3.1,0.7
			c-1.2,0-2.2-0.3-3.1-0.8s-1.5-1.2-2.1-2s-1-1.8-1.2-2.8c-0.2-1.1-0.4-2.1-0.4-3.2c0-1,0.1-2.1,0.3-3.2c0.2-1.1,0.6-2,1.1-2.9
			s1.2-1.6,2-2.1s1.9-0.8,3.1-0.8C112,121.7,113,121.9,113.9,122.3"/>
	</g>
	<g>
		<defs>
			<rect id="SVGID_3_" x="6" y="7" width="468.2" height="135.6"/>
		</defs>
		<clipPath id="SVGID_4_">
			<use xlink:href="#SVGID_3_"  style="overflow:visible;"/>
		</clipPath>
		<path class="st1" d="M471.2,90.4c0.2,0,0.3,0.3,0.3,0.6c0,0.5-0.1,1.1-0.4,1.7c-0.3,0.6-0.6,1.2-1,1.7s-0.7,1-1,1.5
			c-0.3,0.4-0.4,0.7-0.4,0.9c0,0.2,0.1,0.4,0.3,0.6s0.4,0.3,0.6,0.3c0.3,0,0.5-0.1,0.8-0.3c0.3-0.2,0.5-0.5,0.8-0.8
			c0.2-0.3,0.5-0.6,0.7-0.9s0.4-0.5,0.5-0.7c0.5-0.8,1-1.8,1.4-2.9s0.5-2.1,0.5-3.1c0-0.5-0.1-1-0.2-1.6c-0.1-0.5-0.4-1-0.7-1.4
			s-0.7-0.8-1.1-1c-0.4-0.3-1-0.4-1.5-0.4c-0.9,0-1.7,0.3-2.3,0.8s-0.9,1.3-0.9,2.2c0,1,0.3,1.7,0.8,2.1s1.2,0.6,2.1,0.6
			C470.8,90.3,471,90.3,471.2,90.4 M455.5,83.3c0,1.4-0.1,2.3-0.3,2.8s-0.5,0.8-1,0.8c-0.4,0-0.7,0-1-0.1s-0.6-0.1-1-0.1
			s-0.8,0.1-1.1,0.4s-0.4,0.6-0.4,1s0.2,0.8,0.5,1.1c0.3,0.3,0.6,0.5,1,0.5c0.8,0,1.5-0.1,2.2-0.2c0.7-0.2,1.5-0.2,2.4-0.2
			s1.7,0.1,2.4,0.2c0.7,0.2,1.4,0.2,2.1,0.2c0.5,0,0.9-0.1,1.3-0.4c0.4-0.3,0.6-0.7,0.6-1.2c0-0.4-0.1-0.7-0.4-1
			c-0.3-0.3-0.6-0.4-1.1-0.4c-0.3,0-0.6,0-0.9,0.1c-0.3,0.1-0.6,0.2-0.8,0.2c-0.4,0-0.7-0.2-0.9-0.5s-0.3-0.8-0.3-1.3V69
			c0-0.4-0.1-0.9-0.2-1.3c-0.2-0.4-0.5-0.6-1-0.6c-0.4,0-0.8,0.1-1.1,0.2c-0.3,0.2-0.8,0.2-1.3,0.2s-1-0.1-1.4-0.2
			c-0.4-0.2-0.9-0.2-1.5-0.2c-0.4,0-0.8,0.1-1.1,0.4s-0.5,0.7-0.5,1.2c0,0.4,0.1,0.7,0.4,1c0.3,0.3,0.6,0.4,1.1,0.4
			c0.3,0,0.6,0,1-0.1c0.3-0.1,0.7-0.1,1-0.1c0.2,0,0.4,0.1,0.6,0.2c0.2,0.1,0.3,0.3,0.4,0.5c0.1,0.3,0.2,0.6,0.2,1.1
			s0.1,1.1,0.1,1.8V83.3z M454.7,60.7c-0.5,0.5-0.7,1.1-0.7,1.8c0,0.7,0.2,1.3,0.7,1.8s1.1,0.7,1.7,0.7c0.7,0,1.3-0.2,1.8-0.7
			s0.7-1.1,0.7-1.8c0-0.7-0.2-1.3-0.7-1.8s-1.1-0.7-1.8-0.7C455.8,59.9,455.2,60.2,454.7,60.7 M445.4,61c0-0.8-0.1-1.3-0.2-1.5
			c-0.1-0.2-0.3-0.4-0.5-0.4c-0.4,0-0.8,0.1-1.2,0.2c-0.4,0.2-0.8,0.2-1.4,0.2c-0.6,0-1.1-0.1-1.5-0.2c-0.4-0.2-0.9-0.2-1.5-0.2
			c-0.4,0-0.8,0.1-1.1,0.4s-0.5,0.7-0.5,1.2c0,0.4,0.1,0.7,0.4,1c0.3,0.3,0.6,0.4,1.1,0.4c0.3,0,0.6,0,1-0.1c0.3-0.1,0.7-0.1,1-0.1
			c0.2,0,0.4,0,0.5,0.1c0.2,0.1,0.3,0.2,0.4,0.5c0.1,0.3,0.2,0.6,0.2,1.1c0.1,0.5,0.1,1.1,0.1,1.9v4.2H442c-0.8-1.2-1.7-2.1-2.9-2.5
			c-1.2-0.5-2.5-0.7-3.8-0.7c-1.7,0-3.1,0.3-4.4,1c-1.2,0.7-2.3,1.5-3.1,2.6s-1.4,2.3-1.8,3.8c-0.4,1.4-0.6,2.9-0.6,4.4
			c0,1.6,0.2,3.1,0.6,4.5c0.4,1.5,1,2.7,1.9,3.9c0.8,1.1,1.9,2,3.2,2.7s2.8,1,4.5,1c1.3,0,2.5-0.2,3.8-0.7s2.2-1.3,2.9-2.4h0.1v0.4
			c0,0.8,0.1,1.4,0.3,1.7c0.2,0.3,0.6,0.4,1.2,0.4c0.3,0,0.5,0,0.7-0.1c0.2,0,0.4-0.1,0.5-0.2c0.2-0.1,0.3-0.1,0.5-0.2
			c0.2,0,0.4-0.1,0.6-0.1c0.5,0,0.9,0.1,1.3,0.2c0.4,0.2,0.8,0.2,1.2,0.2s0.7-0.1,1-0.4s0.4-0.7,0.4-1.2c0-0.4-0.1-0.7-0.4-1
			c-0.3-0.3-0.6-0.4-1.1-0.4c-0.3,0-0.6,0-1,0.1c-0.3,0.1-0.7,0.1-1,0.1c-0.5,0-0.8-0.2-1-0.7s-0.3-1.5-0.3-3L445.4,61L445.4,61z
			 M438.4,70.1c0.9,0.4,1.6,1,2.3,1.9c0.6,0.9,1,1.9,1.2,3c0.1,1.1,0.2,2.2,0.2,3.3c0,1-0.1,2.1-0.2,3.2c-0.1,1.1-0.4,2.1-0.8,3
			c-0.5,1-1.2,1.8-2.2,2.3s-2,0.7-3.1,0.7c-1.2,0-2.2-0.3-3.1-0.8c-0.8-0.5-1.5-1.2-2.1-2s-1-1.8-1.2-2.8c-0.2-1.1-0.4-2.1-0.4-3.2
			c0-1,0.1-2.1,0.3-3.2s0.6-2,1.1-2.9s1.2-1.6,2-2.1c0.8-0.6,1.9-0.8,3.1-0.8C436.5,69.5,437.5,69.7,438.4,70.1 M420.2,78.9
			c0.5,0,0.9,0,1.2-0.1c0.3,0,0.5-0.1,0.6-0.3c0.1-0.2,0.2-0.4,0.2-0.7c0-0.3,0-0.7,0-1.3c0-1.5-0.2-2.8-0.7-4s-1.2-2.3-2-3.2
			c-0.9-0.9-1.9-1.6-3.1-2.1c-1.2-0.5-2.5-0.8-4-0.8c-1.6,0-3,0.3-4.4,1s-2.6,1.6-3.6,2.8c-0.9,1.2-1.6,2.5-2,4s-0.6,3-0.6,4.5
			c0,1.6,0.2,3.1,0.7,4.5s1.1,2.6,2,3.7c0.9,1,2,1.9,3.2,2.5c1.3,0.6,2.8,0.9,4.5,0.9c1.2,0,2.5-0.2,3.8-0.6s2.4-1,3.3-1.9
			c0.6-0.6,1.2-1.3,1.8-2.3c0.5-0.9,0.8-1.8,0.8-2.7c0-0.5-0.2-0.9-0.5-1.2c-0.3-0.3-0.7-0.5-1.2-0.5c-0.6,0-1,0.2-1.2,0.6
			s-0.4,0.8-0.5,1.3c-0.4,1.4-1.1,2.5-2.2,3.2c-1.1,0.7-2.3,1.1-3.8,1.1c-1.2,0-2.2-0.2-3.1-0.7c-0.9-0.5-1.6-1.1-2.2-1.9
			s-1-1.7-1.3-2.7s-0.4-2.1-0.3-3.2h14.6V78.9z M405.8,75.8c0.1-0.9,0.3-1.7,0.7-2.5c0.3-0.8,0.8-1.5,1.4-2c0.6-0.5,1.3-1,2.1-1.3
			s1.6-0.5,2.6-0.5s1.8,0.2,2.5,0.5s1.4,0.8,1.9,1.3c0.5,0.6,0.9,1.2,1.2,2s0.4,1.6,0.5,2.5H405.8z M383.7,83.3c0,0.8,0,1.4-0.1,1.8
			c0,0.5-0.1,0.8-0.2,1.1c-0.1,0.3-0.2,0.4-0.4,0.5s-0.4,0.2-0.6,0.2c-0.4,0-0.7,0-1-0.1s-0.6-0.1-1-0.1s-0.8,0.1-1.1,0.4
			s-0.4,0.6-0.4,1c0,0.5,0.2,0.9,0.6,1.2c0.4,0.3,0.9,0.4,1.3,0.4c0.4,0,0.8,0,1.2-0.1c0.4,0,0.7-0.1,1.1-0.2
			c0.3-0.1,0.7-0.1,1.1-0.2c0.4,0,0.8-0.1,1.2-0.1c0.9,0,1.7,0.1,2.3,0.2c0.7,0.2,1.4,0.2,2.1,0.2c0.5,0,0.9-0.1,1.3-0.4
			c0.4-0.3,0.6-0.7,0.6-1.2c0-0.4-0.1-0.7-0.4-1c-0.3-0.3-0.6-0.4-1.1-0.4c-0.3,0-0.6,0-1,0.1c-0.3,0.1-0.7,0.1-1,0.1
			c-0.2,0-0.4,0-0.5-0.1c-0.2-0.1-0.3-0.3-0.4-0.5c-0.1-0.3-0.2-0.6-0.3-1.1s-0.1-1.1-0.1-1.9v-5.8c0-1.6,0.1-2.9,0.4-3.9
			c0.3-1.1,0.6-1.9,1.1-2.5s1.1-1.1,1.7-1.3c0.7-0.3,1.4-0.4,2.3-0.4c0.4,0,0.9,0.1,1.4,0.2s0.9,0.3,1.2,0.6c0.4,0.3,0.7,0.6,0.9,1
			s0.4,0.8,0.4,1.3c0,0.3-0.1,0.7-0.3,1c-0.1,0-0.2-0.1-0.3-0.1s-0.2,0-0.3,0c-0.5,0-0.9,0.2-1.3,0.6c-0.3,0.4-0.5,0.8-0.5,1.3
			c0,0.6,0.2,1.1,0.7,1.5s1,0.6,1.6,0.6c0.7,0,1.2-0.1,1.7-0.4s0.8-0.6,1.1-1s0.5-0.9,0.6-1.4s0.2-1.1,0.2-1.6c0-1-0.2-1.9-0.6-2.6
			c-0.4-0.8-0.9-1.4-1.5-1.9s-1.4-0.9-2.2-1.2c-0.9-0.3-1.7-0.4-2.6-0.4c-1.3,0-2.5,0.3-3.5,0.8c-1.1,0.5-1.9,1.4-2.6,2.5h-0.1
			c0-0.9,0-1.5-0.2-2c-0.1-0.4-0.5-0.7-1.1-0.7c-0.4,0-0.8,0.1-1.1,0.2c-0.3,0.2-0.8,0.2-1.3,0.2s-1-0.1-1.3-0.2
			c-0.4-0.2-0.8-0.2-1.2-0.2c-0.5,0-0.9,0.1-1.3,0.4c-0.4,0.3-0.6,0.7-0.6,1.2c0,0.4,0.1,0.7,0.4,1c0.3,0.3,0.6,0.4,1.1,0.4
			c0.6,0,1.1,0,1.4-0.1c0.4-0.1,0.7-0.1,1.1-0.1c0.5,0,0.8,0.2,1,0.7s0.3,1.5,0.3,2.9L383.7,83.3L383.7,83.3z M373.2,61
			c0-0.8-0.1-1.3-0.2-1.5c-0.1-0.2-0.3-0.4-0.5-0.4c-0.4,0-0.8,0.1-1.2,0.2c-0.4,0.2-0.8,0.2-1.4,0.2c-0.6,0-1.1-0.1-1.5-0.2
			c-0.4-0.2-0.9-0.2-1.5-0.2c-0.4,0-0.8,0.1-1.1,0.4s-0.5,0.7-0.5,1.2c0,0.4,0.1,0.7,0.4,1c0.3,0.3,0.6,0.4,1.1,0.4
			c0.3,0,0.6,0,1-0.1c0.3-0.1,0.7-0.1,1-0.1c0.2,0,0.4,0,0.5,0.1c0.2,0.1,0.3,0.2,0.4,0.5c0.1,0.3,0.2,0.6,0.2,1.1
			c0.1,0.5,0.1,1.1,0.1,1.9v4.2h-0.1c-0.8-1.2-1.7-2.1-2.9-2.5c-1.2-0.5-2.5-0.7-3.8-0.7c-1.7,0-3.1,0.3-4.4,1
			c-1.2,0.7-2.3,1.5-3.1,2.6s-1.4,2.3-1.8,3.8c-0.4,1.4-0.6,2.9-0.6,4.4c0,1.6,0.2,3.1,0.6,4.5c0.4,1.5,1,2.7,1.9,3.9
			c0.8,1.1,1.9,2,3.2,2.7s2.8,1,4.5,1c1.3,0,2.5-0.2,3.8-0.7s2.2-1.3,2.9-2.4h0.1v0.4c0,0.8,0.1,1.4,0.3,1.7
			c0.2,0.3,0.6,0.4,1.2,0.4c0.3,0,0.5,0,0.7-0.1c0.2,0,0.4-0.1,0.5-0.2c0.2-0.1,0.3-0.1,0.5-0.2c0.2,0,0.4-0.1,0.6-0.1
			c0.5,0,0.9,0.1,1.3,0.2c0.4,0.2,0.8,0.2,1.2,0.2s0.7-0.1,1-0.4s0.4-0.7,0.4-1.2c0-0.4-0.1-0.7-0.4-1c-0.3-0.3-0.6-0.4-1.1-0.4
			c-0.3,0-0.6,0-1,0.1s-0.7,0.1-1,0.1c-0.5,0-0.8-0.2-1-0.7s-0.3-1.5-0.3-3L373.2,61L373.2,61z M366.2,70.1c0.9,0.4,1.6,1,2.3,1.9
			s1,1.9,1.2,3c0.1,1.1,0.2,2.2,0.2,3.3c0,1-0.1,2.1-0.2,3.2c-0.1,1.1-0.4,2.1-0.8,3c-0.5,1-1.2,1.8-2.2,2.3s-2,0.7-3.1,0.7
			c-1.2,0-2.2-0.3-3.1-0.8s-1.5-1.2-2.1-2s-1-1.8-1.2-2.8c-0.2-1.1-0.4-2.1-0.4-3.2c0-1,0.1-2.1,0.3-3.2s0.6-2,1.1-2.9
			s1.2-1.6,2-2.1c0.8-0.6,1.9-0.8,3.1-0.8C364.3,69.5,365.3,69.7,366.2,70.1 M328.4,83.3c0,1.4-0.1,2.4-0.2,2.9
			c-0.1,0.5-0.5,0.8-1,0.8c-0.4,0-0.7,0-1-0.1s-0.6-0.1-1-0.1s-0.8,0.1-1.1,0.4s-0.4,0.6-0.4,1c0,1.1,0.6,1.6,1.9,1.6
			c0.8,0,1.5-0.1,2.1-0.2c0.6-0.2,1.5-0.2,2.5-0.2s1.8,0.1,2.4,0.2c0.6,0.2,1.3,0.2,2,0.2c1.2,0,1.9-0.5,1.9-1.6
			c0-0.4-0.1-0.7-0.4-1c-0.3-0.3-0.6-0.4-1.1-0.4c-0.3,0-0.6,0-1,0.1c-0.3,0.1-0.7,0.1-1,0.1c-0.5,0-0.8-0.3-1-0.8
			c-0.2-0.6-0.3-1.5-0.3-2.8v-5.1c0-1.1,0-2,0.1-2.7s0.2-1.3,0.3-1.7c0.1-0.4,0.2-0.8,0.3-1c0.1-0.3,0.3-0.5,0.4-0.7
			c0.6-0.8,1.3-1.5,2.3-1.9s2-0.6,3-0.6c0.9,0,1.8,0.2,2.7,0.6s1.6,1,2,1.8c0.2,0.3,0.3,0.7,0.4,1c0.1,0.3,0.2,0.6,0.2,1
			s0.1,0.8,0.1,1.3s0,1.1,0,1.8v6.4c0,1.4-0.1,2.4-0.2,2.9c-0.1,0.5-0.5,0.8-1,0.8c-0.4,0-0.7,0-1-0.1s-0.6-0.1-1-0.1
			s-0.8,0.1-1.1,0.4s-0.4,0.6-0.4,1c0,1,0.6,1.6,1.9,1.6c0.8,0,1.5-0.1,2.1-0.2c0.6-0.2,1.5-0.2,2.5-0.2s1.8,0.1,2.4,0.2
			c0.6,0.2,1.3,0.2,2,0.2c1.2,0,1.9-0.5,1.9-1.6c0-0.4-0.1-0.7-0.4-1c-0.3-0.3-0.6-0.4-1.1-0.4c-0.3,0-0.6,0-1,0.1
			c-0.3,0.1-0.7,0.1-1,0.1c-0.5,0-0.8-0.3-1-0.8c-0.2-0.6-0.3-1.5-0.3-2.8v-8.1c0-1.2-0.1-2.4-0.3-3.4c-0.2-1.1-0.8-2-1.7-2.9
			c-0.9-0.8-1.8-1.4-2.9-1.8c-1.1-0.4-2.2-0.6-3.4-0.6c-1.4,0-2.7,0.3-4,0.8s-2.4,1.3-3.2,2.5h-0.1c0-0.8,0-1.5-0.1-1.9
			s-0.4-0.7-0.8-0.7c-0.3,0-0.5,0-0.7,0.1c-0.2,0-0.4,0.1-0.6,0.2c-0.2,0.1-0.4,0.1-0.6,0.2c-0.2,0-0.5,0.1-0.8,0.1s-0.5,0-0.7-0.1
			c-0.2,0-0.4-0.1-0.5-0.2c-0.2-0.1-0.3-0.1-0.5-0.2c-0.2,0-0.4-0.1-0.6-0.1c-0.4,0-0.7,0.2-1.1,0.5c-0.3,0.3-0.5,0.7-0.5,1.1
			s0.1,0.7,0.4,1c0.3,0.3,0.6,0.4,1.1,0.4c0.3,0,0.6,0,1-0.1c0.3-0.1,0.7-0.1,1-0.1c0.5,0,0.8,0.2,1,0.7s0.3,1.5,0.3,3v9.2H328.4z
			 M319.3,78.9c0.5,0,0.9,0,1.2-0.1c0.3,0,0.5-0.1,0.6-0.3c0.1-0.2,0.2-0.4,0.2-0.7c0-0.3,0-0.7,0-1.3c0-1.5-0.2-2.8-0.7-4
			s-1.2-2.3-2-3.2c-0.9-0.9-1.9-1.6-3.1-2.1c-1.2-0.5-2.5-0.8-4-0.8c-1.6,0-3,0.3-4.4,1s-2.6,1.6-3.6,2.8c-0.9,1.2-1.6,2.5-2,4
			s-0.6,3-0.6,4.5c0,1.6,0.2,3.1,0.7,4.5c0.4,1.4,1.1,2.6,2,3.7c0.9,1,2,1.9,3.2,2.5c1.3,0.6,2.8,0.9,4.5,0.9c1.2,0,2.5-0.2,3.8-0.6
			s2.4-1,3.3-1.9c0.6-0.6,1.2-1.3,1.8-2.3c0.5-0.9,0.8-1.8,0.8-2.7c0-0.5-0.2-0.9-0.5-1.2c-0.3-0.3-0.7-0.5-1.2-0.5
			c-0.6,0-1,0.2-1.2,0.6s-0.4,0.8-0.5,1.3c-0.4,1.4-1.1,2.5-2.2,3.2c-1.1,0.7-2.3,1.1-3.8,1.1c-1.2,0-2.2-0.2-3.1-0.7
			c-0.9-0.5-1.6-1.1-2.2-1.9c-0.6-0.8-1-1.7-1.3-2.7s-0.4-2.1-0.3-3.2h14.6V78.9z M304.9,75.8c0.1-0.9,0.3-1.7,0.7-2.5
			c0.3-0.8,0.8-1.5,1.4-2c0.6-0.5,1.3-1,2.1-1.3s1.6-0.5,2.6-0.5s1.8,0.2,2.5,0.5s1.4,0.8,1.9,1.3c0.5,0.6,0.9,1.2,1.2,2
			s0.4,1.6,0.5,2.5H304.9z M281.1,71.8c-0.1-0.2-0.1-0.4-0.2-0.7c-0.1-0.2-0.1-0.4-0.1-0.6c0-0.5,0.2-0.7,0.7-0.7c0.2,0,0.3,0,0.5,0
			s0.3,0.1,0.5,0.1c0.3,0.1,0.7,0.2,0.9,0.2c0.3,0,0.6-0.1,1-0.4s0.5-0.7,0.5-1.2c0-0.4-0.2-0.7-0.5-1s-0.8-0.4-1.5-0.4
			s-1.4,0.1-2.1,0.2c-0.7,0.2-1.5,0.2-2.2,0.2c-0.8,0-1.5-0.1-2.1-0.2c-0.6-0.2-1.2-0.2-1.9-0.2c-0.6,0-1.1,0.1-1.3,0.4
			c-0.3,0.3-0.4,0.6-0.4,1c0,0.5,0.1,0.9,0.3,1.2s0.5,0.4,0.8,0.4s0.6-0.1,0.9-0.2c0.1-0.1,0.3-0.1,0.4-0.1c0.1,0,0.3,0,0.4,0
			c0.3,0,0.6,0.2,0.8,0.5s0.5,0.9,0.8,1.7l6,15.6c0.3,0.7,0.6,1.3,1,1.8s1,0.8,1.8,0.8s1.5-0.2,1.9-0.7s0.8-1.1,1.1-1.8l5.9-15.1
			c0.4-1,0.7-1.7,0.8-2.1s0.3-0.6,0.6-0.6c0.1,0,0.2,0,0.4,0c0.1,0,0.3,0.1,0.4,0.1c0.3,0.1,0.7,0.2,0.9,0.2c0.3,0,0.7-0.1,1-0.4
			s0.5-0.7,0.5-1.2c0-0.4-0.1-0.7-0.4-1c-0.3-0.3-0.7-0.4-1.3-0.4s-1.3,0.1-2,0.2c-0.7,0.2-1.5,0.2-2.2,0.2c-0.8,0-1.5-0.1-2.3-0.2
			c-0.7-0.2-1.3-0.2-1.9-0.2c-0.4,0-0.8,0.1-1.1,0.4s-0.4,0.6-0.4,1c0,0.5,0.1,0.9,0.4,1.2c0.3,0.3,0.6,0.4,1,0.4s0.8-0.1,1-0.2
			c0.1-0.1,0.3-0.1,0.3-0.1s0.2,0,0.3,0c0.2,0,0.3,0.1,0.5,0.2c0.1,0.1,0.2,0.4,0.2,0.7c0,0.3-0.1,0.6-0.2,0.9
			c-0.1,0.3-0.3,0.8-0.5,1.2l-4.8,13.5L281.1,71.8z M232.5,82.9c0,1.1,0.2,2.2,0.5,3.2s0.9,1.8,1.9,2.5c0.8,0.6,1.7,1.1,2.7,1.3
			c1,0.3,2,0.4,3,0.4c1.5,0,2.8-0.2,4-0.7s2.2-1.3,3-2.6h0.1c0,0.9,0,1.5,0.2,2c0.1,0.5,0.4,0.7,0.9,0.7c0.4,0,0.8-0.1,1.2-0.2
			c0.4-0.2,0.8-0.2,1.3-0.2c0.4,0,0.8,0.1,1.2,0.2c0.4,0.2,0.8,0.2,1.2,0.2c0.5,0,0.9-0.1,1.3-0.4c0.4-0.3,0.6-0.7,0.6-1.2
			c0-0.4-0.1-0.7-0.4-1c-0.3-0.3-0.6-0.4-1.1-0.4c-0.3,0-0.6,0-1,0.1c-0.3,0.1-0.7,0.1-1,0.1c-0.2,0-0.4-0.1-0.5-0.2
			c-0.2-0.1-0.3-0.3-0.4-0.5c-0.1-0.3-0.2-0.6-0.2-1.1c-0.1-0.5-0.1-1.1-0.1-1.8v-8.2c0-1.2,0-2.3,0.1-3.3c0-1,0.1-2.1,0.1-3.2
			c0-0.4-0.1-0.8-0.3-1.1c-0.2-0.3-0.5-0.4-1-0.4c-0.4,0-0.8,0.1-1.2,0.2c-0.4,0.2-0.8,0.2-1.2,0.2s-0.9-0.1-1.3-0.2
			c-0.4-0.2-0.9-0.2-1.4-0.2c-0.6,0-1,0.1-1.4,0.4s-0.6,0.7-0.6,1.2c0,0.4,0.1,0.7,0.4,1c0.3,0.3,0.6,0.4,1.1,0.4c0.3,0,0.6,0,1-0.1
			c0.3-0.1,0.7-0.1,1-0.1c0.4,0,0.8,0.3,1.1,0.8c0.3,0.6,0.5,1.5,0.5,2.8v3c0,0.5,0,1.1,0,1.7s0,1.3-0.1,1.9c0,0.7-0.1,1.3-0.2,1.9
			c-0.1,0.6-0.2,1.1-0.4,1.6c-0.4,1.3-1.1,2.3-2.2,2.8c-1,0.6-2.2,0.9-3.5,0.9c-0.5,0-1-0.1-1.6-0.2c-0.5-0.1-1-0.3-1.4-0.6
			c-0.4-0.3-0.8-0.6-1.2-1c-0.3-0.4-0.6-0.9-0.8-1.4c-0.1-0.4-0.2-0.8-0.3-1.3s-0.1-1-0.1-1.5s-0.1-1.1-0.1-1.6s0-1,0-1.4v-2
			c0-0.7,0-1.4,0-1.9s0.1-1.1,0.1-1.6c0-0.6,0.1-1.1,0.1-1.8c0-0.6,0-1.4,0-2.3c0-0.5-0.1-0.9-0.3-1.3c-0.2-0.3-0.6-0.5-1.2-0.5
			c-0.4,0-0.8,0.1-1.2,0.2c-0.4,0.2-0.8,0.2-1.2,0.2s-0.9-0.1-1.3-0.2c-0.4-0.2-0.8-0.2-1.2-0.2c-0.6,0-1.1,0.1-1.5,0.4
			s-0.6,0.7-0.6,1.2c0,0.4,0.1,0.7,0.4,1c0.3,0.3,0.6,0.4,1.1,0.4c0.3,0,0.6,0,1-0.1c0.3-0.1,0.7-0.1,1-0.1c0.5,0,0.8,0.3,1.1,0.8
			s0.4,1.5,0.4,2.9L232.5,82.9L232.5,82.9z M221.7,74.9c0-1.3-0.1-2.5-0.4-3.7c-0.3-1.1-0.9-2.1-2-3c-0.8-0.6-1.8-1.1-2.8-1.3
			c-1.1-0.3-2.1-0.4-3.1-0.4s-2,0.1-3,0.4s-2,0.7-2.7,1.2c-0.8,0.5-1.4,1.2-1.9,1.9c-0.5,0.8-0.8,1.6-0.8,2.5c0,0.8,0.3,1.4,0.8,2
			c0.5,0.5,1.2,0.8,1.9,0.8c0.6,0,1.2-0.2,1.6-0.5c0.5-0.3,0.7-0.9,0.7-1.5c0-0.4-0.1-0.7-0.2-0.9c-0.1-0.2-0.2-0.4-0.4-0.5
			c-0.1-0.1-0.2-0.2-0.3-0.2s-0.2-0.1-0.2-0.2c0-0.2,0.1-0.5,0.4-0.7c0.2-0.2,0.5-0.4,0.6-0.5c0.5-0.3,1-0.5,1.6-0.7
			s1.2-0.3,1.7-0.3c0.6,0,1.3,0.1,1.8,0.2c0.6,0.1,1.1,0.3,1.6,0.7c0.5,0.3,0.8,0.7,1.1,1.2s0.4,1.1,0.4,1.8c0,0.8-0.2,1.4-0.6,1.9
			c-0.4,0.4-0.9,0.8-1.5,1s-1.2,0.3-2,0.4c-0.7,0.1-1.4,0.1-2,0.2c-1.1,0.1-2.1,0.3-3,0.5s-1.9,0.5-2.8,1.1c-1,0.6-1.8,1.3-2.2,2.3
			c-0.5,0.9-0.7,2-0.7,3.2c0,1.1,0.3,2.1,0.8,3s1.2,1.6,2.1,2.2c0.8,0.5,1.6,0.8,2.5,1s1.8,0.3,2.7,0.3c1.4,0,2.7-0.2,4-0.7
			s2.3-1.3,3-2.6c0.2,1.1,0.8,1.9,1.6,2.4s1.8,0.7,2.8,0.7c0.7,0,1.4-0.1,2.1-0.3c0.7-0.2,1.3-0.6,1.7-1.2c0.5-0.6,0.7-1.3,0.8-2.2
			c0.1-0.9,0.1-2.1,0.1-3.8c0-0.5-0.1-0.9-0.3-1.3c-0.2-0.3-0.6-0.5-1.2-0.5c-0.4,0-0.7,0.1-0.9,0.2c-0.2,0.2-0.3,0.4-0.4,0.6
			c-0.1,0.2-0.1,0.5-0.1,0.8v0.9c0,0.3,0,0.7,0,1.2s0,0.9-0.1,1.3s-0.2,0.8-0.5,1.1c-0.2,0.3-0.6,0.5-1,0.5c-0.5,0-0.9-0.2-1.2-0.5
			c-0.2-0.4-0.4-0.8-0.5-1.3s-0.1-1-0.1-1.6c0-0.5,0-1,0-1.3L221.7,74.9z M207.4,82c0.3-0.5,0.7-0.8,1.2-1.1c0.5-0.3,1-0.5,1.6-0.6
			s1.2-0.2,1.8-0.3c0.5-0.1,1.1-0.1,1.6-0.2c0.6-0.1,1.1-0.1,1.6-0.3c0.5-0.1,1-0.3,1.5-0.5s0.9-0.5,1.3-0.9c0,0.5-0.1,0.9-0.1,1.4
			s0,0.9,0,1.4c0,0.8-0.1,1.5-0.2,2.2c-0.1,0.7-0.4,1.4-0.9,2c-0.7,0.8-1.5,1.4-2.5,1.8c-1,0.3-2,0.5-3,0.5c-0.6,0-1.1-0.1-1.7-0.2
			c-0.5-0.1-1-0.3-1.4-0.7c-0.4-0.3-0.8-0.7-1-1.1c-0.3-0.4-0.4-1-0.4-1.7C206.9,83,207.1,82.4,207.4,82 M177.1,83.3
			c0,1.4-0.1,2.3-0.3,2.8s-0.5,0.8-1,0.8c-0.4,0-0.7,0-1-0.1s-0.6-0.1-1-0.1s-0.8,0.1-1.1,0.4s-0.4,0.6-0.4,1s0.2,0.8,0.5,1.1
			c0.3,0.3,0.6,0.5,1,0.5c0.8,0,1.5-0.1,2.2-0.2c0.7-0.2,1.5-0.2,2.4-0.2s1.7,0.1,2.4,0.2c0.7,0.2,1.4,0.2,2.1,0.2
			c0.5,0,0.9-0.1,1.3-0.4c0.4-0.3,0.6-0.7,0.6-1.2c0-0.4-0.1-0.7-0.4-1c-0.3-0.3-0.6-0.4-1.1-0.4c-0.3,0-0.6,0-0.9,0.1
			c-0.3,0.1-0.6,0.2-0.8,0.2c-0.4,0-0.7-0.2-0.9-0.5s-0.3-0.8-0.3-1.3V69c0-0.4-0.1-0.9-0.2-1.3c-0.2-0.4-0.5-0.6-1-0.6
			c-0.4,0-0.8,0.1-1.1,0.2c-0.3,0.2-0.8,0.2-1.3,0.2s-1-0.1-1.4-0.2c-0.4-0.2-0.9-0.2-1.5-0.2c-0.4,0-0.8,0.1-1.1,0.4
			s-0.5,0.7-0.5,1.2c0,0.4,0.1,0.7,0.4,1c0.3,0.3,0.6,0.4,1.1,0.4c0.3,0,0.6,0,1-0.1c0.3-0.1,0.7-0.1,1-0.1c0.2,0,0.4,0.1,0.6,0.2
			c0.2,0.1,0.3,0.3,0.4,0.5c0.1,0.3,0.2,0.6,0.2,1.1s0.1,1.1,0.1,1.8V83.3z M176.3,60.7c-0.5,0.5-0.7,1.1-0.7,1.8
			c0,0.7,0.2,1.3,0.7,1.8s1.1,0.7,1.7,0.7c0.7,0,1.3-0.2,1.8-0.7s0.7-1.1,0.7-1.8c0-0.7-0.2-1.3-0.7-1.8S178.7,60,178,60
			C177.4,59.9,176.8,60.2,176.3,60.7 M167,61c0-0.8-0.1-1.3-0.2-1.5c-0.1-0.2-0.3-0.4-0.5-0.4c-0.4,0-0.8,0.1-1.2,0.2
			c-0.4,0.2-0.8,0.2-1.4,0.2c-0.6,0-1.1-0.1-1.5-0.2c-0.4-0.2-0.9-0.2-1.5-0.2c-0.4,0-0.8,0.1-1.1,0.4s-0.5,0.7-0.5,1.2
			c0,0.4,0.1,0.7,0.4,1c0.3,0.3,0.6,0.4,1.1,0.4c0.3,0,0.6,0,1-0.1c0.3-0.1,0.7-0.1,1-0.1c0.2,0,0.4,0,0.5,0.1
			c0.2,0.1,0.3,0.2,0.4,0.5c0.1,0.3,0.2,0.6,0.2,1.1c0.1,0.5,0.1,1.1,0.1,1.9v4.2h-0.1c-0.8-1.2-1.7-2.1-2.9-2.5
			c-1.2-0.5-2.5-0.7-3.8-0.7c-1.7,0-3.1,0.3-4.4,1c-1.2,0.7-2.3,1.5-3.1,2.6s-1.4,2.3-1.8,3.8c-0.4,1.4-0.6,2.9-0.6,4.4
			c0,1.6,0.2,3.1,0.6,4.5c0.4,1.5,1,2.7,1.9,3.9c0.8,1.1,1.9,2,3.2,2.7s2.8,1,4.5,1c1.3,0,2.5-0.2,3.8-0.7s2.2-1.3,2.9-2.4h0.1v0.4
			c0,0.8,0.1,1.4,0.3,1.7c0.2,0.3,0.6,0.4,1.2,0.4c0.3,0,0.5,0,0.7-0.1c0.2,0,0.4-0.1,0.5-0.2c0.2-0.1,0.3-0.1,0.5-0.2
			c0.2,0,0.4-0.1,0.6-0.1c0.5,0,0.9,0.1,1.3,0.2c0.4,0.2,0.8,0.2,1.2,0.2s0.7-0.1,1-0.4s0.4-0.7,0.4-1.2c0-0.4-0.1-0.7-0.4-1
			c-0.3-0.3-0.6-0.4-1.1-0.4c-0.3,0-0.6,0-1,0.1c-0.3,0.1-0.7,0.1-1,0.1c-0.5,0-0.8-0.2-1-0.7s-0.3-1.5-0.3-3L167,61L167,61z
			 M160,70.1c0.9,0.4,1.6,1,2.3,1.9c0.6,0.9,1,1.9,1.2,3c0.1,1.1,0.2,2.2,0.2,3.3c0,1-0.1,2.1-0.2,3.2c-0.1,1.1-0.4,2.1-0.8,3
			c-0.5,1-1.2,1.8-2.2,2.3s-2,0.7-3.1,0.7c-1.2,0-2.2-0.3-3.1-0.8s-1.5-1.2-2.1-2s-1-1.8-1.2-2.8c-0.2-1.1-0.4-2.1-0.4-3.2
			c0-1,0.1-2.1,0.3-3.2s0.6-2,1.1-2.9s1.2-1.6,2-2.1c0.8-0.6,1.9-0.8,3.1-0.8C158.1,69.5,159.1,69.7,160,70.1 M122.2,83.3
			c0,1.4-0.1,2.4-0.2,2.9c-0.1,0.5-0.5,0.8-1,0.8c-0.4,0-0.7,0-1-0.1s-0.6-0.1-1-0.1s-0.8,0.1-1.1,0.4s-0.4,0.6-0.4,1
			c0,1.1,0.6,1.6,1.9,1.6c0.8,0,1.5-0.1,2.1-0.2c0.6-0.2,1.5-0.2,2.5-0.2s1.8,0.1,2.4,0.2c0.6,0.2,1.3,0.2,2,0.2
			c1.2,0,1.9-0.5,1.9-1.6c0-0.4-0.1-0.7-0.4-1c-0.3-0.3-0.6-0.4-1.1-0.4c-0.3,0-0.6,0-1,0.1c-0.3,0.1-0.7,0.1-1,0.1
			c-0.5,0-0.8-0.3-1-0.8c-0.2-0.6-0.3-1.5-0.3-2.8v-5.1c0-1.1,0-2,0.1-2.7s0.2-1.3,0.3-1.7c0.1-0.4,0.2-0.8,0.3-1
			c0.1-0.3,0.3-0.5,0.4-0.7c0.6-0.8,1.3-1.5,2.3-1.9s2-0.6,3-0.6c0.9,0,1.8,0.2,2.7,0.6s1.6,1,2,1.8c0.2,0.3,0.3,0.7,0.4,1
			c0.1,0.3,0.2,0.6,0.2,1s0.1,0.8,0.1,1.3s0,1.1,0,1.8v6.4c0,1.4-0.1,2.4-0.2,2.9c-0.1,0.5-0.5,0.8-1,0.8c-0.4,0-0.7,0-1-0.1
			s-0.6-0.1-1-0.1s-0.8,0.1-1.1,0.4s-0.4,0.6-0.4,1c0,1,0.6,1.6,1.9,1.6c0.8,0,1.5-0.1,2.1-0.2c0.6-0.2,1.5-0.2,2.5-0.2
			s1.8,0.1,2.4,0.2c0.6,0.2,1.3,0.2,2,0.2c1.2,0,1.9-0.5,1.9-1.6c0-0.4-0.1-0.7-0.4-1c-0.3-0.3-0.6-0.4-1.1-0.4c-0.3,0-0.6,0-1,0.1
			c-0.3,0.1-0.7,0.1-1,0.1c-0.5,0-0.8-0.3-1-0.8c-0.2-0.6-0.3-1.5-0.3-2.8v-8.1c0-1.2-0.1-2.4-0.3-3.4c-0.2-1.1-0.8-2-1.7-2.9
			c-0.9-0.8-1.8-1.4-2.9-1.8c-1.1-0.4-2.2-0.6-3.4-0.6c-1.4,0-2.7,0.3-4,0.8s-2.4,1.3-3.2,2.5H125c0-0.8,0-1.5-0.1-1.9
			s-0.4-0.7-0.8-0.7c-0.3,0-0.5,0-0.7,0.1c-0.2,0-0.4,0.1-0.6,0.2c-0.2,0.1-0.4,0.1-0.6,0.2c-0.2,0-0.5,0.1-0.8,0.1s-0.5,0-0.7-0.1
			c-0.2,0-0.4-0.1-0.5-0.2c-0.2-0.1-0.3-0.1-0.5-0.2c-0.2,0-0.4-0.1-0.6-0.1c-0.4,0-0.7,0.2-1.1,0.5c-0.3,0.3-0.5,0.7-0.5,1.1
			s0.1,0.7,0.4,1c0.3,0.3,0.6,0.4,1.1,0.4c0.3,0,0.6,0,1-0.1c0.3-0.1,0.7-0.1,1-0.1c0.5,0,0.8,0.2,1,0.7s0.3,1.5,0.3,3v9.2H122.2z
			 M93.3,82.9c0,1.1,0.2,2.2,0.5,3.2s0.9,1.8,1.9,2.5c0.8,0.6,1.7,1.1,2.7,1.3c1,0.3,2,0.4,3,0.4c1.4,0,2.8-0.2,4-0.7s2.2-1.3,3-2.6
			h0.1c0,0.9,0,1.5,0.2,2c0.1,0.5,0.4,0.7,0.9,0.7c0.4,0,0.8-0.1,1.2-0.2c0.4-0.2,0.8-0.2,1.3-0.2c0.4,0,0.8,0.1,1.2,0.2
			c0.4,0.2,0.8,0.2,1.2,0.2c0.5,0,0.9-0.1,1.3-0.4s0.6-0.7,0.6-1.2c0-0.4-0.1-0.7-0.4-1s-0.6-0.4-1.1-0.4c-0.3,0-0.6,0-1,0.1
			s-0.7,0.1-1,0.1c-0.2,0-0.4-0.1-0.5-0.2c-0.2-0.1-0.3-0.3-0.4-0.5c-0.1-0.3-0.2-0.6-0.2-1.1c-0.1-0.5-0.1-1.1-0.1-1.8v-8.2
			c0-1.2,0-2.3,0.1-3.3c0-1,0.1-2.1,0.1-3.2c0-0.4-0.1-0.8-0.3-1.1c-0.2-0.3-0.5-0.4-1-0.4c-0.4,0-0.8,0.1-1.2,0.2
			c-0.4,0.2-0.8,0.2-1.2,0.2c-0.4,0-0.9-0.1-1.3-0.2c-0.4-0.2-0.9-0.2-1.4-0.2c-0.6,0-1,0.1-1.4,0.4s-0.6,0.7-0.6,1.2
			c0,0.4,0.1,0.7,0.4,1s0.6,0.4,1.1,0.4c0.3,0,0.6,0,1-0.1c0.3-0.1,0.7-0.1,1-0.1c0.4,0,0.8,0.3,1.1,0.8c0.3,0.6,0.5,1.5,0.5,2.8v3
			c0,0.5,0,1.1,0,1.7s0,1.3-0.1,1.9c0,0.7-0.1,1.3-0.2,1.9s-0.2,1.1-0.4,1.6c-0.4,1.3-1.1,2.3-2.2,2.8c-1,0.6-2.2,0.9-3.5,0.9
			c-0.5,0-1-0.1-1.6-0.2s-1-0.3-1.4-0.6c-0.4-0.3-0.8-0.6-1.2-1c-0.3-0.4-0.6-0.9-0.8-1.4c-0.1-0.4-0.2-0.8-0.3-1.3
			c-0.1-0.5-0.1-1-0.1-1.5s-0.1-1.1-0.1-1.6s0-1,0-1.4v-2c0-0.7,0-1.4,0-1.9s0.1-1.1,0.1-1.6c0-0.6,0.1-1.1,0.1-1.8
			c0-0.6,0-1.4,0-2.3c0-0.5-0.1-0.9-0.3-1.3c-0.2-0.3-0.6-0.5-1.2-0.5c-0.4,0-0.8,0.1-1.2,0.2c-0.4,0.2-0.8,0.2-1.2,0.2
			c-0.4,0-0.9-0.1-1.3-0.2c-0.4-0.2-0.8-0.2-1.2-0.2c-0.6,0-1.1,0.1-1.5,0.4s-0.6,0.7-0.6,1.2c0,0.4,0.1,0.7,0.4,1s0.6,0.4,1.1,0.4
			c0.3,0,0.6,0,1-0.1c0.3-0.1,0.7-0.1,1-0.1c0.5,0,0.8,0.3,1.1,0.8s0.4,1.5,0.4,2.9v9.5H93.3z M80.8,83.3c0,1.2-0.1,2.2-0.2,2.8
			c-0.2,0.6-0.5,0.9-1,0.9c-0.4,0-0.7,0-1-0.1s-0.6-0.1-1-0.1s-0.8,0.1-1.1,0.4c-0.3,0.3-0.4,0.6-0.4,1c0,0.5,0.2,0.9,0.6,1.2
			c0.4,0.3,0.8,0.4,1.3,0.4c0.4,0,0.7,0,1.1-0.1c0.3,0,0.7-0.1,1-0.2s0.7-0.1,1.1-0.2c0.4,0,0.9-0.1,1.3-0.1c0.5,0,1,0,1.4,0.1
			c0.4,0,0.8,0.1,1.1,0.2c0.3,0.1,0.7,0.1,1,0.2c0.3,0,0.6,0.1,1,0.1c0.5,0,0.9-0.1,1.3-0.4s0.6-0.7,0.6-1.2c0-0.4-0.1-0.7-0.4-1
			s-0.6-0.4-1.1-0.4c-0.3,0-0.6,0-1,0.1c-0.3,0.1-0.7,0.1-1,0.1c-0.2,0-0.3,0-0.5-0.1s-0.3-0.3-0.4-0.5c-0.1-0.3-0.2-0.6-0.3-1.1
			c-0.1-0.5-0.1-1.1-0.1-1.9V61.5c0-0.8-0.1-1.4-0.2-1.7c-0.1-0.4-0.5-0.5-1-0.5c-0.4,0-0.8,0.1-1.1,0.2c-0.3,0.2-0.7,0.2-1.3,0.2
			c-0.4,0-0.9-0.1-1.3-0.2c-0.4-0.2-1-0.2-1.6-0.2c-0.5,0-1,0.1-1.4,0.4s-0.6,0.7-0.6,1.2c0,0.4,0.1,0.7,0.4,1s0.6,0.4,1.1,0.4
			s0.9,0,1.3-0.1s0.7-0.1,1.1-0.1c0.1,0,0.3,0,0.5,0.1c0.2,0,0.3,0.2,0.4,0.4c0.1,0.2,0.2,0.6,0.3,1.1c0.1,0.5,0.1,1.2,0.1,2.1
			L80.8,83.3L80.8,83.3z M35.1,82.9c0,1.1,0.2,2.2,0.5,3.2s0.9,1.8,1.9,2.5c0.8,0.6,1.7,1.1,2.7,1.3c1,0.3,2,0.4,3,0.4
			c1.5,0,2.8-0.2,4-0.7s2.2-1.3,3-2.6h0.1c0,0.9,0,1.5,0.2,2c0.1,0.5,0.4,0.7,0.9,0.7c0.4,0,0.8-0.1,1.2-0.2
			c0.4-0.2,0.8-0.2,1.3-0.2c0.4,0,0.8,0.1,1.2,0.2c0.4,0.2,0.8,0.2,1.2,0.2c0.5,0,0.9-0.1,1.3-0.4s0.6-0.7,0.6-1.2
			c0-0.4-0.1-0.7-0.4-1s-0.6-0.4-1.1-0.4c-0.3,0-0.6,0-1,0.1s-0.7,0.1-1,0.1c-0.2,0-0.4-0.1-0.5-0.2c-0.2-0.1-0.3-0.3-0.4-0.5
			c-0.1-0.3-0.2-0.6-0.2-1.1c-0.1-0.5-0.1-1.1-0.1-1.8v-8.2c0-1.2,0-2.3,0.1-3.3c0-1,0.1-2.1,0.1-3.2c0-0.4-0.1-0.8-0.3-1.1
			c-0.2-0.3-0.5-0.4-1-0.4c-0.4,0-0.8,0.1-1.2,0.2c-0.4,0.2-0.8,0.2-1.2,0.2c-0.4,0-0.9-0.1-1.3-0.2c-0.4-0.2-0.9-0.2-1.4-0.2
			c-0.6,0-1,0.1-1.4,0.4s-0.6,0.7-0.6,1.2c0,0.4,0.1,0.7,0.4,1s0.6,0.4,1.1,0.4c0.3,0,0.6,0,1-0.1c0.3-0.1,0.7-0.1,1-0.1
			c0.4,0,0.8,0.3,1.1,0.8c0.3,0.6,0.5,1.5,0.5,2.8v3c0,0.5,0,1.1,0,1.7s0,1.3-0.1,1.9c0,0.7-0.1,1.3-0.2,1.9s-0.2,1.1-0.4,1.6
			c-0.4,1.3-1.1,2.3-2.2,2.8c-1,0.6-2.2,0.9-3.5,0.9c-0.5,0-1-0.1-1.6-0.2s-1-0.3-1.4-0.6c-0.4-0.3-0.8-0.6-1.2-1
			c-0.3-0.4-0.6-0.9-0.8-1.4c-0.1-0.4-0.2-0.8-0.3-1.3c-0.1-0.5-0.1-1-0.1-1.5s-0.1-1.1-0.1-1.6s0-1,0-1.4v-2c0-0.7,0-1.4,0-1.9
			s0.1-1.1,0.1-1.6s0.1-1.1,0.1-1.8c0-0.6,0-1.4,0-2.3c0-0.5-0.1-0.9-0.3-1.3c-0.2-0.3-0.6-0.5-1.2-0.5c-0.4,0-0.8,0.1-1.2,0.2
			c-0.4,0.2-0.8,0.2-1.2,0.2c-0.4,0-0.9-0.1-1.3-0.2c-0.4-0.2-0.8-0.2-1.2-0.2c-0.6,0-1.1,0.1-1.5,0.4s-0.6,0.7-0.6,1.2
			c0,0.4,0.1,0.7,0.4,1s0.6,0.4,1.1,0.4c0.3,0,0.6,0,1-0.1c0.3-0.1,0.7-0.1,1-0.1c0.5,0,0.8,0.3,1.1,0.8s0.4,1.5,0.4,2.9v9.5H35.1z
			 M26.1,61c0-0.8-0.1-1.3-0.2-1.5s-0.3-0.4-0.5-0.4c-0.4,0-0.8,0.1-1.2,0.2c-0.4,0.2-0.8,0.2-1.4,0.2s-1.1-0.1-1.5-0.2
			c-0.4-0.2-0.9-0.2-1.5-0.2c-0.4,0-0.8,0.1-1.1,0.4c-0.3,0.3-0.5,0.7-0.5,1.2c0,0.4,0.1,0.7,0.4,1s0.6,0.4,1.1,0.4
			c0.3,0,0.6,0,1-0.1c0.3-0.1,0.7-0.1,1-0.1c0.2,0,0.4,0,0.5,0.1c0.2,0.1,0.3,0.2,0.4,0.5s0.2,0.6,0.2,1.1c0.1,0.5,0.1,1.1,0.1,1.9
			v4.2h-0.1c-0.8-1.2-1.7-2.1-2.9-2.5c-1.2-0.5-2.5-0.7-3.8-0.7c-1.7,0-3.1,0.3-4.4,1c-1.2,0.7-2.3,1.5-3.1,2.6
			c-0.8,1.1-1.4,2.3-1.8,3.8c-0.4,1.4-0.6,2.9-0.6,4.4c0,1.6,0.2,3.1,0.6,4.5c0.4,1.5,1,2.7,1.9,3.9c0.8,1.1,1.9,2,3.2,2.7
			c1.3,0.7,2.8,1,4.5,1c1.3,0,2.5-0.2,3.8-0.7s2.2-1.3,2.9-2.4h0.1v0.4c0,0.8,0.1,1.4,0.3,1.7c0.2,0.3,0.6,0.4,1.2,0.4
			c0.3,0,0.5,0,0.7-0.1c0.2,0,0.4-0.1,0.5-0.2c0.2-0.1,0.3-0.1,0.5-0.2c0.2,0,0.4-0.1,0.6-0.1c0.5,0,0.9,0.1,1.3,0.2
			c0.4,0.2,0.8,0.2,1.2,0.2c0.4,0,0.7-0.1,1-0.4s0.4-0.7,0.4-1.2c0-0.4-0.1-0.7-0.4-1s-0.6-0.4-1.1-0.4c-0.3,0-0.6,0-1,0.1
			c-0.3,0.1-0.7,0.1-1,0.1c-0.5,0-0.8-0.2-1-0.7s-0.3-1.5-0.3-3L26.1,61L26.1,61z M19,70.1c0.9,0.4,1.6,1,2.3,1.9
			c0.6,0.9,1,1.9,1.2,3c0.1,1.1,0.2,2.2,0.2,3.3c0,1-0.1,2.1-0.2,3.2s-0.4,2.1-0.8,3c-0.5,1-1.2,1.8-2.2,2.3s-2,0.7-3.1,0.7
			c-1.2,0-2.2-0.3-3.1-0.8s-1.5-1.2-2.1-2s-1-1.8-1.2-2.8c-0.2-1.1-0.4-2.1-0.4-3.2c0-1,0.1-2.1,0.3-3.2c0.2-1.1,0.6-2,1.1-2.9
			s1.2-1.6,2-2.1c0.8-0.6,1.9-0.8,3.1-0.8C17.2,69.5,18.1,69.7,19,70.1"/>
	</g>
	<g>
		<defs>
			<rect id="SVGID_5_" x="6" y="7" width="468.2" height="135.6"/>
		</defs>
		<clipPath id="SVGID_6_">
			<use xlink:href="#SVGID_5_"  style="overflow:visible;"/>
		</clipPath>
		<path class="st2" d="M426.5,38.2c0.2,0,0.3,0.3,0.3,0.6c0,0.6-0.1,1.1-0.4,1.7c-0.3,0.6-0.6,1.2-1,1.7c-0.4,0.6-0.7,1-1,1.5
			c-0.3,0.4-0.4,0.7-0.4,0.9c0,0.2,0.1,0.4,0.3,0.6s0.4,0.3,0.6,0.3c0.3,0,0.5-0.1,0.8-0.3c0.3-0.2,0.5-0.5,0.8-0.8
			c0.2-0.3,0.5-0.6,0.7-0.9s0.4-0.5,0.5-0.7c0.6-0.8,1-1.8,1.4-2.9s0.5-2.1,0.5-3.1c0-0.5-0.1-1-0.2-1.6c-0.1-0.5-0.4-1-0.7-1.4
			s-0.7-0.8-1.1-1c-0.4-0.3-1-0.4-1.5-0.4c-0.9,0-1.7,0.3-2.3,0.8s-0.9,1.3-0.9,2.2c0,1,0.3,1.7,0.8,2.1s1.2,0.6,2.1,0.6
			C426.1,38.1,426.3,38.1,426.5,38.2 M410.8,28.1c0.5,0.1,1.1,0.3,1.5,0.6c0.4,0.3,0.8,0.6,1.1,1s0.4,1,0.4,1.7
			c0,0.6-0.1,1.1-0.4,1.6c-0.3,0.5-0.6,0.9-1.1,1.2c-0.5,0.4-1.1,0.7-1.7,0.8c-0.6,0.1-1.3,0.2-1.9,0.2c-0.4,0-0.9,0-1.5-0.1
			c-0.5-0.1-1.1-0.2-1.6-0.3c-0.5-0.2-1-0.3-1.5-0.6c-0.5-0.2-0.9-0.5-1.2-0.8c-0.2-0.2-0.4-0.4-0.5-0.6s-0.2-0.4-0.3-0.7
			c-0.1-0.3-0.1-0.6-0.2-1c0-0.4-0.1-0.9-0.2-1.6c0-0.6-0.2-0.9-0.4-1.1s-0.6-0.3-1-0.3c-0.5,0-0.9,0.1-1.1,0.4
			c-0.3,0.3-0.4,0.7-0.4,1.2c0,0.6,0.1,1.2,0.2,1.7c0.1,0.6,0.2,1.2,0.2,1.7c0,0.6-0.1,1.2-0.2,1.8c-0.1,0.6-0.2,1.2-0.2,1.8
			c0,0.5,0.1,0.9,0.4,1.3c0.3,0.4,0.7,0.5,1.3,0.5c0.5,0,0.9-0.2,1.2-0.6s0.4-1,0.3-1.8c0.9,0.8,1.9,1.3,3,1.6
			c1.1,0.3,2.2,0.5,3.4,0.5c1.1,0,2.2-0.1,3.3-0.4s2-0.7,2.9-1.3c0.9-0.6,1.5-1.3,2.1-2.2c0.5-0.9,0.8-2,0.8-3.2
			c0-1.1-0.2-2.1-0.6-2.8c-0.4-0.8-1-1.4-1.7-1.9c-0.8-0.5-1.7-0.9-2.8-1.2c-1.1-0.3-2.4-0.5-3.9-0.7c-1.9-0.2-3.2-0.6-4-1
			c-0.8-0.5-1.2-1.2-1.2-2.3c0-0.6,0.1-1.2,0.4-1.7c0.3-0.5,0.7-0.9,1.2-1.2c0.5-0.3,1-0.5,1.6-0.7s1.1-0.2,1.7-0.2
			c0.7,0,1.4,0.2,2.1,0.5c0.7,0.3,1.4,0.7,2,1.1c0.2,0.1,0.4,0.3,0.5,0.4s0.2,0.3,0.3,0.5s0.1,0.4,0.2,0.7c0,0.3,0,0.6,0,1
			c0,1.4,0.5,2.1,1.4,2.1c0.5,0,0.9-0.2,1.2-0.5s0.4-0.7,0.4-1.2s0-1.1-0.1-1.6s-0.1-1.1-0.1-1.6s0-1.1,0.1-1.6s0.1-1.1,0.1-1.6
			c0-1-0.5-1.4-1.5-1.4c-0.6,0-1,0.2-1.2,0.5c-0.2,0.4-0.3,0.8-0.2,1.3c-0.7-0.6-1.5-1-2.4-1.2s-1.8-0.3-2.7-0.3
			c-1.1,0-2.1,0.2-3.1,0.5s-1.9,0.7-2.7,1.3c-0.8,0.6-1.4,1.3-1.9,2.2c-0.5,0.9-0.7,1.9-0.7,3.1c0,1.3,0.3,2.4,0.9,3.2
			c0.6,0.8,1.4,1.4,2.3,1.8s2,0.7,3.1,0.9c1.1,0.2,2.2,0.3,3.2,0.5C409.7,27.9,410.2,28,410.8,28.1 M380.8,31.1c0,0.8,0,1.4-0.1,1.8
			c0,0.5-0.1,0.8-0.2,1.1c-0.1,0.3-0.2,0.4-0.4,0.5s-0.4,0.2-0.6,0.2c-0.4,0-0.7,0-1-0.1s-0.6-0.1-1-0.1s-0.8,0.1-1.1,0.4
			s-0.4,0.6-0.4,1c0,0.5,0.2,0.9,0.6,1.2c0.4,0.3,0.9,0.4,1.3,0.4c0.4,0,0.8,0,1.2-0.1c0.4,0,0.7-0.1,1.1-0.2
			c0.3-0.1,0.7-0.1,1.1-0.2c0.4,0,0.8-0.1,1.2-0.1c0.9,0,1.7,0.1,2.3,0.2c0.7,0.2,1.4,0.2,2.1,0.2c0.5,0,0.9-0.1,1.3-0.4
			c0.4-0.3,0.6-0.7,0.6-1.2c0-0.4-0.1-0.7-0.4-1c-0.3-0.3-0.6-0.4-1.1-0.4c-0.3,0-0.6,0-1,0.1c-0.3,0.1-0.7,0.1-1,0.1
			c-0.2,0-0.4,0-0.5-0.1c-0.2-0.1-0.3-0.3-0.4-0.5c-0.1-0.3-0.2-0.6-0.3-1.1s-0.1-1.1-0.1-1.9v-5.8c0-1.6,0.1-2.9,0.4-3.9
			c0.3-1.1,0.6-1.9,1.1-2.5s1.1-1.1,1.7-1.3c0.7-0.3,1.4-0.4,2.3-0.4c0.4,0,0.9,0.1,1.4,0.2s0.9,0.3,1.2,0.6c0.4,0.3,0.7,0.6,0.9,1
			s0.4,0.8,0.4,1.3c0,0.3-0.1,0.7-0.3,1c-0.1,0-0.2-0.1-0.3-0.1s-0.2,0-0.3,0c-0.5,0-0.9,0.2-1.3,0.6c-0.3,0.4-0.5,0.8-0.5,1.3
			c0,0.6,0.2,1.1,0.7,1.5s1,0.6,1.6,0.6c0.7,0,1.2-0.1,1.7-0.4s0.8-0.6,1.1-1s0.5-0.9,0.6-1.4s0.2-1.1,0.2-1.6c0-1-0.2-1.9-0.6-2.6
			c-0.4-0.8-0.9-1.4-1.5-1.9s-1.4-0.9-2.2-1.2c-0.9-0.3-1.7-0.4-2.6-0.4c-1.3,0-2.5,0.3-3.5,0.8c-1.1,0.5-1.9,1.4-2.6,2.5h-0.1
			c0-0.9,0-1.5-0.2-2c-0.1-0.5-0.5-0.7-1.1-0.7c-0.4,0-0.8,0.1-1.1,0.2c-0.3,0.2-0.8,0.2-1.3,0.2s-1-0.1-1.3-0.2
			c-0.4-0.2-0.8-0.2-1.2-0.2c-0.5,0-0.9,0.1-1.3,0.4c-0.4,0.3-0.6,0.7-0.6,1.2c0,0.4,0.1,0.7,0.4,1c0.3,0.3,0.6,0.4,1.1,0.4
			c0.6,0,1.1,0,1.4-0.1s0.7-0.1,1.1-0.1c0.5,0,0.8,0.2,1,0.7s0.3,1.5,0.3,2.9L380.8,31.1L380.8,31.1z M351.4,30.7
			c0,1.1,0.2,2.2,0.5,3.2s0.9,1.8,1.9,2.5c0.8,0.6,1.7,1.1,2.7,1.3c1,0.3,2,0.4,3,0.4c1.4,0,2.8-0.2,4-0.7s2.2-1.3,3-2.6h0.1
			c0,0.9,0,1.5,0.2,2c0.1,0.4,0.4,0.7,0.9,0.7c0.4,0,0.8-0.1,1.2-0.2c0.4-0.2,0.8-0.2,1.3-0.2c0.4,0,0.8,0.1,1.2,0.2
			c0.4,0.2,0.8,0.2,1.2,0.2c0.5,0,0.9-0.1,1.3-0.4c0.4-0.3,0.6-0.7,0.6-1.2c0-0.4-0.1-0.7-0.4-1c-0.3-0.3-0.6-0.4-1.1-0.4
			c-0.3,0-0.6,0-1,0.1c-0.3,0.1-0.7,0.1-1,0.1c-0.2,0-0.4,0-0.5-0.2c-0.2-0.1-0.3-0.3-0.4-0.5c-0.1-0.3-0.2-0.6-0.2-1.1
			c-0.1-0.5-0.1-1.1-0.1-1.8v-8.2c0-1.2,0-2.3,0.1-3.3c0-1,0.1-2.1,0.1-3.2c0-0.4-0.1-0.8-0.3-1.1c-0.2-0.3-0.5-0.4-1-0.4
			c-0.4,0-0.8,0.1-1.2,0.2c-0.4,0.2-0.8,0.2-1.2,0.2s-0.9-0.1-1.3-0.2c-0.4-0.2-0.9-0.2-1.4-0.2c-0.6,0-1,0.1-1.4,0.4
			s-0.6,0.7-0.6,1.2c0,0.4,0.1,0.7,0.4,1c0.3,0.3,0.6,0.4,1.1,0.4c0.3,0,0.6,0,1-0.1c0.3-0.1,0.7-0.1,1-0.1c0.4,0,0.8,0.3,1.1,0.8
			c0.3,0.6,0.5,1.5,0.5,2.8v3c0,0.5,0,1.1,0,1.7s0,1.3-0.1,1.9c0,0.7-0.1,1.3-0.2,1.9c-0.1,0.6-0.2,1.1-0.4,1.6
			c-0.4,1.3-1.1,2.3-2.2,2.9s-2.2,0.9-3.5,0.9c-0.5,0-1-0.1-1.6-0.2c-0.5-0.1-1-0.3-1.4-0.6c-0.4-0.3-0.8-0.6-1.2-1
			c-0.3-0.4-0.6-0.9-0.8-1.4c-0.1-0.4-0.2-0.8-0.3-1.3s-0.1-1-0.1-1.5s-0.1-1.1-0.1-1.6s0-1,0-1.4v-2c0-0.7,0-1.4,0-1.9
			s0.1-1.1,0.1-1.6s0.1-1.1,0.1-1.8c0-0.6,0-1.4,0-2.3c0-0.5-0.1-0.9-0.3-1.3c-0.2-0.3-0.6-0.5-1.2-0.5c-0.4,0-0.8,0.1-1.2,0.2
			c-0.4,0.2-0.8,0.2-1.2,0.2s-0.9-0.1-1.3-0.2c-0.4-0.2-0.8-0.2-1.2-0.2c-0.6,0-1.1,0.1-1.5,0.4s-0.6,0.7-0.6,1.2
			c0,0.4,0.1,0.7,0.4,1c0.3,0.3,0.6,0.4,1.1,0.4c0.3,0,0.6,0,1-0.1c0.3-0.1,0.7-0.1,1-0.1c0.5,0,0.8,0.3,1.1,0.8s0.4,1.5,0.4,2.9
			L351.4,30.7L351.4,30.7z M324.7,30.9c0.4,1.4,1.1,2.7,1.9,3.8c0.9,1.1,1.9,2,3.2,2.6s2.8,1,4.5,1c1.8,0,3.3-0.3,4.7-0.9
			c1.3-0.6,2.5-1.5,3.3-2.6c0.9-1.1,1.6-2.4,2-3.8c0.5-1.5,0.7-3,0.7-4.7c0-1.5-0.2-3-0.7-4.5c-0.4-1.5-1.1-2.9-2.1-4
			c-1-1.2-2.2-2.1-3.6-2.6c-1.4-0.5-2.8-0.7-4.4-0.7c-1.7,0-3.3,0.3-4.6,1s-2.4,1.5-3.2,2.6c-0.9,1.1-1.5,2.4-1.9,3.8
			c-0.4,1.5-0.6,3-0.6,4.6S324.3,29.4,324.7,30.9 M328.1,23.1c0.2-1.1,0.6-2,1.1-2.9c0.6-1.1,1.4-1.8,2.3-2.3c0.9-0.5,2-0.7,3.2-0.7
			c1,0,2,0.2,3,0.6c0.9,0.4,1.7,1,2.3,2c0.6,0.9,1,1.9,1.2,3s0.3,2.2,0.3,3.2c0,1.2-0.1,2.3-0.3,3.4s-0.6,2.1-1.2,3
			c-0.6,0.9-1.3,1.6-2.2,2.1s-2,0.8-3.4,0.8c-1.3,0-2.3-0.3-3.2-0.8s-1.5-1.2-2.1-2.1c-0.5-0.9-0.9-1.8-1.1-2.9
			c-0.2-1.1-0.3-2.1-0.3-3.2C327.7,25.2,327.8,24.2,328.1,23.1 M315.3,36.5c0,0.8,0,1.7-0.1,2.5s-0.3,1.5-0.6,2.2
			c-0.3,0.6-0.8,1.1-1.4,1.5c-0.6,0.4-1.5,0.6-2.5,0.6c-0.5,0-1-0.1-1.3-0.2c-0.4-0.1-0.7-0.4-1.2-0.7c0.2-0.2,0.4-0.4,0.5-0.7
			c0.1-0.3,0.2-0.6,0.2-0.9c0-0.6-0.2-1-0.7-1.3c-0.4-0.3-0.9-0.5-1.4-0.5c-0.7,0-1.2,0.2-1.6,0.7c-0.4,0.5-0.6,1.1-0.6,1.7
			c0,0.8,0.2,1.5,0.6,2.1c0.4,0.6,0.9,1,1.5,1.4s1.3,0.6,2,0.8s1.4,0.3,2.1,0.3c1.3,0,2.5-0.3,3.7-0.8s2.1-1.3,2.8-2.4
			c0.6-1,1-2,1.1-3.1s0.2-2.2,0.2-3.3V22.5c0-1,0.1-2,0.2-3c0.1-1,0.2-2,0.2-2.9c0-0.5-0.1-0.9-0.2-1.1c-0.2-0.2-0.4-0.4-0.8-0.4
			c-0.5,0-0.9,0.1-1.3,0.2c-0.4,0.2-0.8,0.2-1.4,0.2c-0.6,0-1.1-0.1-1.4-0.2c-0.4-0.2-0.8-0.2-1.4-0.2c-0.5,0-0.9,0.1-1.3,0.4
			c-0.4,0.3-0.6,0.7-0.6,1.2c0,0.4,0.1,0.7,0.4,1c0.3,0.3,0.6,0.4,1.1,0.4c0.3,0,0.6,0,1-0.1c0.3-0.1,0.7-0.1,1-0.1
			c0.2,0,0.4,0,0.5,0.1s0.3,0.3,0.4,0.5c0.1,0.3,0.2,0.6,0.3,1.1s0.1,1.1,0.1,1.9L315.3,36.5L315.3,36.5z M314.7,8.4
			c-0.5,0.5-0.7,1.1-0.7,1.8c0,0.7,0.2,1.2,0.7,1.7s1.1,0.7,1.8,0.7s1.3-0.2,1.8-0.7s0.7-1.1,0.7-1.7c0-0.7-0.2-1.3-0.7-1.8
			s-1.1-0.7-1.8-0.7S315.2,7.9,314.7,8.4 M285.1,28.1c0.6,0.1,1.1,0.3,1.5,0.6c0.4,0.3,0.8,0.6,1.1,1s0.4,1,0.4,1.7
			c0,0.6-0.1,1.1-0.4,1.6c-0.3,0.5-0.6,0.9-1.1,1.2c-0.5,0.4-1.1,0.7-1.7,0.8c-0.6,0.1-1.3,0.2-1.9,0.2c-0.4,0-0.9,0-1.5-0.1
			c-0.5-0.1-1.1-0.2-1.6-0.3c-0.5-0.2-1-0.3-1.5-0.6c-0.5-0.2-0.9-0.5-1.2-0.8c-0.2-0.2-0.4-0.4-0.5-0.6s-0.2-0.4-0.3-0.7
			c-0.1-0.3-0.1-0.6-0.2-1c0-0.4-0.1-0.9-0.2-1.6c0-0.6-0.2-0.9-0.4-1.1s-0.6-0.3-1-0.3c-0.5,0-0.9,0.1-1.1,0.4
			c-0.3,0.3-0.4,0.7-0.4,1.2c0,0.6,0.1,1.2,0.2,1.7c0.1,0.6,0.2,1.2,0.2,1.7c0,0.6-0.1,1.2-0.2,1.8c-0.1,0.6-0.2,1.2-0.2,1.8
			c0,0.5,0.1,0.9,0.4,1.3c0.3,0.4,0.7,0.5,1.3,0.5c0.5,0,0.9-0.2,1.2-0.6s0.4-1,0.3-1.8c0.9,0.8,1.9,1.3,3,1.6
			c1.1,0.3,2.2,0.5,3.4,0.5c1.1,0,2.2-0.1,3.3-0.4s2-0.7,2.9-1.3c0.9-0.6,1.5-1.3,2.1-2.2c0.5-0.9,0.8-2,0.8-3.2
			c0-1.1-0.2-2.1-0.6-2.8c-0.4-0.8-1-1.4-1.7-1.9c-0.8-0.5-1.7-0.9-2.8-1.2c-1.1-0.3-2.4-0.5-3.9-0.7c-1.9-0.2-3.2-0.6-4-1
			c-0.8-0.5-1.2-1.2-1.2-2.3c0-0.6,0.1-1.2,0.4-1.7c0.3-0.5,0.7-0.9,1.2-1.2c0.5-0.3,1-0.5,1.6-0.7s1.1-0.2,1.7-0.2
			c0.7,0,1.4,0.2,2.1,0.5c0.7,0.3,1.4,0.7,2,1.1c0.2,0.1,0.4,0.3,0.5,0.4s0.2,0.3,0.3,0.5s0.1,0.4,0.2,0.7c0,0.3,0,0.6,0,1
			c0,1.4,0.5,2.1,1.4,2.1c0.5,0,0.9-0.2,1.2-0.5s0.4-0.7,0.4-1.2s0-1.1-0.1-1.6s-0.1-1.1-0.1-1.6s0-1.1,0.1-1.6s0.1-1.1,0.1-1.6
			c0-1-0.5-1.4-1.5-1.4c-0.6,0-1,0.2-1.2,0.5c-0.2,0.4-0.3,0.8-0.2,1.3c-0.7-0.6-1.5-1-2.4-1.2s-1.8-0.3-2.7-0.3
			c-1.1,0-2.1,0.2-3.1,0.5s-1.9,0.7-2.7,1.3c-0.8,0.6-1.4,1.3-1.9,2.2c-0.5,0.9-0.7,1.9-0.7,3.1c0,1.3,0.3,2.4,0.9,3.2
			c0.6,0.8,1.4,1.4,2.3,1.8c0.9,0.4,2,0.7,3.1,0.9c1.1,0.2,2.2,0.3,3.2,0.5C284,27.9,284.5,28,285.1,28.1 M267.6,26.7
			c0.5,0,0.9,0,1.2-0.1c0.3,0,0.5-0.1,0.6-0.3c0.1-0.2,0.2-0.4,0.2-0.7c0-0.3,0-0.7,0-1.3c0-1.4-0.2-2.8-0.7-4s-1.2-2.3-2-3.2
			c-0.9-0.9-1.9-1.6-3.1-2.1s-2.5-0.8-4-0.8c-1.6,0-3,0.3-4.4,1s-2.6,1.6-3.6,2.8c-0.9,1.2-1.6,2.5-2,4s-0.6,3-0.6,4.5
			c0,1.6,0.2,3.1,0.7,4.5s1.1,2.6,2,3.7s2,1.9,3.2,2.5c1.3,0.6,2.8,0.9,4.5,0.9c1.2,0,2.5-0.2,3.8-0.6s2.4-1,3.3-1.9
			c0.6-0.6,1.2-1.3,1.8-2.3c0.5-0.9,0.8-1.8,0.8-2.7c0-0.5-0.2-0.9-0.5-1.2c-0.3-0.3-0.7-0.5-1.2-0.5c-0.6,0-1,0.2-1.2,0.6
			s-0.4,0.8-0.5,1.3c-0.4,1.4-1.1,2.5-2.2,3.2c-1.1,0.7-2.3,1.1-3.8,1.1c-1.2,0-2.2-0.2-3.1-0.7c-0.9-0.5-1.6-1.1-2.2-1.9
			c-0.6-0.8-1-1.7-1.3-2.7s-0.4-2.1-0.3-3.2h14.6V26.7z M253.3,23.6c0.1-0.9,0.3-1.7,0.7-2.5c0.3-0.8,0.8-1.5,1.4-2
			c0.6-0.6,1.3-1,2.1-1.3s1.6-0.5,2.6-0.5s1.8,0.2,2.5,0.5s1.4,0.8,1.9,1.3c0.5,0.6,0.9,1.2,1.2,2s0.4,1.6,0.5,2.5H253.3z
			 M239.7,31.1c0,1.2-0.1,2.2-0.2,2.8c-0.2,0.6-0.5,0.9-1,0.9c-0.4,0-0.7,0-1-0.1s-0.6-0.1-1-0.1s-0.8,0.1-1.1,0.4s-0.4,0.6-0.4,1
			c0,0.5,0.2,0.9,0.6,1.2c0.4,0.3,0.8,0.4,1.3,0.4c0.4,0,0.7,0,1.1-0.1c0.3,0,0.7-0.1,1-0.2s0.7-0.1,1.1-0.2c0.4,0,0.9-0.1,1.3-0.1
			c0.5,0,1,0,1.4,0.1c0.4,0,0.8,0.1,1.1,0.2s0.7,0.1,1,0.2c0.3,0,0.6,0.1,1,0.1c0.5,0,0.9-0.1,1.3-0.4c0.4-0.3,0.6-0.7,0.6-1.2
			c0-0.4-0.1-0.7-0.4-1c-0.3-0.3-0.6-0.4-1.1-0.4c-0.3,0-0.6,0-1,0.1c-0.3,0.1-0.7,0.1-1,0.1c-0.2,0-0.3,0-0.5-0.1s-0.3-0.3-0.4-0.5
			c-0.1-0.3-0.2-0.6-0.3-1.1S243,32,243,31.2V9.3c0-0.8-0.1-1.4-0.2-1.7c-0.1-0.4-0.5-0.5-1-0.5c-0.4,0-0.8,0.1-1.1,0.2
			c-0.3,0.2-0.7,0.2-1.3,0.2c-0.4,0-0.9-0.1-1.3-0.2c-0.4-0.2-1-0.2-1.6-0.2c-0.5,0-1,0.1-1.4,0.4s-0.6,0.7-0.6,1.2
			c0,0.4,0.1,0.7,0.4,1c0.3,0.3,0.6,0.4,1.1,0.4s0.9,0,1.3-0.1c0.4-0.1,0.7-0.1,1.1-0.1c0.1,0,0.3,0,0.5,0.1c0.2,0,0.3,0.2,0.4,0.4
			c0.1,0.2,0.2,0.6,0.3,1.1s0.1,1.2,0.1,2.1L239.7,31.1L239.7,31.1z M208.5,28.1c0.5,0.1,1.1,0.3,1.5,0.6c0.4,0.3,0.8,0.6,1.1,1
			s0.4,1,0.4,1.7c0,0.6-0.1,1.1-0.4,1.6c-0.3,0.5-0.6,0.9-1.1,1.2c-0.5,0.4-1.1,0.7-1.7,0.8c-0.6,0.1-1.3,0.2-1.9,0.2
			c-0.4,0-0.9,0-1.5-0.1c-0.5-0.1-1.1-0.2-1.6-0.3c-0.5-0.2-1-0.3-1.5-0.6c-0.5-0.2-0.9-0.5-1.2-0.8c-0.2-0.2-0.4-0.4-0.5-0.6
			s-0.2-0.4-0.3-0.7c-0.1-0.3-0.1-0.6-0.2-1c0-0.4-0.1-0.9-0.2-1.6c0-0.6-0.2-0.9-0.4-1.1s-0.6-0.3-1-0.3c-0.5,0-0.9,0.1-1.1,0.4
			c-0.3,0.3-0.4,0.7-0.4,1.2c0,0.6,0.1,1.2,0.2,1.7c0.1,0.6,0.2,1.2,0.2,1.7c0,0.6-0.1,1.2-0.2,1.8c-0.1,0.6-0.2,1.2-0.2,1.8
			c0,0.5,0.1,0.9,0.4,1.3c0.3,0.4,0.7,0.5,1.3,0.5c0.5,0,0.9-0.2,1.2-0.6s0.4-1,0.3-1.8c0.9,0.8,1.9,1.3,3,1.6
			c1.1,0.3,2.2,0.5,3.4,0.5c1.1,0,2.2-0.1,3.3-0.4s2-0.7,2.9-1.3c0.9-0.6,1.5-1.3,2.1-2.2c0.5-0.9,0.8-2,0.8-3.2
			c0-1.1-0.2-2.1-0.6-2.8c-0.4-0.8-1-1.4-1.7-1.9c-0.8-0.5-1.7-0.9-2.8-1.2c-1.1-0.3-2.4-0.5-3.9-0.7c-1.9-0.2-3.2-0.6-4-1
			s-1.2-1.2-1.2-2.3c0-0.6,0.1-1.2,0.4-1.7c0.3-0.5,0.7-0.9,1.2-1.2c0.5-0.3,1-0.5,1.6-0.7s1.1-0.2,1.7-0.2c0.7,0,1.4,0.2,2.1,0.5
			c0.7,0.3,1.4,0.7,2,1.1c0.2,0.1,0.4,0.3,0.5,0.4s0.2,0.3,0.3,0.5s0.1,0.4,0.2,0.7c0,0.3,0,0.6,0,1c0,1.4,0.5,2.1,1.4,2.1
			c0.5,0,0.9-0.2,1.2-0.5s0.4-0.7,0.4-1.2s0-1.1-0.1-1.6s-0.1-1.1-0.1-1.6s0-1.1,0.1-1.6s0.1-1.1,0.1-1.6c0-1-0.5-1.4-1.5-1.4
			c-0.6,0-1,0.2-1.2,0.5c-0.2,0.4-0.3,0.8-0.2,1.3c-0.7-0.6-1.5-1-2.4-1.2s-1.8-0.3-2.7-0.3c-1.1,0-2.1,0.2-3.1,0.5
			s-1.9,0.7-2.7,1.3c-0.8,0.6-1.4,1.3-1.9,2.2c-0.5,0.9-0.7,1.9-0.7,3.1c0,1.3,0.3,2.4,0.9,3.2c0.6,0.8,1.4,1.4,2.3,1.8
			s1.9,0.7,3.1,0.9c1.1,0.2,2.2,0.3,3.2,0.5C207.4,27.9,208,28,208.5,28.1 M171.3,30.7c0,1.1,0.2,2.2,0.5,3.2s0.9,1.8,1.9,2.5
			c0.8,0.6,1.7,1.1,2.7,1.3s2,0.4,3,0.4c1.5,0,2.8-0.2,4-0.7s2.2-1.3,3-2.6h0.1c0,0.9,0,1.5,0.2,2c0.1,0.4,0.4,0.7,0.9,0.7
			c0.4,0,0.8-0.1,1.2-0.2c0.4-0.2,0.8-0.2,1.3-0.2c0.4,0,0.8,0.1,1.2,0.2c0.4,0.2,0.8,0.2,1.2,0.2c0.5,0,0.9-0.1,1.3-0.4
			c0.4-0.3,0.6-0.7,0.6-1.2c0-0.4-0.1-0.7-0.4-1c-0.3-0.3-0.6-0.4-1.1-0.4c-0.3,0-0.6,0-1,0.1c-0.3,0.1-0.7,0.1-1,0.1
			c-0.2,0-0.4,0-0.5-0.2c-0.2-0.1-0.3-0.3-0.4-0.5c-0.1-0.3-0.2-0.6-0.2-1.1c-0.1-0.5-0.1-1.1-0.1-1.8v-8.2c0-1.2,0-2.3,0.1-3.3
			c0-1,0.1-2.1,0.1-3.2c0-0.4-0.1-0.8-0.3-1.1c-0.2-0.3-0.5-0.4-1-0.4c-0.4,0-0.8,0.1-1.2,0.2c-0.4,0.2-0.8,0.2-1.2,0.2
			s-0.9-0.1-1.3-0.2s-0.9-0.2-1.4-0.2c-0.6,0-1,0.1-1.4,0.4s-0.6,0.7-0.6,1.2c0,0.4,0.1,0.7,0.4,1c0.3,0.3,0.6,0.4,1.1,0.4
			c0.3,0,0.6,0,1-0.1c0.3-0.1,0.7-0.1,1-0.1c0.4,0,0.8,0.3,1.1,0.8c0.3,0.6,0.5,1.5,0.5,2.8v3c0,0.5,0,1.1,0,1.7s0,1.3-0.1,1.9
			c0,0.7-0.1,1.3-0.2,1.9c-0.1,0.6-0.2,1.1-0.4,1.6c-0.4,1.3-1.1,2.3-2.2,2.9s-2.2,0.9-3.5,0.9c-0.5,0-1-0.1-1.6-0.2
			c-0.5-0.1-1-0.3-1.4-0.6c-0.4-0.3-0.8-0.6-1.2-1c-0.3-0.4-0.6-0.9-0.8-1.4c-0.1-0.4-0.2-0.8-0.3-1.3s-0.1-1-0.1-1.5
			s-0.1-1.1-0.1-1.6s0-1,0-1.4v-2c0-0.7,0-1.4,0-1.9s0.1-1.1,0.1-1.6s0.1-1.1,0.1-1.8c0-0.6,0-1.4,0-2.3c0-0.5-0.1-0.9-0.3-1.3
			c-0.2-0.3-0.6-0.5-1.2-0.5c-0.4,0-0.8,0.1-1.2,0.2c-0.4,0.2-0.8,0.2-1.2,0.2s-0.9-0.1-1.3-0.2c-0.4-0.2-0.8-0.2-1.2-0.2
			c-0.6,0-1.1,0.1-1.5,0.4s-0.6,0.7-0.6,1.2c0,0.4,0.1,0.7,0.4,1c0.3,0.3,0.6,0.4,1.1,0.4c0.3,0,0.6,0,1-0.1c0.3-0.1,0.7-0.1,1-0.1
			c0.5,0,0.8,0.3,1.1,0.8s0.4,1.5,0.4,2.9L171.3,30.7L171.3,30.7z M144.6,30.9c0.4,1.4,1.1,2.7,1.9,3.8c0.9,1.1,1.9,2,3.2,2.6
			s2.8,1,4.5,1c1.8,0,3.3-0.3,4.7-0.9c1.3-0.6,2.5-1.5,3.3-2.6c0.9-1.1,1.6-2.4,2-3.8c0.5-1.5,0.7-3,0.7-4.7c0-1.5-0.2-3-0.7-4.5
			s-1.1-2.9-2.1-4c-1-1.2-2.2-2.1-3.6-2.6c-1.4-0.5-2.8-0.7-4.4-0.7c-1.7,0-3.3,0.3-4.6,1s-2.4,1.5-3.2,2.6
			c-0.9,1.1-1.5,2.4-1.9,3.8c-0.4,1.5-0.6,3-0.6,4.6S144.2,29.4,144.6,30.9 M148,23.1c0.2-1.1,0.6-2,1.1-2.9
			c0.6-1.1,1.4-1.8,2.3-2.3c0.9-0.5,2-0.7,3.2-0.7c1,0,2,0.2,3,0.6c0.9,0.4,1.7,1,2.3,2c0.6,0.9,1,1.9,1.2,3s0.3,2.2,0.3,3.2
			c0,1.2-0.1,2.3-0.3,3.4s-0.6,2.1-1.2,3c-0.6,0.9-1.3,1.6-2.2,2.1s-2,0.8-3.4,0.8c-1.3,0-2.3-0.3-3.2-0.8s-1.5-1.2-2.1-2.1
			c-0.5-0.9-0.9-1.8-1.1-2.9c-0.2-1.1-0.3-2.1-0.3-3.2S147.7,24.2,148,23.1 M131.4,13.6c0-0.5,0.1-1.1,0.2-1.7c0.1-0.6,0.5-1,1-1.3
			s0.9-0.4,1.4-0.5c0.5,0,1-0.1,1.5-0.1c0.6,0,1.1,0,1.6,0.1s0.9,0.2,1.3,0.4c0.3,0.2,0.6,0.5,0.8,0.9s0.3,1,0.3,1.7
			c0,0.5,0,1,0,1.4s-0.1,0.8-0.1,1.1c0,0.4-0.1,0.7-0.1,1.1s0,0.8,0,1.2c0,1,0.1,1.6,0.4,1.8c0.3,0.2,0.7,0.3,1.3,0.3
			c0.5,0,0.9-0.2,1.2-0.5s0.5-0.9,0.5-1.6c0-0.4,0-0.7-0.1-1c0-0.3-0.1-0.6-0.1-0.9s-0.1-0.6-0.1-0.9s0-0.6,0-1
			c0-0.8,0.1-1.6,0.2-2.4c0.1-0.8,0.2-1.6,0.2-2.4s-0.2-1.3-0.5-1.6c-0.4-0.3-0.8-0.5-1.3-0.5c-1.6,0-3.2,0.1-5,0.2
			c-1.8,0.2-3.8,0.2-6.2,0.2s-4.4-0.1-6.2-0.2c-1.8-0.2-3.5-0.2-5-0.2c-0.5,0-0.9,0.2-1.3,0.5c-0.4,0.3-0.5,0.8-0.5,1.6
			c0,0.8,0.1,1.6,0.2,2.4c0.1,0.8,0.2,1.6,0.2,2.4c0,0.4,0,0.7-0.1,1c0,0.3-0.1,0.6-0.1,0.9s-0.1,0.6-0.1,0.9s0,0.6,0,1
			c0,0.8,0.2,1.3,0.5,1.6c0.3,0.3,0.7,0.5,1.2,0.5c0.6,0,1-0.1,1.3-0.3c0.3-0.2,0.4-0.8,0.4-1.8c0-0.5,0-0.9,0-1.2
			c0-0.4-0.1-0.7-0.1-1.1s-0.1-0.7-0.1-1.1s0-0.8,0-1.4c0-0.7,0.1-1.2,0.3-1.7c0.2-0.4,0.5-0.7,0.8-0.9c0.3-0.2,0.8-0.4,1.2-0.4
			c0.5-0.1,1-0.1,1.6-0.1c0.5,0,1,0,1.5,0.1c0.5,0,0.9,0.2,1.4,0.5s0.8,0.8,1,1.3c0.1,0.6,0.2,1.1,0.2,1.7v14.1V29c0,0.5,0,1,0,1.5
			s0,1-0.1,1.5s-0.1,0.9-0.1,1.2c-0.1,0.6-0.4,1-0.7,1.2c-0.4,0.2-0.8,0.4-1.4,0.4c-0.3,0-0.7,0-1-0.1s-0.7-0.1-1-0.1
			c-0.4,0-0.7,0.1-1,0.4s-0.4,0.6-0.4,1c0,0.5,0.2,0.9,0.5,1.2c0.3,0.3,0.8,0.4,1.3,0.4s1,0,1.4-0.1c0.4,0,0.8-0.1,1.2-0.2
			s0.9-0.1,1.4-0.2c0.5,0,1.1-0.1,1.8-0.1s1.3,0,1.8,0.1c0.5,0,1,0.1,1.4,0.2s0.8,0.1,1.2,0.2c0.4,0,0.9,0.1,1.4,0.1
			c0.6,0,1-0.1,1.3-0.4s0.5-0.7,0.5-1.2c0-0.4-0.1-0.8-0.4-1c-0.3-0.3-0.6-0.4-1-0.4c-0.3,0-0.7,0-1,0.1s-0.7,0.1-1,0.1
			c-0.6,0-1.1-0.1-1.4-0.4c-0.4-0.2-0.6-0.7-0.7-1.2c-0.1-0.3-0.1-0.7-0.1-1.2s-0.1-1-0.1-1.5s0-1,0-1.5v-1.3V13.6H131.4z
			 M91.8,18.1c-0.6,0.6-0.8,1.2-0.8,2s0.3,1.4,0.8,2c0.6,0.5,1.2,0.8,2,0.8s1.4-0.3,2-0.8c0.5-0.5,0.8-1.2,0.8-2s-0.3-1.4-0.8-2
			c-0.6-0.6-1.2-0.8-2-0.8C93.1,17.3,92.4,17.6,91.8,18.1 M91.8,32.8c-0.6,0.6-0.8,1.2-0.8,2s0.3,1.5,0.8,2c0.6,0.6,1.2,0.8,2,0.8
			s1.4-0.3,2-0.8c0.5-0.5,0.8-1.2,0.8-2s-0.3-1.4-0.8-2c-0.6-0.6-1.2-0.8-2-0.8C93.1,32,92.4,32.3,91.8,32.8 M74.9,29.2
			c0-1-0.1-2-0.2-2.8s-0.4-1.5-0.8-2.2c-0.4-0.6-0.9-1.1-1.6-1.5s-1.6-0.6-2.7-0.8v-0.1c1-0.2,2-0.4,2.8-0.8
			c0.8-0.3,1.6-0.8,2.1-1.4c0.6-0.6,1-1.3,1.3-2.1s0.5-1.8,0.5-2.9c0-1.2-0.3-2.4-0.8-3.5s-1.3-2-2.4-2.7c-0.9-0.6-2-1-3.2-1.1
			c-1.2-0.2-2.4-0.2-3.5-0.2c-1,0-2.1,0.1-3.3,0.2c-1.3,0.2-2.8,0.2-4.7,0.2c-1.1,0-2.2-0.1-3.3-0.2c-1.1-0.2-2.3-0.2-3.6-0.2
			c-0.5,0-0.9,0.1-1.3,0.4s-0.6,0.7-0.6,1.2c0,0.4,0.1,0.8,0.4,1c0.3,0.3,0.6,0.4,1,0.4c0.3,0,0.7,0,1-0.1s0.7-0.1,1-0.1
			c1.2,0,1.9,0.5,2.1,1.6c0.1,0.3,0.1,0.7,0.2,1.2c0,0.5,0,1,0,1.5v1.5V17v10.7V29v1.5c0,0.5,0,1,0,1.4c0,0.5-0.1,0.9-0.2,1.2
			c-0.3,1.1-1,1.6-2.1,1.6c-0.3,0-0.7,0-1-0.1s-0.7-0.1-1-0.1c-0.4,0-0.7,0.1-1,0.4s-0.4,0.6-0.4,1c0,0.5,0.2,0.9,0.6,1.2
			c0.4,0.3,0.8,0.4,1.3,0.4c1.1,0,2-0.1,2.9-0.2c0.9-0.2,1.8-0.2,2.9-0.2s2.1,0.1,3.1,0.2c0.9,0.2,1.9,0.2,2.8,0.2
			c0.5,0,0.9-0.1,1.3-0.4s0.6-0.6,0.6-1.2c0-0.4-0.1-0.7-0.4-1s-0.6-0.4-1-0.4c-0.3,0-0.7,0-1,0.1s-0.7,0.1-1,0.1
			c-1.2,0-1.9-0.5-2.1-1.6c0-0.1-0.1-0.3-0.1-0.6c0-0.2-0.1-0.5-0.1-0.9s0-0.9,0-1.5s0-1.4,0-2.4v-2.2c0-0.9,0.3-1.5,1-1.7
			c0.6-0.2,1.7-0.4,3.2-0.4c1.1,0,1.9,0,2.6,0s1.2,0.1,1.6,0.1c0.4,0.1,0.8,0.1,1,0.2c0.3,0.1,0.5,0.2,0.8,0.4
			c0.4,0.3,0.7,0.6,0.9,0.9c0.2,0.3,0.4,0.7,0.5,1.1s0.2,0.8,0.2,1.3c0,0.4,0,0.9,0,1.3v2.7c0,0.8,0.1,1.5,0.2,2.2s0.4,1.3,0.7,1.8
			c0.3,0.5,0.8,0.9,1.4,1.3c0.6,0.3,1.3,0.5,2.2,0.5c0.8,0,1.5,0,2.1,0.1c0.5,0,1.1,0.1,1.8,0.1c0.5,0,0.9-0.2,1.2-0.5
			c0.3-0.3,0.5-0.7,0.5-1.2s-0.2-0.9-0.5-1.2c-0.3-0.3-0.7-0.4-1.2-0.4c-0.3,0-0.7,0-1,0.1s-0.7,0.1-1,0.1c-0.6,0-1.1-0.1-1.4-0.2
			s-0.6-0.4-0.7-0.6s-0.3-0.6-0.3-1s0-0.8,0-1.3v-2H74.9z M59.4,12.2c0-0.4,0.1-0.8,0.3-1.1c0.2-0.3,0.5-0.6,1-0.8
			c0.5-0.2,1.1-0.4,1.9-0.5s1.8-0.2,3-0.2c1,0,1.9,0.1,2.7,0.2c0.8,0.2,1.6,0.4,2.2,0.9c0.6,0.4,1.1,0.9,1.5,1.6
			c0.3,0.7,0.5,1.5,0.5,2.6c0,0.9-0.2,1.8-0.5,2.6c-0.3,0.8-0.9,1.5-1.7,1.9c-0.8,0.4-1.8,0.7-2.9,0.8s-2.1,0.1-3.1,0.1h-3.6
			c-0.6,0-1-0.1-1.1-0.2s-0.2-0.4-0.2-1L59.4,12.2L59.4,12.2z"/>
	</g>
</g>
</svg>
